%TF.GenerationSoftware,KiCad,Pcbnew,(6.0.4-0)*%
%TF.CreationDate,2022-12-11T03:25:18+01:00*%
%TF.ProjectId,Gigaset-Debug-Adapter,47696761-7365-4742-9d44-656275672d41,rev?*%
%TF.SameCoordinates,Original*%
%TF.FileFunction,Paste,Top*%
%TF.FilePolarity,Positive*%
%FSLAX46Y46*%
G04 Gerber Fmt 4.6, Leading zero omitted, Abs format (unit mm)*
G04 Created by KiCad (PCBNEW (6.0.4-0)) date 2022-12-11 03:25:18*
%MOMM*%
%LPD*%
G01*
G04 APERTURE LIST*
G04 Aperture macros list*
%AMRoundRect*
0 Rectangle with rounded corners*
0 $1 Rounding radius*
0 $2 $3 $4 $5 $6 $7 $8 $9 X,Y pos of 4 corners*
0 Add a 4 corners polygon primitive as box body*
4,1,4,$2,$3,$4,$5,$6,$7,$8,$9,$2,$3,0*
0 Add four circle primitives for the rounded corners*
1,1,$1+$1,$2,$3*
1,1,$1+$1,$4,$5*
1,1,$1+$1,$6,$7*
1,1,$1+$1,$8,$9*
0 Add four rect primitives between the rounded corners*
20,1,$1+$1,$2,$3,$4,$5,0*
20,1,$1+$1,$4,$5,$6,$7,0*
20,1,$1+$1,$6,$7,$8,$9,0*
20,1,$1+$1,$8,$9,$2,$3,0*%
G04 Aperture macros list end*
%ADD10RoundRect,0.000000X-2.032000X3.048000X-2.032000X-3.048000X2.032000X-3.048000X2.032000X3.048000X0*%
%ADD11RoundRect,0.250000X0.275000X0.275000X-0.275000X0.275000X-0.275000X-0.275000X0.275000X-0.275000X0*%
%ADD12RoundRect,0.000000X0.330000X0.100000X-0.330000X0.100000X-0.330000X-0.100000X0.330000X-0.100000X0*%
%ADD13RoundRect,0.037500X0.062500X0.292500X-0.062500X0.292500X-0.062500X-0.292500X0.062500X-0.292500X0*%
%ADD14RoundRect,0.017500X-0.222500X0.512500X-0.222500X-0.512500X0.222500X-0.512500X0.222500X0.512500X0*%
%ADD15RoundRect,0.135000X-0.225000X-0.245000X0.225000X-0.245000X0.225000X0.245000X-0.225000X0.245000X0*%
%ADD16RoundRect,0.081000X0.175000X-0.135000X0.175000X0.135000X-0.175000X0.135000X-0.175000X-0.135000X0*%
%ADD17RoundRect,0.084000X-0.164000X0.140000X-0.164000X-0.140000X0.164000X-0.140000X0.164000X0.140000X0*%
%ADD18RoundRect,0.081000X-0.175000X0.135000X-0.175000X-0.135000X0.175000X-0.135000X0.175000X0.135000X0*%
%ADD19RoundRect,0.131250X-0.348750X0.218750X-0.348750X-0.218750X0.348750X-0.218750X0.348750X0.218750X0*%
%ADD20RoundRect,0.084000X0.164000X-0.140000X0.164000X0.140000X-0.164000X0.140000X-0.164000X-0.140000X0*%
%ADD21RoundRect,0.084000X-0.140000X-0.164000X0.140000X-0.164000X0.140000X0.164000X-0.140000X0.164000X0*%
%ADD22RoundRect,0.135000X0.225000X0.245000X-0.225000X0.245000X-0.225000X-0.245000X0.225000X-0.245000X0*%
%ADD23RoundRect,0.131250X-0.218750X-0.248750X0.218750X-0.248750X0.218750X0.248750X-0.218750X0.248750X0*%
%ADD24RoundRect,0.002500X0.237500X-0.587500X0.237500X0.587500X-0.237500X0.587500X-0.237500X-0.587500X0*%
%ADD25RoundRect,0.081000X-0.135000X-0.175000X0.135000X-0.175000X0.135000X0.175000X-0.135000X0.175000X0*%
%ADD26RoundRect,0.017500X-0.512500X-0.222500X0.512500X-0.222500X0.512500X0.222500X-0.512500X0.222500X0*%
%ADD27RoundRect,0.084000X0.140000X0.164000X-0.140000X0.164000X-0.140000X-0.164000X0.140000X-0.164000X0*%
%ADD28RoundRect,0.137500X0.562500X-0.312500X0.562500X0.312500X-0.562500X0.312500X-0.562500X-0.312500X0*%
%ADD29RoundRect,0.081000X0.135000X0.175000X-0.135000X0.175000X-0.135000X-0.175000X0.135000X-0.175000X0*%
%ADD30R,0.240000X0.720000*%
%ADD31RoundRect,0.135000X0.425000X-0.325000X0.425000X0.325000X-0.425000X0.325000X-0.425000X-0.325000X0*%
%ADD32RoundRect,0.135000X0.585000X-0.325000X0.585000X0.325000X-0.585000X0.325000X-0.585000X-0.325000X0*%
G04 APERTURE END LIST*
D10*
%TO.C,TP3*%
X86220000Y-46600000D03*
%TD*%
D11*
%TO.C,U1*%
X73450000Y-69850000D03*
X73450000Y-68550000D03*
X74750000Y-69850000D03*
X74750000Y-68550000D03*
D12*
X76037500Y-70450000D03*
X76037500Y-69950000D03*
X76037500Y-69450000D03*
X76037500Y-68950000D03*
X76037500Y-68450000D03*
X76037500Y-67950000D03*
D13*
X75350000Y-67262500D03*
X74850000Y-67262500D03*
X74350000Y-67262500D03*
X73850000Y-67262500D03*
X73350000Y-67262500D03*
X72850000Y-67262500D03*
D12*
X72162500Y-67950000D03*
X72162500Y-68450000D03*
X72162500Y-68950000D03*
X72162500Y-69450000D03*
X72162500Y-69950000D03*
X72162500Y-70450000D03*
D13*
X72850000Y-71137500D03*
X73350000Y-71137500D03*
X73850000Y-71137500D03*
X74350000Y-71137500D03*
X74850000Y-71137500D03*
X75350000Y-71137500D03*
%TD*%
D14*
%TO.C,U3*%
X88930000Y-68072500D03*
X87980000Y-68072500D03*
X87030000Y-68072500D03*
X87030000Y-70347500D03*
X88930000Y-70347500D03*
%TD*%
D15*
%TO.C,C7*%
X85065000Y-71990000D03*
X86615000Y-71990000D03*
%TD*%
D16*
%TO.C,R4*%
X88800000Y-74710000D03*
X88800000Y-73690000D03*
%TD*%
D17*
%TO.C,C2*%
X77200000Y-70020000D03*
X77200000Y-70980000D03*
%TD*%
D18*
%TO.C,R2*%
X73300000Y-73690000D03*
X73300000Y-74710000D03*
%TD*%
D19*
%TO.C,FB1*%
X82140000Y-46597500D03*
X82140000Y-48722500D03*
%TD*%
D20*
%TO.C,C9*%
X86050000Y-56580000D03*
X86050000Y-55620000D03*
%TD*%
D21*
%TO.C,C6*%
X76120000Y-66100000D03*
X77080000Y-66100000D03*
%TD*%
D22*
%TO.C,C8*%
X89565000Y-72000000D03*
X88015000Y-72000000D03*
%TD*%
D23*
%TO.C,D1*%
X72712500Y-81100000D03*
X74287500Y-81100000D03*
%TD*%
D16*
%TO.C,R3*%
X71800000Y-74710000D03*
X71800000Y-73690000D03*
%TD*%
D17*
%TO.C,C4*%
X77200000Y-67420000D03*
X77200000Y-68380000D03*
%TD*%
D24*
%TO.C,Q3*%
X72600000Y-57000000D03*
X74500000Y-57000000D03*
X73550000Y-55125000D03*
%TD*%
D16*
%TO.C,R12*%
X73300000Y-77210000D03*
X73300000Y-76190000D03*
%TD*%
D24*
%TO.C,U4*%
X77600000Y-57037500D03*
X79500000Y-57037500D03*
X78550000Y-55162500D03*
%TD*%
D25*
%TO.C,R8*%
X74290000Y-72300000D03*
X75310000Y-72300000D03*
%TD*%
D16*
%TO.C,R7*%
X71800000Y-77210000D03*
X71800000Y-76190000D03*
%TD*%
D17*
%TO.C,C13*%
X81050000Y-55620000D03*
X81050000Y-56580000D03*
%TD*%
D23*
%TO.C,D3*%
X77312500Y-81100000D03*
X78887500Y-81100000D03*
%TD*%
%TO.C,D2*%
X81812500Y-81100000D03*
X83387500Y-81100000D03*
%TD*%
D26*
%TO.C,U2*%
X79904500Y-70050000D03*
X79904500Y-71000000D03*
X79904500Y-71950000D03*
X82179500Y-71950000D03*
X82179500Y-71000000D03*
X82179500Y-70050000D03*
%TD*%
D27*
%TO.C,C5*%
X77080000Y-72300000D03*
X76120000Y-72300000D03*
%TD*%
D28*
%TO.C,R1*%
X86500000Y-76892160D03*
X86500000Y-73967160D03*
%TD*%
D22*
%TO.C,C10*%
X86625000Y-66430000D03*
X85075000Y-66430000D03*
%TD*%
D29*
%TO.C,R14*%
X73410000Y-72300000D03*
X72390000Y-72300000D03*
%TD*%
D18*
%TO.C,R10*%
X83550000Y-57290000D03*
X83550000Y-58310000D03*
%TD*%
D30*
%TO.C,J1*%
X78300000Y-74689660D03*
X78800000Y-74689660D03*
X79300000Y-74689660D03*
X79800000Y-74689660D03*
X80300000Y-74689660D03*
X80800000Y-74689660D03*
X81300000Y-74689660D03*
X81800000Y-74689660D03*
X82300000Y-74689660D03*
X82800000Y-74689660D03*
X83300000Y-74689660D03*
X83800000Y-74689660D03*
X83800000Y-76189660D03*
X83300000Y-76189660D03*
X82800000Y-76189660D03*
X82300000Y-76189660D03*
X81800000Y-76189660D03*
X81300000Y-76189660D03*
X80800000Y-76189660D03*
X80300000Y-76189660D03*
X79800000Y-76189660D03*
X79300000Y-76189660D03*
X78800000Y-76189660D03*
X78300000Y-76189660D03*
%TD*%
D29*
%TO.C,R6*%
X73410000Y-66100000D03*
X72390000Y-66100000D03*
%TD*%
D18*
%TO.C,R17*%
X90150000Y-67580001D03*
X90150000Y-68600001D03*
%TD*%
D24*
%TO.C,Q2*%
X87600000Y-57037500D03*
X89500000Y-57037500D03*
X88550000Y-55162500D03*
%TD*%
D16*
%TO.C,R15*%
X90300000Y-77210000D03*
X90300000Y-76190000D03*
%TD*%
D27*
%TO.C,C3*%
X75280000Y-66100000D03*
X74320000Y-66100000D03*
%TD*%
D31*
%TO.C,L1*%
X85320000Y-70025000D03*
X85320000Y-67975000D03*
%TD*%
D18*
%TO.C,R13*%
X88550000Y-57290000D03*
X88550000Y-58310000D03*
%TD*%
%TO.C,R5*%
X90300000Y-73690000D03*
X90300000Y-74710000D03*
%TD*%
%TO.C,R16*%
X73550000Y-57240000D03*
X73550000Y-58260000D03*
%TD*%
D20*
%TO.C,C11*%
X76050000Y-56530000D03*
X76050000Y-55570000D03*
%TD*%
D18*
%TO.C,R9*%
X78550000Y-57290000D03*
X78550000Y-58310000D03*
%TD*%
D10*
%TO.C,TP4*%
X75860000Y-46600000D03*
%TD*%
D32*
%TO.C,C1*%
X75600000Y-76924660D03*
X75600000Y-73974660D03*
%TD*%
D16*
%TO.C,R18*%
X90150000Y-70658058D03*
X90150000Y-69638058D03*
%TD*%
D24*
%TO.C,Q1*%
X82600000Y-57037500D03*
X84500000Y-57037500D03*
X83550000Y-55162500D03*
%TD*%
D23*
%TO.C,D4*%
X86312500Y-81100000D03*
X87887500Y-81100000D03*
%TD*%
D16*
%TO.C,R11*%
X88800000Y-77210000D03*
X88800000Y-76190000D03*
%TD*%
D15*
%TO.C,C12*%
X88045000Y-66430000D03*
X89595000Y-66430000D03*
%TD*%
M02*
