%TF.GenerationSoftware,KiCad,Pcbnew,(6.0.9)*%
%TF.CreationDate,2022-12-23T14:19:27+01:00*%
%TF.ProjectId,Gigaset-Debug-Adapter,47696761-7365-4742-9d44-656275672d41,rev?*%
%TF.SameCoordinates,Original*%
%TF.FileFunction,Copper,L2,Inr*%
%TF.FilePolarity,Positive*%
%FSLAX46Y46*%
G04 Gerber Fmt 4.6, Leading zero omitted, Abs format (unit mm)*
G04 Created by KiCad (PCBNEW (6.0.9)) date 2022-12-23 14:19:27*
%MOMM*%
%LPD*%
G01*
G04 APERTURE LIST*
%TA.AperFunction,ComponentPad*%
%ADD10C,1.900000*%
%TD*%
%TA.AperFunction,ComponentPad*%
%ADD11C,1.200000*%
%TD*%
%TA.AperFunction,ViaPad*%
%ADD12C,0.450000*%
%TD*%
%TA.AperFunction,Conductor*%
%ADD13C,0.127000*%
%TD*%
%TA.AperFunction,Conductor*%
%ADD14C,0.254000*%
%TD*%
G04 APERTURE END LIST*
D10*
%TO.N,/DECT_TX*%
%TO.C,TP2*%
X82542000Y-67599508D03*
%TD*%
%TO.N,/DECT_RX*%
%TO.C,TP1*%
X79494000Y-67599508D03*
%TD*%
D11*
%TO.N,Net-(C1-Pad2)*%
%TO.C,J1*%
X78650000Y-77589660D03*
X83450000Y-77589660D03*
X83450000Y-73289660D03*
X78650000Y-73289660D03*
%TD*%
D12*
%TO.N,GND*%
X86050000Y-57250000D03*
X79790000Y-46600000D03*
X77450000Y-76550000D03*
X87980000Y-67170000D03*
X71500000Y-81100000D03*
X89570000Y-71200001D03*
X78842000Y-71000000D03*
X76150000Y-67400000D03*
X84200000Y-76040000D03*
X87310000Y-66430000D03*
X90300000Y-73100000D03*
X72450000Y-74700000D03*
X74100000Y-69150000D03*
X84200000Y-74890000D03*
X75600000Y-76100000D03*
X76850000Y-70350000D03*
X77450000Y-71650000D03*
X77900000Y-76000000D03*
X80320000Y-46600000D03*
X86900000Y-76000000D03*
X85750000Y-71300000D03*
X77900000Y-74850000D03*
X85100000Y-81100000D03*
X76050000Y-57200000D03*
X84650000Y-74340000D03*
X74100000Y-65550000D03*
X84650000Y-76540000D03*
X77100000Y-66700000D03*
X77450000Y-74350000D03*
%TO.N,VBUS*%
X83142000Y-71000000D03*
X75500000Y-65550000D03*
X82500000Y-73800000D03*
X87030000Y-71270000D03*
X71800000Y-75600000D03*
X79800000Y-76950000D03*
X76500000Y-71000000D03*
X87310000Y-71990000D03*
X77550000Y-55800000D03*
X87300000Y-69300000D03*
X73950000Y-74700000D03*
X81900000Y-73800000D03*
%TO.N,Net-(J1-PadA5)*%
X89650000Y-74700000D03*
X79800000Y-73700000D03*
%TO.N,/3V_EN*%
X82600000Y-55850000D03*
X89550000Y-68100000D03*
X77100000Y-58000000D03*
%TO.N,Net-(J1-PadB5)*%
X88150000Y-74700000D03*
X81900000Y-77150000D03*
%TO.N,Net-(C10-Pad2)*%
X88860000Y-66440000D03*
X85810000Y-66420000D03*
X82370000Y-47740000D03*
X81910000Y-48050000D03*
%TO.N,+3V0*%
X81980000Y-47280000D03*
X90300000Y-75600000D03*
%TO.N,+3V3*%
X88800000Y-75600000D03*
X73300000Y-75600000D03*
X76500000Y-66550000D03*
X76800000Y-71600000D03*
X73800000Y-56500000D03*
%TO.N,+1V8*%
X79800000Y-56150000D03*
X76850000Y-68050000D03*
X74500000Y-55900000D03*
X89500000Y-58300000D03*
X72300000Y-66800000D03*
X81050000Y-57250000D03*
X76200000Y-71550000D03*
%TO.N,Net-(D2-Pad1)*%
X80600000Y-81100000D03*
X71750000Y-67100000D03*
%TO.N,Net-(D3-Pad1)*%
X76100000Y-81100000D03*
X72300000Y-67400000D03*
%TO.N,Net-(Q1-Pad2)*%
X83550000Y-56700000D03*
X72300000Y-71000000D03*
%TO.N,Net-(Q2-Pad2)*%
X78550000Y-56700000D03*
X89500000Y-55950000D03*
X75900000Y-71000000D03*
%TO.N,Net-(R2-Pad1)*%
X74800000Y-65450000D03*
X71800000Y-73100000D03*
%TO.N,/D+*%
X81300000Y-76879660D03*
X80800000Y-73989660D03*
X83542000Y-71500000D03*
X81142000Y-71500000D03*
X77900000Y-69600000D03*
%TO.N,/D-*%
X77900000Y-68800000D03*
X83542000Y-70500000D03*
X80800000Y-77300000D03*
X81142000Y-70500000D03*
%TO.N,Net-(Q2-Pad3)*%
X72400000Y-55850000D03*
X87750000Y-55900000D03*
X71900000Y-71500000D03*
X73100000Y-55950000D03*
%TO.N,/DECT_TX*%
X73850000Y-72900000D03*
X81050000Y-69850000D03*
%TO.N,Net-(R17-Pad2)*%
X89600000Y-70160000D03*
X89600000Y-68780000D03*
%TD*%
D13*
%TO.N,VBUS*%
X76500000Y-71000000D02*
X76050000Y-70550000D01*
X75700000Y-70550000D02*
X75350000Y-70900000D01*
X75350000Y-70900000D02*
X75350000Y-73300000D01*
X76050000Y-70550000D02*
X75700000Y-70550000D01*
X75350000Y-73300000D02*
X73950000Y-74700000D01*
D14*
%TO.N,Net-(C1-Pad2)*%
X78650000Y-73289660D02*
X78650000Y-77650000D01*
X83450000Y-77589660D02*
X83450000Y-73300000D01*
%TD*%
%TA.AperFunction,Conductor*%
%TO.N,GND*%
G36*
X90881194Y-42768806D02*
G01*
X90899500Y-42813000D01*
X90899500Y-80588591D01*
X90881194Y-80632785D01*
X90837000Y-80651091D01*
X90792806Y-80632785D01*
X90789263Y-80628932D01*
X90732164Y-80561364D01*
X90676106Y-80495029D01*
X90597044Y-80434581D01*
X90535442Y-80387483D01*
X90532758Y-80385431D01*
X90369220Y-80309172D01*
X90365920Y-80308434D01*
X90365919Y-80308434D01*
X90195626Y-80270369D01*
X90195627Y-80270369D01*
X90193121Y-80269809D01*
X90189782Y-80269622D01*
X90188458Y-80269548D01*
X90188447Y-80269548D01*
X90187594Y-80269500D01*
X90054923Y-80269500D01*
X89954129Y-80280450D01*
X89923979Y-80283725D01*
X89923978Y-80283725D01*
X89920611Y-80284091D01*
X89917406Y-80285170D01*
X89917404Y-80285170D01*
X89841834Y-80310602D01*
X89749591Y-80341645D01*
X89594920Y-80434581D01*
X89463813Y-80558563D01*
X89362388Y-80707805D01*
X89295377Y-80875345D01*
X89265906Y-81053367D01*
X89266083Y-81056748D01*
X89266083Y-81056752D01*
X89273907Y-81206048D01*
X89275349Y-81233564D01*
X89323268Y-81407530D01*
X89324846Y-81410523D01*
X89324848Y-81410528D01*
X89341100Y-81441352D01*
X89407424Y-81567148D01*
X89523894Y-81704971D01*
X89526582Y-81707026D01*
X89526583Y-81707027D01*
X89605238Y-81767163D01*
X89667242Y-81814569D01*
X89690440Y-81825387D01*
X89701097Y-81830356D01*
X89733414Y-81865624D01*
X89731327Y-81913414D01*
X89696059Y-81945731D01*
X89674683Y-81949500D01*
X71243000Y-81949500D01*
X71198806Y-81931194D01*
X71180500Y-81887000D01*
X71180500Y-81100000D01*
X75741081Y-81100000D01*
X75758648Y-81210912D01*
X75809628Y-81310967D01*
X75889033Y-81390372D01*
X75893414Y-81392604D01*
X75893415Y-81392605D01*
X75916302Y-81404266D01*
X75989088Y-81441352D01*
X76100000Y-81458919D01*
X76210912Y-81441352D01*
X76283698Y-81404266D01*
X76306585Y-81392605D01*
X76306586Y-81392604D01*
X76310967Y-81390372D01*
X76390372Y-81310967D01*
X76441352Y-81210912D01*
X76458919Y-81100000D01*
X80241081Y-81100000D01*
X80258648Y-81210912D01*
X80309628Y-81310967D01*
X80389033Y-81390372D01*
X80393414Y-81392604D01*
X80393415Y-81392605D01*
X80416302Y-81404266D01*
X80489088Y-81441352D01*
X80600000Y-81458919D01*
X80710912Y-81441352D01*
X80783698Y-81404266D01*
X80806585Y-81392605D01*
X80806586Y-81392604D01*
X80810967Y-81390372D01*
X80890372Y-81310967D01*
X80941352Y-81210912D01*
X80958919Y-81100000D01*
X80941352Y-80989088D01*
X80890372Y-80889033D01*
X80810967Y-80809628D01*
X80806586Y-80807396D01*
X80806585Y-80807395D01*
X80715298Y-80760883D01*
X80715299Y-80760883D01*
X80710912Y-80758648D01*
X80600000Y-80741081D01*
X80489088Y-80758648D01*
X80484701Y-80760883D01*
X80484702Y-80760883D01*
X80393415Y-80807395D01*
X80393414Y-80807396D01*
X80389033Y-80809628D01*
X80309628Y-80889033D01*
X80258648Y-80989088D01*
X80241081Y-81100000D01*
X76458919Y-81100000D01*
X76441352Y-80989088D01*
X76390372Y-80889033D01*
X76310967Y-80809628D01*
X76306586Y-80807396D01*
X76306585Y-80807395D01*
X76215298Y-80760883D01*
X76215299Y-80760883D01*
X76210912Y-80758648D01*
X76100000Y-80741081D01*
X75989088Y-80758648D01*
X75984701Y-80760883D01*
X75984702Y-80760883D01*
X75893415Y-80807395D01*
X75893414Y-80807396D01*
X75889033Y-80809628D01*
X75809628Y-80889033D01*
X75758648Y-80989088D01*
X75741081Y-81100000D01*
X71180500Y-81100000D01*
X71180500Y-77579438D01*
X77917968Y-77579438D01*
X77933895Y-77741873D01*
X77934997Y-77745185D01*
X77934997Y-77745186D01*
X77944913Y-77774993D01*
X77985413Y-77896742D01*
X77987223Y-77899731D01*
X77987225Y-77899735D01*
X78003866Y-77927212D01*
X78069962Y-78036349D01*
X78183340Y-78153755D01*
X78319911Y-78243125D01*
X78472888Y-78300016D01*
X78476343Y-78300477D01*
X78476347Y-78300478D01*
X78566518Y-78312509D01*
X78634668Y-78321602D01*
X78638141Y-78321286D01*
X78638144Y-78321286D01*
X78715939Y-78314206D01*
X78797210Y-78306810D01*
X78952435Y-78256374D01*
X79022532Y-78214588D01*
X79089627Y-78174592D01*
X79089630Y-78174590D01*
X79092629Y-78172802D01*
X79155552Y-78112881D01*
X79208294Y-78062656D01*
X79208297Y-78062653D01*
X79210823Y-78060247D01*
X79301144Y-77924303D01*
X79359103Y-77771727D01*
X79381818Y-77610102D01*
X79382103Y-77589660D01*
X79381793Y-77586894D01*
X79364300Y-77430937D01*
X79364299Y-77430933D01*
X79363910Y-77427464D01*
X79310234Y-77273329D01*
X79223744Y-77134916D01*
X79108739Y-77019104D01*
X79050750Y-76982303D01*
X78999849Y-76950000D01*
X79441081Y-76950000D01*
X79458648Y-77060912D01*
X79460883Y-77065298D01*
X79497937Y-77138021D01*
X79509628Y-77160967D01*
X79589033Y-77240372D01*
X79593414Y-77242604D01*
X79593415Y-77242605D01*
X79635683Y-77264141D01*
X79689088Y-77291352D01*
X79800000Y-77308919D01*
X79856312Y-77300000D01*
X80441081Y-77300000D01*
X80458648Y-77410912D01*
X80509628Y-77510967D01*
X80589033Y-77590372D01*
X80593414Y-77592604D01*
X80593415Y-77592605D01*
X80623901Y-77608138D01*
X80689088Y-77641352D01*
X80800000Y-77658919D01*
X80910912Y-77641352D01*
X80976099Y-77608138D01*
X81006585Y-77592605D01*
X81006586Y-77592604D01*
X81010967Y-77590372D01*
X81090372Y-77510967D01*
X81141352Y-77410912D01*
X81158919Y-77300000D01*
X81158150Y-77295143D01*
X81158150Y-77290220D01*
X81160892Y-77290220D01*
X81169918Y-77252551D01*
X81210694Y-77227540D01*
X81230272Y-77227535D01*
X81300000Y-77238579D01*
X81410912Y-77221012D01*
X81465122Y-77193391D01*
X81512808Y-77189638D01*
X81549183Y-77220704D01*
X81555225Y-77239301D01*
X81558648Y-77260912D01*
X81609628Y-77360967D01*
X81689033Y-77440372D01*
X81693414Y-77442604D01*
X81693415Y-77442605D01*
X81742333Y-77467530D01*
X81789088Y-77491352D01*
X81900000Y-77508919D01*
X82010912Y-77491352D01*
X82057667Y-77467530D01*
X82106585Y-77442605D01*
X82106586Y-77442604D01*
X82110967Y-77440372D01*
X82190372Y-77360967D01*
X82241352Y-77260912D01*
X82258919Y-77150000D01*
X82241352Y-77039088D01*
X82190372Y-76939033D01*
X82110967Y-76859628D01*
X82106586Y-76857396D01*
X82106585Y-76857395D01*
X82015298Y-76810883D01*
X82015299Y-76810883D01*
X82010912Y-76808648D01*
X81900000Y-76791081D01*
X81789088Y-76808648D01*
X81734878Y-76836269D01*
X81687192Y-76840022D01*
X81650817Y-76808956D01*
X81644775Y-76790359D01*
X81642122Y-76773611D01*
X81641352Y-76768748D01*
X81590372Y-76668693D01*
X81510967Y-76589288D01*
X81506586Y-76587056D01*
X81506585Y-76587055D01*
X81415298Y-76540543D01*
X81415299Y-76540543D01*
X81410912Y-76538308D01*
X81300000Y-76520741D01*
X81189088Y-76538308D01*
X81184701Y-76540543D01*
X81184702Y-76540543D01*
X81093415Y-76587055D01*
X81093414Y-76587056D01*
X81089033Y-76589288D01*
X81009628Y-76668693D01*
X80958648Y-76768748D01*
X80941081Y-76879660D01*
X80941850Y-76884517D01*
X80941850Y-76889440D01*
X80939108Y-76889440D01*
X80930082Y-76927109D01*
X80889306Y-76952120D01*
X80869728Y-76952125D01*
X80800000Y-76941081D01*
X80689088Y-76958648D01*
X80684701Y-76960883D01*
X80684702Y-76960883D01*
X80593415Y-77007395D01*
X80593414Y-77007396D01*
X80589033Y-77009628D01*
X80509628Y-77089033D01*
X80458648Y-77189088D01*
X80441081Y-77300000D01*
X79856312Y-77300000D01*
X79910912Y-77291352D01*
X79964317Y-77264141D01*
X80006585Y-77242605D01*
X80006586Y-77242604D01*
X80010967Y-77240372D01*
X80090372Y-77160967D01*
X80102064Y-77138021D01*
X80139117Y-77065298D01*
X80141352Y-77060912D01*
X80158919Y-76950000D01*
X80141352Y-76839088D01*
X80107990Y-76773611D01*
X80092605Y-76743415D01*
X80092604Y-76743414D01*
X80090372Y-76739033D01*
X80010967Y-76659628D01*
X80006586Y-76657396D01*
X80006585Y-76657395D01*
X79915298Y-76610883D01*
X79915299Y-76610883D01*
X79910912Y-76608648D01*
X79800000Y-76591081D01*
X79689088Y-76608648D01*
X79684701Y-76610883D01*
X79684702Y-76610883D01*
X79593415Y-76657395D01*
X79593414Y-76657396D01*
X79589033Y-76659628D01*
X79509628Y-76739033D01*
X79507396Y-76743414D01*
X79507395Y-76743415D01*
X79492010Y-76773611D01*
X79458648Y-76839088D01*
X79441081Y-76950000D01*
X78999849Y-76950000D01*
X78973879Y-76933519D01*
X78973875Y-76933517D01*
X78970933Y-76931650D01*
X78946035Y-76922784D01*
X78910542Y-76890714D01*
X78904500Y-76863905D01*
X78904500Y-74017358D01*
X78922806Y-73973164D01*
X78945964Y-73958973D01*
X78945930Y-73958897D01*
X78946537Y-73958621D01*
X78947687Y-73957917D01*
X78949109Y-73957455D01*
X78949111Y-73957454D01*
X78952435Y-73956374D01*
X79036858Y-73906048D01*
X79089627Y-73874592D01*
X79089630Y-73874590D01*
X79092629Y-73872802D01*
X79163973Y-73804862D01*
X79208294Y-73762656D01*
X79208297Y-73762653D01*
X79210823Y-73760247D01*
X79250851Y-73700000D01*
X79441081Y-73700000D01*
X79458648Y-73810912D01*
X79479197Y-73851243D01*
X79507122Y-73906048D01*
X79509628Y-73910967D01*
X79589033Y-73990372D01*
X79593414Y-73992604D01*
X79593415Y-73992605D01*
X79620853Y-74006585D01*
X79689088Y-74041352D01*
X79800000Y-74058919D01*
X79910912Y-74041352D01*
X79979147Y-74006585D01*
X80006585Y-73992605D01*
X80006586Y-73992604D01*
X80010967Y-73990372D01*
X80011679Y-73989660D01*
X80441081Y-73989660D01*
X80458648Y-74100572D01*
X80509628Y-74200627D01*
X80589033Y-74280032D01*
X80593414Y-74282264D01*
X80593415Y-74282265D01*
X80642333Y-74307190D01*
X80689088Y-74331012D01*
X80800000Y-74348579D01*
X80910912Y-74331012D01*
X80957667Y-74307190D01*
X81006585Y-74282265D01*
X81006586Y-74282264D01*
X81010967Y-74280032D01*
X81090372Y-74200627D01*
X81141352Y-74100572D01*
X81158919Y-73989660D01*
X81141352Y-73878748D01*
X81103706Y-73804862D01*
X81101229Y-73800000D01*
X81541081Y-73800000D01*
X81558648Y-73910912D01*
X81560883Y-73915298D01*
X81598772Y-73989660D01*
X81609628Y-74010967D01*
X81689033Y-74090372D01*
X81693414Y-74092604D01*
X81693415Y-74092605D01*
X81717660Y-74104958D01*
X81789088Y-74141352D01*
X81900000Y-74158919D01*
X82010912Y-74141352D01*
X82082340Y-74104958D01*
X82106585Y-74092605D01*
X82106586Y-74092604D01*
X82110967Y-74090372D01*
X82155806Y-74045533D01*
X82200000Y-74027227D01*
X82244194Y-74045533D01*
X82289033Y-74090372D01*
X82293414Y-74092604D01*
X82293415Y-74092605D01*
X82317660Y-74104958D01*
X82389088Y-74141352D01*
X82500000Y-74158919D01*
X82610912Y-74141352D01*
X82682340Y-74104958D01*
X82706585Y-74092605D01*
X82706586Y-74092604D01*
X82710967Y-74090372D01*
X82790372Y-74010967D01*
X82801229Y-73989660D01*
X82839117Y-73915298D01*
X82841352Y-73910912D01*
X82849526Y-73859305D01*
X82874520Y-73818518D01*
X82921033Y-73807352D01*
X82956214Y-73825666D01*
X82983340Y-73853755D01*
X83119911Y-73943125D01*
X83123182Y-73944341D01*
X83123181Y-73944341D01*
X83154786Y-73956095D01*
X83189827Y-73988658D01*
X83195500Y-74014675D01*
X83195500Y-76863010D01*
X83177194Y-76907204D01*
X83153141Y-76922176D01*
X83138286Y-76927233D01*
X83135316Y-76929060D01*
X83135312Y-76929062D01*
X83048771Y-76982303D01*
X82999272Y-77012755D01*
X82996780Y-77015196D01*
X82996778Y-77015197D01*
X82967415Y-77043952D01*
X82882661Y-77126949D01*
X82880771Y-77129882D01*
X82880770Y-77129883D01*
X82799462Y-77256049D01*
X82794247Y-77264141D01*
X82784755Y-77290220D01*
X82742597Y-77406048D01*
X82738424Y-77417512D01*
X82717968Y-77579438D01*
X82733895Y-77741873D01*
X82734997Y-77745185D01*
X82734997Y-77745186D01*
X82744913Y-77774993D01*
X82785413Y-77896742D01*
X82787223Y-77899731D01*
X82787225Y-77899735D01*
X82803866Y-77927212D01*
X82869962Y-78036349D01*
X82983340Y-78153755D01*
X83119911Y-78243125D01*
X83272888Y-78300016D01*
X83276343Y-78300477D01*
X83276347Y-78300478D01*
X83366518Y-78312509D01*
X83434668Y-78321602D01*
X83438141Y-78321286D01*
X83438144Y-78321286D01*
X83515939Y-78314206D01*
X83597210Y-78306810D01*
X83752435Y-78256374D01*
X83822532Y-78214588D01*
X83889627Y-78174592D01*
X83889630Y-78174590D01*
X83892629Y-78172802D01*
X83955552Y-78112881D01*
X84008294Y-78062656D01*
X84008297Y-78062653D01*
X84010823Y-78060247D01*
X84101144Y-77924303D01*
X84159103Y-77771727D01*
X84181818Y-77610102D01*
X84182103Y-77589660D01*
X84181793Y-77586894D01*
X84164300Y-77430937D01*
X84164299Y-77430933D01*
X84163910Y-77427464D01*
X84110234Y-77273329D01*
X84023744Y-77134916D01*
X83908739Y-77019104D01*
X83850750Y-76982303D01*
X83773879Y-76933519D01*
X83773875Y-76933517D01*
X83770933Y-76931650D01*
X83746035Y-76922784D01*
X83710542Y-76890714D01*
X83704500Y-76863905D01*
X83704500Y-75474171D01*
X84041466Y-75474171D01*
X84044474Y-75489088D01*
X84067818Y-75604862D01*
X84070953Y-75620411D01*
X84138681Y-75753335D01*
X84239660Y-75863149D01*
X84243281Y-75865394D01*
X84243282Y-75865395D01*
X84362825Y-75939515D01*
X84362828Y-75939517D01*
X84366450Y-75941762D01*
X84370546Y-75942952D01*
X84506563Y-75982469D01*
X84506566Y-75982469D01*
X84509710Y-75983383D01*
X84512976Y-75983623D01*
X84512977Y-75983623D01*
X84519143Y-75984076D01*
X84519151Y-75984076D01*
X84520291Y-75984160D01*
X85047369Y-75984160D01*
X85157803Y-75969032D01*
X85226013Y-75939515D01*
X85290806Y-75911477D01*
X85290809Y-75911475D01*
X85294717Y-75909784D01*
X85357401Y-75859024D01*
X85407347Y-75818579D01*
X85407348Y-75818578D01*
X85410655Y-75815900D01*
X85452890Y-75756470D01*
X85494606Y-75697769D01*
X85494606Y-75697768D01*
X85497074Y-75694296D01*
X85531023Y-75600000D01*
X88441081Y-75600000D01*
X88458648Y-75710912D01*
X88509628Y-75810967D01*
X88589033Y-75890372D01*
X88593414Y-75892604D01*
X88593415Y-75892605D01*
X88630454Y-75911477D01*
X88689088Y-75941352D01*
X88800000Y-75958919D01*
X88910912Y-75941352D01*
X88969546Y-75911477D01*
X89006585Y-75892605D01*
X89006586Y-75892604D01*
X89010967Y-75890372D01*
X89090372Y-75810967D01*
X89141352Y-75710912D01*
X89158919Y-75600000D01*
X89941081Y-75600000D01*
X89958648Y-75710912D01*
X90009628Y-75810967D01*
X90089033Y-75890372D01*
X90093414Y-75892604D01*
X90093415Y-75892605D01*
X90130454Y-75911477D01*
X90189088Y-75941352D01*
X90300000Y-75958919D01*
X90410912Y-75941352D01*
X90469546Y-75911477D01*
X90506585Y-75892605D01*
X90506586Y-75892604D01*
X90510967Y-75890372D01*
X90590372Y-75810967D01*
X90641352Y-75710912D01*
X90658919Y-75600000D01*
X90641352Y-75489088D01*
X90600750Y-75409401D01*
X90592605Y-75393415D01*
X90592604Y-75393414D01*
X90590372Y-75389033D01*
X90510967Y-75309628D01*
X90506586Y-75307396D01*
X90506585Y-75307395D01*
X90415298Y-75260883D01*
X90415299Y-75260883D01*
X90410912Y-75258648D01*
X90300000Y-75241081D01*
X90189088Y-75258648D01*
X90184701Y-75260883D01*
X90184702Y-75260883D01*
X90093415Y-75307395D01*
X90093414Y-75307396D01*
X90089033Y-75309628D01*
X90009628Y-75389033D01*
X90007396Y-75393414D01*
X90007395Y-75393415D01*
X89999250Y-75409401D01*
X89958648Y-75489088D01*
X89941081Y-75600000D01*
X89158919Y-75600000D01*
X89141352Y-75489088D01*
X89100750Y-75409401D01*
X89092605Y-75393415D01*
X89092604Y-75393414D01*
X89090372Y-75389033D01*
X89010967Y-75309628D01*
X89006586Y-75307396D01*
X89006585Y-75307395D01*
X88915298Y-75260883D01*
X88915299Y-75260883D01*
X88910912Y-75258648D01*
X88800000Y-75241081D01*
X88689088Y-75258648D01*
X88684701Y-75260883D01*
X88684702Y-75260883D01*
X88593415Y-75307395D01*
X88593414Y-75307396D01*
X88589033Y-75309628D01*
X88509628Y-75389033D01*
X88507396Y-75393414D01*
X88507395Y-75393415D01*
X88499250Y-75409401D01*
X88458648Y-75489088D01*
X88441081Y-75600000D01*
X85531023Y-75600000D01*
X85547609Y-75553932D01*
X85552013Y-75493952D01*
X85558222Y-75409401D01*
X85558222Y-75409399D01*
X85558534Y-75405149D01*
X85542451Y-75325388D01*
X85529889Y-75263083D01*
X85529888Y-75263080D01*
X85529047Y-75258909D01*
X85461319Y-75125985D01*
X85360340Y-75016171D01*
X85322332Y-74992605D01*
X85237175Y-74939805D01*
X85237172Y-74939803D01*
X85233550Y-74937558D01*
X85228752Y-74936164D01*
X85093437Y-74896851D01*
X85093434Y-74896851D01*
X85090290Y-74895937D01*
X85087024Y-74895697D01*
X85087023Y-74895697D01*
X85080857Y-74895244D01*
X85080849Y-74895244D01*
X85079709Y-74895160D01*
X84552631Y-74895160D01*
X84442197Y-74910288D01*
X84398725Y-74929100D01*
X84309194Y-74967843D01*
X84309191Y-74967845D01*
X84305283Y-74969536D01*
X84276795Y-74992605D01*
X84239521Y-75022789D01*
X84189345Y-75063420D01*
X84186882Y-75066886D01*
X84186880Y-75066888D01*
X84142185Y-75129781D01*
X84102926Y-75185024D01*
X84052391Y-75325388D01*
X84052079Y-75329635D01*
X84052079Y-75329636D01*
X84044299Y-75435596D01*
X84041466Y-75474171D01*
X83704500Y-75474171D01*
X83704500Y-74700000D01*
X87791081Y-74700000D01*
X87808648Y-74810912D01*
X87810883Y-74815298D01*
X87852436Y-74896851D01*
X87859628Y-74910967D01*
X87939033Y-74990372D01*
X87943414Y-74992604D01*
X87943415Y-74992605D01*
X87985259Y-75013925D01*
X88039088Y-75041352D01*
X88150000Y-75058919D01*
X88260912Y-75041352D01*
X88314741Y-75013925D01*
X88356585Y-74992605D01*
X88356586Y-74992604D01*
X88360967Y-74990372D01*
X88440372Y-74910967D01*
X88447565Y-74896851D01*
X88489117Y-74815298D01*
X88491352Y-74810912D01*
X88508919Y-74700000D01*
X89291081Y-74700000D01*
X89308648Y-74810912D01*
X89310883Y-74815298D01*
X89352436Y-74896851D01*
X89359628Y-74910967D01*
X89439033Y-74990372D01*
X89443414Y-74992604D01*
X89443415Y-74992605D01*
X89485259Y-75013925D01*
X89539088Y-75041352D01*
X89650000Y-75058919D01*
X89760912Y-75041352D01*
X89814741Y-75013925D01*
X89856585Y-74992605D01*
X89856586Y-74992604D01*
X89860967Y-74990372D01*
X89940372Y-74910967D01*
X89947565Y-74896851D01*
X89989117Y-74815298D01*
X89991352Y-74810912D01*
X90008919Y-74700000D01*
X89991352Y-74589088D01*
X89940372Y-74489033D01*
X89860967Y-74409628D01*
X89856586Y-74407396D01*
X89856585Y-74407395D01*
X89765298Y-74360883D01*
X89765299Y-74360883D01*
X89760912Y-74358648D01*
X89650000Y-74341081D01*
X89539088Y-74358648D01*
X89534701Y-74360883D01*
X89534702Y-74360883D01*
X89443415Y-74407395D01*
X89443414Y-74407396D01*
X89439033Y-74409628D01*
X89359628Y-74489033D01*
X89308648Y-74589088D01*
X89291081Y-74700000D01*
X88508919Y-74700000D01*
X88491352Y-74589088D01*
X88440372Y-74489033D01*
X88360967Y-74409628D01*
X88356586Y-74407396D01*
X88356585Y-74407395D01*
X88265298Y-74360883D01*
X88265299Y-74360883D01*
X88260912Y-74358648D01*
X88150000Y-74341081D01*
X88039088Y-74358648D01*
X88034701Y-74360883D01*
X88034702Y-74360883D01*
X87943415Y-74407395D01*
X87943414Y-74407396D01*
X87939033Y-74409628D01*
X87859628Y-74489033D01*
X87808648Y-74589088D01*
X87791081Y-74700000D01*
X83704500Y-74700000D01*
X83704500Y-74017358D01*
X83722806Y-73973164D01*
X83745964Y-73958973D01*
X83745930Y-73958897D01*
X83746537Y-73958621D01*
X83747687Y-73957917D01*
X83749109Y-73957455D01*
X83749111Y-73957454D01*
X83752435Y-73956374D01*
X83836858Y-73906048D01*
X83889627Y-73874592D01*
X83889630Y-73874590D01*
X83892629Y-73872802D01*
X83963973Y-73804862D01*
X84008294Y-73762656D01*
X84008297Y-73762653D01*
X84010823Y-73760247D01*
X84101144Y-73624303D01*
X84159103Y-73471727D01*
X84181818Y-73310102D01*
X84182103Y-73289660D01*
X84181598Y-73285155D01*
X84164300Y-73130937D01*
X84164299Y-73130933D01*
X84163910Y-73127464D01*
X84110234Y-72973329D01*
X84023744Y-72834916D01*
X83908739Y-72719104D01*
X83883287Y-72702952D01*
X83773879Y-72633519D01*
X83773875Y-72633517D01*
X83770933Y-72631650D01*
X83617176Y-72576900D01*
X83540720Y-72567783D01*
X83458578Y-72557988D01*
X83458574Y-72557988D01*
X83455111Y-72557575D01*
X83362278Y-72567332D01*
X83296262Y-72574270D01*
X83296259Y-72574271D01*
X83292792Y-72574635D01*
X83289491Y-72575759D01*
X83289490Y-72575759D01*
X83282693Y-72578073D01*
X83138286Y-72627233D01*
X82999272Y-72712755D01*
X82996780Y-72715196D01*
X82996778Y-72715197D01*
X82990254Y-72721586D01*
X82882661Y-72826949D01*
X82880771Y-72829882D01*
X82880770Y-72829883D01*
X82796139Y-72961205D01*
X82794247Y-72964141D01*
X82793053Y-72967422D01*
X82746568Y-73095138D01*
X82738424Y-73117512D01*
X82717968Y-73279438D01*
X82730851Y-73410821D01*
X82730954Y-73411874D01*
X82717048Y-73457643D01*
X82674851Y-73480175D01*
X82640379Y-73473661D01*
X82615301Y-73460884D01*
X82615298Y-73460883D01*
X82610912Y-73458648D01*
X82506573Y-73442122D01*
X82504862Y-73441851D01*
X82500000Y-73441081D01*
X82495138Y-73441851D01*
X82493427Y-73442122D01*
X82389088Y-73458648D01*
X82363419Y-73471727D01*
X82293415Y-73507395D01*
X82293414Y-73507396D01*
X82289033Y-73509628D01*
X82244194Y-73554467D01*
X82200000Y-73572773D01*
X82155806Y-73554467D01*
X82110967Y-73509628D01*
X82106586Y-73507396D01*
X82106585Y-73507395D01*
X82036581Y-73471727D01*
X82010912Y-73458648D01*
X81906573Y-73442122D01*
X81904862Y-73441851D01*
X81900000Y-73441081D01*
X81895138Y-73441851D01*
X81893427Y-73442122D01*
X81789088Y-73458648D01*
X81763419Y-73471727D01*
X81693415Y-73507395D01*
X81693414Y-73507396D01*
X81689033Y-73509628D01*
X81609628Y-73589033D01*
X81607396Y-73593414D01*
X81607395Y-73593415D01*
X81605700Y-73596742D01*
X81558648Y-73689088D01*
X81541081Y-73800000D01*
X81101229Y-73800000D01*
X81092605Y-73783075D01*
X81092604Y-73783074D01*
X81090372Y-73778693D01*
X81010967Y-73699288D01*
X81006586Y-73697056D01*
X81006585Y-73697055D01*
X80915298Y-73650543D01*
X80915299Y-73650543D01*
X80910912Y-73648308D01*
X80800000Y-73630741D01*
X80689088Y-73648308D01*
X80684701Y-73650543D01*
X80684702Y-73650543D01*
X80593415Y-73697055D01*
X80593414Y-73697056D01*
X80589033Y-73699288D01*
X80509628Y-73778693D01*
X80507396Y-73783074D01*
X80507395Y-73783075D01*
X80496294Y-73804862D01*
X80458648Y-73878748D01*
X80441081Y-73989660D01*
X80011679Y-73989660D01*
X80090372Y-73910967D01*
X80092879Y-73906048D01*
X80120803Y-73851243D01*
X80141352Y-73810912D01*
X80158919Y-73700000D01*
X80141352Y-73589088D01*
X80090372Y-73489033D01*
X80010967Y-73409628D01*
X80006586Y-73407396D01*
X80006585Y-73407395D01*
X79915298Y-73360883D01*
X79915299Y-73360883D01*
X79910912Y-73358648D01*
X79800000Y-73341081D01*
X79689088Y-73358648D01*
X79684701Y-73360883D01*
X79684702Y-73360883D01*
X79593415Y-73407395D01*
X79593414Y-73407396D01*
X79589033Y-73409628D01*
X79509628Y-73489033D01*
X79458648Y-73589088D01*
X79441081Y-73700000D01*
X79250851Y-73700000D01*
X79301144Y-73624303D01*
X79359103Y-73471727D01*
X79381818Y-73310102D01*
X79382103Y-73289660D01*
X79381598Y-73285155D01*
X79364300Y-73130937D01*
X79364299Y-73130933D01*
X79363910Y-73127464D01*
X79310234Y-72973329D01*
X79223744Y-72834916D01*
X79108739Y-72719104D01*
X79083287Y-72702952D01*
X78973879Y-72633519D01*
X78973875Y-72633517D01*
X78970933Y-72631650D01*
X78817176Y-72576900D01*
X78740720Y-72567783D01*
X78658578Y-72557988D01*
X78658574Y-72557988D01*
X78655111Y-72557575D01*
X78562278Y-72567332D01*
X78496262Y-72574270D01*
X78496259Y-72574271D01*
X78492792Y-72574635D01*
X78489491Y-72575759D01*
X78489490Y-72575759D01*
X78482693Y-72578073D01*
X78338286Y-72627233D01*
X78199272Y-72712755D01*
X78196780Y-72715196D01*
X78196778Y-72715197D01*
X78190254Y-72721586D01*
X78082661Y-72826949D01*
X78080771Y-72829882D01*
X78080770Y-72829883D01*
X77996139Y-72961205D01*
X77994247Y-72964141D01*
X77993053Y-72967422D01*
X77946568Y-73095138D01*
X77938424Y-73117512D01*
X77917968Y-73279438D01*
X77918309Y-73282915D01*
X77931734Y-73419831D01*
X77933895Y-73441873D01*
X77934997Y-73445185D01*
X77934997Y-73445186D01*
X77982849Y-73589033D01*
X77985413Y-73596742D01*
X77987223Y-73599731D01*
X77987225Y-73599735D01*
X78006470Y-73631511D01*
X78069962Y-73736349D01*
X78183340Y-73853755D01*
X78319911Y-73943125D01*
X78323182Y-73944341D01*
X78323181Y-73944341D01*
X78354786Y-73956095D01*
X78389827Y-73988658D01*
X78395500Y-74014675D01*
X78395500Y-76863010D01*
X78377194Y-76907204D01*
X78353141Y-76922176D01*
X78338286Y-76927233D01*
X78335316Y-76929060D01*
X78335312Y-76929062D01*
X78248771Y-76982303D01*
X78199272Y-77012755D01*
X78196780Y-77015196D01*
X78196778Y-77015197D01*
X78167415Y-77043952D01*
X78082661Y-77126949D01*
X78080771Y-77129882D01*
X78080770Y-77129883D01*
X77999462Y-77256049D01*
X77994247Y-77264141D01*
X77984755Y-77290220D01*
X77942597Y-77406048D01*
X77938424Y-77417512D01*
X77917968Y-77579438D01*
X71180500Y-77579438D01*
X71180500Y-75600000D01*
X71441081Y-75600000D01*
X71458648Y-75710912D01*
X71509628Y-75810967D01*
X71589033Y-75890372D01*
X71593414Y-75892604D01*
X71593415Y-75892605D01*
X71630454Y-75911477D01*
X71689088Y-75941352D01*
X71800000Y-75958919D01*
X71910912Y-75941352D01*
X71969546Y-75911477D01*
X72006585Y-75892605D01*
X72006586Y-75892604D01*
X72010967Y-75890372D01*
X72090372Y-75810967D01*
X72141352Y-75710912D01*
X72158919Y-75600000D01*
X72941081Y-75600000D01*
X72958648Y-75710912D01*
X73009628Y-75810967D01*
X73089033Y-75890372D01*
X73093414Y-75892604D01*
X73093415Y-75892605D01*
X73130454Y-75911477D01*
X73189088Y-75941352D01*
X73300000Y-75958919D01*
X73410912Y-75941352D01*
X73469546Y-75911477D01*
X73506585Y-75892605D01*
X73506586Y-75892604D01*
X73510967Y-75890372D01*
X73590372Y-75810967D01*
X73641352Y-75710912D01*
X73658919Y-75600000D01*
X73641352Y-75489088D01*
X73616168Y-75439660D01*
X76710456Y-75439660D01*
X76710991Y-75443724D01*
X76726028Y-75557939D01*
X76730544Y-75592245D01*
X76732112Y-75596030D01*
X76732112Y-75596031D01*
X76781514Y-75715298D01*
X76789440Y-75734432D01*
X76883129Y-75856531D01*
X77005228Y-75950220D01*
X77009012Y-75951787D01*
X77009013Y-75951788D01*
X77143629Y-76007548D01*
X77143630Y-76007548D01*
X77147415Y-76009116D01*
X77151477Y-76009651D01*
X77151478Y-76009651D01*
X77259656Y-76023893D01*
X77259662Y-76023893D01*
X77261687Y-76024160D01*
X77338313Y-76024160D01*
X77340338Y-76023893D01*
X77340344Y-76023893D01*
X77448522Y-76009651D01*
X77448523Y-76009651D01*
X77452585Y-76009116D01*
X77456370Y-76007548D01*
X77456371Y-76007548D01*
X77590987Y-75951788D01*
X77590988Y-75951787D01*
X77594772Y-75950220D01*
X77716871Y-75856531D01*
X77810560Y-75734432D01*
X77818486Y-75715298D01*
X77867888Y-75596031D01*
X77867888Y-75596030D01*
X77869456Y-75592245D01*
X77873973Y-75557939D01*
X77889009Y-75443724D01*
X77889544Y-75439660D01*
X77874500Y-75325388D01*
X77869991Y-75291138D01*
X77869991Y-75291137D01*
X77869456Y-75287075D01*
X77825747Y-75181551D01*
X77812128Y-75148673D01*
X77812127Y-75148672D01*
X77810560Y-75144888D01*
X77716871Y-75022789D01*
X77594772Y-74929100D01*
X77553441Y-74911980D01*
X77456371Y-74871772D01*
X77456370Y-74871772D01*
X77452585Y-74870204D01*
X77448523Y-74869669D01*
X77448522Y-74869669D01*
X77340344Y-74855427D01*
X77340338Y-74855427D01*
X77338313Y-74855160D01*
X77261687Y-74855160D01*
X77259662Y-74855427D01*
X77259656Y-74855427D01*
X77151478Y-74869669D01*
X77151477Y-74869669D01*
X77147415Y-74870204D01*
X77143630Y-74871772D01*
X77143629Y-74871772D01*
X77046559Y-74911980D01*
X77005228Y-74929100D01*
X76883129Y-75022789D01*
X76789440Y-75144888D01*
X76787873Y-75148672D01*
X76787872Y-75148673D01*
X76774254Y-75181551D01*
X76730544Y-75287075D01*
X76730009Y-75291137D01*
X76730009Y-75291138D01*
X76725500Y-75325388D01*
X76710456Y-75439660D01*
X73616168Y-75439660D01*
X73600750Y-75409401D01*
X73592605Y-75393415D01*
X73592604Y-75393414D01*
X73590372Y-75389033D01*
X73510967Y-75309628D01*
X73506586Y-75307396D01*
X73506585Y-75307395D01*
X73415298Y-75260883D01*
X73415299Y-75260883D01*
X73410912Y-75258648D01*
X73300000Y-75241081D01*
X73189088Y-75258648D01*
X73184701Y-75260883D01*
X73184702Y-75260883D01*
X73093415Y-75307395D01*
X73093414Y-75307396D01*
X73089033Y-75309628D01*
X73009628Y-75389033D01*
X73007396Y-75393414D01*
X73007395Y-75393415D01*
X72999250Y-75409401D01*
X72958648Y-75489088D01*
X72941081Y-75600000D01*
X72158919Y-75600000D01*
X72141352Y-75489088D01*
X72100750Y-75409401D01*
X72092605Y-75393415D01*
X72092604Y-75393414D01*
X72090372Y-75389033D01*
X72010967Y-75309628D01*
X72006586Y-75307396D01*
X72006585Y-75307395D01*
X71915298Y-75260883D01*
X71915299Y-75260883D01*
X71910912Y-75258648D01*
X71800000Y-75241081D01*
X71689088Y-75258648D01*
X71684701Y-75260883D01*
X71684702Y-75260883D01*
X71593415Y-75307395D01*
X71593414Y-75307396D01*
X71589033Y-75309628D01*
X71509628Y-75389033D01*
X71507396Y-75393414D01*
X71507395Y-75393415D01*
X71499250Y-75409401D01*
X71458648Y-75489088D01*
X71441081Y-75600000D01*
X71180500Y-75600000D01*
X71180500Y-74700000D01*
X73591081Y-74700000D01*
X73608648Y-74810912D01*
X73610883Y-74815298D01*
X73652436Y-74896851D01*
X73659628Y-74910967D01*
X73739033Y-74990372D01*
X73743414Y-74992604D01*
X73743415Y-74992605D01*
X73785259Y-75013925D01*
X73839088Y-75041352D01*
X73950000Y-75058919D01*
X74060912Y-75041352D01*
X74114741Y-75013925D01*
X74156585Y-74992605D01*
X74156586Y-74992604D01*
X74160967Y-74990372D01*
X74240372Y-74910967D01*
X74247565Y-74896851D01*
X74289117Y-74815298D01*
X74291352Y-74810912D01*
X74308919Y-74700000D01*
X74308149Y-74695138D01*
X74301759Y-74654789D01*
X74312927Y-74608276D01*
X74319296Y-74600819D01*
X75454487Y-73465628D01*
X75460561Y-73461323D01*
X75460105Y-73460750D01*
X75465613Y-73456369D01*
X75471958Y-73453322D01*
X75490418Y-73430239D01*
X75495035Y-73425080D01*
X75500284Y-73419831D01*
X75504057Y-73413828D01*
X75508165Y-73408047D01*
X75508687Y-73407395D01*
X75526383Y-73385267D01*
X75527960Y-73378407D01*
X75529778Y-73374647D01*
X75531156Y-73370711D01*
X75534902Y-73364752D01*
X75538179Y-73335763D01*
X75539371Y-73328787D01*
X75541000Y-73321703D01*
X75541000Y-73314329D01*
X75541396Y-73307308D01*
X75541478Y-73306585D01*
X75544691Y-73278162D01*
X75542370Y-73271517D01*
X75541586Y-73264523D01*
X75542264Y-73264447D01*
X75541000Y-73256995D01*
X75541000Y-71293227D01*
X75559306Y-71249033D01*
X75603500Y-71230727D01*
X75647694Y-71249033D01*
X75689033Y-71290372D01*
X75693414Y-71292604D01*
X75693415Y-71292605D01*
X75784703Y-71339118D01*
X75789088Y-71341352D01*
X75793948Y-71342122D01*
X75793952Y-71342123D01*
X75814570Y-71345389D01*
X75855356Y-71370383D01*
X75866522Y-71416897D01*
X75862270Y-71429983D01*
X75862402Y-71430026D01*
X75860883Y-71434701D01*
X75858648Y-71439088D01*
X75841081Y-71550000D01*
X75858648Y-71660912D01*
X75860883Y-71665298D01*
X75896276Y-71734761D01*
X75909628Y-71760967D01*
X75989033Y-71840372D01*
X75993414Y-71842604D01*
X75993415Y-71842605D01*
X76023923Y-71858149D01*
X76089088Y-71891352D01*
X76200000Y-71908919D01*
X76310912Y-71891352D01*
X76376077Y-71858149D01*
X76406585Y-71842605D01*
X76406586Y-71842604D01*
X76410967Y-71840372D01*
X76430806Y-71820533D01*
X76475000Y-71802227D01*
X76519194Y-71820533D01*
X76589033Y-71890372D01*
X76593414Y-71892604D01*
X76593415Y-71892605D01*
X76623923Y-71908149D01*
X76689088Y-71941352D01*
X76800000Y-71958919D01*
X76910912Y-71941352D01*
X76976077Y-71908149D01*
X77006585Y-71892605D01*
X77006586Y-71892604D01*
X77010967Y-71890372D01*
X77090372Y-71810967D01*
X77141352Y-71710912D01*
X77158919Y-71600000D01*
X77143080Y-71500000D01*
X80783081Y-71500000D01*
X80800648Y-71610912D01*
X80802883Y-71615298D01*
X80849122Y-71706048D01*
X80851628Y-71710967D01*
X80931033Y-71790372D01*
X80935414Y-71792604D01*
X80935415Y-71792605D01*
X80954300Y-71802227D01*
X81031088Y-71841352D01*
X81142000Y-71858919D01*
X81252912Y-71841352D01*
X81329700Y-71802227D01*
X81348585Y-71792605D01*
X81348586Y-71792604D01*
X81352967Y-71790372D01*
X81432372Y-71710967D01*
X81434879Y-71706048D01*
X81481117Y-71615298D01*
X81483352Y-71610912D01*
X81500919Y-71500000D01*
X81483352Y-71389088D01*
X81432372Y-71289033D01*
X81352967Y-71209628D01*
X81348586Y-71207396D01*
X81348585Y-71207395D01*
X81293582Y-71179370D01*
X81252912Y-71158648D01*
X81142000Y-71141081D01*
X81031088Y-71158648D01*
X80990418Y-71179370D01*
X80935415Y-71207395D01*
X80935414Y-71207396D01*
X80931033Y-71209628D01*
X80851628Y-71289033D01*
X80800648Y-71389088D01*
X80783081Y-71500000D01*
X77143080Y-71500000D01*
X77141352Y-71489088D01*
X77104569Y-71416897D01*
X77092605Y-71393415D01*
X77092604Y-71393414D01*
X77090372Y-71389033D01*
X77010967Y-71309628D01*
X77006586Y-71307396D01*
X77006585Y-71307395D01*
X76915298Y-71260883D01*
X76915299Y-71260883D01*
X76910912Y-71258648D01*
X76880756Y-71253872D01*
X76861856Y-71250878D01*
X76821070Y-71225884D01*
X76809904Y-71179370D01*
X76815946Y-71160774D01*
X76817030Y-71158648D01*
X76841352Y-71110912D01*
X76858919Y-71000000D01*
X82783081Y-71000000D01*
X82800648Y-71110912D01*
X82851628Y-71210967D01*
X82931033Y-71290372D01*
X82935414Y-71292604D01*
X82935415Y-71292605D01*
X82936636Y-71293227D01*
X83031088Y-71341352D01*
X83142000Y-71358919D01*
X83141522Y-71361939D01*
X83176565Y-71376455D01*
X83194871Y-71420649D01*
X83194102Y-71430420D01*
X83183081Y-71500000D01*
X83200648Y-71610912D01*
X83202883Y-71615298D01*
X83249122Y-71706048D01*
X83251628Y-71710967D01*
X83331033Y-71790372D01*
X83335414Y-71792604D01*
X83335415Y-71792605D01*
X83354300Y-71802227D01*
X83431088Y-71841352D01*
X83542000Y-71858919D01*
X83652912Y-71841352D01*
X83729700Y-71802227D01*
X83748585Y-71792605D01*
X83748586Y-71792604D01*
X83752967Y-71790372D01*
X83832372Y-71710967D01*
X83834879Y-71706048D01*
X83881117Y-71615298D01*
X83883352Y-71610912D01*
X83900919Y-71500000D01*
X83883352Y-71389088D01*
X83832372Y-71289033D01*
X83813339Y-71270000D01*
X86671081Y-71270000D01*
X86688648Y-71380912D01*
X86739628Y-71480967D01*
X86819033Y-71560372D01*
X86823414Y-71562604D01*
X86823415Y-71562605D01*
X86872333Y-71587530D01*
X86919088Y-71611352D01*
X87029485Y-71628838D01*
X87070270Y-71653830D01*
X87081437Y-71700344D01*
X87063900Y-71734761D01*
X87019628Y-71779033D01*
X87017396Y-71783414D01*
X87017395Y-71783415D01*
X87012713Y-71792605D01*
X86968648Y-71879088D01*
X86951081Y-71990000D01*
X86968648Y-72100912D01*
X87019628Y-72200967D01*
X87099033Y-72280372D01*
X87103414Y-72282604D01*
X87103415Y-72282605D01*
X87152333Y-72307530D01*
X87199088Y-72331352D01*
X87310000Y-72348919D01*
X87420912Y-72331352D01*
X87467667Y-72307530D01*
X87516585Y-72282605D01*
X87516586Y-72282604D01*
X87520967Y-72280372D01*
X87600372Y-72200967D01*
X87651352Y-72100912D01*
X87668919Y-71990000D01*
X87651352Y-71879088D01*
X87607287Y-71792605D01*
X87602605Y-71783415D01*
X87602604Y-71783414D01*
X87600372Y-71779033D01*
X87520967Y-71699628D01*
X87516586Y-71697396D01*
X87516585Y-71697395D01*
X87453590Y-71665298D01*
X87420912Y-71648648D01*
X87310515Y-71631162D01*
X87269730Y-71606170D01*
X87258563Y-71559656D01*
X87276100Y-71525239D01*
X87320372Y-71480967D01*
X87371352Y-71380912D01*
X87388919Y-71270000D01*
X87371352Y-71159088D01*
X87344327Y-71106048D01*
X87322605Y-71063415D01*
X87322604Y-71063414D01*
X87320372Y-71059033D01*
X87240967Y-70979628D01*
X87236586Y-70977396D01*
X87236585Y-70977395D01*
X87187667Y-70952470D01*
X87140912Y-70928648D01*
X87030000Y-70911081D01*
X86919088Y-70928648D01*
X86872333Y-70952470D01*
X86823415Y-70977395D01*
X86823414Y-70977396D01*
X86819033Y-70979628D01*
X86739628Y-71059033D01*
X86737396Y-71063414D01*
X86737395Y-71063415D01*
X86715673Y-71106048D01*
X86688648Y-71159088D01*
X86671081Y-71270000D01*
X83813339Y-71270000D01*
X83752967Y-71209628D01*
X83748586Y-71207396D01*
X83748585Y-71207395D01*
X83693582Y-71179370D01*
X83652912Y-71158648D01*
X83542000Y-71141081D01*
X83542478Y-71138061D01*
X83507435Y-71123545D01*
X83489129Y-71079351D01*
X83489898Y-71069580D01*
X83500919Y-71000000D01*
X83489899Y-70930426D01*
X83501065Y-70883913D01*
X83541851Y-70858919D01*
X83541951Y-70858911D01*
X83542000Y-70858919D01*
X83542143Y-70858896D01*
X83542147Y-70858896D01*
X83586434Y-70851881D01*
X83598310Y-70850000D01*
X84370000Y-70850000D01*
X86270000Y-70850000D01*
X86270000Y-70160000D01*
X89241081Y-70160000D01*
X89258648Y-70270912D01*
X89260883Y-70275298D01*
X89306638Y-70365098D01*
X89309628Y-70370967D01*
X89389033Y-70450372D01*
X89393414Y-70452604D01*
X89393415Y-70452605D01*
X89442333Y-70477530D01*
X89489088Y-70501352D01*
X89600000Y-70518919D01*
X89710912Y-70501352D01*
X89757667Y-70477530D01*
X89806585Y-70452605D01*
X89806586Y-70452604D01*
X89810967Y-70450372D01*
X89890372Y-70370967D01*
X89893363Y-70365098D01*
X89939117Y-70275298D01*
X89941352Y-70270912D01*
X89958919Y-70160000D01*
X89941352Y-70049088D01*
X89917530Y-70002333D01*
X89892605Y-69953415D01*
X89892604Y-69953414D01*
X89890372Y-69949033D01*
X89810967Y-69869628D01*
X89806586Y-69867396D01*
X89806585Y-69867395D01*
X89715298Y-69820883D01*
X89715299Y-69820883D01*
X89710912Y-69818648D01*
X89600000Y-69801081D01*
X89489088Y-69818648D01*
X89484701Y-69820883D01*
X89484702Y-69820883D01*
X89393415Y-69867395D01*
X89393414Y-69867396D01*
X89389033Y-69869628D01*
X89309628Y-69949033D01*
X89307396Y-69953414D01*
X89307395Y-69953415D01*
X89282470Y-70002333D01*
X89258648Y-70049088D01*
X89241081Y-70160000D01*
X86270000Y-70160000D01*
X86270000Y-69300000D01*
X86941081Y-69300000D01*
X86958648Y-69410912D01*
X86960883Y-69415298D01*
X87000959Y-69493952D01*
X87009628Y-69510967D01*
X87089033Y-69590372D01*
X87093414Y-69592604D01*
X87093415Y-69592605D01*
X87142333Y-69617530D01*
X87189088Y-69641352D01*
X87300000Y-69658919D01*
X87410912Y-69641352D01*
X87457667Y-69617530D01*
X87506585Y-69592605D01*
X87506586Y-69592604D01*
X87510967Y-69590372D01*
X87590372Y-69510967D01*
X87599042Y-69493952D01*
X87639117Y-69415298D01*
X87641352Y-69410912D01*
X87658919Y-69300000D01*
X87641352Y-69189088D01*
X87615398Y-69138149D01*
X87592605Y-69093415D01*
X87592604Y-69093414D01*
X87590372Y-69089033D01*
X87510967Y-69009628D01*
X87506586Y-69007396D01*
X87506585Y-69007395D01*
X87415298Y-68960883D01*
X87415299Y-68960883D01*
X87410912Y-68958648D01*
X87300000Y-68941081D01*
X87189088Y-68958648D01*
X87184701Y-68960883D01*
X87184702Y-68960883D01*
X87093415Y-69007395D01*
X87093414Y-69007396D01*
X87089033Y-69009628D01*
X87009628Y-69089033D01*
X87007396Y-69093414D01*
X87007395Y-69093415D01*
X86984602Y-69138149D01*
X86958648Y-69189088D01*
X86941081Y-69300000D01*
X86270000Y-69300000D01*
X86270000Y-68100000D01*
X89191081Y-68100000D01*
X89208648Y-68210912D01*
X89259628Y-68310967D01*
X89339033Y-68390372D01*
X89343412Y-68392603D01*
X89343413Y-68392604D01*
X89361262Y-68401698D01*
X89392328Y-68438073D01*
X89388575Y-68485761D01*
X89377081Y-68501580D01*
X89309628Y-68569033D01*
X89307396Y-68573414D01*
X89307395Y-68573415D01*
X89297205Y-68593415D01*
X89258648Y-68669088D01*
X89241081Y-68780000D01*
X89258648Y-68890912D01*
X89271073Y-68915298D01*
X89294300Y-68960883D01*
X89309628Y-68990967D01*
X89389033Y-69070372D01*
X89393414Y-69072604D01*
X89393415Y-69072605D01*
X89432668Y-69092605D01*
X89489088Y-69121352D01*
X89600000Y-69138919D01*
X89710912Y-69121352D01*
X89767332Y-69092605D01*
X89806585Y-69072605D01*
X89806586Y-69072604D01*
X89810967Y-69070372D01*
X89890372Y-68990967D01*
X89905701Y-68960883D01*
X89928927Y-68915298D01*
X89941352Y-68890912D01*
X89958919Y-68780000D01*
X89941352Y-68669088D01*
X89902795Y-68593415D01*
X89892605Y-68573415D01*
X89892604Y-68573414D01*
X89890372Y-68569033D01*
X89810967Y-68489628D01*
X89806588Y-68487397D01*
X89806587Y-68487396D01*
X89788738Y-68478302D01*
X89757672Y-68441927D01*
X89761425Y-68394239D01*
X89772919Y-68378420D01*
X89840372Y-68310967D01*
X89891352Y-68210912D01*
X89908919Y-68100000D01*
X89891352Y-67989088D01*
X89840372Y-67889033D01*
X89760967Y-67809628D01*
X89756586Y-67807396D01*
X89756585Y-67807395D01*
X89665298Y-67760883D01*
X89665299Y-67760883D01*
X89660912Y-67758648D01*
X89550000Y-67741081D01*
X89439088Y-67758648D01*
X89434701Y-67760883D01*
X89434702Y-67760883D01*
X89343415Y-67807395D01*
X89343414Y-67807396D01*
X89339033Y-67809628D01*
X89259628Y-67889033D01*
X89208648Y-67989088D01*
X89191081Y-68100000D01*
X86270000Y-68100000D01*
X86270000Y-67160000D01*
X84370000Y-67160000D01*
X84370000Y-70850000D01*
X83598310Y-70850000D01*
X83652912Y-70841352D01*
X83746995Y-70793415D01*
X83748585Y-70792605D01*
X83748586Y-70792604D01*
X83752967Y-70790372D01*
X83832372Y-70710967D01*
X83883352Y-70610912D01*
X83900919Y-70500000D01*
X83883352Y-70389088D01*
X83832372Y-70289033D01*
X83752967Y-70209628D01*
X83748586Y-70207396D01*
X83748585Y-70207395D01*
X83699667Y-70182470D01*
X83652912Y-70158648D01*
X83542000Y-70141081D01*
X83431088Y-70158648D01*
X83384333Y-70182470D01*
X83335415Y-70207395D01*
X83335414Y-70207396D01*
X83331033Y-70209628D01*
X83251628Y-70289033D01*
X83200648Y-70389088D01*
X83183081Y-70500000D01*
X83194101Y-70569574D01*
X83182935Y-70616087D01*
X83142149Y-70641081D01*
X83142049Y-70641089D01*
X83142000Y-70641081D01*
X83141857Y-70641104D01*
X83141853Y-70641104D01*
X83097566Y-70648119D01*
X83031088Y-70658648D01*
X83026701Y-70660883D01*
X83026702Y-70660883D01*
X82935415Y-70707395D01*
X82935414Y-70707396D01*
X82931033Y-70709628D01*
X82851628Y-70789033D01*
X82800648Y-70889088D01*
X82783081Y-71000000D01*
X76858919Y-71000000D01*
X76841352Y-70889088D01*
X76790372Y-70789033D01*
X76710967Y-70709628D01*
X76706586Y-70707396D01*
X76706585Y-70707395D01*
X76615298Y-70660883D01*
X76615299Y-70660883D01*
X76610912Y-70658648D01*
X76500000Y-70641081D01*
X76495145Y-70641850D01*
X76495142Y-70641850D01*
X76454789Y-70648241D01*
X76408276Y-70637073D01*
X76400819Y-70630704D01*
X76215628Y-70445513D01*
X76211323Y-70439439D01*
X76210750Y-70439895D01*
X76206369Y-70434387D01*
X76203322Y-70428042D01*
X76180239Y-70409582D01*
X76175080Y-70404965D01*
X76169831Y-70399716D01*
X76163828Y-70395943D01*
X76158052Y-70391838D01*
X76135267Y-70373617D01*
X76128407Y-70372040D01*
X76124647Y-70370222D01*
X76120711Y-70368844D01*
X76114752Y-70365098D01*
X76107758Y-70364307D01*
X76107757Y-70364307D01*
X76085764Y-70361821D01*
X76078787Y-70360629D01*
X76071703Y-70359000D01*
X76064329Y-70359000D01*
X76057308Y-70358604D01*
X76055627Y-70358414D01*
X76028162Y-70355309D01*
X76021517Y-70357630D01*
X76014523Y-70358414D01*
X76014447Y-70357736D01*
X76006995Y-70359000D01*
X75743234Y-70359000D01*
X75735893Y-70357747D01*
X75735810Y-70358476D01*
X75728819Y-70357679D01*
X75722178Y-70355347D01*
X75715185Y-70356125D01*
X75715184Y-70356125D01*
X75695216Y-70358347D01*
X75692911Y-70358604D01*
X75692794Y-70358617D01*
X75685881Y-70359000D01*
X75678467Y-70359000D01*
X75671544Y-70360579D01*
X75664591Y-70361755D01*
X75635571Y-70364985D01*
X75629607Y-70368719D01*
X75625670Y-70370090D01*
X75621904Y-70371903D01*
X75615041Y-70373468D01*
X75600943Y-70384702D01*
X75592229Y-70391646D01*
X75586446Y-70395740D01*
X75583290Y-70397716D01*
X75583284Y-70397721D01*
X75580289Y-70399596D01*
X75575076Y-70404809D01*
X75569832Y-70409494D01*
X75546891Y-70427775D01*
X75543833Y-70434114D01*
X75539442Y-70439615D01*
X75538908Y-70439189D01*
X75534532Y-70445353D01*
X75245513Y-70734372D01*
X75239439Y-70738677D01*
X75239895Y-70739250D01*
X75234387Y-70743631D01*
X75228042Y-70746678D01*
X75223646Y-70752175D01*
X75209582Y-70769761D01*
X75204965Y-70774920D01*
X75199716Y-70780169D01*
X75197847Y-70783143D01*
X75195943Y-70786172D01*
X75191838Y-70791948D01*
X75173617Y-70814733D01*
X75172040Y-70821593D01*
X75170222Y-70825353D01*
X75168844Y-70829289D01*
X75165098Y-70835248D01*
X75164307Y-70842242D01*
X75164307Y-70842243D01*
X75161821Y-70864236D01*
X75160629Y-70871213D01*
X75159000Y-70878297D01*
X75159000Y-70885671D01*
X75158604Y-70892692D01*
X75155309Y-70921838D01*
X75157630Y-70928483D01*
X75158414Y-70935477D01*
X75157736Y-70935553D01*
X75159000Y-70943005D01*
X75159000Y-73194997D01*
X75140694Y-73239191D01*
X74049181Y-74330704D01*
X74004987Y-74349010D01*
X73995211Y-74348241D01*
X73954858Y-74341850D01*
X73954855Y-74341850D01*
X73950000Y-74341081D01*
X73839088Y-74358648D01*
X73834701Y-74360883D01*
X73834702Y-74360883D01*
X73743415Y-74407395D01*
X73743414Y-74407396D01*
X73739033Y-74409628D01*
X73659628Y-74489033D01*
X73608648Y-74589088D01*
X73591081Y-74700000D01*
X71180500Y-74700000D01*
X71180500Y-73100000D01*
X71441081Y-73100000D01*
X71441851Y-73104862D01*
X71443369Y-73114445D01*
X71458648Y-73210912D01*
X71473019Y-73239117D01*
X71498772Y-73289660D01*
X71509628Y-73310967D01*
X71589033Y-73390372D01*
X71593414Y-73392604D01*
X71593415Y-73392605D01*
X71641013Y-73416857D01*
X71689088Y-73441352D01*
X71778622Y-73455533D01*
X71794785Y-73458093D01*
X71800000Y-73458919D01*
X71805216Y-73458093D01*
X71821378Y-73455533D01*
X71910912Y-73441352D01*
X71958987Y-73416857D01*
X72006585Y-73392605D01*
X72006586Y-73392604D01*
X72010967Y-73390372D01*
X72090372Y-73310967D01*
X72101229Y-73289660D01*
X72126981Y-73239117D01*
X72141352Y-73210912D01*
X72156631Y-73114445D01*
X72158149Y-73104862D01*
X72158919Y-73100000D01*
X72141352Y-72989088D01*
X72095960Y-72900000D01*
X73491081Y-72900000D01*
X73508648Y-73010912D01*
X73559628Y-73110967D01*
X73639033Y-73190372D01*
X73643414Y-73192604D01*
X73643415Y-73192605D01*
X73648110Y-73194997D01*
X73739088Y-73241352D01*
X73828622Y-73255533D01*
X73837853Y-73256995D01*
X73850000Y-73258919D01*
X73862148Y-73256995D01*
X73871378Y-73255533D01*
X73960912Y-73241352D01*
X74051890Y-73194997D01*
X74056585Y-73192605D01*
X74056586Y-73192604D01*
X74060967Y-73190372D01*
X74140372Y-73110967D01*
X74191352Y-73010912D01*
X74208919Y-72900000D01*
X74191352Y-72789088D01*
X74166891Y-72741081D01*
X74142605Y-72693415D01*
X74142604Y-72693414D01*
X74140372Y-72689033D01*
X74060967Y-72609628D01*
X74056586Y-72607396D01*
X74056585Y-72607395D01*
X73995921Y-72576486D01*
X73960912Y-72558648D01*
X73850000Y-72541081D01*
X73739088Y-72558648D01*
X73704079Y-72576486D01*
X73643415Y-72607395D01*
X73643414Y-72607396D01*
X73639033Y-72609628D01*
X73559628Y-72689033D01*
X73557396Y-72693414D01*
X73557395Y-72693415D01*
X73533109Y-72741081D01*
X73508648Y-72789088D01*
X73491081Y-72900000D01*
X72095960Y-72900000D01*
X72090372Y-72889033D01*
X72010967Y-72809628D01*
X72006586Y-72807396D01*
X72006585Y-72807395D01*
X71915298Y-72760883D01*
X71915299Y-72760883D01*
X71910912Y-72758648D01*
X71800000Y-72741081D01*
X71689088Y-72758648D01*
X71684701Y-72760883D01*
X71684702Y-72760883D01*
X71593415Y-72807395D01*
X71593414Y-72807396D01*
X71589033Y-72809628D01*
X71509628Y-72889033D01*
X71458648Y-72989088D01*
X71441081Y-73100000D01*
X71180500Y-73100000D01*
X71180500Y-71500000D01*
X71541081Y-71500000D01*
X71558648Y-71610912D01*
X71560883Y-71615298D01*
X71607122Y-71706048D01*
X71609628Y-71710967D01*
X71689033Y-71790372D01*
X71693414Y-71792604D01*
X71693415Y-71792605D01*
X71712300Y-71802227D01*
X71789088Y-71841352D01*
X71900000Y-71858919D01*
X72010912Y-71841352D01*
X72087700Y-71802227D01*
X72106585Y-71792605D01*
X72106586Y-71792604D01*
X72110967Y-71790372D01*
X72190372Y-71710967D01*
X72192879Y-71706048D01*
X72239117Y-71615298D01*
X72241352Y-71610912D01*
X72258919Y-71500000D01*
X72247899Y-71430426D01*
X72259065Y-71383913D01*
X72299851Y-71358919D01*
X72299951Y-71358911D01*
X72300000Y-71358919D01*
X72300143Y-71358896D01*
X72300147Y-71358896D01*
X72347220Y-71351440D01*
X72410912Y-71341352D01*
X72505364Y-71293227D01*
X72506585Y-71292605D01*
X72506586Y-71292604D01*
X72510967Y-71290372D01*
X72590372Y-71210967D01*
X72641352Y-71110912D01*
X72658919Y-71000000D01*
X72641352Y-70889088D01*
X72590372Y-70789033D01*
X72510967Y-70709628D01*
X72506586Y-70707396D01*
X72506585Y-70707395D01*
X72415298Y-70660883D01*
X72415299Y-70660883D01*
X72410912Y-70658648D01*
X72300000Y-70641081D01*
X72189088Y-70658648D01*
X72184701Y-70660883D01*
X72184702Y-70660883D01*
X72093415Y-70707395D01*
X72093414Y-70707396D01*
X72089033Y-70709628D01*
X72009628Y-70789033D01*
X71958648Y-70889088D01*
X71941081Y-71000000D01*
X71952101Y-71069574D01*
X71940935Y-71116087D01*
X71900149Y-71141081D01*
X71900049Y-71141089D01*
X71900000Y-71141081D01*
X71899857Y-71141104D01*
X71899853Y-71141104D01*
X71855566Y-71148119D01*
X71789088Y-71158648D01*
X71748418Y-71179370D01*
X71693415Y-71207395D01*
X71693414Y-71207396D01*
X71689033Y-71209628D01*
X71609628Y-71289033D01*
X71558648Y-71389088D01*
X71541081Y-71500000D01*
X71180500Y-71500000D01*
X71180500Y-69600000D01*
X77541081Y-69600000D01*
X77558648Y-69710912D01*
X77609628Y-69810967D01*
X77689033Y-69890372D01*
X77693414Y-69892604D01*
X77693415Y-69892605D01*
X77742333Y-69917530D01*
X77789088Y-69941352D01*
X77900000Y-69958919D01*
X78010912Y-69941352D01*
X78057667Y-69917530D01*
X78106585Y-69892605D01*
X78106586Y-69892604D01*
X78110967Y-69890372D01*
X78151339Y-69850000D01*
X80691081Y-69850000D01*
X80708648Y-69960912D01*
X80710883Y-69965298D01*
X80756054Y-70053952D01*
X80759628Y-70060967D01*
X80839033Y-70140372D01*
X80843414Y-70142604D01*
X80843415Y-70142605D01*
X80856244Y-70149141D01*
X80869211Y-70155749D01*
X80900278Y-70192122D01*
X80896525Y-70239810D01*
X80885031Y-70255630D01*
X80851628Y-70289033D01*
X80800648Y-70389088D01*
X80783081Y-70500000D01*
X80800648Y-70610912D01*
X80851628Y-70710967D01*
X80931033Y-70790372D01*
X80935414Y-70792604D01*
X80935415Y-70792605D01*
X80937005Y-70793415D01*
X81031088Y-70841352D01*
X81142000Y-70858919D01*
X81252912Y-70841352D01*
X81346995Y-70793415D01*
X81348585Y-70792605D01*
X81348586Y-70792604D01*
X81352967Y-70790372D01*
X81432372Y-70710967D01*
X81483352Y-70610912D01*
X81500919Y-70500000D01*
X81483352Y-70389088D01*
X81432372Y-70289033D01*
X81352967Y-70209628D01*
X81348586Y-70207396D01*
X81348585Y-70207395D01*
X81323694Y-70194713D01*
X81322789Y-70194251D01*
X81291722Y-70157878D01*
X81295475Y-70110190D01*
X81306969Y-70094370D01*
X81340372Y-70060967D01*
X81343947Y-70053952D01*
X81389117Y-69965298D01*
X81391352Y-69960912D01*
X81408919Y-69850000D01*
X81391352Y-69739088D01*
X81367530Y-69692333D01*
X81342605Y-69643415D01*
X81342604Y-69643414D01*
X81340372Y-69639033D01*
X81260967Y-69559628D01*
X81256586Y-69557396D01*
X81256585Y-69557395D01*
X81165298Y-69510883D01*
X81165299Y-69510883D01*
X81160912Y-69508648D01*
X81050000Y-69491081D01*
X80939088Y-69508648D01*
X80934701Y-69510883D01*
X80934702Y-69510883D01*
X80843415Y-69557395D01*
X80843414Y-69557396D01*
X80839033Y-69559628D01*
X80759628Y-69639033D01*
X80757396Y-69643414D01*
X80757395Y-69643415D01*
X80732470Y-69692333D01*
X80708648Y-69739088D01*
X80691081Y-69850000D01*
X78151339Y-69850000D01*
X78190372Y-69810967D01*
X78241352Y-69710912D01*
X78258919Y-69600000D01*
X78241352Y-69489088D01*
X78201520Y-69410912D01*
X78192605Y-69393415D01*
X78192604Y-69393414D01*
X78190372Y-69389033D01*
X78110967Y-69309628D01*
X78106586Y-69307396D01*
X78106585Y-69307395D01*
X78015299Y-69260883D01*
X78015298Y-69260883D01*
X78010912Y-69258648D01*
X78009710Y-69258458D01*
X77974488Y-69228376D01*
X77970733Y-69180688D01*
X78001799Y-69144313D01*
X78007730Y-69141856D01*
X78010912Y-69141352D01*
X78015298Y-69139117D01*
X78015299Y-69139117D01*
X78106585Y-69092605D01*
X78106586Y-69092604D01*
X78110967Y-69090372D01*
X78190372Y-69010967D01*
X78200563Y-68990967D01*
X78239117Y-68915298D01*
X78241352Y-68910912D01*
X78258919Y-68800000D01*
X78241352Y-68689088D01*
X78190372Y-68589033D01*
X78110967Y-68509628D01*
X78106586Y-68507396D01*
X78106585Y-68507395D01*
X78057667Y-68482470D01*
X78010912Y-68458648D01*
X77921378Y-68444467D01*
X77904862Y-68441851D01*
X77900000Y-68441081D01*
X77895138Y-68441851D01*
X77878622Y-68444467D01*
X77789088Y-68458648D01*
X77742333Y-68482470D01*
X77693415Y-68507395D01*
X77693414Y-68507396D01*
X77689033Y-68509628D01*
X77609628Y-68589033D01*
X77558648Y-68689088D01*
X77541081Y-68800000D01*
X77558648Y-68910912D01*
X77560883Y-68915298D01*
X77599438Y-68990967D01*
X77609628Y-69010967D01*
X77689033Y-69090372D01*
X77693414Y-69092604D01*
X77693415Y-69092605D01*
X77784701Y-69139117D01*
X77784702Y-69139117D01*
X77789088Y-69141352D01*
X77790290Y-69141542D01*
X77825512Y-69171624D01*
X77829267Y-69219312D01*
X77798201Y-69255687D01*
X77792270Y-69258144D01*
X77789088Y-69258648D01*
X77784702Y-69260883D01*
X77784701Y-69260883D01*
X77693415Y-69307395D01*
X77693414Y-69307396D01*
X77689033Y-69309628D01*
X77609628Y-69389033D01*
X77607396Y-69393414D01*
X77607395Y-69393415D01*
X77598480Y-69410912D01*
X77558648Y-69489088D01*
X77541081Y-69600000D01*
X71180500Y-69600000D01*
X71180500Y-68050000D01*
X76491081Y-68050000D01*
X76508648Y-68160912D01*
X76559628Y-68260967D01*
X76639033Y-68340372D01*
X76643414Y-68342604D01*
X76643415Y-68342605D01*
X76682427Y-68362482D01*
X76739088Y-68391352D01*
X76850000Y-68408919D01*
X76960912Y-68391352D01*
X77017573Y-68362482D01*
X77056585Y-68342605D01*
X77056586Y-68342604D01*
X77060967Y-68340372D01*
X77140372Y-68260967D01*
X77191352Y-68160912D01*
X77208919Y-68050000D01*
X77191352Y-67939088D01*
X77140372Y-67839033D01*
X77060967Y-67759628D01*
X77056586Y-67757396D01*
X77056585Y-67757395D01*
X76965298Y-67710883D01*
X76965299Y-67710883D01*
X76960912Y-67708648D01*
X76850000Y-67691081D01*
X76739088Y-67708648D01*
X76734701Y-67710883D01*
X76734702Y-67710883D01*
X76643415Y-67757395D01*
X76643414Y-67757396D01*
X76639033Y-67759628D01*
X76559628Y-67839033D01*
X76508648Y-67939088D01*
X76491081Y-68050000D01*
X71180500Y-68050000D01*
X71180500Y-67100000D01*
X71391081Y-67100000D01*
X71408648Y-67210912D01*
X71410883Y-67215298D01*
X71450959Y-67293952D01*
X71459628Y-67310967D01*
X71539033Y-67390372D01*
X71543414Y-67392604D01*
X71543415Y-67392605D01*
X71568062Y-67405163D01*
X71639088Y-67441352D01*
X71750000Y-67458919D01*
X71860912Y-67441352D01*
X71865299Y-67439117D01*
X71869974Y-67437598D01*
X71870447Y-67439054D01*
X71912191Y-67435766D01*
X71948567Y-67466830D01*
X71954611Y-67485430D01*
X71957877Y-67506048D01*
X71957878Y-67506052D01*
X71958648Y-67510912D01*
X71960882Y-67515296D01*
X71960882Y-67515297D01*
X72002862Y-67597687D01*
X72009628Y-67610967D01*
X72089033Y-67690372D01*
X72093414Y-67692604D01*
X72093415Y-67692605D01*
X72142333Y-67717530D01*
X72189088Y-67741352D01*
X72300000Y-67758919D01*
X72410912Y-67741352D01*
X72457667Y-67717530D01*
X72506585Y-67692605D01*
X72506586Y-67692604D01*
X72510967Y-67690372D01*
X72590372Y-67610967D01*
X72597139Y-67597687D01*
X72610644Y-67571182D01*
X78412255Y-67571182D01*
X78414863Y-67610967D01*
X78424835Y-67763106D01*
X78425207Y-67768788D01*
X78425913Y-67771568D01*
X78468458Y-67939088D01*
X78473953Y-67960726D01*
X78556860Y-68140566D01*
X78558510Y-68142901D01*
X78558512Y-68142904D01*
X78641951Y-68260967D01*
X78671153Y-68302286D01*
X78813002Y-68440470D01*
X78977659Y-68550490D01*
X79159608Y-68628661D01*
X79256182Y-68650513D01*
X79349966Y-68671735D01*
X79349969Y-68671735D01*
X79352756Y-68672366D01*
X79440442Y-68675811D01*
X79547774Y-68680029D01*
X79547778Y-68680029D01*
X79550634Y-68680141D01*
X79746615Y-68651725D01*
X79934136Y-68588070D01*
X80106917Y-68491308D01*
X80122556Y-68478302D01*
X80256974Y-68366508D01*
X80259172Y-68364680D01*
X80311064Y-68302286D01*
X80383969Y-68214627D01*
X80383971Y-68214624D01*
X80385800Y-68212425D01*
X80482562Y-68039644D01*
X80546217Y-67852123D01*
X80559952Y-67757395D01*
X80574370Y-67657958D01*
X80574370Y-67657953D01*
X80574633Y-67656142D01*
X80576116Y-67599508D01*
X80573777Y-67574046D01*
X80573514Y-67571182D01*
X81460255Y-67571182D01*
X81462863Y-67610967D01*
X81472835Y-67763106D01*
X81473207Y-67768788D01*
X81473913Y-67771568D01*
X81516458Y-67939088D01*
X81521953Y-67960726D01*
X81604860Y-68140566D01*
X81606510Y-68142901D01*
X81606512Y-68142904D01*
X81689951Y-68260967D01*
X81719153Y-68302286D01*
X81861002Y-68440470D01*
X82025659Y-68550490D01*
X82207608Y-68628661D01*
X82304182Y-68650513D01*
X82397966Y-68671735D01*
X82397969Y-68671735D01*
X82400756Y-68672366D01*
X82488442Y-68675811D01*
X82595774Y-68680029D01*
X82595778Y-68680029D01*
X82598634Y-68680141D01*
X82794615Y-68651725D01*
X82982136Y-68588070D01*
X83154917Y-68491308D01*
X83170556Y-68478302D01*
X83304974Y-68366508D01*
X83307172Y-68364680D01*
X83359064Y-68302286D01*
X83431969Y-68214627D01*
X83431971Y-68214624D01*
X83433800Y-68212425D01*
X83530562Y-68039644D01*
X83594217Y-67852123D01*
X83607952Y-67757395D01*
X83622370Y-67657958D01*
X83622370Y-67657953D01*
X83622633Y-67656142D01*
X83624116Y-67599508D01*
X83621777Y-67574046D01*
X83609654Y-67442122D01*
X83605996Y-67402308D01*
X83603974Y-67395138D01*
X83553020Y-67214469D01*
X83553018Y-67214465D01*
X83552242Y-67211712D01*
X83464656Y-67034104D01*
X83369032Y-66906048D01*
X83347886Y-66877730D01*
X83347885Y-66877728D01*
X83346169Y-66875431D01*
X83200750Y-66741008D01*
X83033270Y-66635336D01*
X82849338Y-66561954D01*
X82846532Y-66561396D01*
X82846529Y-66561395D01*
X82657918Y-66523878D01*
X82657916Y-66523878D01*
X82655112Y-66523320D01*
X82561862Y-66522099D01*
X82459960Y-66520765D01*
X82459955Y-66520765D01*
X82457098Y-66520728D01*
X82454278Y-66521213D01*
X82454273Y-66521213D01*
X82340363Y-66540786D01*
X82261928Y-66554264D01*
X82259240Y-66555256D01*
X82259235Y-66555257D01*
X82078825Y-66621814D01*
X82078822Y-66621816D01*
X82076137Y-66622806D01*
X82073677Y-66624269D01*
X82073676Y-66624270D01*
X81908413Y-66722591D01*
X81908409Y-66722594D01*
X81905948Y-66724058D01*
X81824897Y-66795138D01*
X81770771Y-66842605D01*
X81757061Y-66854628D01*
X81755285Y-66856881D01*
X81755284Y-66856882D01*
X81647227Y-66993952D01*
X81634461Y-67010145D01*
X81542255Y-67185400D01*
X81541408Y-67188127D01*
X81541407Y-67188130D01*
X81502186Y-67314445D01*
X81483531Y-67374523D01*
X81460255Y-67571182D01*
X80573514Y-67571182D01*
X80561654Y-67442122D01*
X80557996Y-67402308D01*
X80555974Y-67395138D01*
X80505020Y-67214469D01*
X80505018Y-67214465D01*
X80504242Y-67211712D01*
X80416656Y-67034104D01*
X80321032Y-66906048D01*
X80299886Y-66877730D01*
X80299885Y-66877728D01*
X80298169Y-66875431D01*
X80152750Y-66741008D01*
X79985270Y-66635336D01*
X79801338Y-66561954D01*
X79798532Y-66561396D01*
X79798529Y-66561395D01*
X79609918Y-66523878D01*
X79609916Y-66523878D01*
X79607112Y-66523320D01*
X79513862Y-66522099D01*
X79411960Y-66520765D01*
X79411955Y-66520765D01*
X79409098Y-66520728D01*
X79406278Y-66521213D01*
X79406273Y-66521213D01*
X79292363Y-66540786D01*
X79213928Y-66554264D01*
X79211240Y-66555256D01*
X79211235Y-66555257D01*
X79030825Y-66621814D01*
X79030822Y-66621816D01*
X79028137Y-66622806D01*
X79025677Y-66624269D01*
X79025676Y-66624270D01*
X78860413Y-66722591D01*
X78860409Y-66722594D01*
X78857948Y-66724058D01*
X78776897Y-66795138D01*
X78722771Y-66842605D01*
X78709061Y-66854628D01*
X78707285Y-66856881D01*
X78707284Y-66856882D01*
X78599227Y-66993952D01*
X78586461Y-67010145D01*
X78494255Y-67185400D01*
X78493408Y-67188127D01*
X78493407Y-67188130D01*
X78454186Y-67314445D01*
X78435531Y-67374523D01*
X78412255Y-67571182D01*
X72610644Y-67571182D01*
X72639117Y-67515298D01*
X72641352Y-67510912D01*
X72658919Y-67400000D01*
X72641352Y-67289088D01*
X72603332Y-67214469D01*
X72592605Y-67193415D01*
X72592604Y-67193414D01*
X72590372Y-67189033D01*
X72545533Y-67144194D01*
X72527227Y-67100000D01*
X72545533Y-67055806D01*
X72590372Y-67010967D01*
X72599042Y-66993952D01*
X72639117Y-66915298D01*
X72641352Y-66910912D01*
X72658919Y-66800000D01*
X72641352Y-66689088D01*
X72611738Y-66630967D01*
X72592605Y-66593415D01*
X72592604Y-66593414D01*
X72590372Y-66589033D01*
X72551339Y-66550000D01*
X76141081Y-66550000D01*
X76158648Y-66660912D01*
X76170770Y-66684703D01*
X76200452Y-66742957D01*
X76209628Y-66760967D01*
X76289033Y-66840372D01*
X76293414Y-66842604D01*
X76293415Y-66842605D01*
X76313301Y-66852737D01*
X76389088Y-66891352D01*
X76500000Y-66908919D01*
X76610912Y-66891352D01*
X76686699Y-66852737D01*
X76706585Y-66842605D01*
X76706586Y-66842604D01*
X76710967Y-66840372D01*
X76790372Y-66760967D01*
X76799549Y-66742957D01*
X76829230Y-66684703D01*
X76841352Y-66660912D01*
X76858919Y-66550000D01*
X76841352Y-66439088D01*
X76831626Y-66420000D01*
X85451081Y-66420000D01*
X85468648Y-66530912D01*
X85480299Y-66553778D01*
X85516216Y-66624270D01*
X85519628Y-66630967D01*
X85599033Y-66710372D01*
X85603414Y-66712604D01*
X85603415Y-66712605D01*
X85642668Y-66732605D01*
X85699088Y-66761352D01*
X85810000Y-66778919D01*
X85920912Y-66761352D01*
X85977332Y-66732605D01*
X86016585Y-66712605D01*
X86016586Y-66712604D01*
X86020967Y-66710372D01*
X86100372Y-66630967D01*
X86103785Y-66624270D01*
X86139701Y-66553778D01*
X86151352Y-66530912D01*
X86165751Y-66440000D01*
X88501081Y-66440000D01*
X88518648Y-66550912D01*
X88524274Y-66561954D01*
X88561664Y-66635336D01*
X88569628Y-66650967D01*
X88649033Y-66730372D01*
X88653414Y-66732604D01*
X88653415Y-66732605D01*
X88698067Y-66755356D01*
X88749088Y-66781352D01*
X88860000Y-66798919D01*
X88970912Y-66781352D01*
X89021933Y-66755356D01*
X89066585Y-66732605D01*
X89066586Y-66732604D01*
X89070967Y-66730372D01*
X89150372Y-66650967D01*
X89158337Y-66635336D01*
X89195726Y-66561954D01*
X89201352Y-66550912D01*
X89218919Y-66440000D01*
X89201352Y-66329088D01*
X89150372Y-66229033D01*
X89070967Y-66149628D01*
X89066586Y-66147396D01*
X89066585Y-66147395D01*
X88975298Y-66100883D01*
X88975299Y-66100883D01*
X88970912Y-66098648D01*
X88860000Y-66081081D01*
X88749088Y-66098648D01*
X88744701Y-66100883D01*
X88744702Y-66100883D01*
X88653415Y-66147395D01*
X88653414Y-66147396D01*
X88649033Y-66149628D01*
X88569628Y-66229033D01*
X88518648Y-66329088D01*
X88501081Y-66440000D01*
X86165751Y-66440000D01*
X86168919Y-66420000D01*
X86151352Y-66309088D01*
X86112795Y-66233415D01*
X86102605Y-66213415D01*
X86102604Y-66213414D01*
X86100372Y-66209033D01*
X86020967Y-66129628D01*
X86016586Y-66127396D01*
X86016585Y-66127395D01*
X85925298Y-66080883D01*
X85925299Y-66080883D01*
X85920912Y-66078648D01*
X85810000Y-66061081D01*
X85699088Y-66078648D01*
X85694701Y-66080883D01*
X85694702Y-66080883D01*
X85603415Y-66127395D01*
X85603414Y-66127396D01*
X85599033Y-66129628D01*
X85519628Y-66209033D01*
X85517396Y-66213414D01*
X85517395Y-66213415D01*
X85507205Y-66233415D01*
X85468648Y-66309088D01*
X85451081Y-66420000D01*
X76831626Y-66420000D01*
X76790372Y-66339033D01*
X76710967Y-66259628D01*
X76706586Y-66257396D01*
X76706585Y-66257395D01*
X76644094Y-66225555D01*
X76610912Y-66208648D01*
X76500000Y-66191081D01*
X76389088Y-66208648D01*
X76355906Y-66225555D01*
X76293415Y-66257395D01*
X76293414Y-66257396D01*
X76289033Y-66259628D01*
X76209628Y-66339033D01*
X76158648Y-66439088D01*
X76141081Y-66550000D01*
X72551339Y-66550000D01*
X72510967Y-66509628D01*
X72506586Y-66507396D01*
X72506585Y-66507395D01*
X72415298Y-66460883D01*
X72415299Y-66460883D01*
X72410912Y-66458648D01*
X72300000Y-66441081D01*
X72189088Y-66458648D01*
X72184701Y-66460883D01*
X72184702Y-66460883D01*
X72093415Y-66507395D01*
X72093414Y-66507396D01*
X72089033Y-66509628D01*
X72009628Y-66589033D01*
X72007396Y-66593414D01*
X72007395Y-66593415D01*
X71973004Y-66660912D01*
X71958648Y-66689088D01*
X71957878Y-66693948D01*
X71957877Y-66693952D01*
X71954611Y-66714570D01*
X71929617Y-66755356D01*
X71883103Y-66766522D01*
X71870017Y-66762270D01*
X71869974Y-66762402D01*
X71865299Y-66760883D01*
X71860912Y-66758648D01*
X71771378Y-66744467D01*
X71754862Y-66741851D01*
X71750000Y-66741081D01*
X71745138Y-66741851D01*
X71728622Y-66744467D01*
X71639088Y-66758648D01*
X71598915Y-66779117D01*
X71543415Y-66807395D01*
X71543414Y-66807396D01*
X71539033Y-66809628D01*
X71459628Y-66889033D01*
X71457396Y-66893414D01*
X71457395Y-66893415D01*
X71448480Y-66910912D01*
X71408648Y-66989088D01*
X71391081Y-67100000D01*
X71180500Y-67100000D01*
X71180500Y-65450000D01*
X74441081Y-65450000D01*
X74458648Y-65560912D01*
X74460883Y-65565298D01*
X74507122Y-65656048D01*
X74509628Y-65660967D01*
X74589033Y-65740372D01*
X74593414Y-65742604D01*
X74593415Y-65742605D01*
X74620853Y-65756585D01*
X74689088Y-65791352D01*
X74800000Y-65808919D01*
X74910912Y-65791352D01*
X74979147Y-65756585D01*
X75006585Y-65742605D01*
X75006586Y-65742604D01*
X75010967Y-65740372D01*
X75074793Y-65676546D01*
X75118987Y-65658240D01*
X75163181Y-65676546D01*
X75174673Y-65692363D01*
X75209628Y-65760967D01*
X75289033Y-65840372D01*
X75293414Y-65842604D01*
X75293415Y-65842605D01*
X75342333Y-65867530D01*
X75389088Y-65891352D01*
X75500000Y-65908919D01*
X75610912Y-65891352D01*
X75657667Y-65867530D01*
X75706585Y-65842605D01*
X75706586Y-65842604D01*
X75710967Y-65840372D01*
X75790372Y-65760967D01*
X75841352Y-65660912D01*
X75858919Y-65550000D01*
X75841352Y-65439088D01*
X75817530Y-65392333D01*
X75792605Y-65343415D01*
X75792604Y-65343414D01*
X75790372Y-65339033D01*
X75710967Y-65259628D01*
X75706586Y-65257396D01*
X75706585Y-65257395D01*
X75615298Y-65210883D01*
X75615299Y-65210883D01*
X75610912Y-65208648D01*
X75500000Y-65191081D01*
X75389088Y-65208648D01*
X75384701Y-65210883D01*
X75384702Y-65210883D01*
X75293415Y-65257395D01*
X75293414Y-65257396D01*
X75289033Y-65259628D01*
X75225207Y-65323454D01*
X75181013Y-65341760D01*
X75136819Y-65323454D01*
X75125327Y-65307637D01*
X75090372Y-65239033D01*
X75010967Y-65159628D01*
X75006586Y-65157396D01*
X75006585Y-65157395D01*
X74915298Y-65110883D01*
X74915299Y-65110883D01*
X74910912Y-65108648D01*
X74800000Y-65091081D01*
X74689088Y-65108648D01*
X74684701Y-65110883D01*
X74684702Y-65110883D01*
X74593415Y-65157395D01*
X74593414Y-65157396D01*
X74589033Y-65159628D01*
X74509628Y-65239033D01*
X74458648Y-65339088D01*
X74441081Y-65450000D01*
X71180500Y-65450000D01*
X71180500Y-62192186D01*
X73734233Y-62192186D01*
X73759794Y-62460100D01*
X73823762Y-62721518D01*
X73824608Y-62723606D01*
X73824610Y-62723613D01*
X73892933Y-62892292D01*
X73924798Y-62970963D01*
X74060784Y-63203210D01*
X74228873Y-63413395D01*
X74230527Y-63414940D01*
X74423881Y-63595562D01*
X74423886Y-63595566D01*
X74425542Y-63597113D01*
X74646672Y-63750516D01*
X74887631Y-63870391D01*
X74889785Y-63871097D01*
X74889792Y-63871100D01*
X75075455Y-63931963D01*
X75143371Y-63954227D01*
X75145590Y-63954612D01*
X75145593Y-63954613D01*
X75406650Y-63999940D01*
X75406652Y-63999940D01*
X75408534Y-64000267D01*
X75493563Y-64004500D01*
X75661589Y-64004500D01*
X75662716Y-64004418D01*
X75662722Y-64004418D01*
X75859381Y-63990149D01*
X75859382Y-63990149D01*
X75861640Y-63989985D01*
X76124441Y-63931963D01*
X76126559Y-63931161D01*
X76126561Y-63931160D01*
X76373998Y-63837415D01*
X76373997Y-63837415D01*
X76376115Y-63836613D01*
X76378092Y-63835515D01*
X76378096Y-63835513D01*
X76533441Y-63749226D01*
X76611387Y-63705931D01*
X76825331Y-63542654D01*
X76914708Y-63451226D01*
X77011883Y-63351821D01*
X77011887Y-63351816D01*
X77013464Y-63350203D01*
X77171845Y-63132610D01*
X77172898Y-63130609D01*
X77296100Y-62896441D01*
X77296102Y-62896436D01*
X77297156Y-62894433D01*
X77386772Y-62640662D01*
X77438816Y-62376611D01*
X77452197Y-62107814D01*
X77426636Y-61839900D01*
X77362668Y-61578482D01*
X77361822Y-61576394D01*
X77361820Y-61576387D01*
X77262478Y-61331126D01*
X77261632Y-61329037D01*
X77125646Y-61096790D01*
X76957557Y-60886605D01*
X76933523Y-60864153D01*
X76762549Y-60704438D01*
X76762544Y-60704434D01*
X76760888Y-60702887D01*
X76539758Y-60549484D01*
X76298799Y-60429609D01*
X76296645Y-60428903D01*
X76296638Y-60428900D01*
X76103277Y-60365514D01*
X76043059Y-60345773D01*
X76040840Y-60345388D01*
X76040837Y-60345387D01*
X75779780Y-60300060D01*
X75779778Y-60300060D01*
X75777896Y-60299733D01*
X75692867Y-60295500D01*
X75524841Y-60295500D01*
X75523714Y-60295582D01*
X75523708Y-60295582D01*
X75327049Y-60309851D01*
X75327048Y-60309851D01*
X75324790Y-60310015D01*
X75061989Y-60368037D01*
X75059871Y-60368839D01*
X75059869Y-60368840D01*
X74901343Y-60428900D01*
X74810315Y-60463387D01*
X74808338Y-60464485D01*
X74808334Y-60464487D01*
X74692679Y-60528728D01*
X74575043Y-60594069D01*
X74361099Y-60757346D01*
X74271722Y-60848774D01*
X74174547Y-60948179D01*
X74174543Y-60948184D01*
X74172966Y-60949797D01*
X74014585Y-61167390D01*
X74013533Y-61169389D01*
X74013532Y-61169391D01*
X73930563Y-61327090D01*
X73889274Y-61405567D01*
X73799658Y-61659338D01*
X73747614Y-61923389D01*
X73734233Y-62192186D01*
X71180500Y-62192186D01*
X71180500Y-58000000D01*
X76741081Y-58000000D01*
X76758648Y-58110912D01*
X76760883Y-58115298D01*
X76800959Y-58193952D01*
X76809628Y-58210967D01*
X76889033Y-58290372D01*
X76893414Y-58292604D01*
X76893415Y-58292605D01*
X76942333Y-58317530D01*
X76989088Y-58341352D01*
X77100000Y-58358919D01*
X77210912Y-58341352D01*
X77257667Y-58317530D01*
X77292072Y-58300000D01*
X89141081Y-58300000D01*
X89158648Y-58410912D01*
X89209628Y-58510967D01*
X89289033Y-58590372D01*
X89293414Y-58592604D01*
X89293415Y-58592605D01*
X89342333Y-58617530D01*
X89389088Y-58641352D01*
X89500000Y-58658919D01*
X89610912Y-58641352D01*
X89657667Y-58617530D01*
X89706585Y-58592605D01*
X89706586Y-58592604D01*
X89710967Y-58590372D01*
X89790372Y-58510967D01*
X89841352Y-58410912D01*
X89858919Y-58300000D01*
X89841352Y-58189088D01*
X89801520Y-58110912D01*
X89792605Y-58093415D01*
X89792604Y-58093414D01*
X89790372Y-58089033D01*
X89710967Y-58009628D01*
X89706586Y-58007396D01*
X89706585Y-58007395D01*
X89615298Y-57960883D01*
X89615299Y-57960883D01*
X89610912Y-57958648D01*
X89500000Y-57941081D01*
X89389088Y-57958648D01*
X89384701Y-57960883D01*
X89384702Y-57960883D01*
X89293415Y-58007395D01*
X89293414Y-58007396D01*
X89289033Y-58009628D01*
X89209628Y-58089033D01*
X89207396Y-58093414D01*
X89207395Y-58093415D01*
X89198480Y-58110912D01*
X89158648Y-58189088D01*
X89141081Y-58300000D01*
X77292072Y-58300000D01*
X77306585Y-58292605D01*
X77306586Y-58292604D01*
X77310967Y-58290372D01*
X77390372Y-58210967D01*
X77399042Y-58193952D01*
X77439117Y-58115298D01*
X77441352Y-58110912D01*
X77458919Y-58000000D01*
X77441352Y-57889088D01*
X77390372Y-57789033D01*
X77310967Y-57709628D01*
X77306586Y-57707396D01*
X77306585Y-57707395D01*
X77215298Y-57660883D01*
X77215299Y-57660883D01*
X77210912Y-57658648D01*
X77100000Y-57641081D01*
X76989088Y-57658648D01*
X76984701Y-57660883D01*
X76984702Y-57660883D01*
X76893415Y-57707395D01*
X76893414Y-57707396D01*
X76889033Y-57709628D01*
X76809628Y-57789033D01*
X76758648Y-57889088D01*
X76741081Y-58000000D01*
X71180500Y-58000000D01*
X71180500Y-57250000D01*
X80691081Y-57250000D01*
X80708648Y-57360912D01*
X80759628Y-57460967D01*
X80839033Y-57540372D01*
X80843414Y-57542604D01*
X80843415Y-57542605D01*
X80892333Y-57567530D01*
X80939088Y-57591352D01*
X81050000Y-57608919D01*
X81160912Y-57591352D01*
X81207667Y-57567530D01*
X81256585Y-57542605D01*
X81256586Y-57542604D01*
X81260967Y-57540372D01*
X81340372Y-57460967D01*
X81391352Y-57360912D01*
X81408919Y-57250000D01*
X81391352Y-57139088D01*
X81367530Y-57092333D01*
X81342605Y-57043415D01*
X81342604Y-57043414D01*
X81340372Y-57039033D01*
X81260967Y-56959628D01*
X81256586Y-56957396D01*
X81256585Y-56957395D01*
X81165298Y-56910883D01*
X81165299Y-56910883D01*
X81160912Y-56908648D01*
X81050000Y-56891081D01*
X80939088Y-56908648D01*
X80934701Y-56910883D01*
X80934702Y-56910883D01*
X80843415Y-56957395D01*
X80843414Y-56957396D01*
X80839033Y-56959628D01*
X80759628Y-57039033D01*
X80757396Y-57043414D01*
X80757395Y-57043415D01*
X80732470Y-57092333D01*
X80708648Y-57139088D01*
X80691081Y-57250000D01*
X71180500Y-57250000D01*
X71180500Y-56500000D01*
X73441081Y-56500000D01*
X73458648Y-56610912D01*
X73509628Y-56710967D01*
X73589033Y-56790372D01*
X73593414Y-56792604D01*
X73593415Y-56792605D01*
X73619799Y-56806048D01*
X73689088Y-56841352D01*
X73800000Y-56858919D01*
X73910912Y-56841352D01*
X73980201Y-56806048D01*
X74006585Y-56792605D01*
X74006586Y-56792604D01*
X74010967Y-56790372D01*
X74090372Y-56710967D01*
X74095960Y-56700000D01*
X78191081Y-56700000D01*
X78208648Y-56810912D01*
X78210883Y-56815298D01*
X78249496Y-56891081D01*
X78259628Y-56910967D01*
X78339033Y-56990372D01*
X78343414Y-56992604D01*
X78343415Y-56992605D01*
X78392333Y-57017530D01*
X78439088Y-57041352D01*
X78550000Y-57058919D01*
X78660912Y-57041352D01*
X78707667Y-57017530D01*
X78756585Y-56992605D01*
X78756586Y-56992604D01*
X78760967Y-56990372D01*
X78840372Y-56910967D01*
X78850505Y-56891081D01*
X78889117Y-56815298D01*
X78891352Y-56810912D01*
X78908919Y-56700000D01*
X83191081Y-56700000D01*
X83208648Y-56810912D01*
X83210883Y-56815298D01*
X83249496Y-56891081D01*
X83259628Y-56910967D01*
X83339033Y-56990372D01*
X83343414Y-56992604D01*
X83343415Y-56992605D01*
X83392333Y-57017530D01*
X83439088Y-57041352D01*
X83550000Y-57058919D01*
X83660912Y-57041352D01*
X83707667Y-57017530D01*
X83756585Y-56992605D01*
X83756586Y-56992604D01*
X83760967Y-56990372D01*
X83840372Y-56910967D01*
X83850505Y-56891081D01*
X83889117Y-56815298D01*
X83891352Y-56810912D01*
X83908919Y-56700000D01*
X83891352Y-56589088D01*
X83867530Y-56542333D01*
X83842605Y-56493415D01*
X83842604Y-56493414D01*
X83840372Y-56489033D01*
X83760967Y-56409628D01*
X83756586Y-56407396D01*
X83756585Y-56407395D01*
X83665298Y-56360883D01*
X83665299Y-56360883D01*
X83660912Y-56358648D01*
X83550000Y-56341081D01*
X83439088Y-56358648D01*
X83434701Y-56360883D01*
X83434702Y-56360883D01*
X83343415Y-56407395D01*
X83343414Y-56407396D01*
X83339033Y-56409628D01*
X83259628Y-56489033D01*
X83257396Y-56493414D01*
X83257395Y-56493415D01*
X83232470Y-56542333D01*
X83208648Y-56589088D01*
X83191081Y-56700000D01*
X78908919Y-56700000D01*
X78891352Y-56589088D01*
X78867530Y-56542333D01*
X78842605Y-56493415D01*
X78842604Y-56493414D01*
X78840372Y-56489033D01*
X78760967Y-56409628D01*
X78756586Y-56407396D01*
X78756585Y-56407395D01*
X78665298Y-56360883D01*
X78665299Y-56360883D01*
X78660912Y-56358648D01*
X78550000Y-56341081D01*
X78439088Y-56358648D01*
X78434701Y-56360883D01*
X78434702Y-56360883D01*
X78343415Y-56407395D01*
X78343414Y-56407396D01*
X78339033Y-56409628D01*
X78259628Y-56489033D01*
X78257396Y-56493414D01*
X78257395Y-56493415D01*
X78232470Y-56542333D01*
X78208648Y-56589088D01*
X78191081Y-56700000D01*
X74095960Y-56700000D01*
X74141352Y-56610912D01*
X74158919Y-56500000D01*
X74141352Y-56389088D01*
X74116891Y-56341081D01*
X74092605Y-56293415D01*
X74092604Y-56293414D01*
X74090372Y-56289033D01*
X74010967Y-56209628D01*
X74006586Y-56207396D01*
X74006585Y-56207395D01*
X73915298Y-56160883D01*
X73915299Y-56160883D01*
X73910912Y-56158648D01*
X73800000Y-56141081D01*
X73689088Y-56158648D01*
X73684701Y-56160883D01*
X73684702Y-56160883D01*
X73593415Y-56207395D01*
X73593414Y-56207396D01*
X73589033Y-56209628D01*
X73509628Y-56289033D01*
X73507396Y-56293414D01*
X73507395Y-56293415D01*
X73483109Y-56341081D01*
X73458648Y-56389088D01*
X73441081Y-56500000D01*
X71180500Y-56500000D01*
X71180500Y-55850000D01*
X72041081Y-55850000D01*
X72058648Y-55960912D01*
X72060883Y-55965298D01*
X72107122Y-56056048D01*
X72109628Y-56060967D01*
X72189033Y-56140372D01*
X72193414Y-56142604D01*
X72193415Y-56142605D01*
X72229453Y-56160967D01*
X72289088Y-56191352D01*
X72400000Y-56208919D01*
X72510912Y-56191352D01*
X72570547Y-56160967D01*
X72606585Y-56142605D01*
X72606586Y-56142604D01*
X72610967Y-56140372D01*
X72674793Y-56076546D01*
X72718987Y-56058240D01*
X72763181Y-56076546D01*
X72774673Y-56092363D01*
X72809628Y-56160967D01*
X72889033Y-56240372D01*
X72893414Y-56242604D01*
X72893415Y-56242605D01*
X72919799Y-56256048D01*
X72989088Y-56291352D01*
X73100000Y-56308919D01*
X73210912Y-56291352D01*
X73280201Y-56256048D01*
X73306585Y-56242605D01*
X73306586Y-56242604D01*
X73310967Y-56240372D01*
X73390372Y-56160967D01*
X73400505Y-56141081D01*
X73425204Y-56092605D01*
X73441352Y-56060912D01*
X73458919Y-55950000D01*
X73451000Y-55900000D01*
X74141081Y-55900000D01*
X74158648Y-56010912D01*
X74209628Y-56110967D01*
X74289033Y-56190372D01*
X74293414Y-56192604D01*
X74293415Y-56192605D01*
X74322443Y-56207395D01*
X74389088Y-56241352D01*
X74500000Y-56258919D01*
X74610912Y-56241352D01*
X74677557Y-56207395D01*
X74706585Y-56192605D01*
X74706586Y-56192604D01*
X74710967Y-56190372D01*
X74790372Y-56110967D01*
X74841352Y-56010912D01*
X74858919Y-55900000D01*
X74843080Y-55800000D01*
X77191081Y-55800000D01*
X77208648Y-55910912D01*
X77210883Y-55915298D01*
X77257122Y-56006048D01*
X77259628Y-56010967D01*
X77339033Y-56090372D01*
X77343414Y-56092604D01*
X77343415Y-56092605D01*
X77370853Y-56106585D01*
X77439088Y-56141352D01*
X77550000Y-56158919D01*
X77606312Y-56150000D01*
X79441081Y-56150000D01*
X79458648Y-56260912D01*
X79460883Y-56265298D01*
X79499496Y-56341081D01*
X79509628Y-56360967D01*
X79589033Y-56440372D01*
X79593414Y-56442604D01*
X79593415Y-56442605D01*
X79642333Y-56467530D01*
X79689088Y-56491352D01*
X79800000Y-56508919D01*
X79910912Y-56491352D01*
X79957667Y-56467530D01*
X80006585Y-56442605D01*
X80006586Y-56442604D01*
X80010967Y-56440372D01*
X80090372Y-56360967D01*
X80100505Y-56341081D01*
X80139117Y-56265298D01*
X80141352Y-56260912D01*
X80158919Y-56150000D01*
X80141352Y-56039088D01*
X80099176Y-55956312D01*
X80092605Y-55943415D01*
X80092604Y-55943414D01*
X80090372Y-55939033D01*
X80010967Y-55859628D01*
X80006586Y-55857396D01*
X80006585Y-55857395D01*
X79992071Y-55850000D01*
X82241081Y-55850000D01*
X82258648Y-55960912D01*
X82260883Y-55965298D01*
X82307122Y-56056048D01*
X82309628Y-56060967D01*
X82389033Y-56140372D01*
X82393414Y-56142604D01*
X82393415Y-56142605D01*
X82429453Y-56160967D01*
X82489088Y-56191352D01*
X82600000Y-56208919D01*
X82710912Y-56191352D01*
X82770547Y-56160967D01*
X82806585Y-56142605D01*
X82806586Y-56142604D01*
X82810967Y-56140372D01*
X82890372Y-56060967D01*
X82892879Y-56056048D01*
X82939117Y-55965298D01*
X82941352Y-55960912D01*
X82951000Y-55900000D01*
X87391081Y-55900000D01*
X87408648Y-56010912D01*
X87459628Y-56110967D01*
X87539033Y-56190372D01*
X87543414Y-56192604D01*
X87543415Y-56192605D01*
X87572443Y-56207395D01*
X87639088Y-56241352D01*
X87750000Y-56258919D01*
X87860912Y-56241352D01*
X87927557Y-56207395D01*
X87956585Y-56192605D01*
X87956586Y-56192604D01*
X87960967Y-56190372D01*
X88040372Y-56110967D01*
X88091352Y-56010912D01*
X88101000Y-55950000D01*
X89141081Y-55950000D01*
X89158648Y-56060912D01*
X89174796Y-56092605D01*
X89199496Y-56141081D01*
X89209628Y-56160967D01*
X89289033Y-56240372D01*
X89293414Y-56242604D01*
X89293415Y-56242605D01*
X89319799Y-56256048D01*
X89389088Y-56291352D01*
X89500000Y-56308919D01*
X89610912Y-56291352D01*
X89680201Y-56256048D01*
X89706585Y-56242605D01*
X89706586Y-56242604D01*
X89710967Y-56240372D01*
X89790372Y-56160967D01*
X89800505Y-56141081D01*
X89825204Y-56092605D01*
X89841352Y-56060912D01*
X89858919Y-55950000D01*
X89841352Y-55839088D01*
X89813641Y-55784702D01*
X89792605Y-55743415D01*
X89792604Y-55743414D01*
X89790372Y-55739033D01*
X89710967Y-55659628D01*
X89706586Y-55657396D01*
X89706585Y-55657395D01*
X89615298Y-55610883D01*
X89615299Y-55610883D01*
X89610912Y-55608648D01*
X89500000Y-55591081D01*
X89389088Y-55608648D01*
X89384701Y-55610883D01*
X89384702Y-55610883D01*
X89293415Y-55657395D01*
X89293414Y-55657396D01*
X89289033Y-55659628D01*
X89209628Y-55739033D01*
X89207396Y-55743414D01*
X89207395Y-55743415D01*
X89186359Y-55784702D01*
X89158648Y-55839088D01*
X89141081Y-55950000D01*
X88101000Y-55950000D01*
X88108919Y-55900000D01*
X88091352Y-55789088D01*
X88049850Y-55707634D01*
X88042605Y-55693415D01*
X88042604Y-55693414D01*
X88040372Y-55689033D01*
X87960967Y-55609628D01*
X87956586Y-55607396D01*
X87956585Y-55607395D01*
X87865298Y-55560883D01*
X87865299Y-55560883D01*
X87860912Y-55558648D01*
X87750000Y-55541081D01*
X87639088Y-55558648D01*
X87634701Y-55560883D01*
X87634702Y-55560883D01*
X87543415Y-55607395D01*
X87543414Y-55607396D01*
X87539033Y-55609628D01*
X87459628Y-55689033D01*
X87457396Y-55693414D01*
X87457395Y-55693415D01*
X87450150Y-55707634D01*
X87408648Y-55789088D01*
X87391081Y-55900000D01*
X82951000Y-55900000D01*
X82958919Y-55850000D01*
X82941352Y-55739088D01*
X82890372Y-55639033D01*
X82810967Y-55559628D01*
X82806586Y-55557396D01*
X82806585Y-55557395D01*
X82715298Y-55510883D01*
X82715299Y-55510883D01*
X82710912Y-55508648D01*
X82600000Y-55491081D01*
X82489088Y-55508648D01*
X82484701Y-55510883D01*
X82484702Y-55510883D01*
X82393415Y-55557395D01*
X82393414Y-55557396D01*
X82389033Y-55559628D01*
X82309628Y-55639033D01*
X82258648Y-55739088D01*
X82241081Y-55850000D01*
X79992071Y-55850000D01*
X79915298Y-55810883D01*
X79915299Y-55810883D01*
X79910912Y-55808648D01*
X79800000Y-55791081D01*
X79689088Y-55808648D01*
X79684701Y-55810883D01*
X79684702Y-55810883D01*
X79593415Y-55857395D01*
X79593414Y-55857396D01*
X79589033Y-55859628D01*
X79509628Y-55939033D01*
X79507396Y-55943414D01*
X79507395Y-55943415D01*
X79500824Y-55956312D01*
X79458648Y-56039088D01*
X79441081Y-56150000D01*
X77606312Y-56150000D01*
X77660912Y-56141352D01*
X77729147Y-56106585D01*
X77756585Y-56092605D01*
X77756586Y-56092604D01*
X77760967Y-56090372D01*
X77840372Y-56010967D01*
X77842879Y-56006048D01*
X77889117Y-55915298D01*
X77891352Y-55910912D01*
X77908919Y-55800000D01*
X77891352Y-55689088D01*
X77840372Y-55589033D01*
X77760967Y-55509628D01*
X77756586Y-55507396D01*
X77756585Y-55507395D01*
X77665298Y-55460883D01*
X77665299Y-55460883D01*
X77660912Y-55458648D01*
X77550000Y-55441081D01*
X77439088Y-55458648D01*
X77434701Y-55460883D01*
X77434702Y-55460883D01*
X77343415Y-55507395D01*
X77343414Y-55507396D01*
X77339033Y-55509628D01*
X77259628Y-55589033D01*
X77208648Y-55689088D01*
X77191081Y-55800000D01*
X74843080Y-55800000D01*
X74841352Y-55789088D01*
X74799850Y-55707634D01*
X74792605Y-55693415D01*
X74792604Y-55693414D01*
X74790372Y-55689033D01*
X74710967Y-55609628D01*
X74706586Y-55607396D01*
X74706585Y-55607395D01*
X74615298Y-55560883D01*
X74615299Y-55560883D01*
X74610912Y-55558648D01*
X74500000Y-55541081D01*
X74389088Y-55558648D01*
X74384701Y-55560883D01*
X74384702Y-55560883D01*
X74293415Y-55607395D01*
X74293414Y-55607396D01*
X74289033Y-55609628D01*
X74209628Y-55689033D01*
X74207396Y-55693414D01*
X74207395Y-55693415D01*
X74200150Y-55707634D01*
X74158648Y-55789088D01*
X74141081Y-55900000D01*
X73451000Y-55900000D01*
X73441352Y-55839088D01*
X73413641Y-55784702D01*
X73392605Y-55743415D01*
X73392604Y-55743414D01*
X73390372Y-55739033D01*
X73310967Y-55659628D01*
X73306586Y-55657396D01*
X73306585Y-55657395D01*
X73215298Y-55610883D01*
X73215299Y-55610883D01*
X73210912Y-55608648D01*
X73100000Y-55591081D01*
X72989088Y-55608648D01*
X72984701Y-55610883D01*
X72984702Y-55610883D01*
X72893415Y-55657395D01*
X72893414Y-55657396D01*
X72889033Y-55659628D01*
X72825207Y-55723454D01*
X72781013Y-55741760D01*
X72736819Y-55723454D01*
X72725327Y-55707637D01*
X72690372Y-55639033D01*
X72610967Y-55559628D01*
X72606586Y-55557396D01*
X72606585Y-55557395D01*
X72515298Y-55510883D01*
X72515299Y-55510883D01*
X72510912Y-55508648D01*
X72400000Y-55491081D01*
X72289088Y-55508648D01*
X72284701Y-55510883D01*
X72284702Y-55510883D01*
X72193415Y-55557395D01*
X72193414Y-55557396D01*
X72189033Y-55559628D01*
X72109628Y-55639033D01*
X72058648Y-55739088D01*
X72041081Y-55850000D01*
X71180500Y-55850000D01*
X71180500Y-48050000D01*
X81551081Y-48050000D01*
X81568648Y-48160912D01*
X81619628Y-48260967D01*
X81699033Y-48340372D01*
X81703414Y-48342604D01*
X81703415Y-48342605D01*
X81752333Y-48367530D01*
X81799088Y-48391352D01*
X81910000Y-48408919D01*
X82020912Y-48391352D01*
X82067667Y-48367530D01*
X82116585Y-48342605D01*
X82116586Y-48342604D01*
X82120967Y-48340372D01*
X82200372Y-48260967D01*
X82251352Y-48160912D01*
X82252122Y-48156050D01*
X82252123Y-48156047D01*
X82254058Y-48143834D01*
X82279052Y-48103048D01*
X82325565Y-48091882D01*
X82365137Y-48098150D01*
X82365145Y-48098150D01*
X82370000Y-48098919D01*
X82480912Y-48081352D01*
X82532902Y-48054862D01*
X82576585Y-48032605D01*
X82576586Y-48032604D01*
X82580967Y-48030372D01*
X82660372Y-47950967D01*
X82663947Y-47943952D01*
X82709117Y-47855298D01*
X82711352Y-47850912D01*
X82728919Y-47740000D01*
X82711352Y-47629088D01*
X82660372Y-47529033D01*
X82580967Y-47449628D01*
X82576586Y-47447396D01*
X82576585Y-47447395D01*
X82485298Y-47400883D01*
X82485299Y-47400883D01*
X82480912Y-47398648D01*
X82418306Y-47388732D01*
X82385792Y-47383582D01*
X82345005Y-47358588D01*
X82333838Y-47312077D01*
X82338919Y-47280000D01*
X82321352Y-47169088D01*
X82270372Y-47069033D01*
X82190967Y-46989628D01*
X82186586Y-46987396D01*
X82186585Y-46987395D01*
X82095298Y-46940883D01*
X82095299Y-46940883D01*
X82090912Y-46938648D01*
X81980000Y-46921081D01*
X81869088Y-46938648D01*
X81864701Y-46940883D01*
X81864702Y-46940883D01*
X81773415Y-46987395D01*
X81773414Y-46987396D01*
X81769033Y-46989628D01*
X81689628Y-47069033D01*
X81638648Y-47169088D01*
X81621081Y-47280000D01*
X81638648Y-47390912D01*
X81689628Y-47490967D01*
X81769033Y-47570372D01*
X81773416Y-47572605D01*
X81812974Y-47592761D01*
X81844041Y-47629135D01*
X81840288Y-47676823D01*
X81803920Y-47707883D01*
X81799088Y-47708648D01*
X81750640Y-47733333D01*
X81703415Y-47757395D01*
X81703414Y-47757396D01*
X81699033Y-47759628D01*
X81619628Y-47839033D01*
X81617396Y-47843414D01*
X81617395Y-47843415D01*
X81592470Y-47892333D01*
X81568648Y-47939088D01*
X81551081Y-48050000D01*
X71180500Y-48050000D01*
X71180500Y-44078965D01*
X71198806Y-44034771D01*
X71243000Y-44016465D01*
X71287194Y-44034771D01*
X71298286Y-44049816D01*
X71307424Y-44067148D01*
X71423894Y-44204971D01*
X71426582Y-44207026D01*
X71426583Y-44207027D01*
X71505238Y-44267163D01*
X71567242Y-44314569D01*
X71730780Y-44390828D01*
X71734080Y-44391566D01*
X71734081Y-44391566D01*
X71838158Y-44414830D01*
X71906879Y-44430191D01*
X71910218Y-44430378D01*
X71911542Y-44430452D01*
X71911553Y-44430452D01*
X71912406Y-44430500D01*
X72045077Y-44430500D01*
X72145871Y-44419550D01*
X72176021Y-44416275D01*
X72176022Y-44416275D01*
X72179389Y-44415909D01*
X72182594Y-44414830D01*
X72182596Y-44414830D01*
X72268012Y-44386084D01*
X72350409Y-44358355D01*
X72505080Y-44265419D01*
X72636187Y-44141437D01*
X72737612Y-43992195D01*
X72804623Y-43824655D01*
X72834094Y-43646633D01*
X72824651Y-43466436D01*
X72776732Y-43292470D01*
X72775154Y-43289477D01*
X72775152Y-43289472D01*
X72694155Y-43135847D01*
X72692576Y-43132852D01*
X72576106Y-42995029D01*
X72497044Y-42934581D01*
X72435442Y-42887483D01*
X72432758Y-42885431D01*
X72398903Y-42869644D01*
X72366586Y-42834376D01*
X72368673Y-42786586D01*
X72403941Y-42754269D01*
X72425317Y-42750500D01*
X90837000Y-42750500D01*
X90881194Y-42768806D01*
G37*
%TD.AperFunction*%
%TD*%
M02*
