M48
; DRILL file {KiCad (6.0.9)} date Fr 23 Dez 2022 14:19:23 CET
; FORMAT={-:-/ absolute / metric / decimal}
; #@! TF.CreationDate,2022-12-23T14:19:23+01:00
; #@! TF.GenerationSoftware,Kicad,Pcbnew,(6.0.9)
; #@! TF.FileFunction,Plated,1,4,PTH
FMAT,2
METRIC
; #@! TA.AperFunction,Plated,PTH,ViaDrill
T1C0.200
; #@! TA.AperFunction,Plated,PTH,ComponentDrill
T2C0.700
; #@! TA.AperFunction,Plated,PTH,ComponentDrill
T3C1.100
%
G90
G05
T1
X71.5Y-81.1
X71.75Y-67.1
X71.8Y-73.1
X71.8Y-75.6
X71.9Y-71.5
X72.3Y-66.8
X72.3Y-67.4
X72.3Y-71.0
X72.4Y-55.85
X72.45Y-74.7
X73.1Y-55.95
X73.3Y-75.6
X73.8Y-56.5
X73.85Y-72.9
X73.95Y-74.7
X74.1Y-65.55
X74.1Y-69.15
X74.5Y-55.9
X74.8Y-65.45
X75.5Y-65.55
X75.6Y-76.1
X75.9Y-71.0
X76.05Y-57.2
X76.1Y-81.1
X76.15Y-67.4
X76.2Y-71.55
X76.5Y-66.55
X76.5Y-71.0
X76.8Y-71.6
X76.85Y-68.05
X76.85Y-70.35
X77.1Y-58.0
X77.1Y-66.7
X77.45Y-71.65
X77.45Y-74.35
X77.45Y-76.55
X77.55Y-55.8
X77.9Y-68.8
X77.9Y-69.6
X77.9Y-74.85
X77.9Y-76.0
X78.55Y-56.7
X78.842Y-71.0
X79.79Y-46.6
X79.8Y-56.15
X79.8Y-73.7
X79.8Y-76.95
X80.32Y-46.6
X80.6Y-81.1
X80.8Y-73.99
X80.8Y-77.3
X81.05Y-57.25
X81.05Y-69.85
X81.142Y-70.5
X81.142Y-71.5
X81.3Y-76.88
X81.9Y-73.8
X81.9Y-77.15
X81.91Y-48.05
X81.98Y-47.28
X82.37Y-47.74
X82.5Y-73.8
X82.6Y-55.85
X83.142Y-71.0
X83.542Y-70.5
X83.542Y-71.5
X83.55Y-56.7
X84.2Y-74.89
X84.2Y-76.04
X84.65Y-74.34
X84.65Y-76.54
X85.1Y-81.1
X85.75Y-71.3
X85.81Y-66.42
X86.05Y-57.25
X86.9Y-76.0
X87.03Y-71.27
X87.3Y-69.3
X87.31Y-66.43
X87.31Y-71.99
X87.75Y-55.9
X87.98Y-67.17
X88.15Y-74.7
X88.8Y-75.6
X88.86Y-66.44
X89.5Y-55.95
X89.5Y-58.3
X89.55Y-68.1
X89.57Y-71.2
X89.6Y-68.78
X89.6Y-70.16
X89.65Y-74.7
X90.3Y-73.1
X90.3Y-75.6
T2
X78.65Y-73.29
X78.65Y-77.59
X83.45Y-73.29
X83.45Y-77.59
T3
X79.494Y-67.6
X82.542Y-67.6
T0
M30
