%TF.GenerationSoftware,KiCad,Pcbnew,(6.0.9)*%
%TF.CreationDate,2022-12-23T14:34:16+01:00*%
%TF.ProjectId,Gigaset-Debug-Adapter,47696761-7365-4742-9d44-656275672d41,rev?*%
%TF.SameCoordinates,Original*%
%TF.FileFunction,Drillmap*%
%TF.FilePolarity,Positive*%
%FSLAX45Y45*%
G04 Gerber Fmt 4.5, Leading zero omitted, Abs format (unit mm)*
G04 Created by KiCad (PCBNEW (6.0.9)) date 2022-12-23 14:34:16*
%MOMM*%
%LPD*%
G01*
G04 APERTURE LIST*
%ADD10C,0.100000*%
%ADD11C,0.200000*%
%ADD12C,0.058000*%
%ADD13C,0.066000*%
%ADD14C,0.115200*%
%ADD15C,0.320000*%
G04 APERTURE END LIST*
D10*
X7068000Y-4225000D02*
X9140000Y-4225000D01*
X9140000Y-4225000D02*
X9140000Y-8245000D01*
X9140000Y-8245000D02*
X7068000Y-8245000D01*
X7068000Y-8245000D02*
X7068000Y-4225000D01*
D11*
D12*
X8451000Y-7514966D02*
X8509000Y-7572966D01*
X8509000Y-7514966D02*
X8451000Y-7572966D01*
D11*
X8459000Y-7572966D02*
X8501000Y-7572966D01*
X8459000Y-7514966D02*
X8501000Y-7514966D01*
X8501000Y-7572966D02*
G75*
G03*
X8501000Y-7514966I0J29000D01*
G01*
X8459000Y-7514966D02*
G75*
G03*
X8459000Y-7572966I0J-29000D01*
G01*
D13*
X7763000Y-7543966D02*
G75*
G03*
X7763000Y-7543966I-33000J0D01*
G01*
D14*
X7200000Y-4302400D02*
X7200000Y-4417600D01*
X7142400Y-4360000D02*
X7257600Y-4360000D01*
X9010000Y-8052400D02*
X9010000Y-8167600D01*
X8952400Y-8110000D02*
X9067600Y-8110000D01*
D15*
X7672460Y-6328138D02*
X7672460Y-6101862D01*
X7446183Y-6101862D01*
X7446183Y-6328138D01*
X7672460Y-6328138D01*
X8763138Y-6328138D02*
X8763138Y-6101862D01*
X8536862Y-6101862D01*
X8536862Y-6328138D01*
X8763138Y-6328138D01*
D11*
X7320619Y-8560476D02*
X7320619Y-8360476D01*
X7368238Y-8360476D01*
X7396809Y-8370000D01*
X7415857Y-8389048D01*
X7425381Y-8408095D01*
X7434905Y-8446190D01*
X7434905Y-8474762D01*
X7425381Y-8512857D01*
X7415857Y-8531905D01*
X7396809Y-8550952D01*
X7368238Y-8560476D01*
X7320619Y-8560476D01*
X7520619Y-8560476D02*
X7520619Y-8427143D01*
X7520619Y-8465238D02*
X7530143Y-8446190D01*
X7539667Y-8436667D01*
X7558714Y-8427143D01*
X7577762Y-8427143D01*
X7644428Y-8560476D02*
X7644428Y-8427143D01*
X7644428Y-8360476D02*
X7634905Y-8370000D01*
X7644428Y-8379524D01*
X7653952Y-8370000D01*
X7644428Y-8360476D01*
X7644428Y-8379524D01*
X7768238Y-8560476D02*
X7749190Y-8550952D01*
X7739667Y-8531905D01*
X7739667Y-8360476D01*
X7873000Y-8560476D02*
X7853952Y-8550952D01*
X7844428Y-8531905D01*
X7844428Y-8360476D01*
X8101571Y-8560476D02*
X8101571Y-8360476D01*
X8168238Y-8503333D01*
X8234905Y-8360476D01*
X8234905Y-8560476D01*
X8415857Y-8560476D02*
X8415857Y-8455714D01*
X8406333Y-8436667D01*
X8387286Y-8427143D01*
X8349190Y-8427143D01*
X8330143Y-8436667D01*
X8415857Y-8550952D02*
X8396810Y-8560476D01*
X8349190Y-8560476D01*
X8330143Y-8550952D01*
X8320619Y-8531905D01*
X8320619Y-8512857D01*
X8330143Y-8493810D01*
X8349190Y-8484286D01*
X8396810Y-8484286D01*
X8415857Y-8474762D01*
X8511095Y-8427143D02*
X8511095Y-8627143D01*
X8511095Y-8436667D02*
X8530143Y-8427143D01*
X8568238Y-8427143D01*
X8587286Y-8436667D01*
X8596810Y-8446190D01*
X8606333Y-8465238D01*
X8606333Y-8522381D01*
X8596810Y-8541429D01*
X8587286Y-8550952D01*
X8568238Y-8560476D01*
X8530143Y-8560476D01*
X8511095Y-8550952D01*
X8692048Y-8541429D02*
X8701571Y-8550952D01*
X8692048Y-8560476D01*
X8682524Y-8550952D01*
X8692048Y-8541429D01*
X8692048Y-8560476D01*
X8692048Y-8436667D02*
X8701571Y-8446190D01*
X8692048Y-8455714D01*
X8682524Y-8446190D01*
X8692048Y-8436667D01*
X8692048Y-8455714D01*
D12*
X7005000Y-8861000D02*
X7063000Y-8919000D01*
X7063000Y-8861000D02*
X7005000Y-8919000D01*
D11*
X7358714Y-8780476D02*
X7377762Y-8780476D01*
X7396809Y-8790000D01*
X7406333Y-8799524D01*
X7415857Y-8818571D01*
X7425381Y-8856667D01*
X7425381Y-8904286D01*
X7415857Y-8942381D01*
X7406333Y-8961429D01*
X7396809Y-8970952D01*
X7377762Y-8980476D01*
X7358714Y-8980476D01*
X7339667Y-8970952D01*
X7330143Y-8961429D01*
X7320619Y-8942381D01*
X7311095Y-8904286D01*
X7311095Y-8856667D01*
X7320619Y-8818571D01*
X7330143Y-8799524D01*
X7339667Y-8790000D01*
X7358714Y-8780476D01*
X7511095Y-8961429D02*
X7520619Y-8970952D01*
X7511095Y-8980476D01*
X7501571Y-8970952D01*
X7511095Y-8961429D01*
X7511095Y-8980476D01*
X7701571Y-8780476D02*
X7606333Y-8780476D01*
X7596809Y-8875714D01*
X7606333Y-8866190D01*
X7625381Y-8856667D01*
X7673000Y-8856667D01*
X7692048Y-8866190D01*
X7701571Y-8875714D01*
X7711095Y-8894762D01*
X7711095Y-8942381D01*
X7701571Y-8961429D01*
X7692048Y-8970952D01*
X7673000Y-8980476D01*
X7625381Y-8980476D01*
X7606333Y-8970952D01*
X7596809Y-8961429D01*
X7825381Y-8866190D02*
X7806333Y-8856667D01*
X7796809Y-8847143D01*
X7787286Y-8828095D01*
X7787286Y-8818571D01*
X7796809Y-8799524D01*
X7806333Y-8790000D01*
X7825381Y-8780476D01*
X7863476Y-8780476D01*
X7882524Y-8790000D01*
X7892048Y-8799524D01*
X7901571Y-8818571D01*
X7901571Y-8828095D01*
X7892048Y-8847143D01*
X7882524Y-8856667D01*
X7863476Y-8866190D01*
X7825381Y-8866190D01*
X7806333Y-8875714D01*
X7796809Y-8885238D01*
X7787286Y-8904286D01*
X7787286Y-8942381D01*
X7796809Y-8961429D01*
X7806333Y-8970952D01*
X7825381Y-8980476D01*
X7863476Y-8980476D01*
X7882524Y-8970952D01*
X7892048Y-8961429D01*
X7901571Y-8942381D01*
X7901571Y-8904286D01*
X7892048Y-8885238D01*
X7882524Y-8875714D01*
X7863476Y-8866190D01*
X8025381Y-8780476D02*
X8044428Y-8780476D01*
X8063476Y-8790000D01*
X8073000Y-8799524D01*
X8082524Y-8818571D01*
X8092048Y-8856667D01*
X8092048Y-8904286D01*
X8082524Y-8942381D01*
X8073000Y-8961429D01*
X8063476Y-8970952D01*
X8044428Y-8980476D01*
X8025381Y-8980476D01*
X8006333Y-8970952D01*
X7996809Y-8961429D01*
X7987286Y-8942381D01*
X7977762Y-8904286D01*
X7977762Y-8856667D01*
X7987286Y-8818571D01*
X7996809Y-8799524D01*
X8006333Y-8790000D01*
X8025381Y-8780476D01*
X8177762Y-8980476D02*
X8177762Y-8847143D01*
X8177762Y-8866190D02*
X8187286Y-8856667D01*
X8206333Y-8847143D01*
X8234905Y-8847143D01*
X8253952Y-8856667D01*
X8263476Y-8875714D01*
X8263476Y-8980476D01*
X8263476Y-8875714D02*
X8273000Y-8856667D01*
X8292048Y-8847143D01*
X8320619Y-8847143D01*
X8339667Y-8856667D01*
X8349190Y-8875714D01*
X8349190Y-8980476D01*
X8444429Y-8980476D02*
X8444429Y-8847143D01*
X8444429Y-8866190D02*
X8453952Y-8856667D01*
X8473000Y-8847143D01*
X8501571Y-8847143D01*
X8520619Y-8856667D01*
X8530143Y-8875714D01*
X8530143Y-8980476D01*
X8530143Y-8875714D02*
X8539667Y-8856667D01*
X8558714Y-8847143D01*
X8587286Y-8847143D01*
X8606333Y-8856667D01*
X8615857Y-8875714D01*
X8615857Y-8980476D01*
X9006333Y-8770952D02*
X8834905Y-9028095D01*
X9263476Y-8780476D02*
X9282524Y-8780476D01*
X9301571Y-8790000D01*
X9311095Y-8799524D01*
X9320619Y-8818571D01*
X9330143Y-8856667D01*
X9330143Y-8904286D01*
X9320619Y-8942381D01*
X9311095Y-8961429D01*
X9301571Y-8970952D01*
X9282524Y-8980476D01*
X9263476Y-8980476D01*
X9244429Y-8970952D01*
X9234905Y-8961429D01*
X9225381Y-8942381D01*
X9215857Y-8904286D01*
X9215857Y-8856667D01*
X9225381Y-8818571D01*
X9234905Y-8799524D01*
X9244429Y-8790000D01*
X9263476Y-8780476D01*
X9415857Y-8961429D02*
X9425381Y-8970952D01*
X9415857Y-8980476D01*
X9406333Y-8970952D01*
X9415857Y-8961429D01*
X9415857Y-8980476D01*
X9549190Y-8780476D02*
X9568238Y-8780476D01*
X9587286Y-8790000D01*
X9596810Y-8799524D01*
X9606333Y-8818571D01*
X9615857Y-8856667D01*
X9615857Y-8904286D01*
X9606333Y-8942381D01*
X9596810Y-8961429D01*
X9587286Y-8970952D01*
X9568238Y-8980476D01*
X9549190Y-8980476D01*
X9530143Y-8970952D01*
X9520619Y-8961429D01*
X9511095Y-8942381D01*
X9501571Y-8904286D01*
X9501571Y-8856667D01*
X9511095Y-8818571D01*
X9520619Y-8799524D01*
X9530143Y-8790000D01*
X9549190Y-8780476D01*
X9692048Y-8799524D02*
X9701571Y-8790000D01*
X9720619Y-8780476D01*
X9768238Y-8780476D01*
X9787286Y-8790000D01*
X9796810Y-8799524D01*
X9806333Y-8818571D01*
X9806333Y-8837619D01*
X9796810Y-8866190D01*
X9682524Y-8980476D01*
X9806333Y-8980476D01*
X9882524Y-8799524D02*
X9892048Y-8790000D01*
X9911095Y-8780476D01*
X9958714Y-8780476D01*
X9977762Y-8790000D01*
X9987286Y-8799524D01*
X9996810Y-8818571D01*
X9996810Y-8837619D01*
X9987286Y-8866190D01*
X9873000Y-8980476D01*
X9996810Y-8980476D01*
X10111095Y-8866190D02*
X10092048Y-8856667D01*
X10082524Y-8847143D01*
X10073000Y-8828095D01*
X10073000Y-8818571D01*
X10082524Y-8799524D01*
X10092048Y-8790000D01*
X10111095Y-8780476D01*
X10149190Y-8780476D01*
X10168238Y-8790000D01*
X10177762Y-8799524D01*
X10187286Y-8818571D01*
X10187286Y-8828095D01*
X10177762Y-8847143D01*
X10168238Y-8856667D01*
X10149190Y-8866190D01*
X10111095Y-8866190D01*
X10092048Y-8875714D01*
X10082524Y-8885238D01*
X10073000Y-8904286D01*
X10073000Y-8942381D01*
X10082524Y-8961429D01*
X10092048Y-8970952D01*
X10111095Y-8980476D01*
X10149190Y-8980476D01*
X10168238Y-8970952D01*
X10177762Y-8961429D01*
X10187286Y-8942381D01*
X10187286Y-8904286D01*
X10177762Y-8885238D01*
X10168238Y-8875714D01*
X10149190Y-8866190D01*
X10263476Y-8780476D02*
X10263476Y-8818571D01*
X10339667Y-8780476D02*
X10339667Y-8818571D01*
X10634905Y-9056667D02*
X10625381Y-9047143D01*
X10606333Y-9018571D01*
X10596810Y-8999524D01*
X10587286Y-8970952D01*
X10577762Y-8923333D01*
X10577762Y-8885238D01*
X10587286Y-8837619D01*
X10596810Y-8809048D01*
X10606333Y-8790000D01*
X10625381Y-8761429D01*
X10634905Y-8751905D01*
X10815857Y-8980476D02*
X10701571Y-8980476D01*
X10758714Y-8980476D02*
X10758714Y-8780476D01*
X10739667Y-8809048D01*
X10720619Y-8828095D01*
X10701571Y-8837619D01*
X11044429Y-8970952D02*
X11063476Y-8980476D01*
X11101571Y-8980476D01*
X11120619Y-8970952D01*
X11130143Y-8951905D01*
X11130143Y-8942381D01*
X11120619Y-8923333D01*
X11101571Y-8913810D01*
X11073000Y-8913810D01*
X11053952Y-8904286D01*
X11044429Y-8885238D01*
X11044429Y-8875714D01*
X11053952Y-8856667D01*
X11073000Y-8847143D01*
X11101571Y-8847143D01*
X11120619Y-8856667D01*
X11244428Y-8980476D02*
X11225381Y-8970952D01*
X11215857Y-8951905D01*
X11215857Y-8780476D01*
X11349190Y-8980476D02*
X11330143Y-8970952D01*
X11320619Y-8961429D01*
X11311095Y-8942381D01*
X11311095Y-8885238D01*
X11320619Y-8866190D01*
X11330143Y-8856667D01*
X11349190Y-8847143D01*
X11377762Y-8847143D01*
X11396809Y-8856667D01*
X11406333Y-8866190D01*
X11415857Y-8885238D01*
X11415857Y-8942381D01*
X11406333Y-8961429D01*
X11396809Y-8970952D01*
X11377762Y-8980476D01*
X11349190Y-8980476D01*
X11473000Y-8847143D02*
X11549190Y-8847143D01*
X11501571Y-8780476D02*
X11501571Y-8951905D01*
X11511095Y-8970952D01*
X11530143Y-8980476D01*
X11549190Y-8980476D01*
X11596809Y-9056667D02*
X11606333Y-9047143D01*
X11625381Y-9018571D01*
X11634905Y-8999524D01*
X11644428Y-8970952D01*
X11653952Y-8923333D01*
X11653952Y-8885238D01*
X11644428Y-8837619D01*
X11634905Y-8809048D01*
X11625381Y-8790000D01*
X11606333Y-8761429D01*
X11596809Y-8751905D01*
X11958714Y-9056667D02*
X11949190Y-9047143D01*
X11930143Y-9018571D01*
X11920619Y-8999524D01*
X11911095Y-8970952D01*
X11901571Y-8923333D01*
X11901571Y-8885238D01*
X11911095Y-8837619D01*
X11920619Y-8809048D01*
X11930143Y-8790000D01*
X11949190Y-8761429D01*
X11958714Y-8751905D01*
X12034905Y-8847143D02*
X12034905Y-8980476D01*
X12034905Y-8866190D02*
X12044428Y-8856667D01*
X12063476Y-8847143D01*
X12092048Y-8847143D01*
X12111095Y-8856667D01*
X12120619Y-8875714D01*
X12120619Y-8980476D01*
X12244428Y-8980476D02*
X12225381Y-8970952D01*
X12215857Y-8961429D01*
X12206333Y-8942381D01*
X12206333Y-8885238D01*
X12215857Y-8866190D01*
X12225381Y-8856667D01*
X12244428Y-8847143D01*
X12273000Y-8847143D01*
X12292048Y-8856667D01*
X12301571Y-8866190D01*
X12311095Y-8885238D01*
X12311095Y-8942381D01*
X12301571Y-8961429D01*
X12292048Y-8970952D01*
X12273000Y-8980476D01*
X12244428Y-8980476D01*
X12368238Y-8847143D02*
X12444428Y-8847143D01*
X12396809Y-8780476D02*
X12396809Y-8951905D01*
X12406333Y-8970952D01*
X12425381Y-8980476D01*
X12444428Y-8980476D01*
X12663476Y-8847143D02*
X12663476Y-9047143D01*
X12663476Y-8856667D02*
X12682524Y-8847143D01*
X12720619Y-8847143D01*
X12739667Y-8856667D01*
X12749190Y-8866190D01*
X12758714Y-8885238D01*
X12758714Y-8942381D01*
X12749190Y-8961429D01*
X12739667Y-8970952D01*
X12720619Y-8980476D01*
X12682524Y-8980476D01*
X12663476Y-8970952D01*
X12873000Y-8980476D02*
X12853952Y-8970952D01*
X12844428Y-8951905D01*
X12844428Y-8780476D01*
X13034905Y-8980476D02*
X13034905Y-8875714D01*
X13025381Y-8856667D01*
X13006333Y-8847143D01*
X12968238Y-8847143D01*
X12949190Y-8856667D01*
X13034905Y-8970952D02*
X13015857Y-8980476D01*
X12968238Y-8980476D01*
X12949190Y-8970952D01*
X12939667Y-8951905D01*
X12939667Y-8932857D01*
X12949190Y-8913810D01*
X12968238Y-8904286D01*
X13015857Y-8904286D01*
X13034905Y-8894762D01*
X13101571Y-8847143D02*
X13177762Y-8847143D01*
X13130143Y-8780476D02*
X13130143Y-8951905D01*
X13139667Y-8970952D01*
X13158714Y-8980476D01*
X13177762Y-8980476D01*
X13320619Y-8970952D02*
X13301571Y-8980476D01*
X13263476Y-8980476D01*
X13244428Y-8970952D01*
X13234905Y-8951905D01*
X13234905Y-8875714D01*
X13244428Y-8856667D01*
X13263476Y-8847143D01*
X13301571Y-8847143D01*
X13320619Y-8856667D01*
X13330143Y-8875714D01*
X13330143Y-8894762D01*
X13234905Y-8913810D01*
X13501571Y-8980476D02*
X13501571Y-8780476D01*
X13501571Y-8970952D02*
X13482524Y-8980476D01*
X13444428Y-8980476D01*
X13425381Y-8970952D01*
X13415857Y-8961429D01*
X13406333Y-8942381D01*
X13406333Y-8885238D01*
X13415857Y-8866190D01*
X13425381Y-8856667D01*
X13444428Y-8847143D01*
X13482524Y-8847143D01*
X13501571Y-8856667D01*
X13577762Y-9056667D02*
X13587286Y-9047143D01*
X13606333Y-9018571D01*
X13615857Y-8999524D01*
X13625381Y-8970952D01*
X13634905Y-8923333D01*
X13634905Y-8885238D01*
X13625381Y-8837619D01*
X13615857Y-8809048D01*
X13606333Y-8790000D01*
X13587286Y-8761429D01*
X13577762Y-8751905D01*
D13*
X7063000Y-9154000D02*
G75*
G03*
X7063000Y-9154000I-33000J0D01*
G01*
D11*
X7358714Y-9044476D02*
X7377762Y-9044476D01*
X7396809Y-9054000D01*
X7406333Y-9063524D01*
X7415857Y-9082571D01*
X7425381Y-9120667D01*
X7425381Y-9168286D01*
X7415857Y-9206381D01*
X7406333Y-9225429D01*
X7396809Y-9234952D01*
X7377762Y-9244476D01*
X7358714Y-9244476D01*
X7339667Y-9234952D01*
X7330143Y-9225429D01*
X7320619Y-9206381D01*
X7311095Y-9168286D01*
X7311095Y-9120667D01*
X7320619Y-9082571D01*
X7330143Y-9063524D01*
X7339667Y-9054000D01*
X7358714Y-9044476D01*
X7511095Y-9225429D02*
X7520619Y-9234952D01*
X7511095Y-9244476D01*
X7501571Y-9234952D01*
X7511095Y-9225429D01*
X7511095Y-9244476D01*
X7692048Y-9044476D02*
X7653952Y-9044476D01*
X7634905Y-9054000D01*
X7625381Y-9063524D01*
X7606333Y-9092095D01*
X7596809Y-9130190D01*
X7596809Y-9206381D01*
X7606333Y-9225429D01*
X7615857Y-9234952D01*
X7634905Y-9244476D01*
X7673000Y-9244476D01*
X7692048Y-9234952D01*
X7701571Y-9225429D01*
X7711095Y-9206381D01*
X7711095Y-9158762D01*
X7701571Y-9139714D01*
X7692048Y-9130190D01*
X7673000Y-9120667D01*
X7634905Y-9120667D01*
X7615857Y-9130190D01*
X7606333Y-9139714D01*
X7596809Y-9158762D01*
X7882524Y-9044476D02*
X7844428Y-9044476D01*
X7825381Y-9054000D01*
X7815857Y-9063524D01*
X7796809Y-9092095D01*
X7787286Y-9130190D01*
X7787286Y-9206381D01*
X7796809Y-9225429D01*
X7806333Y-9234952D01*
X7825381Y-9244476D01*
X7863476Y-9244476D01*
X7882524Y-9234952D01*
X7892048Y-9225429D01*
X7901571Y-9206381D01*
X7901571Y-9158762D01*
X7892048Y-9139714D01*
X7882524Y-9130190D01*
X7863476Y-9120667D01*
X7825381Y-9120667D01*
X7806333Y-9130190D01*
X7796809Y-9139714D01*
X7787286Y-9158762D01*
X8025381Y-9044476D02*
X8044428Y-9044476D01*
X8063476Y-9054000D01*
X8073000Y-9063524D01*
X8082524Y-9082571D01*
X8092048Y-9120667D01*
X8092048Y-9168286D01*
X8082524Y-9206381D01*
X8073000Y-9225429D01*
X8063476Y-9234952D01*
X8044428Y-9244476D01*
X8025381Y-9244476D01*
X8006333Y-9234952D01*
X7996809Y-9225429D01*
X7987286Y-9206381D01*
X7977762Y-9168286D01*
X7977762Y-9120667D01*
X7987286Y-9082571D01*
X7996809Y-9063524D01*
X8006333Y-9054000D01*
X8025381Y-9044476D01*
X8177762Y-9244476D02*
X8177762Y-9111143D01*
X8177762Y-9130190D02*
X8187286Y-9120667D01*
X8206333Y-9111143D01*
X8234905Y-9111143D01*
X8253952Y-9120667D01*
X8263476Y-9139714D01*
X8263476Y-9244476D01*
X8263476Y-9139714D02*
X8273000Y-9120667D01*
X8292048Y-9111143D01*
X8320619Y-9111143D01*
X8339667Y-9120667D01*
X8349190Y-9139714D01*
X8349190Y-9244476D01*
X8444429Y-9244476D02*
X8444429Y-9111143D01*
X8444429Y-9130190D02*
X8453952Y-9120667D01*
X8473000Y-9111143D01*
X8501571Y-9111143D01*
X8520619Y-9120667D01*
X8530143Y-9139714D01*
X8530143Y-9244476D01*
X8530143Y-9139714D02*
X8539667Y-9120667D01*
X8558714Y-9111143D01*
X8587286Y-9111143D01*
X8606333Y-9120667D01*
X8615857Y-9139714D01*
X8615857Y-9244476D01*
X9006333Y-9034952D02*
X8834905Y-9292095D01*
X9263476Y-9044476D02*
X9282524Y-9044476D01*
X9301571Y-9054000D01*
X9311095Y-9063524D01*
X9320619Y-9082571D01*
X9330143Y-9120667D01*
X9330143Y-9168286D01*
X9320619Y-9206381D01*
X9311095Y-9225429D01*
X9301571Y-9234952D01*
X9282524Y-9244476D01*
X9263476Y-9244476D01*
X9244429Y-9234952D01*
X9234905Y-9225429D01*
X9225381Y-9206381D01*
X9215857Y-9168286D01*
X9215857Y-9120667D01*
X9225381Y-9082571D01*
X9234905Y-9063524D01*
X9244429Y-9054000D01*
X9263476Y-9044476D01*
X9415857Y-9225429D02*
X9425381Y-9234952D01*
X9415857Y-9244476D01*
X9406333Y-9234952D01*
X9415857Y-9225429D01*
X9415857Y-9244476D01*
X9549190Y-9044476D02*
X9568238Y-9044476D01*
X9587286Y-9054000D01*
X9596810Y-9063524D01*
X9606333Y-9082571D01*
X9615857Y-9120667D01*
X9615857Y-9168286D01*
X9606333Y-9206381D01*
X9596810Y-9225429D01*
X9587286Y-9234952D01*
X9568238Y-9244476D01*
X9549190Y-9244476D01*
X9530143Y-9234952D01*
X9520619Y-9225429D01*
X9511095Y-9206381D01*
X9501571Y-9168286D01*
X9501571Y-9120667D01*
X9511095Y-9082571D01*
X9520619Y-9063524D01*
X9530143Y-9054000D01*
X9549190Y-9044476D01*
X9692048Y-9063524D02*
X9701571Y-9054000D01*
X9720619Y-9044476D01*
X9768238Y-9044476D01*
X9787286Y-9054000D01*
X9796810Y-9063524D01*
X9806333Y-9082571D01*
X9806333Y-9101619D01*
X9796810Y-9130190D01*
X9682524Y-9244476D01*
X9806333Y-9244476D01*
X9977762Y-9044476D02*
X9939667Y-9044476D01*
X9920619Y-9054000D01*
X9911095Y-9063524D01*
X9892048Y-9092095D01*
X9882524Y-9130190D01*
X9882524Y-9206381D01*
X9892048Y-9225429D01*
X9901571Y-9234952D01*
X9920619Y-9244476D01*
X9958714Y-9244476D01*
X9977762Y-9234952D01*
X9987286Y-9225429D01*
X9996810Y-9206381D01*
X9996810Y-9158762D01*
X9987286Y-9139714D01*
X9977762Y-9130190D01*
X9958714Y-9120667D01*
X9920619Y-9120667D01*
X9901571Y-9130190D01*
X9892048Y-9139714D01*
X9882524Y-9158762D01*
X10120619Y-9044476D02*
X10139667Y-9044476D01*
X10158714Y-9054000D01*
X10168238Y-9063524D01*
X10177762Y-9082571D01*
X10187286Y-9120667D01*
X10187286Y-9168286D01*
X10177762Y-9206381D01*
X10168238Y-9225429D01*
X10158714Y-9234952D01*
X10139667Y-9244476D01*
X10120619Y-9244476D01*
X10101571Y-9234952D01*
X10092048Y-9225429D01*
X10082524Y-9206381D01*
X10073000Y-9168286D01*
X10073000Y-9120667D01*
X10082524Y-9082571D01*
X10092048Y-9063524D01*
X10101571Y-9054000D01*
X10120619Y-9044476D01*
X10263476Y-9044476D02*
X10263476Y-9082571D01*
X10339667Y-9044476D02*
X10339667Y-9082571D01*
X10634905Y-9320667D02*
X10625381Y-9311143D01*
X10606333Y-9282571D01*
X10596810Y-9263524D01*
X10587286Y-9234952D01*
X10577762Y-9187333D01*
X10577762Y-9149238D01*
X10587286Y-9101619D01*
X10596810Y-9073048D01*
X10606333Y-9054000D01*
X10625381Y-9025429D01*
X10634905Y-9015905D01*
X10815857Y-9244476D02*
X10701571Y-9244476D01*
X10758714Y-9244476D02*
X10758714Y-9044476D01*
X10739667Y-9073048D01*
X10720619Y-9092095D01*
X10701571Y-9101619D01*
X11053952Y-9244476D02*
X11053952Y-9044476D01*
X11139667Y-9244476D02*
X11139667Y-9139714D01*
X11130143Y-9120667D01*
X11111095Y-9111143D01*
X11082524Y-9111143D01*
X11063476Y-9120667D01*
X11053952Y-9130190D01*
X11263476Y-9244476D02*
X11244428Y-9234952D01*
X11234905Y-9225429D01*
X11225381Y-9206381D01*
X11225381Y-9149238D01*
X11234905Y-9130190D01*
X11244428Y-9120667D01*
X11263476Y-9111143D01*
X11292048Y-9111143D01*
X11311095Y-9120667D01*
X11320619Y-9130190D01*
X11330143Y-9149238D01*
X11330143Y-9206381D01*
X11320619Y-9225429D01*
X11311095Y-9234952D01*
X11292048Y-9244476D01*
X11263476Y-9244476D01*
X11444428Y-9244476D02*
X11425381Y-9234952D01*
X11415857Y-9215905D01*
X11415857Y-9044476D01*
X11596809Y-9234952D02*
X11577762Y-9244476D01*
X11539667Y-9244476D01*
X11520619Y-9234952D01*
X11511095Y-9215905D01*
X11511095Y-9139714D01*
X11520619Y-9120667D01*
X11539667Y-9111143D01*
X11577762Y-9111143D01*
X11596809Y-9120667D01*
X11606333Y-9139714D01*
X11606333Y-9158762D01*
X11511095Y-9177810D01*
X11673000Y-9320667D02*
X11682524Y-9311143D01*
X11701571Y-9282571D01*
X11711095Y-9263524D01*
X11720619Y-9234952D01*
X11730143Y-9187333D01*
X11730143Y-9149238D01*
X11720619Y-9101619D01*
X11711095Y-9073048D01*
X11701571Y-9054000D01*
X11682524Y-9025429D01*
X11673000Y-9015905D01*
X12034905Y-9320667D02*
X12025381Y-9311143D01*
X12006333Y-9282571D01*
X11996809Y-9263524D01*
X11987286Y-9234952D01*
X11977762Y-9187333D01*
X11977762Y-9149238D01*
X11987286Y-9101619D01*
X11996809Y-9073048D01*
X12006333Y-9054000D01*
X12025381Y-9025429D01*
X12034905Y-9015905D01*
X12111095Y-9111143D02*
X12111095Y-9244476D01*
X12111095Y-9130190D02*
X12120619Y-9120667D01*
X12139667Y-9111143D01*
X12168238Y-9111143D01*
X12187286Y-9120667D01*
X12196809Y-9139714D01*
X12196809Y-9244476D01*
X12320619Y-9244476D02*
X12301571Y-9234952D01*
X12292048Y-9225429D01*
X12282524Y-9206381D01*
X12282524Y-9149238D01*
X12292048Y-9130190D01*
X12301571Y-9120667D01*
X12320619Y-9111143D01*
X12349190Y-9111143D01*
X12368238Y-9120667D01*
X12377762Y-9130190D01*
X12387286Y-9149238D01*
X12387286Y-9206381D01*
X12377762Y-9225429D01*
X12368238Y-9234952D01*
X12349190Y-9244476D01*
X12320619Y-9244476D01*
X12444428Y-9111143D02*
X12520619Y-9111143D01*
X12473000Y-9044476D02*
X12473000Y-9215905D01*
X12482524Y-9234952D01*
X12501571Y-9244476D01*
X12520619Y-9244476D01*
X12739667Y-9111143D02*
X12739667Y-9311143D01*
X12739667Y-9120667D02*
X12758714Y-9111143D01*
X12796809Y-9111143D01*
X12815857Y-9120667D01*
X12825381Y-9130190D01*
X12834905Y-9149238D01*
X12834905Y-9206381D01*
X12825381Y-9225429D01*
X12815857Y-9234952D01*
X12796809Y-9244476D01*
X12758714Y-9244476D01*
X12739667Y-9234952D01*
X12949190Y-9244476D02*
X12930143Y-9234952D01*
X12920619Y-9215905D01*
X12920619Y-9044476D01*
X13111095Y-9244476D02*
X13111095Y-9139714D01*
X13101571Y-9120667D01*
X13082524Y-9111143D01*
X13044428Y-9111143D01*
X13025381Y-9120667D01*
X13111095Y-9234952D02*
X13092048Y-9244476D01*
X13044428Y-9244476D01*
X13025381Y-9234952D01*
X13015857Y-9215905D01*
X13015857Y-9196857D01*
X13025381Y-9177810D01*
X13044428Y-9168286D01*
X13092048Y-9168286D01*
X13111095Y-9158762D01*
X13177762Y-9111143D02*
X13253952Y-9111143D01*
X13206333Y-9044476D02*
X13206333Y-9215905D01*
X13215857Y-9234952D01*
X13234905Y-9244476D01*
X13253952Y-9244476D01*
X13396809Y-9234952D02*
X13377762Y-9244476D01*
X13339667Y-9244476D01*
X13320619Y-9234952D01*
X13311095Y-9215905D01*
X13311095Y-9139714D01*
X13320619Y-9120667D01*
X13339667Y-9111143D01*
X13377762Y-9111143D01*
X13396809Y-9120667D01*
X13406333Y-9139714D01*
X13406333Y-9158762D01*
X13311095Y-9177810D01*
X13577762Y-9244476D02*
X13577762Y-9044476D01*
X13577762Y-9234952D02*
X13558714Y-9244476D01*
X13520619Y-9244476D01*
X13501571Y-9234952D01*
X13492048Y-9225429D01*
X13482524Y-9206381D01*
X13482524Y-9149238D01*
X13492048Y-9130190D01*
X13501571Y-9120667D01*
X13520619Y-9111143D01*
X13558714Y-9111143D01*
X13577762Y-9120667D01*
X13653952Y-9320667D02*
X13663476Y-9311143D01*
X13682524Y-9282571D01*
X13692048Y-9263524D01*
X13701571Y-9234952D01*
X13711095Y-9187333D01*
X13711095Y-9149238D01*
X13701571Y-9101619D01*
X13692048Y-9073048D01*
X13682524Y-9054000D01*
X13663476Y-9025429D01*
X13653952Y-9015905D01*
D14*
X7005400Y-9360400D02*
X7005400Y-9475600D01*
X6947800Y-9418000D02*
X7063000Y-9418000D01*
D11*
X7425381Y-9508476D02*
X7311095Y-9508476D01*
X7368238Y-9508476D02*
X7368238Y-9308476D01*
X7349190Y-9337048D01*
X7330143Y-9356095D01*
X7311095Y-9365619D01*
X7511095Y-9489429D02*
X7520619Y-9498952D01*
X7511095Y-9508476D01*
X7501571Y-9498952D01*
X7511095Y-9489429D01*
X7511095Y-9508476D01*
X7711095Y-9508476D02*
X7596809Y-9508476D01*
X7653952Y-9508476D02*
X7653952Y-9308476D01*
X7634905Y-9337048D01*
X7615857Y-9356095D01*
X7596809Y-9365619D01*
X7892048Y-9308476D02*
X7796809Y-9308476D01*
X7787286Y-9403714D01*
X7796809Y-9394190D01*
X7815857Y-9384667D01*
X7863476Y-9384667D01*
X7882524Y-9394190D01*
X7892048Y-9403714D01*
X7901571Y-9422762D01*
X7901571Y-9470381D01*
X7892048Y-9489429D01*
X7882524Y-9498952D01*
X7863476Y-9508476D01*
X7815857Y-9508476D01*
X7796809Y-9498952D01*
X7787286Y-9489429D01*
X7977762Y-9327524D02*
X7987286Y-9318000D01*
X8006333Y-9308476D01*
X8053952Y-9308476D01*
X8073000Y-9318000D01*
X8082524Y-9327524D01*
X8092048Y-9346571D01*
X8092048Y-9365619D01*
X8082524Y-9394190D01*
X7968238Y-9508476D01*
X8092048Y-9508476D01*
X8177762Y-9508476D02*
X8177762Y-9375143D01*
X8177762Y-9394190D02*
X8187286Y-9384667D01*
X8206333Y-9375143D01*
X8234905Y-9375143D01*
X8253952Y-9384667D01*
X8263476Y-9403714D01*
X8263476Y-9508476D01*
X8263476Y-9403714D02*
X8273000Y-9384667D01*
X8292048Y-9375143D01*
X8320619Y-9375143D01*
X8339667Y-9384667D01*
X8349190Y-9403714D01*
X8349190Y-9508476D01*
X8444429Y-9508476D02*
X8444429Y-9375143D01*
X8444429Y-9394190D02*
X8453952Y-9384667D01*
X8473000Y-9375143D01*
X8501571Y-9375143D01*
X8520619Y-9384667D01*
X8530143Y-9403714D01*
X8530143Y-9508476D01*
X8530143Y-9403714D02*
X8539667Y-9384667D01*
X8558714Y-9375143D01*
X8587286Y-9375143D01*
X8606333Y-9384667D01*
X8615857Y-9403714D01*
X8615857Y-9508476D01*
X9006333Y-9298952D02*
X8834905Y-9556095D01*
X9263476Y-9308476D02*
X9282524Y-9308476D01*
X9301571Y-9318000D01*
X9311095Y-9327524D01*
X9320619Y-9346571D01*
X9330143Y-9384667D01*
X9330143Y-9432286D01*
X9320619Y-9470381D01*
X9311095Y-9489429D01*
X9301571Y-9498952D01*
X9282524Y-9508476D01*
X9263476Y-9508476D01*
X9244429Y-9498952D01*
X9234905Y-9489429D01*
X9225381Y-9470381D01*
X9215857Y-9432286D01*
X9215857Y-9384667D01*
X9225381Y-9346571D01*
X9234905Y-9327524D01*
X9244429Y-9318000D01*
X9263476Y-9308476D01*
X9415857Y-9489429D02*
X9425381Y-9498952D01*
X9415857Y-9508476D01*
X9406333Y-9498952D01*
X9415857Y-9489429D01*
X9415857Y-9508476D01*
X9549190Y-9308476D02*
X9568238Y-9308476D01*
X9587286Y-9318000D01*
X9596810Y-9327524D01*
X9606333Y-9346571D01*
X9615857Y-9384667D01*
X9615857Y-9432286D01*
X9606333Y-9470381D01*
X9596810Y-9489429D01*
X9587286Y-9498952D01*
X9568238Y-9508476D01*
X9549190Y-9508476D01*
X9530143Y-9498952D01*
X9520619Y-9489429D01*
X9511095Y-9470381D01*
X9501571Y-9432286D01*
X9501571Y-9384667D01*
X9511095Y-9346571D01*
X9520619Y-9327524D01*
X9530143Y-9318000D01*
X9549190Y-9308476D01*
X9787286Y-9375143D02*
X9787286Y-9508476D01*
X9739667Y-9298952D02*
X9692048Y-9441810D01*
X9815857Y-9441810D01*
X9987286Y-9308476D02*
X9892048Y-9308476D01*
X9882524Y-9403714D01*
X9892048Y-9394190D01*
X9911095Y-9384667D01*
X9958714Y-9384667D01*
X9977762Y-9394190D01*
X9987286Y-9403714D01*
X9996810Y-9422762D01*
X9996810Y-9470381D01*
X9987286Y-9489429D01*
X9977762Y-9498952D01*
X9958714Y-9508476D01*
X9911095Y-9508476D01*
X9892048Y-9498952D01*
X9882524Y-9489429D01*
X10168238Y-9375143D02*
X10168238Y-9508476D01*
X10120619Y-9298952D02*
X10073000Y-9441810D01*
X10196810Y-9441810D01*
X10263476Y-9308476D02*
X10263476Y-9346571D01*
X10339667Y-9308476D02*
X10339667Y-9346571D01*
X10634905Y-9584667D02*
X10625381Y-9575143D01*
X10606333Y-9546571D01*
X10596810Y-9527524D01*
X10587286Y-9498952D01*
X10577762Y-9451333D01*
X10577762Y-9413238D01*
X10587286Y-9365619D01*
X10596810Y-9337048D01*
X10606333Y-9318000D01*
X10625381Y-9289429D01*
X10634905Y-9279905D01*
X10701571Y-9327524D02*
X10711095Y-9318000D01*
X10730143Y-9308476D01*
X10777762Y-9308476D01*
X10796810Y-9318000D01*
X10806333Y-9327524D01*
X10815857Y-9346571D01*
X10815857Y-9365619D01*
X10806333Y-9394190D01*
X10692048Y-9508476D01*
X10815857Y-9508476D01*
X11053952Y-9508476D02*
X11053952Y-9308476D01*
X11139667Y-9508476D02*
X11139667Y-9403714D01*
X11130143Y-9384667D01*
X11111095Y-9375143D01*
X11082524Y-9375143D01*
X11063476Y-9384667D01*
X11053952Y-9394190D01*
X11263476Y-9508476D02*
X11244428Y-9498952D01*
X11234905Y-9489429D01*
X11225381Y-9470381D01*
X11225381Y-9413238D01*
X11234905Y-9394190D01*
X11244428Y-9384667D01*
X11263476Y-9375143D01*
X11292048Y-9375143D01*
X11311095Y-9384667D01*
X11320619Y-9394190D01*
X11330143Y-9413238D01*
X11330143Y-9470381D01*
X11320619Y-9489429D01*
X11311095Y-9498952D01*
X11292048Y-9508476D01*
X11263476Y-9508476D01*
X11444428Y-9508476D02*
X11425381Y-9498952D01*
X11415857Y-9479905D01*
X11415857Y-9308476D01*
X11596809Y-9498952D02*
X11577762Y-9508476D01*
X11539667Y-9508476D01*
X11520619Y-9498952D01*
X11511095Y-9479905D01*
X11511095Y-9403714D01*
X11520619Y-9384667D01*
X11539667Y-9375143D01*
X11577762Y-9375143D01*
X11596809Y-9384667D01*
X11606333Y-9403714D01*
X11606333Y-9422762D01*
X11511095Y-9441810D01*
X11682524Y-9498952D02*
X11701571Y-9508476D01*
X11739667Y-9508476D01*
X11758714Y-9498952D01*
X11768238Y-9479905D01*
X11768238Y-9470381D01*
X11758714Y-9451333D01*
X11739667Y-9441810D01*
X11711095Y-9441810D01*
X11692048Y-9432286D01*
X11682524Y-9413238D01*
X11682524Y-9403714D01*
X11692048Y-9384667D01*
X11711095Y-9375143D01*
X11739667Y-9375143D01*
X11758714Y-9384667D01*
X11834905Y-9584667D02*
X11844428Y-9575143D01*
X11863476Y-9546571D01*
X11873000Y-9527524D01*
X11882524Y-9498952D01*
X11892048Y-9451333D01*
X11892048Y-9413238D01*
X11882524Y-9365619D01*
X11873000Y-9337048D01*
X11863476Y-9318000D01*
X11844428Y-9289429D01*
X11834905Y-9279905D01*
X12196809Y-9584667D02*
X12187286Y-9575143D01*
X12168238Y-9546571D01*
X12158714Y-9527524D01*
X12149190Y-9498952D01*
X12139667Y-9451333D01*
X12139667Y-9413238D01*
X12149190Y-9365619D01*
X12158714Y-9337048D01*
X12168238Y-9318000D01*
X12187286Y-9289429D01*
X12196809Y-9279905D01*
X12273000Y-9375143D02*
X12273000Y-9508476D01*
X12273000Y-9394190D02*
X12282524Y-9384667D01*
X12301571Y-9375143D01*
X12330143Y-9375143D01*
X12349190Y-9384667D01*
X12358714Y-9403714D01*
X12358714Y-9508476D01*
X12482524Y-9508476D02*
X12463476Y-9498952D01*
X12453952Y-9489429D01*
X12444428Y-9470381D01*
X12444428Y-9413238D01*
X12453952Y-9394190D01*
X12463476Y-9384667D01*
X12482524Y-9375143D01*
X12511095Y-9375143D01*
X12530143Y-9384667D01*
X12539667Y-9394190D01*
X12549190Y-9413238D01*
X12549190Y-9470381D01*
X12539667Y-9489429D01*
X12530143Y-9498952D01*
X12511095Y-9508476D01*
X12482524Y-9508476D01*
X12606333Y-9375143D02*
X12682524Y-9375143D01*
X12634905Y-9308476D02*
X12634905Y-9479905D01*
X12644428Y-9498952D01*
X12663476Y-9508476D01*
X12682524Y-9508476D01*
X12901571Y-9375143D02*
X12901571Y-9575143D01*
X12901571Y-9384667D02*
X12920619Y-9375143D01*
X12958714Y-9375143D01*
X12977762Y-9384667D01*
X12987286Y-9394190D01*
X12996809Y-9413238D01*
X12996809Y-9470381D01*
X12987286Y-9489429D01*
X12977762Y-9498952D01*
X12958714Y-9508476D01*
X12920619Y-9508476D01*
X12901571Y-9498952D01*
X13111095Y-9508476D02*
X13092048Y-9498952D01*
X13082524Y-9479905D01*
X13082524Y-9308476D01*
X13273000Y-9508476D02*
X13273000Y-9403714D01*
X13263476Y-9384667D01*
X13244428Y-9375143D01*
X13206333Y-9375143D01*
X13187286Y-9384667D01*
X13273000Y-9498952D02*
X13253952Y-9508476D01*
X13206333Y-9508476D01*
X13187286Y-9498952D01*
X13177762Y-9479905D01*
X13177762Y-9460857D01*
X13187286Y-9441810D01*
X13206333Y-9432286D01*
X13253952Y-9432286D01*
X13273000Y-9422762D01*
X13339667Y-9375143D02*
X13415857Y-9375143D01*
X13368238Y-9308476D02*
X13368238Y-9479905D01*
X13377762Y-9498952D01*
X13396809Y-9508476D01*
X13415857Y-9508476D01*
X13558714Y-9498952D02*
X13539667Y-9508476D01*
X13501571Y-9508476D01*
X13482524Y-9498952D01*
X13473000Y-9479905D01*
X13473000Y-9403714D01*
X13482524Y-9384667D01*
X13501571Y-9375143D01*
X13539667Y-9375143D01*
X13558714Y-9384667D01*
X13568238Y-9403714D01*
X13568238Y-9422762D01*
X13473000Y-9441810D01*
X13739667Y-9508476D02*
X13739667Y-9308476D01*
X13739667Y-9498952D02*
X13720619Y-9508476D01*
X13682524Y-9508476D01*
X13663476Y-9498952D01*
X13653952Y-9489429D01*
X13644428Y-9470381D01*
X13644428Y-9413238D01*
X13653952Y-9394190D01*
X13663476Y-9384667D01*
X13682524Y-9375143D01*
X13720619Y-9375143D01*
X13739667Y-9384667D01*
X13815857Y-9584667D02*
X13825381Y-9575143D01*
X13844428Y-9546571D01*
X13853952Y-9527524D01*
X13863476Y-9498952D01*
X13873000Y-9451333D01*
X13873000Y-9413238D01*
X13863476Y-9365619D01*
X13853952Y-9337048D01*
X13844428Y-9318000D01*
X13825381Y-9289429D01*
X13815857Y-9279905D01*
X7033711Y-9752711D02*
X7033711Y-9611289D01*
X6892289Y-9611289D01*
X6892289Y-9752711D01*
X7033711Y-9752711D01*
X7301571Y-9572476D02*
X7425381Y-9572476D01*
X7358714Y-9648667D01*
X7387286Y-9648667D01*
X7406333Y-9658190D01*
X7415857Y-9667714D01*
X7425381Y-9686762D01*
X7425381Y-9734381D01*
X7415857Y-9753429D01*
X7406333Y-9762952D01*
X7387286Y-9772476D01*
X7330143Y-9772476D01*
X7311095Y-9762952D01*
X7301571Y-9753429D01*
X7511095Y-9753429D02*
X7520619Y-9762952D01*
X7511095Y-9772476D01*
X7501571Y-9762952D01*
X7511095Y-9753429D01*
X7511095Y-9772476D01*
X7596809Y-9591524D02*
X7606333Y-9582000D01*
X7625381Y-9572476D01*
X7673000Y-9572476D01*
X7692048Y-9582000D01*
X7701571Y-9591524D01*
X7711095Y-9610571D01*
X7711095Y-9629619D01*
X7701571Y-9658190D01*
X7587286Y-9772476D01*
X7711095Y-9772476D01*
X7834905Y-9572476D02*
X7853952Y-9572476D01*
X7873000Y-9582000D01*
X7882524Y-9591524D01*
X7892048Y-9610571D01*
X7901571Y-9648667D01*
X7901571Y-9696286D01*
X7892048Y-9734381D01*
X7882524Y-9753429D01*
X7873000Y-9762952D01*
X7853952Y-9772476D01*
X7834905Y-9772476D01*
X7815857Y-9762952D01*
X7806333Y-9753429D01*
X7796809Y-9734381D01*
X7787286Y-9696286D01*
X7787286Y-9648667D01*
X7796809Y-9610571D01*
X7806333Y-9591524D01*
X7815857Y-9582000D01*
X7834905Y-9572476D01*
X8025381Y-9572476D02*
X8044428Y-9572476D01*
X8063476Y-9582000D01*
X8073000Y-9591524D01*
X8082524Y-9610571D01*
X8092048Y-9648667D01*
X8092048Y-9696286D01*
X8082524Y-9734381D01*
X8073000Y-9753429D01*
X8063476Y-9762952D01*
X8044428Y-9772476D01*
X8025381Y-9772476D01*
X8006333Y-9762952D01*
X7996809Y-9753429D01*
X7987286Y-9734381D01*
X7977762Y-9696286D01*
X7977762Y-9648667D01*
X7987286Y-9610571D01*
X7996809Y-9591524D01*
X8006333Y-9582000D01*
X8025381Y-9572476D01*
X8177762Y-9772476D02*
X8177762Y-9639143D01*
X8177762Y-9658190D02*
X8187286Y-9648667D01*
X8206333Y-9639143D01*
X8234905Y-9639143D01*
X8253952Y-9648667D01*
X8263476Y-9667714D01*
X8263476Y-9772476D01*
X8263476Y-9667714D02*
X8273000Y-9648667D01*
X8292048Y-9639143D01*
X8320619Y-9639143D01*
X8339667Y-9648667D01*
X8349190Y-9667714D01*
X8349190Y-9772476D01*
X8444429Y-9772476D02*
X8444429Y-9639143D01*
X8444429Y-9658190D02*
X8453952Y-9648667D01*
X8473000Y-9639143D01*
X8501571Y-9639143D01*
X8520619Y-9648667D01*
X8530143Y-9667714D01*
X8530143Y-9772476D01*
X8530143Y-9667714D02*
X8539667Y-9648667D01*
X8558714Y-9639143D01*
X8587286Y-9639143D01*
X8606333Y-9648667D01*
X8615857Y-9667714D01*
X8615857Y-9772476D01*
X9006333Y-9562952D02*
X8834905Y-9820095D01*
X9263476Y-9572476D02*
X9282524Y-9572476D01*
X9301571Y-9582000D01*
X9311095Y-9591524D01*
X9320619Y-9610571D01*
X9330143Y-9648667D01*
X9330143Y-9696286D01*
X9320619Y-9734381D01*
X9311095Y-9753429D01*
X9301571Y-9762952D01*
X9282524Y-9772476D01*
X9263476Y-9772476D01*
X9244429Y-9762952D01*
X9234905Y-9753429D01*
X9225381Y-9734381D01*
X9215857Y-9696286D01*
X9215857Y-9648667D01*
X9225381Y-9610571D01*
X9234905Y-9591524D01*
X9244429Y-9582000D01*
X9263476Y-9572476D01*
X9415857Y-9753429D02*
X9425381Y-9762952D01*
X9415857Y-9772476D01*
X9406333Y-9762952D01*
X9415857Y-9753429D01*
X9415857Y-9772476D01*
X9615857Y-9772476D02*
X9501571Y-9772476D01*
X9558714Y-9772476D02*
X9558714Y-9572476D01*
X9539667Y-9601048D01*
X9520619Y-9620095D01*
X9501571Y-9629619D01*
X9692048Y-9591524D02*
X9701571Y-9582000D01*
X9720619Y-9572476D01*
X9768238Y-9572476D01*
X9787286Y-9582000D01*
X9796810Y-9591524D01*
X9806333Y-9610571D01*
X9806333Y-9629619D01*
X9796810Y-9658190D01*
X9682524Y-9772476D01*
X9806333Y-9772476D01*
X9977762Y-9572476D02*
X9939667Y-9572476D01*
X9920619Y-9582000D01*
X9911095Y-9591524D01*
X9892048Y-9620095D01*
X9882524Y-9658190D01*
X9882524Y-9734381D01*
X9892048Y-9753429D01*
X9901571Y-9762952D01*
X9920619Y-9772476D01*
X9958714Y-9772476D01*
X9977762Y-9762952D01*
X9987286Y-9753429D01*
X9996810Y-9734381D01*
X9996810Y-9686762D01*
X9987286Y-9667714D01*
X9977762Y-9658190D01*
X9958714Y-9648667D01*
X9920619Y-9648667D01*
X9901571Y-9658190D01*
X9892048Y-9667714D01*
X9882524Y-9686762D01*
X10120619Y-9572476D02*
X10139667Y-9572476D01*
X10158714Y-9582000D01*
X10168238Y-9591524D01*
X10177762Y-9610571D01*
X10187286Y-9648667D01*
X10187286Y-9696286D01*
X10177762Y-9734381D01*
X10168238Y-9753429D01*
X10158714Y-9762952D01*
X10139667Y-9772476D01*
X10120619Y-9772476D01*
X10101571Y-9762952D01*
X10092048Y-9753429D01*
X10082524Y-9734381D01*
X10073000Y-9696286D01*
X10073000Y-9648667D01*
X10082524Y-9610571D01*
X10092048Y-9591524D01*
X10101571Y-9582000D01*
X10120619Y-9572476D01*
X10263476Y-9572476D02*
X10263476Y-9610571D01*
X10339667Y-9572476D02*
X10339667Y-9610571D01*
X10634905Y-9848667D02*
X10625381Y-9839143D01*
X10606333Y-9810571D01*
X10596810Y-9791524D01*
X10587286Y-9762952D01*
X10577762Y-9715333D01*
X10577762Y-9677238D01*
X10587286Y-9629619D01*
X10596810Y-9601048D01*
X10606333Y-9582000D01*
X10625381Y-9553429D01*
X10634905Y-9543905D01*
X10701571Y-9591524D02*
X10711095Y-9582000D01*
X10730143Y-9572476D01*
X10777762Y-9572476D01*
X10796810Y-9582000D01*
X10806333Y-9591524D01*
X10815857Y-9610571D01*
X10815857Y-9629619D01*
X10806333Y-9658190D01*
X10692048Y-9772476D01*
X10815857Y-9772476D01*
X11053952Y-9772476D02*
X11053952Y-9572476D01*
X11139667Y-9772476D02*
X11139667Y-9667714D01*
X11130143Y-9648667D01*
X11111095Y-9639143D01*
X11082524Y-9639143D01*
X11063476Y-9648667D01*
X11053952Y-9658190D01*
X11263476Y-9772476D02*
X11244428Y-9762952D01*
X11234905Y-9753429D01*
X11225381Y-9734381D01*
X11225381Y-9677238D01*
X11234905Y-9658190D01*
X11244428Y-9648667D01*
X11263476Y-9639143D01*
X11292048Y-9639143D01*
X11311095Y-9648667D01*
X11320619Y-9658190D01*
X11330143Y-9677238D01*
X11330143Y-9734381D01*
X11320619Y-9753429D01*
X11311095Y-9762952D01*
X11292048Y-9772476D01*
X11263476Y-9772476D01*
X11444428Y-9772476D02*
X11425381Y-9762952D01*
X11415857Y-9743905D01*
X11415857Y-9572476D01*
X11596809Y-9762952D02*
X11577762Y-9772476D01*
X11539667Y-9772476D01*
X11520619Y-9762952D01*
X11511095Y-9743905D01*
X11511095Y-9667714D01*
X11520619Y-9648667D01*
X11539667Y-9639143D01*
X11577762Y-9639143D01*
X11596809Y-9648667D01*
X11606333Y-9667714D01*
X11606333Y-9686762D01*
X11511095Y-9705810D01*
X11682524Y-9762952D02*
X11701571Y-9772476D01*
X11739667Y-9772476D01*
X11758714Y-9762952D01*
X11768238Y-9743905D01*
X11768238Y-9734381D01*
X11758714Y-9715333D01*
X11739667Y-9705810D01*
X11711095Y-9705810D01*
X11692048Y-9696286D01*
X11682524Y-9677238D01*
X11682524Y-9667714D01*
X11692048Y-9648667D01*
X11711095Y-9639143D01*
X11739667Y-9639143D01*
X11758714Y-9648667D01*
X11834905Y-9848667D02*
X11844428Y-9839143D01*
X11863476Y-9810571D01*
X11873000Y-9791524D01*
X11882524Y-9762952D01*
X11892048Y-9715333D01*
X11892048Y-9677238D01*
X11882524Y-9629619D01*
X11873000Y-9601048D01*
X11863476Y-9582000D01*
X11844428Y-9553429D01*
X11834905Y-9543905D01*
X12196809Y-9848667D02*
X12187286Y-9839143D01*
X12168238Y-9810571D01*
X12158714Y-9791524D01*
X12149190Y-9762952D01*
X12139667Y-9715333D01*
X12139667Y-9677238D01*
X12149190Y-9629619D01*
X12158714Y-9601048D01*
X12168238Y-9582000D01*
X12187286Y-9553429D01*
X12196809Y-9543905D01*
X12273000Y-9639143D02*
X12273000Y-9772476D01*
X12273000Y-9658190D02*
X12282524Y-9648667D01*
X12301571Y-9639143D01*
X12330143Y-9639143D01*
X12349190Y-9648667D01*
X12358714Y-9667714D01*
X12358714Y-9772476D01*
X12482524Y-9772476D02*
X12463476Y-9762952D01*
X12453952Y-9753429D01*
X12444428Y-9734381D01*
X12444428Y-9677238D01*
X12453952Y-9658190D01*
X12463476Y-9648667D01*
X12482524Y-9639143D01*
X12511095Y-9639143D01*
X12530143Y-9648667D01*
X12539667Y-9658190D01*
X12549190Y-9677238D01*
X12549190Y-9734381D01*
X12539667Y-9753429D01*
X12530143Y-9762952D01*
X12511095Y-9772476D01*
X12482524Y-9772476D01*
X12606333Y-9639143D02*
X12682524Y-9639143D01*
X12634905Y-9572476D02*
X12634905Y-9743905D01*
X12644428Y-9762952D01*
X12663476Y-9772476D01*
X12682524Y-9772476D01*
X12901571Y-9639143D02*
X12901571Y-9839143D01*
X12901571Y-9648667D02*
X12920619Y-9639143D01*
X12958714Y-9639143D01*
X12977762Y-9648667D01*
X12987286Y-9658190D01*
X12996809Y-9677238D01*
X12996809Y-9734381D01*
X12987286Y-9753429D01*
X12977762Y-9762952D01*
X12958714Y-9772476D01*
X12920619Y-9772476D01*
X12901571Y-9762952D01*
X13111095Y-9772476D02*
X13092048Y-9762952D01*
X13082524Y-9743905D01*
X13082524Y-9572476D01*
X13273000Y-9772476D02*
X13273000Y-9667714D01*
X13263476Y-9648667D01*
X13244428Y-9639143D01*
X13206333Y-9639143D01*
X13187286Y-9648667D01*
X13273000Y-9762952D02*
X13253952Y-9772476D01*
X13206333Y-9772476D01*
X13187286Y-9762952D01*
X13177762Y-9743905D01*
X13177762Y-9724857D01*
X13187286Y-9705810D01*
X13206333Y-9696286D01*
X13253952Y-9696286D01*
X13273000Y-9686762D01*
X13339667Y-9639143D02*
X13415857Y-9639143D01*
X13368238Y-9572476D02*
X13368238Y-9743905D01*
X13377762Y-9762952D01*
X13396809Y-9772476D01*
X13415857Y-9772476D01*
X13558714Y-9762952D02*
X13539667Y-9772476D01*
X13501571Y-9772476D01*
X13482524Y-9762952D01*
X13473000Y-9743905D01*
X13473000Y-9667714D01*
X13482524Y-9648667D01*
X13501571Y-9639143D01*
X13539667Y-9639143D01*
X13558714Y-9648667D01*
X13568238Y-9667714D01*
X13568238Y-9686762D01*
X13473000Y-9705810D01*
X13739667Y-9772476D02*
X13739667Y-9572476D01*
X13739667Y-9762952D02*
X13720619Y-9772476D01*
X13682524Y-9772476D01*
X13663476Y-9762952D01*
X13653952Y-9753429D01*
X13644428Y-9734381D01*
X13644428Y-9677238D01*
X13653952Y-9658190D01*
X13663476Y-9648667D01*
X13682524Y-9639143D01*
X13720619Y-9639143D01*
X13739667Y-9648667D01*
X13815857Y-9848667D02*
X13825381Y-9839143D01*
X13844428Y-9810571D01*
X13853952Y-9791524D01*
X13863476Y-9762952D01*
X13873000Y-9715333D01*
X13873000Y-9677238D01*
X13863476Y-9629619D01*
X13853952Y-9601048D01*
X13844428Y-9582000D01*
X13825381Y-9553429D01*
X13815857Y-9543905D01*
M02*
