%TF.GenerationSoftware,KiCad,Pcbnew,(6.0.9)*%
%TF.CreationDate,2022-12-23T14:19:27+01:00*%
%TF.ProjectId,Gigaset-Debug-Adapter,47696761-7365-4742-9d44-656275672d41,rev?*%
%TF.SameCoordinates,Original*%
%TF.FileFunction,Copper,L4,Bot*%
%TF.FilePolarity,Positive*%
%FSLAX46Y46*%
G04 Gerber Fmt 4.6, Leading zero omitted, Abs format (unit mm)*
G04 Created by KiCad (PCBNEW (6.0.9)) date 2022-12-23 14:19:27*
%MOMM*%
%LPD*%
G01*
G04 APERTURE LIST*
%TA.AperFunction,ComponentPad*%
%ADD10C,1.900000*%
%TD*%
%TA.AperFunction,ComponentPad*%
%ADD11C,1.200000*%
%TD*%
%TA.AperFunction,ViaPad*%
%ADD12C,0.450000*%
%TD*%
%TA.AperFunction,Conductor*%
%ADD13C,0.500000*%
%TD*%
%TA.AperFunction,Conductor*%
%ADD14C,0.254000*%
%TD*%
%TA.AperFunction,Conductor*%
%ADD15C,0.127000*%
%TD*%
G04 APERTURE END LIST*
D10*
%TO.P,TP2,1,1*%
%TO.N,/DECT_TX*%
X82542000Y-67599508D03*
%TD*%
%TO.P,TP1,1,1*%
%TO.N,/DECT_RX*%
X79494000Y-67599508D03*
%TD*%
D11*
%TO.P,J1,S1,SHIELD*%
%TO.N,Net-(C1-Pad2)*%
X78650000Y-77589660D03*
X83450000Y-77589660D03*
X83450000Y-73289660D03*
X78650000Y-73289660D03*
%TD*%
D12*
%TO.N,GND*%
X86050000Y-57250000D03*
X79790000Y-46600000D03*
X77450000Y-76550000D03*
X87980000Y-67170000D03*
X71500000Y-81100000D03*
X89570000Y-71200001D03*
X78842000Y-71000000D03*
X76150000Y-67400000D03*
X84200000Y-76040000D03*
X87310000Y-66430000D03*
X90300000Y-73100000D03*
X72450000Y-74700000D03*
X74100000Y-69150000D03*
X84200000Y-74890000D03*
X75600000Y-76100000D03*
X76850000Y-70350000D03*
X77450000Y-71650000D03*
X77900000Y-76000000D03*
X80320000Y-46600000D03*
X86900000Y-76000000D03*
X85750000Y-71300000D03*
X77900000Y-74850000D03*
X85100000Y-81100000D03*
X76050000Y-57200000D03*
X84650000Y-74340000D03*
X74100000Y-65550000D03*
X84650000Y-76540000D03*
X77100000Y-66700000D03*
X77450000Y-74350000D03*
%TO.N,VBUS*%
X83142000Y-71000000D03*
X75500000Y-65550000D03*
X82500000Y-73800000D03*
X87030000Y-71270000D03*
X71800000Y-75600000D03*
X79800000Y-76950000D03*
X76500000Y-71000000D03*
X87310000Y-71990000D03*
X77550000Y-55800000D03*
X87300000Y-69300000D03*
X73950000Y-74700000D03*
X81900000Y-73800000D03*
%TO.N,Net-(J1-PadA5)*%
X89650000Y-74700000D03*
X79800000Y-73700000D03*
%TO.N,/3V_EN*%
X82600000Y-55850000D03*
X89550000Y-68100000D03*
X77100000Y-58000000D03*
%TO.N,Net-(J1-PadB5)*%
X88150000Y-74700000D03*
X81900000Y-77150000D03*
%TO.N,Net-(C10-Pad2)*%
X88860000Y-66440000D03*
X85810000Y-66420000D03*
X82370000Y-47740000D03*
X81910000Y-48050000D03*
%TO.N,+3V0*%
X81980000Y-47280000D03*
X90300000Y-75600000D03*
%TO.N,+3V3*%
X88800000Y-75600000D03*
X73300000Y-75600000D03*
X76500000Y-66550000D03*
X76800000Y-71600000D03*
X73800000Y-56500000D03*
%TO.N,+1V8*%
X79800000Y-56150000D03*
X76850000Y-68050000D03*
X74500000Y-55900000D03*
X89500000Y-58300000D03*
X72300000Y-66800000D03*
X81050000Y-57250000D03*
X76200000Y-71550000D03*
%TO.N,Net-(D2-Pad1)*%
X80600000Y-81100000D03*
X71750000Y-67100000D03*
%TO.N,Net-(D3-Pad1)*%
X76100000Y-81100000D03*
X72300000Y-67400000D03*
%TO.N,Net-(Q1-Pad2)*%
X83550000Y-56700000D03*
X72300000Y-71000000D03*
%TO.N,Net-(Q2-Pad2)*%
X78550000Y-56700000D03*
X89500000Y-55950000D03*
X75900000Y-71000000D03*
%TO.N,Net-(R2-Pad1)*%
X74800000Y-65450000D03*
X71800000Y-73100000D03*
%TO.N,/D+*%
X81300000Y-76879660D03*
X80800000Y-73989660D03*
X83542000Y-71500000D03*
X81142000Y-71500000D03*
X77900000Y-69600000D03*
%TO.N,/D-*%
X77900000Y-68800000D03*
X83542000Y-70500000D03*
X80800000Y-77300000D03*
X81142000Y-70500000D03*
%TO.N,Net-(Q2-Pad3)*%
X72400000Y-55850000D03*
X87750000Y-55900000D03*
X71900000Y-71500000D03*
X73100000Y-55950000D03*
%TO.N,/DECT_TX*%
X73850000Y-72900000D03*
X81050000Y-69850000D03*
%TO.N,Net-(R17-Pad2)*%
X89600000Y-70160000D03*
X89600000Y-68780000D03*
%TD*%
D13*
%TO.N,VBUS*%
X87300000Y-69300000D02*
X83700000Y-69300000D01*
X82446000Y-71696000D02*
X82746000Y-71396000D01*
X87310000Y-71010000D02*
X87300000Y-71000000D01*
X83142000Y-71000000D02*
X82800000Y-71342000D01*
X87030000Y-71270000D02*
X87030000Y-69570000D01*
X87310000Y-71990000D02*
X87310000Y-71010000D01*
D14*
X81900000Y-73250000D02*
X81900000Y-72242000D01*
D13*
X87030000Y-71710000D02*
X87310000Y-71990000D01*
X82800000Y-70200000D02*
X82800000Y-70658000D01*
X83400000Y-69600000D02*
X82800000Y-70200000D01*
X82446000Y-70554000D02*
X82800000Y-70200000D01*
X87300000Y-69600000D02*
X83400000Y-69600000D01*
D14*
X82450000Y-73800000D02*
X81900000Y-73250000D01*
D13*
X82473000Y-71723000D02*
X82446000Y-71696000D01*
X87310000Y-71990000D02*
X87310000Y-71550000D01*
X82500000Y-73800000D02*
X82473000Y-73773000D01*
X83700000Y-69300000D02*
X83400000Y-69600000D01*
D14*
X81900000Y-73500000D02*
X81900000Y-73250000D01*
D13*
X82800000Y-70658000D02*
X82800000Y-71342000D01*
X81900000Y-72242000D02*
X82196000Y-71946000D01*
X87030000Y-71270000D02*
X87030000Y-71710000D01*
D14*
X82500000Y-73800000D02*
X82450000Y-73800000D01*
D13*
X82196000Y-71946000D02*
X82196000Y-73504000D01*
X82800000Y-70658000D02*
X83142000Y-71000000D01*
D14*
X81900000Y-73800000D02*
X81900000Y-73500000D01*
D13*
X81900000Y-72242000D02*
X81900000Y-73800000D01*
D14*
X82200000Y-73800000D02*
X82050000Y-73650000D01*
D13*
X87300000Y-71000000D02*
X87030000Y-71270000D01*
X87300000Y-69600000D02*
X87300000Y-71000000D01*
X82196000Y-71946000D02*
X82446000Y-71696000D01*
X87300000Y-69300000D02*
X87300000Y-69600000D01*
X87030000Y-69570000D02*
X87300000Y-69300000D01*
X82446000Y-71696000D02*
X82446000Y-70554000D01*
X87310000Y-71550000D02*
X87030000Y-71270000D01*
D14*
X82500000Y-73800000D02*
X82200000Y-73800000D01*
X82500000Y-73800000D02*
X81900000Y-73800000D01*
D13*
X82800000Y-71342000D02*
X82746000Y-71396000D01*
D14*
X82050000Y-73650000D02*
X81900000Y-73500000D01*
D13*
X82473000Y-73773000D02*
X82473000Y-71723000D01*
X82196000Y-73504000D02*
X82050000Y-73650000D01*
D15*
%TO.N,Net-(J1-PadA5)*%
X79750000Y-80350000D02*
X81800000Y-80350000D01*
X77600000Y-77100000D02*
X77600000Y-78200000D01*
X79050000Y-75650000D02*
X77600000Y-77100000D01*
X81800000Y-80350000D02*
X85050000Y-80350000D01*
X79050000Y-75350000D02*
X79050000Y-75650000D01*
X85050000Y-80350000D02*
X89650000Y-75750000D01*
X79050000Y-74450000D02*
X79800000Y-73700000D01*
X89650000Y-75750000D02*
X89650000Y-74700000D01*
X79050000Y-75350000D02*
X79050000Y-74450000D01*
X77600000Y-78200000D02*
X79750000Y-80350000D01*
%TO.N,/3V_EN*%
X78950000Y-55700000D02*
X82450000Y-55700000D01*
X89700000Y-55450000D02*
X90050000Y-55800000D01*
X86250000Y-55850000D02*
X86900000Y-56500000D01*
X77100000Y-57550000D02*
X78950000Y-55700000D01*
X82600000Y-55850000D02*
X86250000Y-55850000D01*
X77100000Y-58000000D02*
X77100000Y-57750000D01*
X88050000Y-56500000D02*
X89100000Y-55450000D01*
X86900000Y-56500000D02*
X88050000Y-56500000D01*
X90050000Y-55800000D02*
X90050000Y-67600000D01*
X82450000Y-55700000D02*
X82600000Y-55850000D01*
X90050000Y-67600000D02*
X89550000Y-68100000D01*
X77100000Y-57750000D02*
X77100000Y-57550000D01*
X89100000Y-55450000D02*
X89700000Y-55450000D01*
%TO.N,Net-(J1-PadB5)*%
X81300000Y-75150000D02*
X81750000Y-75600000D01*
X81300000Y-73650000D02*
X81300000Y-75150000D01*
X80300000Y-73650000D02*
X80500000Y-73450000D01*
X81750000Y-76750000D02*
X81750000Y-77000000D01*
X81750000Y-75600000D02*
X81750000Y-76750000D01*
X84950000Y-80050000D02*
X81900000Y-80050000D01*
X81100000Y-73450000D02*
X81300000Y-73650000D01*
X88150000Y-74700000D02*
X88150000Y-76850000D01*
X81900000Y-80050000D02*
X80300000Y-78450000D01*
X81750000Y-77000000D02*
X81900000Y-77150000D01*
X80300000Y-78450000D02*
X80300000Y-73650000D01*
X88150000Y-76850000D02*
X84950000Y-80050000D01*
X80500000Y-73450000D02*
X81100000Y-73450000D01*
D14*
%TO.N,Net-(C10-Pad2)*%
X87160000Y-67770000D02*
X88270000Y-67770000D01*
X88860000Y-66440000D02*
X88860000Y-67180000D01*
X85810000Y-66420000D02*
X87160000Y-67770000D01*
X88860000Y-67180000D02*
X88270000Y-67770000D01*
D15*
%TO.N,+1V8*%
X81050000Y-57250000D02*
X84980000Y-57250000D01*
X86030000Y-58300000D02*
X89500000Y-58300000D01*
X84980000Y-57250000D02*
X86030000Y-58300000D01*
%TO.N,Net-(D2-Pad1)*%
X79800000Y-81100000D02*
X80600000Y-81100000D01*
X73300000Y-74800000D02*
X79600000Y-81100000D01*
X79600000Y-81100000D02*
X79800000Y-81100000D01*
X71750000Y-66650000D02*
X72025000Y-66375000D01*
X74700000Y-71100000D02*
X74025000Y-71775000D01*
X74700000Y-71100000D02*
X75100000Y-70700000D01*
X75100000Y-66600000D02*
X75550000Y-66150000D01*
X75550000Y-66150000D02*
X76000000Y-65700000D01*
X75550000Y-64950000D02*
X76000000Y-65400000D01*
X72025000Y-66375000D02*
X73450000Y-64950000D01*
X73450000Y-64950000D02*
X74750000Y-64950000D01*
X74025000Y-71775000D02*
X73300000Y-72500000D01*
X75100000Y-70700000D02*
X75100000Y-66600000D01*
X76000000Y-65400000D02*
X76000000Y-65700000D01*
X74750000Y-64950000D02*
X75550000Y-64950000D01*
X73300000Y-72500000D02*
X73300000Y-74800000D01*
X71750000Y-67100000D02*
X71750000Y-66650000D01*
%TO.N,Net-(D3-Pad1)*%
X71350000Y-72950000D02*
X71350000Y-74350000D01*
X73450000Y-68550000D02*
X73450000Y-70850000D01*
X76100000Y-79100000D02*
X76100000Y-81100000D01*
X73450000Y-70850000D02*
X71350000Y-72950000D01*
X72300000Y-67400000D02*
X73450000Y-68550000D01*
X71350000Y-74350000D02*
X76100000Y-79100000D01*
%TO.N,Net-(Q2-Pad2)*%
X76175000Y-65975000D02*
X78550000Y-63600000D01*
X75882500Y-66267500D02*
X76175000Y-65975000D01*
X79400000Y-56700000D02*
X80900000Y-56700000D01*
X78550000Y-63150000D02*
X78550000Y-56700000D01*
X78550000Y-56700000D02*
X79400000Y-56700000D01*
X86600000Y-57000000D02*
X88450000Y-57000000D01*
X75450000Y-70550000D02*
X75900000Y-71000000D01*
X80900000Y-56700000D02*
X81300000Y-56300000D01*
X85325000Y-56225000D02*
X85825000Y-56225000D01*
X85325000Y-56225000D02*
X82875000Y-56225000D01*
X76175000Y-65975000D02*
X75450000Y-66700000D01*
X85825000Y-56225000D02*
X86600000Y-57000000D01*
X75900000Y-71000000D02*
X75882500Y-70982500D01*
X88450000Y-57000000D02*
X88750000Y-56700000D01*
X78550000Y-63600000D02*
X78550000Y-63150000D01*
X75450000Y-66700000D02*
X75450000Y-70550000D01*
X88750000Y-56700000D02*
X89500000Y-55950000D01*
X82800000Y-56300000D02*
X82875000Y-56225000D01*
X81300000Y-56300000D02*
X82800000Y-56300000D01*
%TO.N,Net-(R2-Pad1)*%
X74800000Y-70100000D02*
X71800000Y-73100000D01*
X74800000Y-65450000D02*
X74800000Y-70100000D01*
%TO.N,/D+*%
X80800000Y-75199660D02*
X80800000Y-73989660D01*
X85617500Y-77417500D02*
X84235000Y-78800000D01*
X82500000Y-78800000D02*
X83600000Y-78800000D01*
X83800000Y-71500000D02*
X85617500Y-73317500D01*
X81300000Y-77600000D02*
X82500000Y-78800000D01*
X78142000Y-69600000D02*
X79842000Y-71300000D01*
X83900000Y-78800000D02*
X84100000Y-78800000D01*
X83600000Y-78800000D02*
X83900000Y-78800000D01*
X80942000Y-71300000D02*
X81142000Y-71500000D01*
X84235000Y-78800000D02*
X83600000Y-78800000D01*
X81300000Y-76879660D02*
X81300000Y-77600000D01*
X79842000Y-71300000D02*
X80942000Y-71300000D01*
X85617500Y-73317500D02*
X85617500Y-77417500D01*
X77900000Y-69600000D02*
X78142000Y-69600000D01*
X81300000Y-75699660D02*
X80800000Y-75199660D01*
X83542000Y-71500000D02*
X83800000Y-71500000D01*
X81300000Y-76879660D02*
X81300000Y-75699660D01*
%TO.N,/D-*%
X78242000Y-68800000D02*
X79842000Y-70400000D01*
X80142000Y-70700000D02*
X80942000Y-70700000D01*
X86300000Y-73000000D02*
X86300000Y-77800000D01*
X86300000Y-77800000D02*
X84600000Y-79500000D01*
X79842000Y-70400000D02*
X80142000Y-70700000D01*
X84600000Y-79500000D02*
X82200000Y-79500000D01*
X80800000Y-78100000D02*
X80800000Y-77300000D01*
X82200000Y-79500000D02*
X80800000Y-78100000D01*
X79842000Y-70400000D02*
X79942000Y-70500000D01*
X77900000Y-68800000D02*
X78242000Y-68800000D01*
X80942000Y-70700000D02*
X81142000Y-70500000D01*
X83800000Y-70500000D02*
X86300000Y-73000000D01*
X83542000Y-70500000D02*
X83800000Y-70500000D01*
%TO.N,Net-(Q2-Pad3)*%
X72900000Y-55350000D02*
X87200000Y-55350000D01*
X87200000Y-55350000D02*
X87750000Y-55900000D01*
X72400000Y-55850000D02*
X72900000Y-55350000D01*
X73100000Y-56400000D02*
X73100000Y-55950000D01*
X71900000Y-71500000D02*
X71300000Y-70900000D01*
X71300000Y-66500000D02*
X71300000Y-58200000D01*
X71300000Y-70900000D02*
X71300000Y-66500000D01*
X71300000Y-58200000D02*
X73100000Y-56400000D01*
%TO.N,/DECT_TX*%
X81650000Y-71700000D02*
X81300000Y-72050000D01*
X81050000Y-69850000D02*
X81200000Y-69850000D01*
X77450000Y-72350000D02*
X74400000Y-72350000D01*
X81300000Y-72050000D02*
X77750000Y-72050000D01*
X81650000Y-70300000D02*
X81650000Y-71700000D01*
X77750000Y-72050000D02*
X77450000Y-72350000D01*
X74400000Y-72350000D02*
X73850000Y-72900000D01*
X81200000Y-69850000D02*
X81650000Y-70300000D01*
%TO.N,Net-(R17-Pad2)*%
X89600000Y-68780000D02*
X89600000Y-70160000D01*
%TD*%
M02*
