%TF.GenerationSoftware,KiCad,Pcbnew,(6.0.9)*%
%TF.CreationDate,2022-12-23T14:34:15+01:00*%
%TF.ProjectId,Gigaset-Debug-Adapter,47696761-7365-4742-9d44-656275672d41,rev?*%
%TF.SameCoordinates,Original*%
%TF.FileFunction,Copper,L3,Inr*%
%TF.FilePolarity,Positive*%
%FSLAX46Y46*%
G04 Gerber Fmt 4.6, Leading zero omitted, Abs format (unit mm)*
G04 Created by KiCad (PCBNEW (6.0.9)) date 2022-12-23 14:34:15*
%MOMM*%
%LPD*%
G01*
G04 APERTURE LIST*
%TA.AperFunction,ComponentPad*%
%ADD10C,1.900000*%
%TD*%
%TA.AperFunction,ComponentPad*%
%ADD11C,1.200000*%
%TD*%
%TA.AperFunction,ViaPad*%
%ADD12C,0.450000*%
%TD*%
%TA.AperFunction,Conductor*%
%ADD13C,0.254000*%
%TD*%
%TA.AperFunction,Conductor*%
%ADD14C,0.127000*%
%TD*%
%TA.AperFunction,Conductor*%
%ADD15C,0.500000*%
%TD*%
G04 APERTURE END LIST*
D10*
%TO.N,/DECT_TX*%
%TO.C,TP2*%
X82542000Y-67599508D03*
%TD*%
%TO.N,/DECT_RX*%
%TO.C,TP1*%
X79494000Y-67599508D03*
%TD*%
D11*
%TO.N,Net-(C1-Pad2)*%
%TO.C,J1*%
X78650000Y-77589660D03*
X83450000Y-77589660D03*
X83450000Y-73289660D03*
X78650000Y-73289660D03*
%TD*%
D12*
%TO.N,GND*%
X86050000Y-57250000D03*
X79790000Y-46600000D03*
X77450000Y-76550000D03*
X87980000Y-67170000D03*
X71500000Y-81100000D03*
X89570000Y-71200001D03*
X78842000Y-71000000D03*
X76150000Y-67400000D03*
X84200000Y-76040000D03*
X87310000Y-66430000D03*
X90300000Y-73100000D03*
X72450000Y-74700000D03*
X74100000Y-69150000D03*
X84200000Y-74890000D03*
X75600000Y-76100000D03*
X76850000Y-70350000D03*
X77450000Y-71650000D03*
X77900000Y-76000000D03*
X80320000Y-46600000D03*
X86900000Y-76000000D03*
X85750000Y-71300000D03*
X77900000Y-74850000D03*
X85100000Y-81100000D03*
X76050000Y-57200000D03*
X84650000Y-74340000D03*
X74100000Y-65550000D03*
X84650000Y-76540000D03*
X77100000Y-66700000D03*
X77450000Y-74350000D03*
%TO.N,VBUS*%
X83142000Y-71000000D03*
X75500000Y-65550000D03*
X82500000Y-73800000D03*
X87030000Y-71270000D03*
X71800000Y-75600000D03*
X79800000Y-76950000D03*
X76500000Y-71000000D03*
X87310000Y-71990000D03*
X77550000Y-55800000D03*
X87300000Y-69300000D03*
X73950000Y-74700000D03*
X81900000Y-73800000D03*
%TO.N,Net-(J1-PadA5)*%
X89650000Y-74700000D03*
X79800000Y-73700000D03*
%TO.N,/3V_EN*%
X82600000Y-55850000D03*
X89550000Y-68100000D03*
X77100000Y-58000000D03*
%TO.N,Net-(J1-PadB5)*%
X88150000Y-74700000D03*
X81900000Y-77150000D03*
%TO.N,Net-(C10-Pad2)*%
X88860000Y-66440000D03*
X85810000Y-66420000D03*
X82370000Y-47740000D03*
X81910000Y-48050000D03*
%TO.N,+3V0*%
X81980000Y-47280000D03*
X90300000Y-75600000D03*
%TO.N,+3V3*%
X88800000Y-75600000D03*
X73300000Y-75600000D03*
X76500000Y-66550000D03*
X76800000Y-71600000D03*
X73800000Y-56500000D03*
%TO.N,+1V8*%
X79800000Y-56150000D03*
X76850000Y-68050000D03*
X74500000Y-55900000D03*
X89500000Y-58300000D03*
X72300000Y-66800000D03*
X81050000Y-57250000D03*
X76200000Y-71550000D03*
%TO.N,Net-(D2-Pad1)*%
X80600000Y-81100000D03*
X71750000Y-67100000D03*
%TO.N,Net-(D3-Pad1)*%
X76100000Y-81100000D03*
X72300000Y-67400000D03*
%TO.N,Net-(Q1-Pad2)*%
X83550000Y-56700000D03*
X72300000Y-71000000D03*
%TO.N,Net-(R2-Pad1)*%
X74800000Y-65450000D03*
X71800000Y-73100000D03*
%TO.N,Net-(Q2-Pad2)*%
X78550000Y-56700000D03*
X89500000Y-55950000D03*
X75900000Y-71000000D03*
%TO.N,/D+*%
X81300000Y-76879660D03*
X80800000Y-73989660D03*
X83542000Y-71500000D03*
X81142000Y-71500000D03*
X77900000Y-69600000D03*
%TO.N,/D-*%
X77900000Y-68800000D03*
X83542000Y-70500000D03*
X80800000Y-77300000D03*
X81142000Y-70500000D03*
%TO.N,Net-(Q2-Pad3)*%
X71900000Y-71500000D03*
X73100000Y-55950000D03*
X72400000Y-55850000D03*
X87750000Y-55900000D03*
%TO.N,/DECT_TX*%
X73850000Y-72900000D03*
X81050000Y-69850000D03*
%TO.N,Net-(R17-Pad2)*%
X89600000Y-70160000D03*
X89600000Y-68780000D03*
%TD*%
D13*
%TO.N,VBUS*%
X79700000Y-78650000D02*
X80400000Y-77950000D01*
D14*
X72196000Y-64196000D02*
X72950000Y-64950000D01*
D13*
X82225000Y-74075000D02*
X82175000Y-74075000D01*
D14*
X75050000Y-64950000D02*
X72950000Y-64950000D01*
D13*
X81900000Y-77950000D02*
X82450000Y-77400000D01*
D14*
X73567500Y-56082500D02*
X72196000Y-57454000D01*
D13*
X81900000Y-73850000D02*
X82450000Y-74400000D01*
X74450000Y-78650000D02*
X79700000Y-78650000D01*
X82450000Y-77400000D02*
X82450000Y-74400000D01*
D14*
X75500000Y-66140435D02*
X77009565Y-67650000D01*
D13*
X82450000Y-73850000D02*
X82500000Y-73800000D01*
D14*
X74032500Y-56082500D02*
X73567500Y-56082500D01*
X77100000Y-68550000D02*
X77125000Y-68525000D01*
D13*
X81900000Y-73800000D02*
X82500000Y-73800000D01*
X82450000Y-74200000D02*
X82300000Y-74200000D01*
D14*
X75800000Y-69150000D02*
X76400000Y-68550000D01*
X74350000Y-56400000D02*
X74032500Y-56082500D01*
D13*
X82175000Y-74075000D02*
X81900000Y-73800000D01*
X79800000Y-77350000D02*
X80400000Y-77950000D01*
D14*
X72196000Y-57454000D02*
X72196000Y-63346000D01*
X76500000Y-71000000D02*
X75800000Y-70300000D01*
D13*
X79800000Y-76950000D02*
X79800000Y-77350000D01*
X71800000Y-75600000D02*
X71800000Y-76000000D01*
D14*
X73200000Y-74700000D02*
X72300000Y-75600000D01*
X75800000Y-70300000D02*
X75800000Y-69150000D01*
D13*
X82300000Y-74200000D02*
X82175000Y-74075000D01*
X82500000Y-73800000D02*
X82225000Y-74075000D01*
X80400000Y-77950000D02*
X81900000Y-77950000D01*
D14*
X73950000Y-74700000D02*
X73200000Y-74700000D01*
X77350000Y-67850000D02*
X77350000Y-68300000D01*
X77150000Y-67650000D02*
X77350000Y-67850000D01*
X77125000Y-68525000D02*
X77350000Y-68300000D01*
D13*
X71800000Y-76000000D02*
X74450000Y-78650000D01*
D14*
X77550000Y-55800000D02*
X76950000Y-56400000D01*
X77009565Y-67650000D02*
X77150000Y-67650000D01*
D13*
X81900000Y-73800000D02*
X81900000Y-73850000D01*
D14*
X75500000Y-65550000D02*
X75500000Y-66140435D01*
X76400000Y-68550000D02*
X77100000Y-68550000D01*
X72196000Y-63346000D02*
X72196000Y-64196000D01*
D13*
X82450000Y-74400000D02*
X82450000Y-74200000D01*
D14*
X75500000Y-65550000D02*
X75500000Y-65400000D01*
X72300000Y-75600000D02*
X71800000Y-75600000D01*
D13*
X82450000Y-74200000D02*
X82450000Y-73850000D01*
D14*
X75500000Y-65400000D02*
X75050000Y-64950000D01*
X76950000Y-56400000D02*
X74350000Y-56400000D01*
D13*
%TO.N,Net-(C1-Pad2)*%
X79260340Y-72689660D02*
X78700000Y-73250000D01*
X82850000Y-72689660D02*
X79260340Y-72689660D01*
X78700000Y-73250000D02*
X78700000Y-73300000D01*
X83450000Y-73289660D02*
X82850000Y-72689660D01*
D15*
%TO.N,Net-(C10-Pad2)*%
X81910000Y-48050000D02*
X81910000Y-48700000D01*
X83070000Y-60890000D02*
X83070000Y-63940000D01*
X86480000Y-65750000D02*
X86010000Y-66220000D01*
X88860000Y-66440000D02*
X88170000Y-65750000D01*
X81910000Y-48204185D02*
X82372093Y-47742092D01*
X81910000Y-53850000D02*
X84360000Y-56300000D01*
X84360000Y-59600000D02*
X83070000Y-60890000D01*
X83070000Y-63940000D02*
X85360000Y-66230000D01*
X81910000Y-48700000D02*
X81910000Y-53850000D01*
X81910000Y-48700000D02*
X81910000Y-48204185D01*
X86010000Y-66220000D02*
X85370000Y-66220000D01*
X85550000Y-66420000D02*
X85810000Y-66420000D01*
X88170000Y-65750000D02*
X86480000Y-65750000D01*
X84360000Y-56300000D02*
X84360000Y-59600000D01*
X86010000Y-66220000D02*
X85810000Y-66420000D01*
X85370000Y-66220000D02*
X85360000Y-66230000D01*
X85360000Y-66230000D02*
X85550000Y-66420000D01*
D14*
%TO.N,+3V0*%
X89800000Y-73650000D02*
X89800000Y-72550000D01*
X90100000Y-72250000D02*
X90100000Y-54200000D01*
X81980000Y-47280000D02*
X83180000Y-47280000D01*
X83180000Y-47280000D02*
X90100000Y-54200000D01*
X89800000Y-72550000D02*
X90100000Y-72250000D01*
X90300000Y-75600000D02*
X90300000Y-74150000D01*
X90300000Y-74150000D02*
X89800000Y-73650000D01*
%TO.N,+3V3*%
X87400000Y-75600000D02*
X83850000Y-72050000D01*
X77825000Y-71225000D02*
X77775000Y-71175000D01*
X73800000Y-56500000D02*
X72600000Y-57700000D01*
X76800000Y-71600000D02*
X74600000Y-73800000D01*
X77350000Y-71050000D02*
X77225000Y-71175000D01*
X77825000Y-71225000D02*
X77650000Y-71050000D01*
X88800000Y-75600000D02*
X87400000Y-75600000D01*
X76300000Y-65700000D02*
X76300000Y-66350000D01*
X75150000Y-64550000D02*
X76300000Y-65700000D01*
X77475000Y-67575000D02*
X77650000Y-67750000D01*
X77650000Y-68400000D02*
X77350000Y-68700000D01*
X78650000Y-72050000D02*
X77825000Y-71225000D01*
X72600000Y-64050000D02*
X73100000Y-64550000D01*
X73900000Y-75600000D02*
X73300000Y-75600000D01*
X77475000Y-67575000D02*
X77200000Y-67300000D01*
X77109565Y-67300000D02*
X76500000Y-66690435D01*
X77225000Y-71175000D02*
X76800000Y-71600000D01*
X77350000Y-68700000D02*
X77350000Y-71050000D01*
X74600000Y-74900000D02*
X73900000Y-75600000D01*
X76300000Y-66350000D02*
X76500000Y-66550000D01*
X72600000Y-57700000D02*
X72600000Y-64050000D01*
X74600000Y-73800000D02*
X74600000Y-74900000D01*
X77200000Y-67300000D02*
X77109565Y-67300000D01*
X76500000Y-66690435D02*
X76500000Y-66550000D01*
X83850000Y-72050000D02*
X78650000Y-72050000D01*
X77650000Y-67750000D02*
X77650000Y-68400000D01*
X73100000Y-64550000D02*
X75150000Y-64550000D01*
X77650000Y-71050000D02*
X77350000Y-71050000D01*
%TO.N,+1V8*%
X75400000Y-71150000D02*
X75400000Y-69000000D01*
X78900000Y-55250000D02*
X79800000Y-56150000D01*
X73100000Y-66800000D02*
X73200000Y-66800000D01*
X73200000Y-66800000D02*
X75400000Y-69000000D01*
X75800000Y-71550000D02*
X75400000Y-71150000D01*
X74500000Y-55900000D02*
X73950000Y-55350000D01*
X76200000Y-71550000D02*
X75800000Y-71550000D01*
X72200000Y-55350000D02*
X71900000Y-55650000D01*
X73100000Y-66800000D02*
X72300000Y-66800000D01*
X79550000Y-55900000D02*
X79800000Y-56150000D01*
X71900000Y-55650000D02*
X71900000Y-66400000D01*
X76850000Y-68050000D02*
X76350000Y-68050000D01*
X71900000Y-66400000D02*
X72300000Y-66800000D01*
X74500000Y-55900000D02*
X75150000Y-55250000D01*
X75150000Y-55250000D02*
X78900000Y-55250000D01*
X75400000Y-69000000D02*
X76350000Y-68050000D01*
X73950000Y-55350000D02*
X72200000Y-55350000D01*
%TO.N,Net-(Q1-Pad2)*%
X71300000Y-70000000D02*
X71300000Y-55700000D01*
X72300000Y-71000000D02*
X71300000Y-70000000D01*
X81150000Y-56700000D02*
X83550000Y-56700000D01*
X79400000Y-54950000D02*
X81150000Y-56700000D01*
X72050000Y-54950000D02*
X79400000Y-54950000D01*
X71300000Y-55700000D02*
X72050000Y-54950000D01*
%TD*%
%TA.AperFunction,Conductor*%
%TO.N,+3V3*%
G36*
X90881194Y-42768806D02*
G01*
X90899500Y-42813000D01*
X90899500Y-80588591D01*
X90881194Y-80632785D01*
X90837000Y-80651091D01*
X90792806Y-80632785D01*
X90789263Y-80628932D01*
X90732164Y-80561364D01*
X90676106Y-80495029D01*
X90597044Y-80434581D01*
X90535442Y-80387483D01*
X90532758Y-80385431D01*
X90369220Y-80309172D01*
X90365920Y-80308434D01*
X90365919Y-80308434D01*
X90195626Y-80270369D01*
X90195627Y-80270369D01*
X90193121Y-80269809D01*
X90189782Y-80269622D01*
X90188458Y-80269548D01*
X90188447Y-80269548D01*
X90187594Y-80269500D01*
X90054923Y-80269500D01*
X89954129Y-80280450D01*
X89923979Y-80283725D01*
X89923978Y-80283725D01*
X89920611Y-80284091D01*
X89917406Y-80285170D01*
X89917404Y-80285170D01*
X89841834Y-80310602D01*
X89749591Y-80341645D01*
X89594920Y-80434581D01*
X89463813Y-80558563D01*
X89362388Y-80707805D01*
X89295377Y-80875345D01*
X89265906Y-81053367D01*
X89266083Y-81056748D01*
X89266083Y-81056752D01*
X89273907Y-81206048D01*
X89275349Y-81233564D01*
X89323268Y-81407530D01*
X89324846Y-81410523D01*
X89324848Y-81410528D01*
X89341100Y-81441352D01*
X89407424Y-81567148D01*
X89523894Y-81704971D01*
X89526582Y-81707026D01*
X89526583Y-81707027D01*
X89605238Y-81767163D01*
X89667242Y-81814569D01*
X89690440Y-81825387D01*
X89701097Y-81830356D01*
X89733414Y-81865624D01*
X89731327Y-81913414D01*
X89696059Y-81945731D01*
X89674683Y-81949500D01*
X71243000Y-81949500D01*
X71198806Y-81931194D01*
X71180500Y-81887000D01*
X71180500Y-81432727D01*
X71198806Y-81388533D01*
X71243000Y-81370227D01*
X71280346Y-81385696D01*
X71281576Y-81384003D01*
X71285555Y-81386894D01*
X71289033Y-81390372D01*
X71293414Y-81392604D01*
X71293415Y-81392605D01*
X71316302Y-81404266D01*
X71389088Y-81441352D01*
X71500000Y-81458919D01*
X71610912Y-81441352D01*
X71683698Y-81404266D01*
X71706585Y-81392605D01*
X71706586Y-81392604D01*
X71710967Y-81390372D01*
X71790372Y-81310967D01*
X71841352Y-81210912D01*
X71858919Y-81100000D01*
X75741081Y-81100000D01*
X75758648Y-81210912D01*
X75809628Y-81310967D01*
X75889033Y-81390372D01*
X75893414Y-81392604D01*
X75893415Y-81392605D01*
X75916302Y-81404266D01*
X75989088Y-81441352D01*
X76100000Y-81458919D01*
X76210912Y-81441352D01*
X76283698Y-81404266D01*
X76306585Y-81392605D01*
X76306586Y-81392604D01*
X76310967Y-81390372D01*
X76390372Y-81310967D01*
X76441352Y-81210912D01*
X76458919Y-81100000D01*
X80241081Y-81100000D01*
X80258648Y-81210912D01*
X80309628Y-81310967D01*
X80389033Y-81390372D01*
X80393414Y-81392604D01*
X80393415Y-81392605D01*
X80416302Y-81404266D01*
X80489088Y-81441352D01*
X80600000Y-81458919D01*
X80710912Y-81441352D01*
X80783698Y-81404266D01*
X80806585Y-81392605D01*
X80806586Y-81392604D01*
X80810967Y-81390372D01*
X80890372Y-81310967D01*
X80941352Y-81210912D01*
X80958919Y-81100000D01*
X84741081Y-81100000D01*
X84758648Y-81210912D01*
X84809628Y-81310967D01*
X84889033Y-81390372D01*
X84893414Y-81392604D01*
X84893415Y-81392605D01*
X84916302Y-81404266D01*
X84989088Y-81441352D01*
X85100000Y-81458919D01*
X85210912Y-81441352D01*
X85283698Y-81404266D01*
X85306585Y-81392605D01*
X85306586Y-81392604D01*
X85310967Y-81390372D01*
X85390372Y-81310967D01*
X85441352Y-81210912D01*
X85458919Y-81100000D01*
X85441352Y-80989088D01*
X85390372Y-80889033D01*
X85310967Y-80809628D01*
X85306586Y-80807396D01*
X85306585Y-80807395D01*
X85257667Y-80782470D01*
X85210912Y-80758648D01*
X85100000Y-80741081D01*
X84989088Y-80758648D01*
X84942333Y-80782470D01*
X84893415Y-80807395D01*
X84893414Y-80807396D01*
X84889033Y-80809628D01*
X84809628Y-80889033D01*
X84758648Y-80989088D01*
X84741081Y-81100000D01*
X80958919Y-81100000D01*
X80941352Y-80989088D01*
X80890372Y-80889033D01*
X80810967Y-80809628D01*
X80806586Y-80807396D01*
X80806585Y-80807395D01*
X80757667Y-80782470D01*
X80710912Y-80758648D01*
X80600000Y-80741081D01*
X80489088Y-80758648D01*
X80442333Y-80782470D01*
X80393415Y-80807395D01*
X80393414Y-80807396D01*
X80389033Y-80809628D01*
X80309628Y-80889033D01*
X80258648Y-80989088D01*
X80241081Y-81100000D01*
X76458919Y-81100000D01*
X76441352Y-80989088D01*
X76390372Y-80889033D01*
X76310967Y-80809628D01*
X76306586Y-80807396D01*
X76306585Y-80807395D01*
X76257667Y-80782470D01*
X76210912Y-80758648D01*
X76100000Y-80741081D01*
X75989088Y-80758648D01*
X75942333Y-80782470D01*
X75893415Y-80807395D01*
X75893414Y-80807396D01*
X75889033Y-80809628D01*
X75809628Y-80889033D01*
X75758648Y-80989088D01*
X75741081Y-81100000D01*
X71858919Y-81100000D01*
X71841352Y-80989088D01*
X71790372Y-80889033D01*
X71710967Y-80809628D01*
X71706586Y-80807396D01*
X71706585Y-80807395D01*
X71657667Y-80782470D01*
X71610912Y-80758648D01*
X71500000Y-80741081D01*
X71389088Y-80758648D01*
X71342333Y-80782470D01*
X71293415Y-80807395D01*
X71293414Y-80807396D01*
X71289033Y-80809628D01*
X71285555Y-80813106D01*
X71281576Y-80815997D01*
X71280346Y-80814304D01*
X71243000Y-80829773D01*
X71198806Y-80811467D01*
X71180500Y-80767273D01*
X71180500Y-75600000D01*
X71441081Y-75600000D01*
X71458648Y-75710912D01*
X71470632Y-75734432D01*
X71499650Y-75791383D01*
X71509628Y-75810967D01*
X71527194Y-75828533D01*
X71545500Y-75872727D01*
X71545500Y-75968778D01*
X71544299Y-75980971D01*
X71540514Y-76000000D01*
X71560266Y-76099301D01*
X71602316Y-76162234D01*
X71602319Y-76162237D01*
X71616516Y-76183484D01*
X71621633Y-76186903D01*
X71621634Y-76186904D01*
X71632647Y-76194263D01*
X71642117Y-76202035D01*
X74247965Y-78807883D01*
X74255737Y-78817353D01*
X74266516Y-78833484D01*
X74271633Y-78836903D01*
X74287761Y-78847680D01*
X74287764Y-78847682D01*
X74287766Y-78847684D01*
X74350699Y-78889734D01*
X74450000Y-78909486D01*
X74469029Y-78905701D01*
X74481222Y-78904500D01*
X79668778Y-78904500D01*
X79680971Y-78905701D01*
X79700000Y-78909486D01*
X79799301Y-78889734D01*
X79862234Y-78847684D01*
X79862236Y-78847682D01*
X79862239Y-78847680D01*
X79878367Y-78836903D01*
X79883484Y-78833484D01*
X79894263Y-78817353D01*
X79902035Y-78807883D01*
X80487111Y-78222806D01*
X80531305Y-78204500D01*
X81868778Y-78204500D01*
X81880971Y-78205701D01*
X81900000Y-78209486D01*
X81999301Y-78189734D01*
X82062234Y-78147684D01*
X82062236Y-78147682D01*
X82062239Y-78147680D01*
X82078367Y-78136903D01*
X82083484Y-78133484D01*
X82094263Y-78117353D01*
X82102035Y-78107883D01*
X82607880Y-77602037D01*
X82617351Y-77594264D01*
X82626401Y-77588217D01*
X82673317Y-77578885D01*
X82713091Y-77605461D01*
X82723326Y-77634085D01*
X82733895Y-77741873D01*
X82734997Y-77745185D01*
X82734997Y-77745186D01*
X82744913Y-77774993D01*
X82785413Y-77896742D01*
X82787223Y-77899731D01*
X82787225Y-77899735D01*
X82803866Y-77927212D01*
X82869962Y-78036349D01*
X82983340Y-78153755D01*
X83119911Y-78243125D01*
X83272888Y-78300016D01*
X83276343Y-78300477D01*
X83276347Y-78300478D01*
X83366518Y-78312509D01*
X83434668Y-78321602D01*
X83438141Y-78321286D01*
X83438144Y-78321286D01*
X83515939Y-78314206D01*
X83597210Y-78306810D01*
X83752435Y-78256374D01*
X83831091Y-78209486D01*
X83889627Y-78174592D01*
X83889630Y-78174590D01*
X83892629Y-78172802D01*
X83956228Y-78112237D01*
X84008294Y-78062656D01*
X84008297Y-78062653D01*
X84010823Y-78060247D01*
X84101144Y-77924303D01*
X84159103Y-77771727D01*
X84181818Y-77610102D01*
X84182103Y-77589660D01*
X84181410Y-77583484D01*
X84164300Y-77430937D01*
X84164299Y-77430933D01*
X84163910Y-77427464D01*
X84110234Y-77273329D01*
X84023744Y-77134916D01*
X83908739Y-77019104D01*
X83850750Y-76982303D01*
X83773879Y-76933519D01*
X83773875Y-76933517D01*
X83770933Y-76931650D01*
X83617176Y-76876900D01*
X83540720Y-76867783D01*
X83458578Y-76857988D01*
X83458574Y-76857988D01*
X83455111Y-76857575D01*
X83362278Y-76867332D01*
X83296262Y-76874270D01*
X83296259Y-76874271D01*
X83292792Y-76874635D01*
X83289491Y-76875759D01*
X83289490Y-76875759D01*
X83282693Y-76878073D01*
X83138286Y-76927233D01*
X82999272Y-77012755D01*
X82996780Y-77015196D01*
X82996778Y-77015197D01*
X82990254Y-77021586D01*
X82882661Y-77126949D01*
X82819534Y-77224904D01*
X82780208Y-77252133D01*
X82733143Y-77243581D01*
X82705912Y-77204253D01*
X82704500Y-77191045D01*
X82704500Y-76040000D01*
X83841081Y-76040000D01*
X83858648Y-76150912D01*
X83909628Y-76250967D01*
X83989033Y-76330372D01*
X83993414Y-76332604D01*
X83993415Y-76332605D01*
X84036458Y-76354536D01*
X84089088Y-76381352D01*
X84200000Y-76398919D01*
X84231383Y-76393948D01*
X84277895Y-76405116D01*
X84302889Y-76445902D01*
X84302888Y-76465455D01*
X84291081Y-76540000D01*
X84308648Y-76650912D01*
X84359628Y-76750967D01*
X84439033Y-76830372D01*
X84443414Y-76832604D01*
X84443415Y-76832605D01*
X84492333Y-76857530D01*
X84539088Y-76881352D01*
X84650000Y-76898919D01*
X84760912Y-76881352D01*
X84807667Y-76857530D01*
X84856585Y-76832605D01*
X84856586Y-76832604D01*
X84860967Y-76830372D01*
X84940372Y-76750967D01*
X84991352Y-76650912D01*
X85008919Y-76540000D01*
X84991352Y-76429088D01*
X84940372Y-76329033D01*
X84860967Y-76249628D01*
X84856586Y-76247396D01*
X84856585Y-76247395D01*
X84790705Y-76213828D01*
X84760912Y-76198648D01*
X84650000Y-76181081D01*
X84618617Y-76186052D01*
X84572105Y-76174884D01*
X84547111Y-76134098D01*
X84547112Y-76114544D01*
X84549527Y-76099301D01*
X84558919Y-76040000D01*
X84560785Y-76040296D01*
X84576455Y-76002466D01*
X84582408Y-76000000D01*
X86541081Y-76000000D01*
X86541851Y-76004862D01*
X86542525Y-76009116D01*
X86558648Y-76110912D01*
X86579029Y-76150912D01*
X86607122Y-76206048D01*
X86609628Y-76210967D01*
X86689033Y-76290372D01*
X86693414Y-76292604D01*
X86693415Y-76292605D01*
X86720853Y-76306585D01*
X86789088Y-76341352D01*
X86900000Y-76358919D01*
X87010912Y-76341352D01*
X87079147Y-76306585D01*
X87106585Y-76292605D01*
X87106586Y-76292604D01*
X87110967Y-76290372D01*
X87190372Y-76210967D01*
X87192879Y-76206048D01*
X87220971Y-76150912D01*
X87241352Y-76110912D01*
X87257475Y-76009116D01*
X87258149Y-76004862D01*
X87258919Y-76000000D01*
X87241352Y-75889088D01*
X87190372Y-75789033D01*
X87110967Y-75709628D01*
X87106586Y-75707396D01*
X87106585Y-75707395D01*
X87015298Y-75660883D01*
X87015299Y-75660883D01*
X87010912Y-75658648D01*
X86900000Y-75641081D01*
X86789088Y-75658648D01*
X86784701Y-75660883D01*
X86784702Y-75660883D01*
X86693415Y-75707395D01*
X86693414Y-75707396D01*
X86689033Y-75709628D01*
X86609628Y-75789033D01*
X86558648Y-75889088D01*
X86541081Y-76000000D01*
X84582408Y-76000000D01*
X84620649Y-75984160D01*
X85047369Y-75984160D01*
X85157803Y-75969032D01*
X85221768Y-75941352D01*
X85290806Y-75911477D01*
X85290809Y-75911475D01*
X85294717Y-75909784D01*
X85357401Y-75859024D01*
X85407347Y-75818579D01*
X85407348Y-75818578D01*
X85410655Y-75815900D01*
X85415113Y-75809628D01*
X85494606Y-75697769D01*
X85494606Y-75697768D01*
X85497074Y-75694296D01*
X85513135Y-75649687D01*
X85532452Y-75596031D01*
X85547609Y-75553932D01*
X85552013Y-75493952D01*
X85558222Y-75409401D01*
X85558222Y-75409399D01*
X85558534Y-75405149D01*
X85542451Y-75325388D01*
X85529889Y-75263083D01*
X85529888Y-75263080D01*
X85529047Y-75258909D01*
X85461319Y-75125985D01*
X85360340Y-75016171D01*
X85322332Y-74992605D01*
X85237175Y-74939805D01*
X85237172Y-74939803D01*
X85233550Y-74937558D01*
X85228752Y-74936164D01*
X85093437Y-74896851D01*
X85093434Y-74896851D01*
X85090290Y-74895937D01*
X85087024Y-74895697D01*
X85087023Y-74895697D01*
X85080857Y-74895244D01*
X85080849Y-74895244D01*
X85079709Y-74895160D01*
X84613116Y-74895160D01*
X84568922Y-74876854D01*
X84551386Y-74842438D01*
X84546560Y-74811972D01*
X84541352Y-74779088D01*
X84539120Y-74774706D01*
X84538659Y-74773289D01*
X84542413Y-74725602D01*
X84572390Y-74700000D01*
X87791081Y-74700000D01*
X87808648Y-74810912D01*
X87815855Y-74825056D01*
X87857395Y-74906584D01*
X87859628Y-74910967D01*
X87939033Y-74990372D01*
X87943414Y-74992604D01*
X87943415Y-74992605D01*
X87959719Y-75000912D01*
X88039088Y-75041352D01*
X88150000Y-75058919D01*
X88260912Y-75041352D01*
X88340281Y-75000912D01*
X88356585Y-74992605D01*
X88356586Y-74992604D01*
X88360967Y-74990372D01*
X88440372Y-74910967D01*
X88442606Y-74906584D01*
X88484145Y-74825056D01*
X88491352Y-74810912D01*
X88508919Y-74700000D01*
X88491352Y-74589088D01*
X88457917Y-74523468D01*
X88442605Y-74493415D01*
X88442604Y-74493414D01*
X88440372Y-74489033D01*
X88360967Y-74409628D01*
X88356586Y-74407396D01*
X88356585Y-74407395D01*
X88265298Y-74360883D01*
X88265299Y-74360883D01*
X88260912Y-74358648D01*
X88150000Y-74341081D01*
X88039088Y-74358648D01*
X88034701Y-74360883D01*
X88034702Y-74360883D01*
X87943415Y-74407395D01*
X87943414Y-74407396D01*
X87939033Y-74409628D01*
X87859628Y-74489033D01*
X87857396Y-74493414D01*
X87857395Y-74493415D01*
X87842083Y-74523468D01*
X87808648Y-74589088D01*
X87791081Y-74700000D01*
X84572390Y-74700000D01*
X84578788Y-74694536D01*
X84607876Y-74692247D01*
X84650000Y-74698919D01*
X84760912Y-74681352D01*
X84807667Y-74657530D01*
X84856585Y-74632605D01*
X84856586Y-74632604D01*
X84860967Y-74630372D01*
X84940372Y-74550967D01*
X84943034Y-74545744D01*
X84989117Y-74455298D01*
X84991352Y-74450912D01*
X85008919Y-74340000D01*
X84991352Y-74229088D01*
X84950709Y-74149321D01*
X84942605Y-74133415D01*
X84942604Y-74133414D01*
X84940372Y-74129033D01*
X84860967Y-74049628D01*
X84856586Y-74047396D01*
X84856585Y-74047395D01*
X84805342Y-74021286D01*
X84760912Y-73998648D01*
X84650000Y-73981081D01*
X84539088Y-73998648D01*
X84494658Y-74021286D01*
X84443415Y-74047395D01*
X84443414Y-74047396D01*
X84439033Y-74049628D01*
X84359628Y-74129033D01*
X84357396Y-74133414D01*
X84357395Y-74133415D01*
X84349291Y-74149321D01*
X84308648Y-74229088D01*
X84291081Y-74340000D01*
X84308648Y-74450912D01*
X84310881Y-74455294D01*
X84311341Y-74456711D01*
X84307587Y-74504398D01*
X84271212Y-74535464D01*
X84242124Y-74537753D01*
X84200000Y-74531081D01*
X84089088Y-74548648D01*
X84060712Y-74563106D01*
X83993415Y-74597395D01*
X83993414Y-74597396D01*
X83989033Y-74599628D01*
X83909628Y-74679033D01*
X83907396Y-74683414D01*
X83907395Y-74683415D01*
X83894793Y-74708149D01*
X83858648Y-74779088D01*
X83841081Y-74890000D01*
X83858648Y-75000912D01*
X83909628Y-75100967D01*
X83989033Y-75180372D01*
X83993414Y-75182604D01*
X83993415Y-75182605D01*
X84006196Y-75189117D01*
X84037592Y-75205114D01*
X84068658Y-75241487D01*
X84068022Y-75281972D01*
X84052391Y-75325388D01*
X84052079Y-75329635D01*
X84052079Y-75329636D01*
X84044299Y-75435596D01*
X84041466Y-75474171D01*
X84044474Y-75489088D01*
X84067818Y-75604862D01*
X84070953Y-75620411D01*
X84072887Y-75624206D01*
X84077964Y-75634171D01*
X84081717Y-75681859D01*
X84050650Y-75718233D01*
X83993415Y-75747395D01*
X83993414Y-75747396D01*
X83989033Y-75749628D01*
X83909628Y-75829033D01*
X83907396Y-75833414D01*
X83907395Y-75833415D01*
X83895617Y-75856531D01*
X83858648Y-75929088D01*
X83841081Y-76040000D01*
X82704500Y-76040000D01*
X82704500Y-74431217D01*
X82705701Y-74419025D01*
X82708284Y-74406038D01*
X82709485Y-74400000D01*
X82705701Y-74380975D01*
X82704500Y-74368783D01*
X82704500Y-74231222D01*
X82705701Y-74219029D01*
X82708285Y-74206038D01*
X82709486Y-74200000D01*
X82705701Y-74180971D01*
X82704500Y-74168778D01*
X82704500Y-74122727D01*
X82722806Y-74078533D01*
X82790372Y-74010967D01*
X82795717Y-74000478D01*
X82839117Y-73915298D01*
X82841352Y-73910912D01*
X82849526Y-73859305D01*
X82874520Y-73818518D01*
X82921033Y-73807352D01*
X82956214Y-73825666D01*
X82983340Y-73853755D01*
X83119911Y-73943125D01*
X83272888Y-74000016D01*
X83276343Y-74000477D01*
X83276347Y-74000478D01*
X83354962Y-74010967D01*
X83434668Y-74021602D01*
X83438141Y-74021286D01*
X83438144Y-74021286D01*
X83515939Y-74014206D01*
X83597210Y-74006810D01*
X83752435Y-73956374D01*
X83836858Y-73906048D01*
X83889627Y-73874592D01*
X83889630Y-73874590D01*
X83892629Y-73872802D01*
X83965814Y-73803109D01*
X84008294Y-73762656D01*
X84008297Y-73762653D01*
X84010823Y-73760247D01*
X84101144Y-73624303D01*
X84159103Y-73471727D01*
X84181818Y-73310102D01*
X84182103Y-73289660D01*
X84181884Y-73287707D01*
X84164300Y-73130937D01*
X84164299Y-73130933D01*
X84163910Y-73127464D01*
X84110234Y-72973329D01*
X84023744Y-72834916D01*
X83908739Y-72719104D01*
X83883287Y-72702952D01*
X83773879Y-72633519D01*
X83773875Y-72633517D01*
X83770933Y-72631650D01*
X83617176Y-72576900D01*
X83540720Y-72567783D01*
X83458578Y-72557988D01*
X83458574Y-72557988D01*
X83455111Y-72557575D01*
X83323882Y-72571367D01*
X83296264Y-72574270D01*
X83296263Y-72574270D01*
X83292792Y-72574635D01*
X83289488Y-72575760D01*
X83289487Y-72575760D01*
X83181979Y-72612358D01*
X83134244Y-72609270D01*
X83117644Y-72597386D01*
X83052035Y-72531777D01*
X83044263Y-72522307D01*
X83036904Y-72511294D01*
X83036903Y-72511293D01*
X83033484Y-72506176D01*
X83024119Y-72499918D01*
X83012239Y-72491980D01*
X83012236Y-72491978D01*
X83012234Y-72491976D01*
X82949301Y-72449926D01*
X82850000Y-72430174D01*
X82843962Y-72431375D01*
X82830971Y-72433959D01*
X82818778Y-72435160D01*
X79291557Y-72435160D01*
X79279365Y-72433959D01*
X79266378Y-72431376D01*
X79260340Y-72430175D01*
X79254302Y-72431376D01*
X79235282Y-72435159D01*
X79235274Y-72435160D01*
X79235271Y-72435160D01*
X79235266Y-72435161D01*
X79167075Y-72448725D01*
X79167073Y-72448726D01*
X79161039Y-72449926D01*
X79155925Y-72453343D01*
X79155923Y-72453344D01*
X79098108Y-72491976D01*
X79081973Y-72502757D01*
X79076856Y-72506176D01*
X79073437Y-72511293D01*
X79073436Y-72511294D01*
X79066075Y-72522310D01*
X79058303Y-72531780D01*
X78989654Y-72600429D01*
X78945460Y-72618735D01*
X78924494Y-72615114D01*
X78841476Y-72585553D01*
X78817176Y-72576900D01*
X78740720Y-72567783D01*
X78658578Y-72557988D01*
X78658574Y-72557988D01*
X78655111Y-72557575D01*
X78562278Y-72567332D01*
X78496262Y-72574270D01*
X78496259Y-72574271D01*
X78492792Y-72574635D01*
X78489491Y-72575759D01*
X78489490Y-72575759D01*
X78482693Y-72578073D01*
X78338286Y-72627233D01*
X78199272Y-72712755D01*
X78196780Y-72715196D01*
X78196778Y-72715197D01*
X78190254Y-72721586D01*
X78082661Y-72826949D01*
X78080771Y-72829882D01*
X78080770Y-72829883D01*
X78019089Y-72925593D01*
X77994247Y-72964141D01*
X77993053Y-72967422D01*
X77946568Y-73095138D01*
X77938424Y-73117512D01*
X77937167Y-73127464D01*
X77918604Y-73274407D01*
X77917968Y-73279438D01*
X77918309Y-73282915D01*
X77930954Y-73411874D01*
X77933895Y-73441873D01*
X77934997Y-73445185D01*
X77934997Y-73445186D01*
X77982849Y-73589033D01*
X77985413Y-73596742D01*
X77987223Y-73599731D01*
X77987225Y-73599735D01*
X78028586Y-73668029D01*
X78069962Y-73736349D01*
X78183340Y-73853755D01*
X78319911Y-73943125D01*
X78472888Y-74000016D01*
X78476343Y-74000477D01*
X78476347Y-74000478D01*
X78554962Y-74010967D01*
X78634668Y-74021602D01*
X78638141Y-74021286D01*
X78638144Y-74021286D01*
X78715939Y-74014206D01*
X78797210Y-74006810D01*
X78952435Y-73956374D01*
X79036858Y-73906048D01*
X79089627Y-73874592D01*
X79089630Y-73874590D01*
X79092629Y-73872802D01*
X79165814Y-73803109D01*
X79208294Y-73762656D01*
X79208297Y-73762653D01*
X79210823Y-73760247D01*
X79250851Y-73700000D01*
X79441081Y-73700000D01*
X79458648Y-73810912D01*
X79479197Y-73851243D01*
X79507122Y-73906048D01*
X79509628Y-73910967D01*
X79589033Y-73990372D01*
X79593414Y-73992604D01*
X79593415Y-73992605D01*
X79629453Y-74010967D01*
X79689088Y-74041352D01*
X79800000Y-74058919D01*
X79910912Y-74041352D01*
X79970547Y-74010967D01*
X80006585Y-73992605D01*
X80006586Y-73992604D01*
X80010967Y-73990372D01*
X80011679Y-73989660D01*
X80441081Y-73989660D01*
X80458648Y-74100572D01*
X80475382Y-74133415D01*
X80500433Y-74182580D01*
X80509628Y-74200627D01*
X80589033Y-74280032D01*
X80593414Y-74282264D01*
X80593415Y-74282265D01*
X80642333Y-74307190D01*
X80689088Y-74331012D01*
X80800000Y-74348579D01*
X80910912Y-74331012D01*
X80957667Y-74307190D01*
X81006585Y-74282265D01*
X81006586Y-74282264D01*
X81010967Y-74280032D01*
X81090372Y-74200627D01*
X81099568Y-74182580D01*
X81124618Y-74133415D01*
X81141352Y-74100572D01*
X81158919Y-73989660D01*
X81141352Y-73878748D01*
X81103706Y-73804862D01*
X81092605Y-73783075D01*
X81092604Y-73783074D01*
X81090372Y-73778693D01*
X81010967Y-73699288D01*
X81006586Y-73697056D01*
X81006585Y-73697055D01*
X80949617Y-73668029D01*
X80910912Y-73648308D01*
X80800000Y-73630741D01*
X80689088Y-73648308D01*
X80650383Y-73668029D01*
X80593415Y-73697055D01*
X80593414Y-73697056D01*
X80589033Y-73699288D01*
X80509628Y-73778693D01*
X80507396Y-73783074D01*
X80507395Y-73783075D01*
X80496294Y-73804862D01*
X80458648Y-73878748D01*
X80441081Y-73989660D01*
X80011679Y-73989660D01*
X80090372Y-73910967D01*
X80092879Y-73906048D01*
X80120803Y-73851243D01*
X80141352Y-73810912D01*
X80158919Y-73700000D01*
X80141352Y-73589088D01*
X80090372Y-73489033D01*
X80010967Y-73409628D01*
X80006586Y-73407396D01*
X80006585Y-73407395D01*
X79915298Y-73360883D01*
X79915299Y-73360883D01*
X79910912Y-73358648D01*
X79800000Y-73341081D01*
X79689088Y-73358648D01*
X79684701Y-73360883D01*
X79684702Y-73360883D01*
X79593415Y-73407395D01*
X79593414Y-73407396D01*
X79589033Y-73409628D01*
X79509628Y-73489033D01*
X79458648Y-73589088D01*
X79441081Y-73700000D01*
X79250851Y-73700000D01*
X79301144Y-73624303D01*
X79359103Y-73471727D01*
X79381818Y-73310102D01*
X79382103Y-73289660D01*
X79381884Y-73287707D01*
X79364300Y-73130937D01*
X79364299Y-73130933D01*
X79363910Y-73127464D01*
X79329934Y-73029900D01*
X79332688Y-72982145D01*
X79344764Y-72965153D01*
X79347451Y-72962466D01*
X79391645Y-72944160D01*
X82712260Y-72944160D01*
X82756454Y-72962466D01*
X82774760Y-73006660D01*
X82770991Y-73028036D01*
X82746568Y-73095138D01*
X82738424Y-73117512D01*
X82737167Y-73127464D01*
X82718604Y-73274407D01*
X82717968Y-73279438D01*
X82730734Y-73409628D01*
X82730954Y-73411874D01*
X82717048Y-73457643D01*
X82674851Y-73480175D01*
X82640379Y-73473661D01*
X82615301Y-73460884D01*
X82615298Y-73460883D01*
X82610912Y-73458648D01*
X82506573Y-73442122D01*
X82504862Y-73441851D01*
X82500000Y-73441081D01*
X82495138Y-73441851D01*
X82493427Y-73442122D01*
X82389088Y-73458648D01*
X82363419Y-73471727D01*
X82293415Y-73507395D01*
X82293414Y-73507396D01*
X82289033Y-73509628D01*
X82271467Y-73527194D01*
X82227273Y-73545500D01*
X82172727Y-73545500D01*
X82128533Y-73527194D01*
X82110967Y-73509628D01*
X82106586Y-73507396D01*
X82106585Y-73507395D01*
X82036581Y-73471727D01*
X82010912Y-73458648D01*
X81906573Y-73442122D01*
X81904862Y-73441851D01*
X81900000Y-73441081D01*
X81895138Y-73441851D01*
X81893427Y-73442122D01*
X81789088Y-73458648D01*
X81763419Y-73471727D01*
X81693415Y-73507395D01*
X81693414Y-73507396D01*
X81689033Y-73509628D01*
X81609628Y-73589033D01*
X81607396Y-73593414D01*
X81607395Y-73593415D01*
X81596852Y-73614107D01*
X81558648Y-73689088D01*
X81541081Y-73800000D01*
X81558648Y-73910912D01*
X81560883Y-73915298D01*
X81604284Y-74000478D01*
X81609628Y-74010967D01*
X81689033Y-74090372D01*
X81693414Y-74092604D01*
X81693415Y-74092605D01*
X81784703Y-74139118D01*
X81789088Y-74141352D01*
X81793944Y-74142121D01*
X81793947Y-74142122D01*
X81810500Y-74144743D01*
X81819347Y-74146144D01*
X81853764Y-74163681D01*
X82177194Y-74487111D01*
X82195500Y-74531305D01*
X82195500Y-76800709D01*
X82177194Y-76844903D01*
X82133000Y-76863209D01*
X82104626Y-76856397D01*
X82070655Y-76839088D01*
X82010912Y-76808648D01*
X81900000Y-76791081D01*
X81789088Y-76808648D01*
X81734878Y-76836269D01*
X81687192Y-76840022D01*
X81650817Y-76808956D01*
X81644775Y-76790359D01*
X81642122Y-76773611D01*
X81641352Y-76768748D01*
X81590372Y-76668693D01*
X81510967Y-76589288D01*
X81506586Y-76587056D01*
X81506585Y-76587055D01*
X81433859Y-76550000D01*
X81410912Y-76538308D01*
X81300000Y-76520741D01*
X81189088Y-76538308D01*
X81166141Y-76550000D01*
X81093415Y-76587055D01*
X81093414Y-76587056D01*
X81089033Y-76589288D01*
X81009628Y-76668693D01*
X80958648Y-76768748D01*
X80941081Y-76879660D01*
X80941850Y-76884517D01*
X80941850Y-76889440D01*
X80939108Y-76889440D01*
X80930082Y-76927109D01*
X80889306Y-76952120D01*
X80869728Y-76952125D01*
X80800000Y-76941081D01*
X80689088Y-76958648D01*
X80684701Y-76960883D01*
X80684702Y-76960883D01*
X80593415Y-77007395D01*
X80593414Y-77007396D01*
X80589033Y-77009628D01*
X80509628Y-77089033D01*
X80458648Y-77189088D01*
X80441081Y-77300000D01*
X80458648Y-77410912D01*
X80474796Y-77442605D01*
X80500802Y-77493644D01*
X80509628Y-77510967D01*
X80587467Y-77588806D01*
X80605773Y-77633000D01*
X80587467Y-77677194D01*
X80543273Y-77695500D01*
X80531306Y-77695500D01*
X80487112Y-77677194D01*
X80074823Y-77264905D01*
X80056517Y-77220711D01*
X80074821Y-77176518D01*
X80090372Y-77160967D01*
X80102064Y-77138021D01*
X80139117Y-77065298D01*
X80141352Y-77060912D01*
X80158919Y-76950000D01*
X80141352Y-76839088D01*
X80107990Y-76773611D01*
X80092605Y-76743415D01*
X80092604Y-76743414D01*
X80090372Y-76739033D01*
X80010967Y-76659628D01*
X80006586Y-76657396D01*
X80006585Y-76657395D01*
X79915298Y-76610883D01*
X79915299Y-76610883D01*
X79910912Y-76608648D01*
X79800000Y-76591081D01*
X79689088Y-76608648D01*
X79684701Y-76610883D01*
X79684702Y-76610883D01*
X79593415Y-76657395D01*
X79593414Y-76657396D01*
X79589033Y-76659628D01*
X79509628Y-76739033D01*
X79507396Y-76743414D01*
X79507395Y-76743415D01*
X79492010Y-76773611D01*
X79458648Y-76839088D01*
X79441081Y-76950000D01*
X79458648Y-77060912D01*
X79460883Y-77065298D01*
X79497937Y-77138021D01*
X79509628Y-77160967D01*
X79527194Y-77178533D01*
X79545500Y-77222727D01*
X79545500Y-77318778D01*
X79544299Y-77330971D01*
X79540514Y-77350000D01*
X79545500Y-77375067D01*
X79552630Y-77410912D01*
X79560266Y-77449301D01*
X79602316Y-77512234D01*
X79602319Y-77512237D01*
X79616516Y-77533484D01*
X79621633Y-77536903D01*
X79621634Y-77536904D01*
X79632647Y-77544263D01*
X79642117Y-77552035D01*
X79995888Y-77905806D01*
X80014194Y-77950000D01*
X79995888Y-77994194D01*
X79612888Y-78377194D01*
X79568694Y-78395500D01*
X78918859Y-78395500D01*
X78874665Y-78377194D01*
X78856359Y-78333000D01*
X78874665Y-78288806D01*
X78899545Y-78273559D01*
X78949111Y-78257454D01*
X78952435Y-78256374D01*
X79031091Y-78209486D01*
X79089627Y-78174592D01*
X79089630Y-78174590D01*
X79092629Y-78172802D01*
X79156228Y-78112237D01*
X79208294Y-78062656D01*
X79208297Y-78062653D01*
X79210823Y-78060247D01*
X79301144Y-77924303D01*
X79359103Y-77771727D01*
X79381818Y-77610102D01*
X79382103Y-77589660D01*
X79381410Y-77583484D01*
X79364300Y-77430937D01*
X79364299Y-77430933D01*
X79363910Y-77427464D01*
X79310234Y-77273329D01*
X79223744Y-77134916D01*
X79108739Y-77019104D01*
X79050750Y-76982303D01*
X78973879Y-76933519D01*
X78973875Y-76933517D01*
X78970933Y-76931650D01*
X78817176Y-76876900D01*
X78740720Y-76867783D01*
X78658578Y-76857988D01*
X78658574Y-76857988D01*
X78655111Y-76857575D01*
X78562278Y-76867332D01*
X78496262Y-76874270D01*
X78496259Y-76874271D01*
X78492792Y-76874635D01*
X78489491Y-76875759D01*
X78489490Y-76875759D01*
X78482693Y-76878073D01*
X78338286Y-76927233D01*
X78199272Y-77012755D01*
X78196780Y-77015196D01*
X78196778Y-77015197D01*
X78190254Y-77021586D01*
X78082661Y-77126949D01*
X78080771Y-77129882D01*
X78080770Y-77129883D01*
X78001716Y-77252551D01*
X77994247Y-77264141D01*
X77993053Y-77267422D01*
X77942597Y-77406048D01*
X77938424Y-77417512D01*
X77917968Y-77579438D01*
X77933895Y-77741873D01*
X77934997Y-77745185D01*
X77934997Y-77745186D01*
X77944913Y-77774993D01*
X77985413Y-77896742D01*
X77987223Y-77899731D01*
X77987225Y-77899735D01*
X78003866Y-77927212D01*
X78069962Y-78036349D01*
X78183340Y-78153755D01*
X78319911Y-78243125D01*
X78323178Y-78244340D01*
X78323184Y-78244343D01*
X78404061Y-78274420D01*
X78439103Y-78306982D01*
X78440856Y-78354785D01*
X78408294Y-78389827D01*
X78382276Y-78395500D01*
X74581306Y-78395500D01*
X74537112Y-78377194D01*
X72259918Y-76100000D01*
X75241081Y-76100000D01*
X75258648Y-76210912D01*
X75309628Y-76310967D01*
X75389033Y-76390372D01*
X75393414Y-76392604D01*
X75393415Y-76392605D01*
X75417970Y-76405116D01*
X75489088Y-76441352D01*
X75600000Y-76458919D01*
X75710912Y-76441352D01*
X75782030Y-76405116D01*
X75806585Y-76392605D01*
X75806586Y-76392604D01*
X75810967Y-76390372D01*
X75890372Y-76310967D01*
X75941352Y-76210912D01*
X75958919Y-76100000D01*
X75941352Y-75989088D01*
X75899578Y-75907101D01*
X75892605Y-75893415D01*
X75892604Y-75893414D01*
X75890372Y-75889033D01*
X75810967Y-75809628D01*
X75806586Y-75807396D01*
X75806585Y-75807395D01*
X75746012Y-75776532D01*
X75710912Y-75758648D01*
X75600000Y-75741081D01*
X75489088Y-75758648D01*
X75453988Y-75776532D01*
X75393415Y-75807395D01*
X75393414Y-75807396D01*
X75389033Y-75809628D01*
X75309628Y-75889033D01*
X75307396Y-75893414D01*
X75307395Y-75893415D01*
X75300422Y-75907101D01*
X75258648Y-75989088D01*
X75241081Y-76100000D01*
X72259918Y-76100000D01*
X72074823Y-75914905D01*
X72056517Y-75870711D01*
X72074821Y-75826518D01*
X72075784Y-75825555D01*
X72090371Y-75810969D01*
X72092002Y-75812600D01*
X72126001Y-75791769D01*
X72135773Y-75791000D01*
X72256768Y-75791000D01*
X72264107Y-75792250D01*
X72264190Y-75791523D01*
X72271181Y-75792320D01*
X72277822Y-75794652D01*
X72284815Y-75793874D01*
X72284816Y-75793874D01*
X72307197Y-75791383D01*
X72314110Y-75791000D01*
X72321533Y-75791000D01*
X72328465Y-75789419D01*
X72335418Y-75788243D01*
X72364429Y-75785014D01*
X72370393Y-75781281D01*
X72374341Y-75779906D01*
X72378100Y-75778097D01*
X72384959Y-75776532D01*
X72407774Y-75758351D01*
X72413559Y-75754256D01*
X72416715Y-75752280D01*
X72416717Y-75752279D01*
X72419711Y-75750404D01*
X72424923Y-75745192D01*
X72430167Y-75740507D01*
X72447604Y-75726612D01*
X72447604Y-75726611D01*
X72453109Y-75722225D01*
X72456167Y-75715886D01*
X72460558Y-75710385D01*
X72461092Y-75710811D01*
X72465468Y-75704647D01*
X72730455Y-75439660D01*
X76710456Y-75439660D01*
X76710991Y-75443724D01*
X76726028Y-75557939D01*
X76730544Y-75592245D01*
X76732112Y-75596030D01*
X76732112Y-75596031D01*
X76786201Y-75726612D01*
X76789440Y-75734432D01*
X76883129Y-75856531D01*
X77005228Y-75950220D01*
X77009012Y-75951787D01*
X77009013Y-75951788D01*
X77143629Y-76007548D01*
X77143630Y-76007548D01*
X77147415Y-76009116D01*
X77151477Y-76009651D01*
X77151478Y-76009651D01*
X77259656Y-76023893D01*
X77259662Y-76023893D01*
X77261687Y-76024160D01*
X77338313Y-76024160D01*
X77340338Y-76023893D01*
X77340344Y-76023893D01*
X77448522Y-76009651D01*
X77448523Y-76009651D01*
X77452585Y-76009116D01*
X77456369Y-76007548D01*
X77456371Y-76007548D01*
X77463744Y-76004494D01*
X77511579Y-76004495D01*
X77545403Y-76038321D01*
X77549389Y-76052452D01*
X77558648Y-76110912D01*
X77560881Y-76115294D01*
X77561341Y-76116711D01*
X77557587Y-76164398D01*
X77521212Y-76195464D01*
X77492124Y-76197753D01*
X77450000Y-76191081D01*
X77339088Y-76208648D01*
X77292333Y-76232470D01*
X77243415Y-76257395D01*
X77243414Y-76257396D01*
X77239033Y-76259628D01*
X77159628Y-76339033D01*
X77157396Y-76343414D01*
X77157395Y-76343415D01*
X77145800Y-76366172D01*
X77108648Y-76439088D01*
X77091081Y-76550000D01*
X77108648Y-76660912D01*
X77159628Y-76760967D01*
X77239033Y-76840372D01*
X77243414Y-76842604D01*
X77243415Y-76842605D01*
X77273607Y-76857988D01*
X77339088Y-76891352D01*
X77450000Y-76908919D01*
X77560912Y-76891352D01*
X77626393Y-76857988D01*
X77656585Y-76842605D01*
X77656586Y-76842604D01*
X77660967Y-76840372D01*
X77740372Y-76760967D01*
X77791352Y-76660912D01*
X77808919Y-76550000D01*
X77791352Y-76439088D01*
X77789119Y-76434706D01*
X77788659Y-76433289D01*
X77792413Y-76385602D01*
X77828788Y-76354536D01*
X77857876Y-76352247D01*
X77900000Y-76358919D01*
X78010912Y-76341352D01*
X78079147Y-76306585D01*
X78106585Y-76292605D01*
X78106586Y-76292604D01*
X78110967Y-76290372D01*
X78190372Y-76210967D01*
X78192879Y-76206048D01*
X78220971Y-76150912D01*
X78241352Y-76110912D01*
X78257475Y-76009116D01*
X78258149Y-76004862D01*
X78258919Y-76000000D01*
X78241352Y-75889088D01*
X78190372Y-75789033D01*
X78110967Y-75709628D01*
X78106586Y-75707396D01*
X78106585Y-75707395D01*
X78015298Y-75660883D01*
X78015299Y-75660883D01*
X78010912Y-75658648D01*
X77945217Y-75648243D01*
X77923917Y-75644869D01*
X77883130Y-75619875D01*
X77871729Y-75574981D01*
X77889009Y-75443724D01*
X77889544Y-75439660D01*
X77874500Y-75325388D01*
X77869991Y-75291138D01*
X77869991Y-75291137D01*
X77869456Y-75287075D01*
X77868064Y-75283716D01*
X77874289Y-75236445D01*
X77912241Y-75207326D01*
X77918638Y-75205967D01*
X77924030Y-75205113D01*
X78010912Y-75191352D01*
X78057667Y-75167530D01*
X78106585Y-75142605D01*
X78106586Y-75142604D01*
X78110967Y-75140372D01*
X78190372Y-75060967D01*
X78209825Y-75022789D01*
X78220971Y-75000912D01*
X78241352Y-74960912D01*
X78256410Y-74865842D01*
X78258149Y-74854862D01*
X78258919Y-74850000D01*
X78241352Y-74739088D01*
X78190372Y-74639033D01*
X78110967Y-74559628D01*
X78106586Y-74557396D01*
X78106585Y-74557395D01*
X78021826Y-74514209D01*
X78010912Y-74508648D01*
X77921378Y-74494467D01*
X77904862Y-74491851D01*
X77900000Y-74491081D01*
X77868617Y-74496052D01*
X77822105Y-74484884D01*
X77797111Y-74444098D01*
X77797112Y-74424544D01*
X77801000Y-74400000D01*
X77808919Y-74350000D01*
X77791352Y-74239088D01*
X77755528Y-74168778D01*
X77742605Y-74143415D01*
X77742604Y-74143414D01*
X77740372Y-74139033D01*
X77660967Y-74059628D01*
X77656586Y-74057396D01*
X77656585Y-74057395D01*
X77586336Y-74021602D01*
X77560912Y-74008648D01*
X77450000Y-73991081D01*
X77339088Y-74008648D01*
X77313664Y-74021602D01*
X77243415Y-74057395D01*
X77243414Y-74057396D01*
X77239033Y-74059628D01*
X77159628Y-74139033D01*
X77157396Y-74143414D01*
X77157395Y-74143415D01*
X77144472Y-74168778D01*
X77108648Y-74239088D01*
X77091081Y-74350000D01*
X77108648Y-74460912D01*
X77126553Y-74496052D01*
X77151872Y-74545744D01*
X77159628Y-74560967D01*
X77239033Y-74640372D01*
X77243414Y-74642604D01*
X77243415Y-74642605D01*
X77245005Y-74643415D01*
X77339088Y-74691352D01*
X77450000Y-74708919D01*
X77481383Y-74703948D01*
X77527895Y-74715116D01*
X77552889Y-74755902D01*
X77552888Y-74775455D01*
X77545669Y-74821032D01*
X77545032Y-74825056D01*
X77520038Y-74865842D01*
X77473524Y-74877008D01*
X77459386Y-74873021D01*
X77456371Y-74871772D01*
X77456369Y-74871772D01*
X77452585Y-74870204D01*
X77448523Y-74869669D01*
X77448522Y-74869669D01*
X77340344Y-74855427D01*
X77340338Y-74855427D01*
X77338313Y-74855160D01*
X77261687Y-74855160D01*
X77259662Y-74855427D01*
X77259656Y-74855427D01*
X77151478Y-74869669D01*
X77151477Y-74869669D01*
X77147415Y-74870204D01*
X77143630Y-74871772D01*
X77143629Y-74871772D01*
X77045499Y-74912419D01*
X77005228Y-74929100D01*
X76883129Y-75022789D01*
X76789440Y-75144888D01*
X76787873Y-75148672D01*
X76787872Y-75148673D01*
X76751516Y-75236445D01*
X76730544Y-75287075D01*
X76730009Y-75291137D01*
X76730009Y-75291138D01*
X76725500Y-75325388D01*
X76710456Y-75439660D01*
X72730455Y-75439660D01*
X73260808Y-74909306D01*
X73305002Y-74891000D01*
X73614227Y-74891000D01*
X73658421Y-74909306D01*
X73659315Y-74910353D01*
X73659628Y-74910967D01*
X73739033Y-74990372D01*
X73743414Y-74992604D01*
X73743415Y-74992605D01*
X73759719Y-75000912D01*
X73839088Y-75041352D01*
X73950000Y-75058919D01*
X74060912Y-75041352D01*
X74140281Y-75000912D01*
X74156585Y-74992605D01*
X74156586Y-74992604D01*
X74160967Y-74990372D01*
X74240372Y-74910967D01*
X74242606Y-74906584D01*
X74284145Y-74825056D01*
X74291352Y-74810912D01*
X74308919Y-74700000D01*
X74291352Y-74589088D01*
X74257917Y-74523468D01*
X74242605Y-74493415D01*
X74242604Y-74493414D01*
X74240372Y-74489033D01*
X74160967Y-74409628D01*
X74156586Y-74407396D01*
X74156585Y-74407395D01*
X74065298Y-74360883D01*
X74065299Y-74360883D01*
X74060912Y-74358648D01*
X73950000Y-74341081D01*
X73839088Y-74358648D01*
X73834701Y-74360883D01*
X73834702Y-74360883D01*
X73743415Y-74407395D01*
X73743414Y-74407396D01*
X73739033Y-74409628D01*
X73659628Y-74489033D01*
X73657996Y-74487401D01*
X73623999Y-74508231D01*
X73614227Y-74509000D01*
X73243232Y-74509000D01*
X73235893Y-74507750D01*
X73235810Y-74508477D01*
X73228819Y-74507680D01*
X73222178Y-74505348D01*
X73215185Y-74506126D01*
X73215184Y-74506126D01*
X73192803Y-74508617D01*
X73185890Y-74509000D01*
X73178467Y-74509000D01*
X73171535Y-74510581D01*
X73164582Y-74511757D01*
X73135571Y-74514986D01*
X73129607Y-74518719D01*
X73125659Y-74520094D01*
X73121900Y-74521903D01*
X73115041Y-74523468D01*
X73109539Y-74527853D01*
X73109538Y-74527853D01*
X73092227Y-74541648D01*
X73086441Y-74545744D01*
X73085098Y-74546585D01*
X73080289Y-74549596D01*
X73075076Y-74554809D01*
X73069832Y-74559494D01*
X73067984Y-74560967D01*
X73046891Y-74577775D01*
X73043833Y-74584114D01*
X73039442Y-74589615D01*
X73038908Y-74589189D01*
X73034532Y-74595353D01*
X72912194Y-74717691D01*
X72868000Y-74735997D01*
X72823806Y-74717691D01*
X72806270Y-74683274D01*
X72798331Y-74633154D01*
X72791352Y-74589088D01*
X72757917Y-74523468D01*
X72742605Y-74493415D01*
X72742604Y-74493414D01*
X72740372Y-74489033D01*
X72660967Y-74409628D01*
X72656586Y-74407396D01*
X72656585Y-74407395D01*
X72565298Y-74360883D01*
X72565299Y-74360883D01*
X72560912Y-74358648D01*
X72450000Y-74341081D01*
X72339088Y-74358648D01*
X72334701Y-74360883D01*
X72334702Y-74360883D01*
X72243415Y-74407395D01*
X72243414Y-74407396D01*
X72239033Y-74409628D01*
X72159628Y-74489033D01*
X72157396Y-74493414D01*
X72157395Y-74493415D01*
X72142083Y-74523468D01*
X72108648Y-74589088D01*
X72091081Y-74700000D01*
X72108648Y-74810912D01*
X72115855Y-74825056D01*
X72157395Y-74906584D01*
X72159628Y-74910967D01*
X72239033Y-74990372D01*
X72243414Y-74992604D01*
X72243415Y-74992605D01*
X72259719Y-75000912D01*
X72339088Y-75041352D01*
X72405444Y-75051862D01*
X72433274Y-75056270D01*
X72474061Y-75081264D01*
X72485227Y-75127777D01*
X72467691Y-75162194D01*
X72239191Y-75390694D01*
X72194997Y-75409000D01*
X72135773Y-75409000D01*
X72091579Y-75390694D01*
X72090685Y-75389647D01*
X72090372Y-75389033D01*
X72010967Y-75309628D01*
X72006586Y-75307396D01*
X72006585Y-75307395D01*
X71941040Y-75273999D01*
X71910912Y-75258648D01*
X71800000Y-75241081D01*
X71689088Y-75258648D01*
X71658960Y-75273999D01*
X71593415Y-75307395D01*
X71593414Y-75307396D01*
X71589033Y-75309628D01*
X71509628Y-75389033D01*
X71507396Y-75393414D01*
X71507395Y-75393415D01*
X71499454Y-75409000D01*
X71458648Y-75489088D01*
X71441081Y-75600000D01*
X71180500Y-75600000D01*
X71180500Y-73100000D01*
X71441081Y-73100000D01*
X71441851Y-73104862D01*
X71443369Y-73114445D01*
X71458648Y-73210912D01*
X71460883Y-73215298D01*
X71498772Y-73289660D01*
X71509628Y-73310967D01*
X71589033Y-73390372D01*
X71593414Y-73392604D01*
X71593415Y-73392605D01*
X71633651Y-73413106D01*
X71689088Y-73441352D01*
X71778622Y-73455533D01*
X71791944Y-73457643D01*
X71800000Y-73458919D01*
X71808057Y-73457643D01*
X71821378Y-73455533D01*
X71910912Y-73441352D01*
X71966349Y-73413106D01*
X72006585Y-73392605D01*
X72006586Y-73392604D01*
X72010967Y-73390372D01*
X72090372Y-73310967D01*
X72101229Y-73289660D01*
X72139117Y-73215298D01*
X72141352Y-73210912D01*
X72156631Y-73114445D01*
X72158149Y-73104862D01*
X72158919Y-73100000D01*
X72141352Y-72989088D01*
X72095960Y-72900000D01*
X73491081Y-72900000D01*
X73508648Y-73010912D01*
X73559628Y-73110967D01*
X73639033Y-73190372D01*
X73643414Y-73192604D01*
X73643415Y-73192605D01*
X73669799Y-73206048D01*
X73739088Y-73241352D01*
X73850000Y-73258919D01*
X73960912Y-73241352D01*
X74030201Y-73206048D01*
X74056585Y-73192605D01*
X74056586Y-73192604D01*
X74060967Y-73190372D01*
X74140372Y-73110967D01*
X74191352Y-73010912D01*
X74208919Y-72900000D01*
X74191352Y-72789088D01*
X74166891Y-72741081D01*
X74142605Y-72693415D01*
X74142604Y-72693414D01*
X74140372Y-72689033D01*
X74060967Y-72609628D01*
X74056586Y-72607396D01*
X74056585Y-72607395D01*
X73995921Y-72576486D01*
X73960912Y-72558648D01*
X73871378Y-72544467D01*
X73854862Y-72541851D01*
X73850000Y-72541081D01*
X73845138Y-72541851D01*
X73828622Y-72544467D01*
X73739088Y-72558648D01*
X73704079Y-72576486D01*
X73643415Y-72607395D01*
X73643414Y-72607396D01*
X73639033Y-72609628D01*
X73559628Y-72689033D01*
X73557396Y-72693414D01*
X73557395Y-72693415D01*
X73533109Y-72741081D01*
X73508648Y-72789088D01*
X73491081Y-72900000D01*
X72095960Y-72900000D01*
X72090372Y-72889033D01*
X72010967Y-72809628D01*
X72006586Y-72807396D01*
X72006585Y-72807395D01*
X71915298Y-72760883D01*
X71915299Y-72760883D01*
X71910912Y-72758648D01*
X71800000Y-72741081D01*
X71689088Y-72758648D01*
X71684701Y-72760883D01*
X71684702Y-72760883D01*
X71593415Y-72807395D01*
X71593414Y-72807396D01*
X71589033Y-72809628D01*
X71509628Y-72889033D01*
X71458648Y-72989088D01*
X71441081Y-73100000D01*
X71180500Y-73100000D01*
X71180500Y-70301503D01*
X71198806Y-70257309D01*
X71243000Y-70239003D01*
X71287194Y-70257309D01*
X71930704Y-70900819D01*
X71949010Y-70945013D01*
X71948241Y-70954789D01*
X71941850Y-70995142D01*
X71941081Y-71000000D01*
X71952101Y-71069574D01*
X71940935Y-71116087D01*
X71900149Y-71141081D01*
X71900049Y-71141089D01*
X71900000Y-71141081D01*
X71899857Y-71141104D01*
X71899853Y-71141104D01*
X71855566Y-71148119D01*
X71789088Y-71158648D01*
X71757103Y-71174945D01*
X71693415Y-71207395D01*
X71693414Y-71207396D01*
X71689033Y-71209628D01*
X71609628Y-71289033D01*
X71607396Y-71293414D01*
X71607395Y-71293415D01*
X71596245Y-71315299D01*
X71558648Y-71389088D01*
X71541081Y-71500000D01*
X71558648Y-71610912D01*
X71560883Y-71615298D01*
X71605623Y-71703106D01*
X71609628Y-71710967D01*
X71689033Y-71790372D01*
X71693414Y-71792604D01*
X71693415Y-71792605D01*
X71742333Y-71817530D01*
X71789088Y-71841352D01*
X71900000Y-71858919D01*
X72010912Y-71841352D01*
X72057667Y-71817530D01*
X72106585Y-71792605D01*
X72106586Y-71792604D01*
X72110967Y-71790372D01*
X72190372Y-71710967D01*
X72194378Y-71703106D01*
X72239117Y-71615298D01*
X72241352Y-71610912D01*
X72258919Y-71500000D01*
X72247899Y-71430426D01*
X72259065Y-71383913D01*
X72299851Y-71358919D01*
X72299951Y-71358911D01*
X72300000Y-71358919D01*
X72300143Y-71358896D01*
X72300147Y-71358896D01*
X72347264Y-71351433D01*
X72410912Y-71341352D01*
X72461713Y-71315468D01*
X72506585Y-71292605D01*
X72506586Y-71292604D01*
X72510967Y-71290372D01*
X72590372Y-71210967D01*
X72595960Y-71200001D01*
X72625588Y-71141851D01*
X72641352Y-71110912D01*
X72658919Y-71000000D01*
X72641352Y-70889088D01*
X72590372Y-70789033D01*
X72510967Y-70709628D01*
X72506586Y-70707396D01*
X72506585Y-70707395D01*
X72415298Y-70660883D01*
X72415299Y-70660883D01*
X72410912Y-70658648D01*
X72300000Y-70641081D01*
X72295145Y-70641850D01*
X72295142Y-70641850D01*
X72254789Y-70648241D01*
X72208276Y-70637073D01*
X72200819Y-70630704D01*
X71509306Y-69939191D01*
X71491000Y-69894997D01*
X71491000Y-69150000D01*
X73741081Y-69150000D01*
X73758648Y-69260912D01*
X73809628Y-69360967D01*
X73889033Y-69440372D01*
X73893414Y-69442604D01*
X73893415Y-69442605D01*
X73942333Y-69467530D01*
X73989088Y-69491352D01*
X74100000Y-69508919D01*
X74210912Y-69491352D01*
X74257667Y-69467530D01*
X74306585Y-69442605D01*
X74306586Y-69442604D01*
X74310967Y-69440372D01*
X74390372Y-69360967D01*
X74441352Y-69260912D01*
X74458919Y-69150000D01*
X74441352Y-69039088D01*
X74399974Y-68957878D01*
X74392605Y-68943415D01*
X74392604Y-68943414D01*
X74390372Y-68939033D01*
X74310967Y-68859628D01*
X74306586Y-68857396D01*
X74306585Y-68857395D01*
X74215298Y-68810883D01*
X74215299Y-68810883D01*
X74210912Y-68808648D01*
X74100000Y-68791081D01*
X73989088Y-68808648D01*
X73984701Y-68810883D01*
X73984702Y-68810883D01*
X73893415Y-68857395D01*
X73893414Y-68857396D01*
X73889033Y-68859628D01*
X73809628Y-68939033D01*
X73807396Y-68943414D01*
X73807395Y-68943415D01*
X73800026Y-68957878D01*
X73758648Y-69039088D01*
X73741081Y-69150000D01*
X71491000Y-69150000D01*
X71491000Y-67467888D01*
X71509306Y-67423694D01*
X71553500Y-67405388D01*
X71581873Y-67412200D01*
X71639088Y-67441352D01*
X71750000Y-67458919D01*
X71860912Y-67441352D01*
X71865299Y-67439117D01*
X71869974Y-67437598D01*
X71870447Y-67439054D01*
X71912191Y-67435766D01*
X71948567Y-67466830D01*
X71954611Y-67485430D01*
X71957877Y-67506048D01*
X71957878Y-67506052D01*
X71958648Y-67510912D01*
X71960882Y-67515296D01*
X71960882Y-67515297D01*
X72007395Y-67606584D01*
X72009628Y-67610967D01*
X72089033Y-67690372D01*
X72093414Y-67692604D01*
X72093415Y-67692605D01*
X72124902Y-67708648D01*
X72189088Y-67741352D01*
X72278622Y-67755533D01*
X72290391Y-67757397D01*
X72300000Y-67758919D01*
X72309610Y-67757397D01*
X72321378Y-67755533D01*
X72410912Y-67741352D01*
X72475098Y-67708648D01*
X72506585Y-67692605D01*
X72506586Y-67692604D01*
X72510967Y-67690372D01*
X72590372Y-67610967D01*
X72592606Y-67606584D01*
X72623722Y-67545513D01*
X72641352Y-67510912D01*
X72658919Y-67400000D01*
X72641352Y-67289088D01*
X72603332Y-67214469D01*
X72592605Y-67193415D01*
X72592604Y-67193414D01*
X72590372Y-67189033D01*
X72545533Y-67144194D01*
X72527227Y-67100000D01*
X72545533Y-67055806D01*
X72590372Y-67010967D01*
X72592004Y-67012599D01*
X72626001Y-66991769D01*
X72635773Y-66991000D01*
X73094997Y-66991000D01*
X73139191Y-67009306D01*
X75190694Y-69060809D01*
X75209000Y-69105003D01*
X75209000Y-71106768D01*
X75207750Y-71114107D01*
X75208477Y-71114190D01*
X75207680Y-71121181D01*
X75205348Y-71127822D01*
X75206126Y-71134815D01*
X75206126Y-71134816D01*
X75208617Y-71157197D01*
X75209000Y-71164110D01*
X75209000Y-71171533D01*
X75210581Y-71178465D01*
X75211757Y-71185418D01*
X75214986Y-71214429D01*
X75218719Y-71220393D01*
X75220094Y-71224341D01*
X75221903Y-71228100D01*
X75223468Y-71234959D01*
X75227853Y-71240461D01*
X75227853Y-71240462D01*
X75241648Y-71257773D01*
X75245744Y-71263559D01*
X75249596Y-71269711D01*
X75254809Y-71274924D01*
X75259494Y-71280168D01*
X75277775Y-71303109D01*
X75284114Y-71306167D01*
X75289615Y-71310558D01*
X75289189Y-71311092D01*
X75295353Y-71315468D01*
X75634372Y-71654487D01*
X75638677Y-71660561D01*
X75639250Y-71660105D01*
X75643631Y-71665613D01*
X75646678Y-71671958D01*
X75652175Y-71676354D01*
X75669761Y-71690418D01*
X75674920Y-71695035D01*
X75680168Y-71700283D01*
X75683139Y-71702150D01*
X75683140Y-71702151D01*
X75686169Y-71704055D01*
X75691944Y-71708159D01*
X75709236Y-71721988D01*
X75709240Y-71721990D01*
X75714733Y-71726383D01*
X75721590Y-71727960D01*
X75725352Y-71729778D01*
X75729290Y-71731157D01*
X75735248Y-71734902D01*
X75742239Y-71735692D01*
X75742244Y-71735694D01*
X75764237Y-71738180D01*
X75771223Y-71739373D01*
X75778297Y-71741000D01*
X75785677Y-71741000D01*
X75792698Y-71741396D01*
X75821838Y-71744690D01*
X75828482Y-71742370D01*
X75835478Y-71741585D01*
X75835554Y-71742264D01*
X75843003Y-71741000D01*
X75864227Y-71741000D01*
X75908421Y-71759306D01*
X75909315Y-71760353D01*
X75909628Y-71760967D01*
X75989033Y-71840372D01*
X75993414Y-71842604D01*
X75993415Y-71842605D01*
X76020853Y-71856585D01*
X76089088Y-71891352D01*
X76200000Y-71908919D01*
X76310912Y-71891352D01*
X76379147Y-71856585D01*
X76406585Y-71842605D01*
X76406586Y-71842604D01*
X76410967Y-71840372D01*
X76490372Y-71760967D01*
X76492879Y-71756048D01*
X76523966Y-71695035D01*
X76541352Y-71660912D01*
X76543080Y-71650000D01*
X77091081Y-71650000D01*
X77108648Y-71760912D01*
X77159628Y-71860967D01*
X77239033Y-71940372D01*
X77243414Y-71942604D01*
X77243415Y-71942605D01*
X77292333Y-71967530D01*
X77339088Y-71991352D01*
X77450000Y-72008919D01*
X77560912Y-71991352D01*
X77607667Y-71967530D01*
X77656585Y-71942605D01*
X77656586Y-71942604D01*
X77660967Y-71940372D01*
X77740372Y-71860967D01*
X77791352Y-71760912D01*
X77808919Y-71650000D01*
X77791352Y-71539088D01*
X77771436Y-71500000D01*
X80783081Y-71500000D01*
X80800648Y-71610912D01*
X80802883Y-71615298D01*
X80847623Y-71703106D01*
X80851628Y-71710967D01*
X80931033Y-71790372D01*
X80935414Y-71792604D01*
X80935415Y-71792605D01*
X80984333Y-71817530D01*
X81031088Y-71841352D01*
X81142000Y-71858919D01*
X81252912Y-71841352D01*
X81299667Y-71817530D01*
X81348585Y-71792605D01*
X81348586Y-71792604D01*
X81352967Y-71790372D01*
X81432372Y-71710967D01*
X81436378Y-71703106D01*
X81481117Y-71615298D01*
X81483352Y-71610912D01*
X81500919Y-71500000D01*
X81483352Y-71389088D01*
X81445755Y-71315299D01*
X81434605Y-71293415D01*
X81434604Y-71293414D01*
X81432372Y-71289033D01*
X81352967Y-71209628D01*
X81348586Y-71207396D01*
X81348585Y-71207395D01*
X81284897Y-71174945D01*
X81252912Y-71158648D01*
X81142000Y-71141081D01*
X81031088Y-71158648D01*
X80999103Y-71174945D01*
X80935415Y-71207395D01*
X80935414Y-71207396D01*
X80931033Y-71209628D01*
X80851628Y-71289033D01*
X80849396Y-71293414D01*
X80849395Y-71293415D01*
X80838245Y-71315299D01*
X80800648Y-71389088D01*
X80783081Y-71500000D01*
X77771436Y-71500000D01*
X77761738Y-71480967D01*
X77742605Y-71443415D01*
X77742604Y-71443414D01*
X77740372Y-71439033D01*
X77660967Y-71359628D01*
X77656586Y-71357396D01*
X77656585Y-71357395D01*
X77607667Y-71332470D01*
X77560912Y-71308648D01*
X77450000Y-71291081D01*
X77339088Y-71308648D01*
X77292333Y-71332470D01*
X77243415Y-71357395D01*
X77243414Y-71357396D01*
X77239033Y-71359628D01*
X77159628Y-71439033D01*
X77157396Y-71443414D01*
X77157395Y-71443415D01*
X77138262Y-71480967D01*
X77108648Y-71539088D01*
X77091081Y-71650000D01*
X76543080Y-71650000D01*
X76558919Y-71550000D01*
X76541352Y-71439088D01*
X76539117Y-71434701D01*
X76537598Y-71430026D01*
X76539054Y-71429553D01*
X76535766Y-71387809D01*
X76566830Y-71351433D01*
X76585430Y-71345389D01*
X76606048Y-71342123D01*
X76606052Y-71342122D01*
X76610912Y-71341352D01*
X76615297Y-71339118D01*
X76706585Y-71292605D01*
X76706586Y-71292604D01*
X76710967Y-71290372D01*
X76790372Y-71210967D01*
X76795960Y-71200001D01*
X76825588Y-71141851D01*
X76841352Y-71110912D01*
X76858919Y-71000000D01*
X78483081Y-71000000D01*
X78500648Y-71110912D01*
X78516412Y-71141851D01*
X78546041Y-71200001D01*
X78551628Y-71210967D01*
X78631033Y-71290372D01*
X78635414Y-71292604D01*
X78635415Y-71292605D01*
X78680287Y-71315468D01*
X78731088Y-71341352D01*
X78842000Y-71358919D01*
X78952912Y-71341352D01*
X79003713Y-71315468D01*
X79048585Y-71292605D01*
X79048586Y-71292604D01*
X79052967Y-71290372D01*
X79132372Y-71210967D01*
X79137960Y-71200001D01*
X79167588Y-71141851D01*
X79183352Y-71110912D01*
X79200919Y-71000000D01*
X82783081Y-71000000D01*
X82800648Y-71110912D01*
X82816412Y-71141851D01*
X82846041Y-71200001D01*
X82851628Y-71210967D01*
X82931033Y-71290372D01*
X82935414Y-71292604D01*
X82935415Y-71292605D01*
X82980287Y-71315468D01*
X83031088Y-71341352D01*
X83142000Y-71358919D01*
X83141522Y-71361939D01*
X83176565Y-71376455D01*
X83194871Y-71420649D01*
X83194102Y-71430420D01*
X83183081Y-71500000D01*
X83200648Y-71610912D01*
X83202883Y-71615298D01*
X83247623Y-71703106D01*
X83251628Y-71710967D01*
X83331033Y-71790372D01*
X83335414Y-71792604D01*
X83335415Y-71792605D01*
X83384333Y-71817530D01*
X83431088Y-71841352D01*
X83542000Y-71858919D01*
X83652912Y-71841352D01*
X83699667Y-71817530D01*
X83748585Y-71792605D01*
X83748586Y-71792604D01*
X83752967Y-71790372D01*
X83832372Y-71710967D01*
X83836378Y-71703106D01*
X83881117Y-71615298D01*
X83883352Y-71610912D01*
X83900919Y-71500000D01*
X83883352Y-71389088D01*
X83845755Y-71315299D01*
X83834605Y-71293415D01*
X83834604Y-71293414D01*
X83832372Y-71289033D01*
X83752967Y-71209628D01*
X83748586Y-71207396D01*
X83748585Y-71207395D01*
X83684897Y-71174945D01*
X83652912Y-71158648D01*
X83542000Y-71141081D01*
X83542478Y-71138061D01*
X83507435Y-71123545D01*
X83489129Y-71079351D01*
X83489898Y-71069580D01*
X83500919Y-71000000D01*
X83489899Y-70930426D01*
X83501065Y-70883913D01*
X83541851Y-70858919D01*
X83541951Y-70858911D01*
X83542000Y-70858919D01*
X83542143Y-70858896D01*
X83542147Y-70858896D01*
X83586434Y-70851881D01*
X83598310Y-70850000D01*
X84370000Y-70850000D01*
X85591990Y-70850000D01*
X85636184Y-70868306D01*
X85654490Y-70912500D01*
X85636184Y-70956694D01*
X85620364Y-70968188D01*
X85597912Y-70979628D01*
X85539033Y-71009628D01*
X85459628Y-71089033D01*
X85457396Y-71093414D01*
X85457395Y-71093415D01*
X85448480Y-71110912D01*
X85408648Y-71189088D01*
X85391081Y-71300000D01*
X85408648Y-71410912D01*
X85410883Y-71415298D01*
X85446115Y-71484445D01*
X85459628Y-71510967D01*
X85539033Y-71590372D01*
X85543414Y-71592604D01*
X85543415Y-71592605D01*
X85579345Y-71610912D01*
X85639088Y-71641352D01*
X85750000Y-71658919D01*
X85860912Y-71641352D01*
X85920655Y-71610912D01*
X85956585Y-71592605D01*
X85956586Y-71592604D01*
X85960967Y-71590372D01*
X86040372Y-71510967D01*
X86053886Y-71484445D01*
X86089117Y-71415298D01*
X86091352Y-71410912D01*
X86108919Y-71300000D01*
X86104167Y-71270000D01*
X86671081Y-71270000D01*
X86688648Y-71380912D01*
X86703934Y-71410912D01*
X86724221Y-71450728D01*
X86739628Y-71480967D01*
X86819033Y-71560372D01*
X86823414Y-71562604D01*
X86823415Y-71562605D01*
X86871086Y-71586894D01*
X86919088Y-71611352D01*
X87029485Y-71628838D01*
X87070270Y-71653830D01*
X87081437Y-71700344D01*
X87063900Y-71734761D01*
X87019628Y-71779033D01*
X87017396Y-71783414D01*
X87017395Y-71783415D01*
X87012713Y-71792605D01*
X86968648Y-71879088D01*
X86951081Y-71990000D01*
X86968648Y-72100912D01*
X86970883Y-72105298D01*
X87004301Y-72170885D01*
X87019628Y-72200967D01*
X87099033Y-72280372D01*
X87103414Y-72282604D01*
X87103415Y-72282605D01*
X87152333Y-72307530D01*
X87199088Y-72331352D01*
X87310000Y-72348919D01*
X87420912Y-72331352D01*
X87467667Y-72307530D01*
X87516585Y-72282605D01*
X87516586Y-72282604D01*
X87520967Y-72280372D01*
X87600372Y-72200967D01*
X87615700Y-72170885D01*
X87649117Y-72105298D01*
X87651352Y-72100912D01*
X87668919Y-71990000D01*
X87651352Y-71879088D01*
X87607287Y-71792605D01*
X87602605Y-71783415D01*
X87602604Y-71783414D01*
X87600372Y-71779033D01*
X87520967Y-71699628D01*
X87516586Y-71697396D01*
X87516585Y-71697395D01*
X87447160Y-71662022D01*
X87420912Y-71648648D01*
X87310515Y-71631162D01*
X87269730Y-71606170D01*
X87258563Y-71559656D01*
X87276100Y-71525239D01*
X87320372Y-71480967D01*
X87335780Y-71450728D01*
X87356066Y-71410912D01*
X87371352Y-71380912D01*
X87388919Y-71270000D01*
X87371352Y-71159088D01*
X87344327Y-71106048D01*
X87322605Y-71063415D01*
X87322604Y-71063414D01*
X87320372Y-71059033D01*
X87240967Y-70979628D01*
X87236586Y-70977396D01*
X87236585Y-70977395D01*
X87165313Y-70941081D01*
X87140912Y-70928648D01*
X87051378Y-70914467D01*
X87034862Y-70911851D01*
X87030000Y-70911081D01*
X87025138Y-70911851D01*
X87008622Y-70914467D01*
X86919088Y-70928648D01*
X86894687Y-70941081D01*
X86823415Y-70977395D01*
X86823414Y-70977396D01*
X86819033Y-70979628D01*
X86739628Y-71059033D01*
X86737396Y-71063414D01*
X86737395Y-71063415D01*
X86715673Y-71106048D01*
X86688648Y-71159088D01*
X86671081Y-71270000D01*
X86104167Y-71270000D01*
X86091352Y-71189088D01*
X86051520Y-71110912D01*
X86042605Y-71093415D01*
X86042604Y-71093414D01*
X86040372Y-71089033D01*
X85960967Y-71009628D01*
X85902088Y-70979628D01*
X85879636Y-70968188D01*
X85848569Y-70931814D01*
X85852322Y-70884126D01*
X85888696Y-70853059D01*
X85908010Y-70850000D01*
X86270000Y-70850000D01*
X86270000Y-69300000D01*
X86941081Y-69300000D01*
X86958648Y-69410912D01*
X86974796Y-69442605D01*
X87000959Y-69493952D01*
X87009628Y-69510967D01*
X87089033Y-69590372D01*
X87093414Y-69592604D01*
X87093415Y-69592605D01*
X87142333Y-69617530D01*
X87189088Y-69641352D01*
X87300000Y-69658919D01*
X87410912Y-69641352D01*
X87457667Y-69617530D01*
X87506585Y-69592605D01*
X87506586Y-69592604D01*
X87510967Y-69590372D01*
X87590372Y-69510967D01*
X87599042Y-69493952D01*
X87625204Y-69442605D01*
X87641352Y-69410912D01*
X87658919Y-69300000D01*
X87641352Y-69189088D01*
X87610378Y-69128297D01*
X87592605Y-69093415D01*
X87592604Y-69093414D01*
X87590372Y-69089033D01*
X87510967Y-69009628D01*
X87506586Y-69007396D01*
X87506585Y-69007395D01*
X87415298Y-68960883D01*
X87415299Y-68960883D01*
X87410912Y-68958648D01*
X87300000Y-68941081D01*
X87189088Y-68958648D01*
X87184701Y-68960883D01*
X87184702Y-68960883D01*
X87093415Y-69007395D01*
X87093414Y-69007396D01*
X87089033Y-69009628D01*
X87009628Y-69089033D01*
X87007396Y-69093414D01*
X87007395Y-69093415D01*
X86989622Y-69128297D01*
X86958648Y-69189088D01*
X86941081Y-69300000D01*
X86270000Y-69300000D01*
X86270000Y-67170000D01*
X87621081Y-67170000D01*
X87638648Y-67280912D01*
X87640883Y-67285298D01*
X87686345Y-67374523D01*
X87689628Y-67380967D01*
X87769033Y-67460372D01*
X87773414Y-67462604D01*
X87773415Y-67462605D01*
X87783784Y-67467888D01*
X87869088Y-67511352D01*
X87946708Y-67523646D01*
X87974463Y-67528042D01*
X87980000Y-67528919D01*
X87985538Y-67528042D01*
X88013292Y-67523646D01*
X88090912Y-67511352D01*
X88176216Y-67467888D01*
X88186585Y-67462605D01*
X88186586Y-67462604D01*
X88190967Y-67460372D01*
X88270372Y-67380967D01*
X88273656Y-67374523D01*
X88319117Y-67285298D01*
X88321352Y-67280912D01*
X88338919Y-67170000D01*
X88321352Y-67059088D01*
X88270372Y-66959033D01*
X88190967Y-66879628D01*
X88186586Y-66877396D01*
X88186585Y-66877395D01*
X88095298Y-66830883D01*
X88095299Y-66830883D01*
X88090912Y-66828648D01*
X87980000Y-66811081D01*
X87869088Y-66828648D01*
X87864701Y-66830883D01*
X87864702Y-66830883D01*
X87773415Y-66877395D01*
X87773414Y-66877396D01*
X87769033Y-66879628D01*
X87689628Y-66959033D01*
X87638648Y-67059088D01*
X87621081Y-67170000D01*
X86270000Y-67170000D01*
X86270000Y-67160000D01*
X84370000Y-67160000D01*
X84370000Y-70850000D01*
X83598310Y-70850000D01*
X83652912Y-70841352D01*
X83699667Y-70817530D01*
X83748585Y-70792605D01*
X83748586Y-70792604D01*
X83752967Y-70790372D01*
X83832372Y-70710967D01*
X83883352Y-70610912D01*
X83900919Y-70500000D01*
X83883352Y-70389088D01*
X83854219Y-70331911D01*
X83834605Y-70293415D01*
X83834604Y-70293414D01*
X83832372Y-70289033D01*
X83752967Y-70209628D01*
X83748586Y-70207396D01*
X83748585Y-70207395D01*
X83699667Y-70182470D01*
X83652912Y-70158648D01*
X83542000Y-70141081D01*
X83431088Y-70158648D01*
X83384333Y-70182470D01*
X83335415Y-70207395D01*
X83335414Y-70207396D01*
X83331033Y-70209628D01*
X83251628Y-70289033D01*
X83249396Y-70293414D01*
X83249395Y-70293415D01*
X83229781Y-70331911D01*
X83200648Y-70389088D01*
X83183081Y-70500000D01*
X83194101Y-70569574D01*
X83182935Y-70616087D01*
X83142149Y-70641081D01*
X83142049Y-70641089D01*
X83142000Y-70641081D01*
X83141857Y-70641104D01*
X83141853Y-70641104D01*
X83097566Y-70648119D01*
X83031088Y-70658648D01*
X83026701Y-70660883D01*
X83026702Y-70660883D01*
X82935415Y-70707395D01*
X82935414Y-70707396D01*
X82931033Y-70709628D01*
X82851628Y-70789033D01*
X82800648Y-70889088D01*
X82783081Y-71000000D01*
X79200919Y-71000000D01*
X79183352Y-70889088D01*
X79132372Y-70789033D01*
X79052967Y-70709628D01*
X79048586Y-70707396D01*
X79048585Y-70707395D01*
X78957298Y-70660883D01*
X78957299Y-70660883D01*
X78952912Y-70658648D01*
X78842000Y-70641081D01*
X78731088Y-70658648D01*
X78726701Y-70660883D01*
X78726702Y-70660883D01*
X78635415Y-70707395D01*
X78635414Y-70707396D01*
X78631033Y-70709628D01*
X78551628Y-70789033D01*
X78500648Y-70889088D01*
X78483081Y-71000000D01*
X76858919Y-71000000D01*
X76841352Y-70889088D01*
X76795462Y-70799023D01*
X76791709Y-70751335D01*
X76822776Y-70714961D01*
X76848760Y-70708723D01*
X76850000Y-70708919D01*
X76859629Y-70707394D01*
X76871378Y-70705533D01*
X76960912Y-70691352D01*
X77014329Y-70664135D01*
X77056585Y-70642605D01*
X77056586Y-70642604D01*
X77060967Y-70640372D01*
X77140372Y-70560967D01*
X77191352Y-70460912D01*
X77208919Y-70350000D01*
X77191352Y-70239088D01*
X77167030Y-70191352D01*
X77142605Y-70143415D01*
X77142604Y-70143414D01*
X77140372Y-70139033D01*
X77060967Y-70059628D01*
X77056586Y-70057396D01*
X77056585Y-70057395D01*
X76965298Y-70010883D01*
X76965299Y-70010883D01*
X76960912Y-70008648D01*
X76850000Y-69991081D01*
X76739088Y-70008648D01*
X76734701Y-70010883D01*
X76734702Y-70010883D01*
X76643415Y-70057395D01*
X76643414Y-70057396D01*
X76639033Y-70059628D01*
X76559628Y-70139033D01*
X76557396Y-70143414D01*
X76557395Y-70143415D01*
X76532970Y-70191352D01*
X76508648Y-70239088D01*
X76491081Y-70350000D01*
X76508648Y-70460912D01*
X76554538Y-70550977D01*
X76558291Y-70598664D01*
X76527224Y-70635038D01*
X76501237Y-70641277D01*
X76500000Y-70641081D01*
X76495145Y-70641850D01*
X76495143Y-70641850D01*
X76454789Y-70648241D01*
X76408276Y-70637073D01*
X76400819Y-70630704D01*
X76009306Y-70239191D01*
X75991000Y-70194997D01*
X75991000Y-69600000D01*
X77541081Y-69600000D01*
X77558648Y-69710912D01*
X77609628Y-69810967D01*
X77689033Y-69890372D01*
X77693414Y-69892604D01*
X77693415Y-69892605D01*
X77698110Y-69894997D01*
X77789088Y-69941352D01*
X77900000Y-69958919D01*
X78010912Y-69941352D01*
X78101890Y-69894997D01*
X78106585Y-69892605D01*
X78106586Y-69892604D01*
X78110967Y-69890372D01*
X78151339Y-69850000D01*
X80691081Y-69850000D01*
X80708648Y-69960912D01*
X80724020Y-69991081D01*
X80756054Y-70053952D01*
X80759628Y-70060967D01*
X80839033Y-70140372D01*
X80843414Y-70142604D01*
X80843415Y-70142605D01*
X80845005Y-70143415D01*
X80869211Y-70155749D01*
X80900278Y-70192122D01*
X80896525Y-70239810D01*
X80885031Y-70255630D01*
X80851628Y-70289033D01*
X80849396Y-70293414D01*
X80849395Y-70293415D01*
X80829781Y-70331911D01*
X80800648Y-70389088D01*
X80783081Y-70500000D01*
X80800648Y-70610912D01*
X80851628Y-70710967D01*
X80931033Y-70790372D01*
X80935414Y-70792604D01*
X80935415Y-70792605D01*
X80984333Y-70817530D01*
X81031088Y-70841352D01*
X81105002Y-70853059D01*
X81135434Y-70857879D01*
X81142000Y-70858919D01*
X81148567Y-70857879D01*
X81178998Y-70853059D01*
X81252912Y-70841352D01*
X81299667Y-70817530D01*
X81348585Y-70792605D01*
X81348586Y-70792604D01*
X81352967Y-70790372D01*
X81432372Y-70710967D01*
X81483352Y-70610912D01*
X81500919Y-70500000D01*
X81483352Y-70389088D01*
X81454219Y-70331911D01*
X81434605Y-70293415D01*
X81434604Y-70293414D01*
X81432372Y-70289033D01*
X81352967Y-70209628D01*
X81348586Y-70207396D01*
X81348585Y-70207395D01*
X81335756Y-70200859D01*
X81322789Y-70194251D01*
X81291722Y-70157878D01*
X81295475Y-70110190D01*
X81306969Y-70094370D01*
X81340372Y-70060967D01*
X81343947Y-70053952D01*
X81375980Y-69991081D01*
X81391352Y-69960912D01*
X81408919Y-69850000D01*
X81391352Y-69739088D01*
X81367530Y-69692333D01*
X81342605Y-69643415D01*
X81342604Y-69643414D01*
X81340372Y-69639033D01*
X81260967Y-69559628D01*
X81256586Y-69557396D01*
X81256585Y-69557395D01*
X81165298Y-69510883D01*
X81165299Y-69510883D01*
X81160912Y-69508648D01*
X81050000Y-69491081D01*
X80939088Y-69508648D01*
X80934701Y-69510883D01*
X80934702Y-69510883D01*
X80843415Y-69557395D01*
X80843414Y-69557396D01*
X80839033Y-69559628D01*
X80759628Y-69639033D01*
X80757396Y-69643414D01*
X80757395Y-69643415D01*
X80732470Y-69692333D01*
X80708648Y-69739088D01*
X80691081Y-69850000D01*
X78151339Y-69850000D01*
X78190372Y-69810967D01*
X78241352Y-69710912D01*
X78258919Y-69600000D01*
X78241352Y-69489088D01*
X78201520Y-69410912D01*
X78192605Y-69393415D01*
X78192604Y-69393414D01*
X78190372Y-69389033D01*
X78110967Y-69309628D01*
X78106586Y-69307396D01*
X78106585Y-69307395D01*
X78015299Y-69260883D01*
X78015298Y-69260883D01*
X78010912Y-69258648D01*
X78009710Y-69258458D01*
X77974488Y-69228376D01*
X77970733Y-69180688D01*
X78001799Y-69144313D01*
X78007730Y-69141856D01*
X78010912Y-69141352D01*
X78015298Y-69139117D01*
X78015299Y-69139117D01*
X78106585Y-69092605D01*
X78106586Y-69092604D01*
X78110967Y-69090372D01*
X78190372Y-69010967D01*
X78200084Y-68991907D01*
X78239117Y-68915298D01*
X78241352Y-68910912D01*
X78258919Y-68800000D01*
X78241352Y-68689088D01*
X78190372Y-68589033D01*
X78110967Y-68509628D01*
X78106586Y-68507396D01*
X78106585Y-68507395D01*
X78015298Y-68460883D01*
X78015299Y-68460883D01*
X78010912Y-68458648D01*
X77921378Y-68444467D01*
X77904862Y-68441851D01*
X77900000Y-68441081D01*
X77895138Y-68441851D01*
X77878622Y-68444467D01*
X77789088Y-68458648D01*
X77784701Y-68460883D01*
X77784702Y-68460883D01*
X77693415Y-68507395D01*
X77693414Y-68507396D01*
X77689033Y-68509628D01*
X77609628Y-68589033D01*
X77558648Y-68689088D01*
X77541081Y-68800000D01*
X77558648Y-68910912D01*
X77560883Y-68915298D01*
X77599917Y-68991907D01*
X77609628Y-69010967D01*
X77689033Y-69090372D01*
X77693414Y-69092604D01*
X77693415Y-69092605D01*
X77784701Y-69139117D01*
X77784702Y-69139117D01*
X77789088Y-69141352D01*
X77790290Y-69141542D01*
X77825512Y-69171624D01*
X77829267Y-69219312D01*
X77798201Y-69255687D01*
X77792270Y-69258144D01*
X77789088Y-69258648D01*
X77784702Y-69260883D01*
X77784701Y-69260883D01*
X77693415Y-69307395D01*
X77693414Y-69307396D01*
X77689033Y-69309628D01*
X77609628Y-69389033D01*
X77607396Y-69393414D01*
X77607395Y-69393415D01*
X77598480Y-69410912D01*
X77558648Y-69489088D01*
X77541081Y-69600000D01*
X75991000Y-69600000D01*
X75991000Y-69255003D01*
X76009306Y-69210809D01*
X76460808Y-68759306D01*
X76505002Y-68741000D01*
X77056768Y-68741000D01*
X77064107Y-68742250D01*
X77064190Y-68741523D01*
X77071181Y-68742320D01*
X77077822Y-68744652D01*
X77084815Y-68743874D01*
X77084816Y-68743874D01*
X77107197Y-68741383D01*
X77114110Y-68741000D01*
X77121533Y-68741000D01*
X77128465Y-68739419D01*
X77135418Y-68738243D01*
X77164429Y-68735014D01*
X77170393Y-68731281D01*
X77174341Y-68729906D01*
X77178100Y-68728097D01*
X77184959Y-68726532D01*
X77207774Y-68708351D01*
X77213559Y-68704256D01*
X77216715Y-68702280D01*
X77216717Y-68702279D01*
X77219711Y-68700404D01*
X77224924Y-68695191D01*
X77230168Y-68690506D01*
X77247604Y-68676612D01*
X77247604Y-68676611D01*
X77253109Y-68672225D01*
X77256167Y-68665886D01*
X77260558Y-68660385D01*
X77261092Y-68660811D01*
X77265468Y-68654647D01*
X77354560Y-68565555D01*
X77454485Y-68465629D01*
X77460560Y-68461322D01*
X77460105Y-68460750D01*
X77465613Y-68456369D01*
X77471958Y-68453322D01*
X77490422Y-68430234D01*
X77495039Y-68425075D01*
X77500283Y-68419831D01*
X77502145Y-68416868D01*
X77502151Y-68416861D01*
X77504058Y-68413826D01*
X77508163Y-68408050D01*
X77521987Y-68390764D01*
X77526383Y-68385267D01*
X77527960Y-68378407D01*
X77529778Y-68374647D01*
X77531156Y-68370711D01*
X77534902Y-68364752D01*
X77538179Y-68335763D01*
X77539371Y-68328787D01*
X77541000Y-68321703D01*
X77541000Y-68314329D01*
X77541396Y-68307308D01*
X77543900Y-68285155D01*
X77544691Y-68278162D01*
X77542370Y-68271517D01*
X77541586Y-68264523D01*
X77542264Y-68264447D01*
X77541000Y-68256995D01*
X77541000Y-67893234D01*
X77542253Y-67885893D01*
X77541524Y-67885810D01*
X77542321Y-67878819D01*
X77544653Y-67872178D01*
X77543494Y-67861758D01*
X77541383Y-67842794D01*
X77541000Y-67835881D01*
X77541000Y-67828467D01*
X77539421Y-67821544D01*
X77538245Y-67814591D01*
X77535015Y-67785571D01*
X77531281Y-67779607D01*
X77529910Y-67775670D01*
X77528097Y-67771904D01*
X77526532Y-67765041D01*
X77508354Y-67742229D01*
X77504260Y-67736446D01*
X77502284Y-67733290D01*
X77502279Y-67733284D01*
X77500404Y-67730289D01*
X77495191Y-67725076D01*
X77490506Y-67719832D01*
X77476612Y-67702396D01*
X77476611Y-67702396D01*
X77472225Y-67696891D01*
X77465886Y-67693833D01*
X77460385Y-67689442D01*
X77460811Y-67688908D01*
X77454647Y-67684532D01*
X77341297Y-67571182D01*
X78412255Y-67571182D01*
X78414863Y-67610967D01*
X78424835Y-67763106D01*
X78425207Y-67768788D01*
X78425913Y-67771568D01*
X78465585Y-67927775D01*
X78473953Y-67960726D01*
X78556860Y-68140566D01*
X78558510Y-68142901D01*
X78558512Y-68142904D01*
X78627840Y-68241000D01*
X78671153Y-68302286D01*
X78813002Y-68440470D01*
X78977659Y-68550490D01*
X79159608Y-68628661D01*
X79256182Y-68650513D01*
X79349966Y-68671735D01*
X79349969Y-68671735D01*
X79352756Y-68672366D01*
X79440442Y-68675811D01*
X79547774Y-68680029D01*
X79547778Y-68680029D01*
X79550634Y-68680141D01*
X79746615Y-68651725D01*
X79934136Y-68588070D01*
X80106917Y-68491308D01*
X80143500Y-68460883D01*
X80256974Y-68366508D01*
X80259172Y-68364680D01*
X80294915Y-68321703D01*
X80383969Y-68214627D01*
X80383971Y-68214624D01*
X80385800Y-68212425D01*
X80482562Y-68039644D01*
X80546217Y-67852123D01*
X80562151Y-67742229D01*
X80574370Y-67657958D01*
X80574370Y-67657953D01*
X80574633Y-67656142D01*
X80576116Y-67599508D01*
X80573777Y-67574046D01*
X80573514Y-67571182D01*
X81460255Y-67571182D01*
X81462863Y-67610967D01*
X81472835Y-67763106D01*
X81473207Y-67768788D01*
X81473913Y-67771568D01*
X81513585Y-67927775D01*
X81521953Y-67960726D01*
X81604860Y-68140566D01*
X81606510Y-68142901D01*
X81606512Y-68142904D01*
X81675840Y-68241000D01*
X81719153Y-68302286D01*
X81861002Y-68440470D01*
X82025659Y-68550490D01*
X82207608Y-68628661D01*
X82304182Y-68650513D01*
X82397966Y-68671735D01*
X82397969Y-68671735D01*
X82400756Y-68672366D01*
X82488442Y-68675811D01*
X82595774Y-68680029D01*
X82595778Y-68680029D01*
X82598634Y-68680141D01*
X82794615Y-68651725D01*
X82982136Y-68588070D01*
X83154917Y-68491308D01*
X83191500Y-68460883D01*
X83304974Y-68366508D01*
X83307172Y-68364680D01*
X83342915Y-68321703D01*
X83431969Y-68214627D01*
X83431971Y-68214624D01*
X83433800Y-68212425D01*
X83530562Y-68039644D01*
X83594217Y-67852123D01*
X83610151Y-67742229D01*
X83622370Y-67657958D01*
X83622370Y-67657953D01*
X83622633Y-67656142D01*
X83624116Y-67599508D01*
X83621777Y-67574046D01*
X83611925Y-67466830D01*
X83605996Y-67402308D01*
X83598961Y-67377363D01*
X83553020Y-67214469D01*
X83553018Y-67214465D01*
X83552242Y-67211712D01*
X83472206Y-67049413D01*
X83465924Y-67036675D01*
X83465923Y-67036674D01*
X83464656Y-67034104D01*
X83448659Y-67012681D01*
X83347886Y-66877730D01*
X83347885Y-66877728D01*
X83346169Y-66875431D01*
X83200750Y-66741008D01*
X83033270Y-66635336D01*
X82849338Y-66561954D01*
X82846532Y-66561396D01*
X82846529Y-66561395D01*
X82657918Y-66523878D01*
X82657916Y-66523878D01*
X82655112Y-66523320D01*
X82561862Y-66522099D01*
X82459960Y-66520765D01*
X82459955Y-66520765D01*
X82457098Y-66520728D01*
X82454278Y-66521213D01*
X82454273Y-66521213D01*
X82340363Y-66540786D01*
X82261928Y-66554264D01*
X82259240Y-66555256D01*
X82259235Y-66555257D01*
X82078825Y-66621814D01*
X82078822Y-66621816D01*
X82076137Y-66622806D01*
X82073677Y-66624269D01*
X82073676Y-66624270D01*
X81908413Y-66722591D01*
X81908409Y-66722594D01*
X81905948Y-66724058D01*
X81826547Y-66793691D01*
X81786686Y-66828648D01*
X81757061Y-66854628D01*
X81755285Y-66856881D01*
X81755284Y-66856882D01*
X81648948Y-66991769D01*
X81634461Y-67010145D01*
X81542255Y-67185400D01*
X81483531Y-67374523D01*
X81460255Y-67571182D01*
X80573514Y-67571182D01*
X80563925Y-67466830D01*
X80557996Y-67402308D01*
X80550961Y-67377363D01*
X80505020Y-67214469D01*
X80505018Y-67214465D01*
X80504242Y-67211712D01*
X80424206Y-67049413D01*
X80417924Y-67036675D01*
X80417923Y-67036674D01*
X80416656Y-67034104D01*
X80400659Y-67012681D01*
X80299886Y-66877730D01*
X80299885Y-66877728D01*
X80298169Y-66875431D01*
X80152750Y-66741008D01*
X79985270Y-66635336D01*
X79801338Y-66561954D01*
X79798532Y-66561396D01*
X79798529Y-66561395D01*
X79609918Y-66523878D01*
X79609916Y-66523878D01*
X79607112Y-66523320D01*
X79513862Y-66522099D01*
X79411960Y-66520765D01*
X79411955Y-66520765D01*
X79409098Y-66520728D01*
X79406278Y-66521213D01*
X79406273Y-66521213D01*
X79292363Y-66540786D01*
X79213928Y-66554264D01*
X79211240Y-66555256D01*
X79211235Y-66555257D01*
X79030825Y-66621814D01*
X79030822Y-66621816D01*
X79028137Y-66622806D01*
X79025677Y-66624269D01*
X79025676Y-66624270D01*
X78860413Y-66722591D01*
X78860409Y-66722594D01*
X78857948Y-66724058D01*
X78778547Y-66793691D01*
X78738686Y-66828648D01*
X78709061Y-66854628D01*
X78707285Y-66856881D01*
X78707284Y-66856882D01*
X78600948Y-66991769D01*
X78586461Y-67010145D01*
X78494255Y-67185400D01*
X78435531Y-67374523D01*
X78412255Y-67571182D01*
X77341297Y-67571182D01*
X77315628Y-67545513D01*
X77311323Y-67539439D01*
X77310750Y-67539895D01*
X77306369Y-67534387D01*
X77303322Y-67528042D01*
X77280239Y-67509582D01*
X77275080Y-67504965D01*
X77269831Y-67499716D01*
X77263828Y-67495943D01*
X77258052Y-67491838D01*
X77235267Y-67473617D01*
X77228407Y-67472040D01*
X77224647Y-67470222D01*
X77220711Y-67468844D01*
X77214752Y-67465098D01*
X77207758Y-67464307D01*
X77207757Y-67464307D01*
X77185764Y-67461821D01*
X77178787Y-67460629D01*
X77171703Y-67459000D01*
X77164329Y-67459000D01*
X77157308Y-67458604D01*
X77153283Y-67458149D01*
X77128162Y-67455309D01*
X77121515Y-67457630D01*
X77120654Y-67457727D01*
X77074694Y-67444463D01*
X77069491Y-67439811D01*
X76329680Y-66700000D01*
X76741081Y-66700000D01*
X76758648Y-66810912D01*
X76809628Y-66910967D01*
X76889033Y-66990372D01*
X76893414Y-66992604D01*
X76893415Y-66992605D01*
X76918172Y-67005219D01*
X76989088Y-67041352D01*
X77100000Y-67058919D01*
X77210912Y-67041352D01*
X77281828Y-67005219D01*
X77306585Y-66992605D01*
X77306586Y-66992604D01*
X77310967Y-66990372D01*
X77390372Y-66910967D01*
X77441352Y-66810912D01*
X77458919Y-66700000D01*
X77441352Y-66589088D01*
X77408126Y-66523878D01*
X77392605Y-66493415D01*
X77392604Y-66493414D01*
X77390372Y-66489033D01*
X77310967Y-66409628D01*
X77306586Y-66407396D01*
X77306585Y-66407395D01*
X77257667Y-66382470D01*
X77210912Y-66358648D01*
X77100000Y-66341081D01*
X76989088Y-66358648D01*
X76942333Y-66382470D01*
X76893415Y-66407395D01*
X76893414Y-66407396D01*
X76889033Y-66409628D01*
X76809628Y-66489033D01*
X76807396Y-66493414D01*
X76807395Y-66493415D01*
X76791874Y-66523878D01*
X76758648Y-66589088D01*
X76741081Y-66700000D01*
X76329680Y-66700000D01*
X75709306Y-66079626D01*
X75691000Y-66035432D01*
X75691000Y-65885773D01*
X75709306Y-65841579D01*
X75710353Y-65840685D01*
X75710967Y-65840372D01*
X75790372Y-65760967D01*
X75841352Y-65660912D01*
X75858919Y-65550000D01*
X75841352Y-65439088D01*
X75809278Y-65376138D01*
X75792605Y-65343415D01*
X75792604Y-65343414D01*
X75790372Y-65339033D01*
X75710967Y-65259628D01*
X75706586Y-65257396D01*
X75706585Y-65257395D01*
X75615297Y-65210882D01*
X75615296Y-65210882D01*
X75610912Y-65208648D01*
X75606056Y-65207879D01*
X75606053Y-65207878D01*
X75596892Y-65206427D01*
X75592770Y-65205775D01*
X75558353Y-65188238D01*
X75215628Y-64845513D01*
X75211323Y-64839439D01*
X75210750Y-64839895D01*
X75206369Y-64834387D01*
X75203322Y-64828042D01*
X75180239Y-64809582D01*
X75175080Y-64804965D01*
X75169831Y-64799716D01*
X75163828Y-64795943D01*
X75158052Y-64791838D01*
X75135267Y-64773617D01*
X75128407Y-64772040D01*
X75124647Y-64770222D01*
X75120711Y-64768844D01*
X75114752Y-64765098D01*
X75107758Y-64764307D01*
X75107757Y-64764307D01*
X75085764Y-64761821D01*
X75078787Y-64760629D01*
X75071703Y-64759000D01*
X75064329Y-64759000D01*
X75057308Y-64758604D01*
X75055627Y-64758414D01*
X75028162Y-64755309D01*
X75021517Y-64757630D01*
X75014523Y-64758414D01*
X75014447Y-64757736D01*
X75006995Y-64759000D01*
X73055003Y-64759000D01*
X73010809Y-64740694D01*
X72405306Y-64135191D01*
X72387000Y-64090997D01*
X72387000Y-62192186D01*
X73734233Y-62192186D01*
X73759794Y-62460100D01*
X73823762Y-62721518D01*
X73824608Y-62723606D01*
X73824610Y-62723613D01*
X73892933Y-62892292D01*
X73924798Y-62970963D01*
X74060784Y-63203210D01*
X74228873Y-63413395D01*
X74230527Y-63414940D01*
X74423881Y-63595562D01*
X74423886Y-63595566D01*
X74425542Y-63597113D01*
X74646672Y-63750516D01*
X74887631Y-63870391D01*
X74889785Y-63871097D01*
X74889792Y-63871100D01*
X75075455Y-63931963D01*
X75143371Y-63954227D01*
X75145590Y-63954612D01*
X75145593Y-63954613D01*
X75406650Y-63999940D01*
X75406652Y-63999940D01*
X75408534Y-64000267D01*
X75493563Y-64004500D01*
X75661589Y-64004500D01*
X75662716Y-64004418D01*
X75662722Y-64004418D01*
X75859381Y-63990149D01*
X75859382Y-63990149D01*
X75861640Y-63989985D01*
X76124441Y-63931963D01*
X76126559Y-63931161D01*
X76126561Y-63931160D01*
X76373998Y-63837415D01*
X76373997Y-63837415D01*
X76376115Y-63836613D01*
X76378092Y-63835515D01*
X76378096Y-63835513D01*
X76533441Y-63749226D01*
X76611387Y-63705931D01*
X76825331Y-63542654D01*
X76914708Y-63451226D01*
X77011883Y-63351821D01*
X77011887Y-63351816D01*
X77013464Y-63350203D01*
X77171845Y-63132610D01*
X77172898Y-63130609D01*
X77296100Y-62896441D01*
X77296102Y-62896436D01*
X77297156Y-62894433D01*
X77386772Y-62640662D01*
X77438816Y-62376611D01*
X77452197Y-62107814D01*
X77426636Y-61839900D01*
X77362668Y-61578482D01*
X77361822Y-61576394D01*
X77361820Y-61576387D01*
X77262478Y-61331126D01*
X77261632Y-61329037D01*
X77125646Y-61096790D01*
X76957557Y-60886605D01*
X76896673Y-60829730D01*
X76762549Y-60704438D01*
X76762544Y-60704434D01*
X76760888Y-60702887D01*
X76758983Y-60701565D01*
X76618520Y-60604123D01*
X76539758Y-60549484D01*
X76298799Y-60429609D01*
X76296645Y-60428903D01*
X76296638Y-60428900D01*
X76103277Y-60365514D01*
X76043059Y-60345773D01*
X76040840Y-60345388D01*
X76040837Y-60345387D01*
X75779780Y-60300060D01*
X75779778Y-60300060D01*
X75777896Y-60299733D01*
X75692867Y-60295500D01*
X75524841Y-60295500D01*
X75523714Y-60295582D01*
X75523708Y-60295582D01*
X75327049Y-60309851D01*
X75327048Y-60309851D01*
X75324790Y-60310015D01*
X75061989Y-60368037D01*
X75059871Y-60368839D01*
X75059869Y-60368840D01*
X74901343Y-60428900D01*
X74810315Y-60463387D01*
X74808338Y-60464485D01*
X74808334Y-60464487D01*
X74692679Y-60528728D01*
X74575043Y-60594069D01*
X74573247Y-60595440D01*
X74573245Y-60595441D01*
X74520010Y-60636069D01*
X74361099Y-60757346D01*
X74299378Y-60820484D01*
X74174547Y-60948179D01*
X74174543Y-60948184D01*
X74172966Y-60949797D01*
X74014585Y-61167390D01*
X74013533Y-61169389D01*
X74013532Y-61169391D01*
X73930563Y-61327090D01*
X73889274Y-61405567D01*
X73799658Y-61659338D01*
X73747614Y-61923389D01*
X73734233Y-62192186D01*
X72387000Y-62192186D01*
X72387000Y-58000000D01*
X76741081Y-58000000D01*
X76758648Y-58110912D01*
X76782470Y-58157667D01*
X76800959Y-58193952D01*
X76809628Y-58210967D01*
X76889033Y-58290372D01*
X76893414Y-58292604D01*
X76893415Y-58292605D01*
X76942333Y-58317530D01*
X76989088Y-58341352D01*
X77100000Y-58358919D01*
X77210912Y-58341352D01*
X77257667Y-58317530D01*
X77306585Y-58292605D01*
X77306586Y-58292604D01*
X77310967Y-58290372D01*
X77390372Y-58210967D01*
X77399042Y-58193952D01*
X77417530Y-58157667D01*
X77441352Y-58110912D01*
X77458919Y-58000000D01*
X77441352Y-57889088D01*
X77390372Y-57789033D01*
X77310967Y-57709628D01*
X77306586Y-57707396D01*
X77306585Y-57707395D01*
X77215298Y-57660883D01*
X77215299Y-57660883D01*
X77210912Y-57658648D01*
X77100000Y-57641081D01*
X76989088Y-57658648D01*
X76984701Y-57660883D01*
X76984702Y-57660883D01*
X76893415Y-57707395D01*
X76893414Y-57707396D01*
X76889033Y-57709628D01*
X76809628Y-57789033D01*
X76758648Y-57889088D01*
X76741081Y-58000000D01*
X72387000Y-58000000D01*
X72387000Y-57559003D01*
X72405306Y-57514809D01*
X72720115Y-57200000D01*
X75691081Y-57200000D01*
X75708648Y-57310912D01*
X75759628Y-57410967D01*
X75839033Y-57490372D01*
X75843414Y-57492604D01*
X75843415Y-57492605D01*
X75886994Y-57514809D01*
X75939088Y-57541352D01*
X76050000Y-57558919D01*
X76160912Y-57541352D01*
X76213006Y-57514809D01*
X76256585Y-57492605D01*
X76256586Y-57492604D01*
X76260967Y-57490372D01*
X76340372Y-57410967D01*
X76391352Y-57310912D01*
X76408919Y-57200000D01*
X76391352Y-57089088D01*
X76340372Y-56989033D01*
X76260967Y-56909628D01*
X76256586Y-56907396D01*
X76256585Y-56907395D01*
X76189162Y-56873042D01*
X76160912Y-56858648D01*
X76050000Y-56841081D01*
X75939088Y-56858648D01*
X75910838Y-56873042D01*
X75843415Y-56907395D01*
X75843414Y-56907396D01*
X75839033Y-56909628D01*
X75759628Y-56989033D01*
X75708648Y-57089088D01*
X75691081Y-57200000D01*
X72720115Y-57200000D01*
X73220115Y-56700000D01*
X78191081Y-56700000D01*
X78208648Y-56810912D01*
X78226359Y-56845673D01*
X78257395Y-56906584D01*
X78259628Y-56910967D01*
X78339033Y-56990372D01*
X78343414Y-56992604D01*
X78343415Y-56992605D01*
X78345005Y-56993415D01*
X78439088Y-57041352D01*
X78550000Y-57058919D01*
X78660912Y-57041352D01*
X78754995Y-56993415D01*
X78756585Y-56992605D01*
X78756586Y-56992604D01*
X78760967Y-56990372D01*
X78840372Y-56910967D01*
X78842606Y-56906584D01*
X78873641Y-56845673D01*
X78891352Y-56810912D01*
X78908919Y-56700000D01*
X78891352Y-56589088D01*
X78852147Y-56512143D01*
X78842605Y-56493415D01*
X78842604Y-56493414D01*
X78840372Y-56489033D01*
X78760967Y-56409628D01*
X78756586Y-56407396D01*
X78756585Y-56407395D01*
X78707667Y-56382470D01*
X78660912Y-56358648D01*
X78550000Y-56341081D01*
X78439088Y-56358648D01*
X78392333Y-56382470D01*
X78343415Y-56407395D01*
X78343414Y-56407396D01*
X78339033Y-56409628D01*
X78259628Y-56489033D01*
X78257396Y-56493414D01*
X78257395Y-56493415D01*
X78247853Y-56512143D01*
X78208648Y-56589088D01*
X78191081Y-56700000D01*
X73220115Y-56700000D01*
X73628309Y-56291806D01*
X73672503Y-56273500D01*
X73927497Y-56273500D01*
X73971691Y-56291806D01*
X74184372Y-56504487D01*
X74188677Y-56510561D01*
X74189250Y-56510105D01*
X74193631Y-56515613D01*
X74196678Y-56521958D01*
X74202175Y-56526354D01*
X74219761Y-56540418D01*
X74224920Y-56545035D01*
X74230169Y-56550284D01*
X74233143Y-56552153D01*
X74236172Y-56554057D01*
X74241948Y-56558162D01*
X74264733Y-56576383D01*
X74271593Y-56577960D01*
X74275353Y-56579778D01*
X74279289Y-56581156D01*
X74285248Y-56584902D01*
X74292242Y-56585693D01*
X74292243Y-56585693D01*
X74314236Y-56588179D01*
X74321213Y-56589371D01*
X74328297Y-56591000D01*
X74335671Y-56591000D01*
X74342692Y-56591396D01*
X74371838Y-56594691D01*
X74378483Y-56592370D01*
X74385477Y-56591586D01*
X74385553Y-56592264D01*
X74393005Y-56591000D01*
X76906768Y-56591000D01*
X76914107Y-56592250D01*
X76914190Y-56591523D01*
X76921181Y-56592320D01*
X76927822Y-56594652D01*
X76934815Y-56593874D01*
X76934816Y-56593874D01*
X76955939Y-56591523D01*
X76957198Y-56591383D01*
X76964110Y-56591000D01*
X76971533Y-56591000D01*
X76978465Y-56589419D01*
X76985418Y-56588243D01*
X77014429Y-56585014D01*
X77020393Y-56581281D01*
X77024341Y-56579906D01*
X77028100Y-56578097D01*
X77034959Y-56576532D01*
X77057774Y-56558351D01*
X77063559Y-56554256D01*
X77066715Y-56552280D01*
X77066717Y-56552279D01*
X77069711Y-56550404D01*
X77074923Y-56545192D01*
X77080167Y-56540507D01*
X77097604Y-56526612D01*
X77097604Y-56526611D01*
X77103109Y-56522225D01*
X77106167Y-56515886D01*
X77110558Y-56510385D01*
X77111092Y-56510811D01*
X77115468Y-56504647D01*
X77450819Y-56169296D01*
X77495013Y-56150990D01*
X77504789Y-56151759D01*
X77545142Y-56158150D01*
X77545145Y-56158150D01*
X77550000Y-56158919D01*
X77660912Y-56141352D01*
X77732672Y-56104789D01*
X77756585Y-56092605D01*
X77756586Y-56092604D01*
X77760967Y-56090372D01*
X77840372Y-56010967D01*
X77842879Y-56006048D01*
X77877024Y-55939033D01*
X77891352Y-55910912D01*
X77908919Y-55800000D01*
X77891352Y-55689088D01*
X77840372Y-55589033D01*
X77799033Y-55547694D01*
X77780727Y-55503500D01*
X77799033Y-55459306D01*
X77843227Y-55441000D01*
X78794997Y-55441000D01*
X78839191Y-55459306D01*
X79399595Y-56019709D01*
X79399596Y-56019711D01*
X79430704Y-56050819D01*
X79449010Y-56095013D01*
X79448241Y-56104789D01*
X79442252Y-56142605D01*
X79441081Y-56150000D01*
X79458648Y-56260912D01*
X79460883Y-56265298D01*
X79499496Y-56341081D01*
X79509628Y-56360967D01*
X79589033Y-56440372D01*
X79593414Y-56442604D01*
X79593415Y-56442605D01*
X79620423Y-56456366D01*
X79689088Y-56491352D01*
X79800000Y-56508919D01*
X79910912Y-56491352D01*
X79979577Y-56456366D01*
X80006585Y-56442605D01*
X80006586Y-56442604D01*
X80010967Y-56440372D01*
X80090372Y-56360967D01*
X80100505Y-56341081D01*
X80139117Y-56265298D01*
X80141352Y-56260912D01*
X80158919Y-56150000D01*
X80156835Y-56136843D01*
X80168003Y-56090331D01*
X80208791Y-56065338D01*
X80255304Y-56076506D01*
X80262760Y-56082875D01*
X80981364Y-56801479D01*
X80999670Y-56845673D01*
X80981364Y-56889867D01*
X80946949Y-56907403D01*
X80939088Y-56908648D01*
X80934701Y-56910883D01*
X80934702Y-56910883D01*
X80843415Y-56957395D01*
X80843414Y-56957396D01*
X80839033Y-56959628D01*
X80759628Y-57039033D01*
X80757396Y-57043414D01*
X80757395Y-57043415D01*
X80736359Y-57084702D01*
X80708648Y-57139088D01*
X80691081Y-57250000D01*
X80708648Y-57360912D01*
X80759628Y-57460967D01*
X80839033Y-57540372D01*
X80843414Y-57542604D01*
X80843415Y-57542605D01*
X80873923Y-57558149D01*
X80939088Y-57591352D01*
X81050000Y-57608919D01*
X81160912Y-57591352D01*
X81226077Y-57558149D01*
X81256585Y-57542605D01*
X81256586Y-57542604D01*
X81260967Y-57540372D01*
X81340372Y-57460967D01*
X81391352Y-57360912D01*
X81408919Y-57250000D01*
X81391352Y-57139088D01*
X81363641Y-57084702D01*
X81342605Y-57043415D01*
X81342604Y-57043414D01*
X81340372Y-57039033D01*
X81299033Y-56997694D01*
X81280727Y-56953500D01*
X81299033Y-56909306D01*
X81343227Y-56891000D01*
X83214227Y-56891000D01*
X83258421Y-56909306D01*
X83259315Y-56910353D01*
X83259628Y-56910967D01*
X83339033Y-56990372D01*
X83343414Y-56992604D01*
X83343415Y-56992605D01*
X83345005Y-56993415D01*
X83439088Y-57041352D01*
X83550000Y-57058919D01*
X83660912Y-57041352D01*
X83754995Y-56993415D01*
X83756585Y-56992605D01*
X83756586Y-56992604D01*
X83760967Y-56990372D01*
X83840372Y-56910967D01*
X83864312Y-56863982D01*
X83900686Y-56832915D01*
X83948374Y-56836668D01*
X83979441Y-56873042D01*
X83982500Y-56892356D01*
X83982500Y-59417746D01*
X83964194Y-59461940D01*
X82836267Y-60589867D01*
X82825975Y-60598179D01*
X82812425Y-60606928D01*
X82809225Y-60610987D01*
X82809223Y-60610989D01*
X82789452Y-60636069D01*
X82784564Y-60641570D01*
X82780891Y-60645243D01*
X82779396Y-60647335D01*
X82779391Y-60647341D01*
X82768860Y-60662078D01*
X82767108Y-60664411D01*
X82734620Y-60705623D01*
X82732907Y-60710501D01*
X82731027Y-60713921D01*
X82729312Y-60717423D01*
X82726307Y-60721627D01*
X82711273Y-60771899D01*
X82710362Y-60774701D01*
X82692979Y-60824199D01*
X82692500Y-60829730D01*
X82692500Y-60830031D01*
X82692158Y-60834073D01*
X82691777Y-60837086D01*
X82690298Y-60842033D01*
X82690501Y-60847192D01*
X82692452Y-60896855D01*
X82692500Y-60899309D01*
X82692500Y-63893048D01*
X82691100Y-63906201D01*
X82687705Y-63921971D01*
X82688312Y-63927101D01*
X82688312Y-63927103D01*
X82692067Y-63958826D01*
X82692500Y-63966172D01*
X82692500Y-63971362D01*
X82695600Y-63989985D01*
X82695894Y-63991752D01*
X82696307Y-63994655D01*
X82702476Y-64046775D01*
X82704713Y-64051432D01*
X82705797Y-64055163D01*
X82707065Y-64058868D01*
X82707914Y-64063970D01*
X82710368Y-64068518D01*
X82732832Y-64110150D01*
X82734169Y-64112775D01*
X82755175Y-64156521D01*
X82755178Y-64156525D01*
X82756878Y-64160066D01*
X82759407Y-64163074D01*
X82759581Y-64163282D01*
X82759588Y-64163290D01*
X82760450Y-64164315D01*
X82760663Y-64164528D01*
X82763279Y-64167627D01*
X82765138Y-64170023D01*
X82767592Y-64174572D01*
X82771388Y-64178081D01*
X82807889Y-64211822D01*
X82809658Y-64213523D01*
X85079401Y-66483267D01*
X85083050Y-66487245D01*
X85101865Y-66509628D01*
X85111443Y-66521023D01*
X85115868Y-66523687D01*
X85115869Y-66523688D01*
X85119254Y-66525726D01*
X85131212Y-66535077D01*
X85249865Y-66653730D01*
X85258177Y-66664022D01*
X85266928Y-66677575D01*
X85296083Y-66700559D01*
X85301575Y-66705440D01*
X85305244Y-66709109D01*
X85322086Y-66721145D01*
X85324401Y-66722883D01*
X85365623Y-66755380D01*
X85370500Y-66757093D01*
X85373937Y-66758982D01*
X85377424Y-66760690D01*
X85381627Y-66763694D01*
X85431924Y-66778735D01*
X85434699Y-66779638D01*
X85484199Y-66797021D01*
X85488117Y-66797360D01*
X85488120Y-66797361D01*
X85488266Y-66797373D01*
X85489730Y-66797500D01*
X85490031Y-66797500D01*
X85494073Y-66797842D01*
X85497086Y-66798223D01*
X85502033Y-66799702D01*
X85556856Y-66797548D01*
X85559309Y-66797500D01*
X85763048Y-66797500D01*
X85776201Y-66798900D01*
X85791971Y-66802295D01*
X85797101Y-66801688D01*
X85797103Y-66801688D01*
X85828826Y-66797933D01*
X85836172Y-66797500D01*
X85841362Y-66797500D01*
X85861772Y-66794103D01*
X85864655Y-66793693D01*
X85904989Y-66788919D01*
X85911647Y-66788131D01*
X85916775Y-66787524D01*
X85921432Y-66785287D01*
X85925163Y-66784203D01*
X85928868Y-66782935D01*
X85933970Y-66782086D01*
X85980160Y-66757163D01*
X85982775Y-66755831D01*
X86026521Y-66734825D01*
X86026525Y-66734822D01*
X86030066Y-66733122D01*
X86033139Y-66730538D01*
X86033282Y-66730419D01*
X86033290Y-66730412D01*
X86034315Y-66729550D01*
X86034528Y-66729337D01*
X86037627Y-66726721D01*
X86040023Y-66724862D01*
X86044572Y-66722408D01*
X86081823Y-66682110D01*
X86083524Y-66680341D01*
X86232690Y-66531175D01*
X86238577Y-66525984D01*
X86240023Y-66524862D01*
X86244572Y-66522408D01*
X86271373Y-66493415D01*
X86281823Y-66482110D01*
X86283524Y-66480341D01*
X86299109Y-66464756D01*
X86618060Y-66145806D01*
X86662254Y-66127500D01*
X86964419Y-66127500D01*
X87008613Y-66145806D01*
X87026919Y-66190000D01*
X87017787Y-66218095D01*
X87019628Y-66219033D01*
X86968648Y-66319088D01*
X86951081Y-66430000D01*
X86968648Y-66540912D01*
X86981160Y-66565468D01*
X87013028Y-66628013D01*
X87019628Y-66640967D01*
X87099033Y-66720372D01*
X87103414Y-66722604D01*
X87103415Y-66722605D01*
X87127399Y-66734825D01*
X87199088Y-66771352D01*
X87258058Y-66780692D01*
X87305025Y-66788131D01*
X87310000Y-66788919D01*
X87314976Y-66788131D01*
X87361942Y-66780692D01*
X87420912Y-66771352D01*
X87492601Y-66734825D01*
X87516585Y-66722605D01*
X87516586Y-66722604D01*
X87520967Y-66720372D01*
X87600372Y-66640967D01*
X87606973Y-66628013D01*
X87638840Y-66565468D01*
X87651352Y-66540912D01*
X87668919Y-66430000D01*
X87651352Y-66319088D01*
X87600372Y-66219033D01*
X87602866Y-66217762D01*
X87593848Y-66180236D01*
X87618834Y-66139444D01*
X87655581Y-66127500D01*
X87987747Y-66127500D01*
X88031941Y-66145806D01*
X88615243Y-66729109D01*
X88617338Y-66730606D01*
X88617339Y-66730607D01*
X88687426Y-66780692D01*
X88687428Y-66780693D01*
X88691626Y-66783693D01*
X88696570Y-66785172D01*
X88696571Y-66785172D01*
X88737954Y-66797548D01*
X88812032Y-66819702D01*
X88878349Y-66817096D01*
X88932451Y-66814971D01*
X88932453Y-66814971D01*
X88937610Y-66814768D01*
X88945150Y-66811851D01*
X89050006Y-66771286D01*
X89050009Y-66771284D01*
X89054820Y-66769423D01*
X89151022Y-66688556D01*
X89153684Y-66684134D01*
X89153686Y-66684132D01*
X89213179Y-66585314D01*
X89215843Y-66580889D01*
X89242295Y-66458029D01*
X89241137Y-66448241D01*
X89228130Y-66338354D01*
X89227523Y-66333225D01*
X89223070Y-66323952D01*
X89174825Y-66223480D01*
X89174824Y-66223478D01*
X89173122Y-66219934D01*
X89169550Y-66215684D01*
X88470133Y-65516267D01*
X88461821Y-65505975D01*
X88455877Y-65496769D01*
X88455876Y-65496768D01*
X88453072Y-65492425D01*
X88449013Y-65489225D01*
X88449011Y-65489223D01*
X88423931Y-65469452D01*
X88418430Y-65464564D01*
X88414757Y-65460891D01*
X88412665Y-65459396D01*
X88412659Y-65459391D01*
X88397922Y-65448860D01*
X88395589Y-65447108D01*
X88354377Y-65414620D01*
X88349499Y-65412907D01*
X88346079Y-65411027D01*
X88342577Y-65409312D01*
X88338373Y-65406307D01*
X88288100Y-65391273D01*
X88285299Y-65390362D01*
X88278328Y-65387914D01*
X88235801Y-65372979D01*
X88231883Y-65372640D01*
X88231880Y-65372639D01*
X88231734Y-65372627D01*
X88230270Y-65372500D01*
X88229969Y-65372500D01*
X88225927Y-65372158D01*
X88222914Y-65371777D01*
X88217967Y-65370298D01*
X88163145Y-65372452D01*
X88160691Y-65372500D01*
X86526953Y-65372500D01*
X86513798Y-65371100D01*
X86510991Y-65370496D01*
X86498029Y-65367705D01*
X86492900Y-65368312D01*
X86492897Y-65368312D01*
X86461175Y-65372067D01*
X86453829Y-65372500D01*
X86448638Y-65372500D01*
X86446091Y-65372924D01*
X86446090Y-65372924D01*
X86428233Y-65375896D01*
X86425318Y-65376311D01*
X86378351Y-65381870D01*
X86378350Y-65381870D01*
X86373224Y-65382477D01*
X86368568Y-65384712D01*
X86364825Y-65385800D01*
X86361131Y-65387065D01*
X86356030Y-65387914D01*
X86324685Y-65404827D01*
X86309838Y-65412838D01*
X86307213Y-65414175D01*
X86263480Y-65435175D01*
X86263479Y-65435176D01*
X86259934Y-65436878D01*
X86255684Y-65440450D01*
X86255463Y-65440671D01*
X86252368Y-65443283D01*
X86249977Y-65445137D01*
X86245428Y-65447592D01*
X86241919Y-65451388D01*
X86208189Y-65487877D01*
X86206488Y-65489646D01*
X85871940Y-65824194D01*
X85827746Y-65842500D01*
X85532254Y-65842500D01*
X85488060Y-65824194D01*
X83465806Y-63801940D01*
X83447500Y-63757746D01*
X83447500Y-62192186D01*
X84641018Y-62192186D01*
X84666579Y-62460100D01*
X84730547Y-62721518D01*
X84731393Y-62723606D01*
X84731395Y-62723613D01*
X84799718Y-62892292D01*
X84831583Y-62970963D01*
X84967569Y-63203210D01*
X85135658Y-63413395D01*
X85137312Y-63414940D01*
X85330666Y-63595562D01*
X85330671Y-63595566D01*
X85332327Y-63597113D01*
X85553457Y-63750516D01*
X85794416Y-63870391D01*
X85796570Y-63871097D01*
X85796577Y-63871100D01*
X85982240Y-63931963D01*
X86050156Y-63954227D01*
X86052375Y-63954612D01*
X86052378Y-63954613D01*
X86313435Y-63999940D01*
X86313437Y-63999940D01*
X86315319Y-64000267D01*
X86400348Y-64004500D01*
X86568374Y-64004500D01*
X86569501Y-64004418D01*
X86569507Y-64004418D01*
X86766166Y-63990149D01*
X86766167Y-63990149D01*
X86768425Y-63989985D01*
X87031226Y-63931963D01*
X87033344Y-63931161D01*
X87033346Y-63931160D01*
X87280783Y-63837415D01*
X87280782Y-63837415D01*
X87282900Y-63836613D01*
X87284877Y-63835515D01*
X87284881Y-63835513D01*
X87440226Y-63749226D01*
X87518172Y-63705931D01*
X87732116Y-63542654D01*
X87821493Y-63451226D01*
X87918668Y-63351821D01*
X87918672Y-63351816D01*
X87920249Y-63350203D01*
X88078630Y-63132610D01*
X88079683Y-63130609D01*
X88202885Y-62896441D01*
X88202887Y-62896436D01*
X88203941Y-62894433D01*
X88293557Y-62640662D01*
X88345601Y-62376611D01*
X88358982Y-62107814D01*
X88333421Y-61839900D01*
X88269453Y-61578482D01*
X88268607Y-61576394D01*
X88268605Y-61576387D01*
X88169263Y-61331126D01*
X88168417Y-61329037D01*
X88032431Y-61096790D01*
X87864342Y-60886605D01*
X87803458Y-60829730D01*
X87669334Y-60704438D01*
X87669329Y-60704434D01*
X87667673Y-60702887D01*
X87665768Y-60701565D01*
X87525305Y-60604123D01*
X87446543Y-60549484D01*
X87205584Y-60429609D01*
X87203430Y-60428903D01*
X87203423Y-60428900D01*
X87010062Y-60365514D01*
X86949844Y-60345773D01*
X86947625Y-60345388D01*
X86947622Y-60345387D01*
X86686565Y-60300060D01*
X86686563Y-60300060D01*
X86684681Y-60299733D01*
X86599652Y-60295500D01*
X86431626Y-60295500D01*
X86430499Y-60295582D01*
X86430493Y-60295582D01*
X86233834Y-60309851D01*
X86233833Y-60309851D01*
X86231575Y-60310015D01*
X85968774Y-60368037D01*
X85966656Y-60368839D01*
X85966654Y-60368840D01*
X85808128Y-60428900D01*
X85717100Y-60463387D01*
X85715123Y-60464485D01*
X85715119Y-60464487D01*
X85599464Y-60528728D01*
X85481828Y-60594069D01*
X85480032Y-60595440D01*
X85480030Y-60595441D01*
X85426795Y-60636069D01*
X85267884Y-60757346D01*
X85206163Y-60820484D01*
X85081332Y-60948179D01*
X85081328Y-60948184D01*
X85079751Y-60949797D01*
X84921370Y-61167390D01*
X84920318Y-61169389D01*
X84920317Y-61169391D01*
X84837348Y-61327090D01*
X84796059Y-61405567D01*
X84706443Y-61659338D01*
X84654399Y-61923389D01*
X84641018Y-62192186D01*
X83447500Y-62192186D01*
X83447500Y-61072253D01*
X83465806Y-61028059D01*
X84029379Y-60464487D01*
X84593731Y-59900135D01*
X84604023Y-59891823D01*
X84613235Y-59885875D01*
X84613238Y-59885873D01*
X84617575Y-59883072D01*
X84640548Y-59853931D01*
X84645436Y-59848430D01*
X84649109Y-59844757D01*
X84650610Y-59842657D01*
X84661130Y-59827937D01*
X84662896Y-59825584D01*
X84692183Y-59788432D01*
X84695380Y-59784377D01*
X84697091Y-59779506D01*
X84698969Y-59776090D01*
X84700691Y-59772575D01*
X84703693Y-59768374D01*
X84705172Y-59763430D01*
X84705173Y-59763427D01*
X84718729Y-59718096D01*
X84719640Y-59715294D01*
X84735716Y-59669516D01*
X84737021Y-59665801D01*
X84737500Y-59660270D01*
X84737500Y-59659969D01*
X84737842Y-59655928D01*
X84738223Y-59652915D01*
X84739702Y-59647968D01*
X84737548Y-59593145D01*
X84737500Y-59590692D01*
X84737500Y-57250000D01*
X85691081Y-57250000D01*
X85708648Y-57360912D01*
X85759628Y-57460967D01*
X85839033Y-57540372D01*
X85843414Y-57542604D01*
X85843415Y-57542605D01*
X85873923Y-57558149D01*
X85939088Y-57591352D01*
X86050000Y-57608919D01*
X86160912Y-57591352D01*
X86226077Y-57558149D01*
X86256585Y-57542605D01*
X86256586Y-57542604D01*
X86260967Y-57540372D01*
X86340372Y-57460967D01*
X86391352Y-57360912D01*
X86408919Y-57250000D01*
X86391352Y-57139088D01*
X86363641Y-57084702D01*
X86342605Y-57043415D01*
X86342604Y-57043414D01*
X86340372Y-57039033D01*
X86260967Y-56959628D01*
X86256586Y-56957396D01*
X86256585Y-56957395D01*
X86165298Y-56910883D01*
X86165299Y-56910883D01*
X86160912Y-56908648D01*
X86050000Y-56891081D01*
X85939088Y-56908648D01*
X85934701Y-56910883D01*
X85934702Y-56910883D01*
X85843415Y-56957395D01*
X85843414Y-56957396D01*
X85839033Y-56959628D01*
X85759628Y-57039033D01*
X85757396Y-57043414D01*
X85757395Y-57043415D01*
X85736359Y-57084702D01*
X85708648Y-57139088D01*
X85691081Y-57250000D01*
X84737500Y-57250000D01*
X84737500Y-56346952D01*
X84738900Y-56333797D01*
X84742295Y-56318029D01*
X84737933Y-56281173D01*
X84737500Y-56273828D01*
X84737500Y-56268638D01*
X84734103Y-56248228D01*
X84733691Y-56245332D01*
X84733369Y-56242605D01*
X84727524Y-56193225D01*
X84725287Y-56188568D01*
X84724203Y-56184837D01*
X84722935Y-56181132D01*
X84722086Y-56176030D01*
X84697163Y-56129840D01*
X84695831Y-56127225D01*
X84674826Y-56083482D01*
X84674825Y-56083480D01*
X84673122Y-56079934D01*
X84669550Y-56075684D01*
X84669329Y-56075463D01*
X84666717Y-56072368D01*
X84664863Y-56069977D01*
X84662408Y-56065428D01*
X84646604Y-56050819D01*
X84622123Y-56028189D01*
X84620354Y-56026488D01*
X84493866Y-55900000D01*
X87391081Y-55900000D01*
X87408648Y-56010912D01*
X87410883Y-56015298D01*
X87449114Y-56090331D01*
X87459628Y-56110967D01*
X87539033Y-56190372D01*
X87543414Y-56192604D01*
X87543415Y-56192605D01*
X87573923Y-56208149D01*
X87639088Y-56241352D01*
X87750000Y-56258919D01*
X87860912Y-56241352D01*
X87926077Y-56208149D01*
X87956585Y-56192605D01*
X87956586Y-56192604D01*
X87960967Y-56190372D01*
X88040372Y-56110967D01*
X88050887Y-56090331D01*
X88089117Y-56015298D01*
X88091352Y-56010912D01*
X88108919Y-55900000D01*
X88107948Y-55893866D01*
X88100241Y-55845211D01*
X88091352Y-55789088D01*
X88049850Y-55707634D01*
X88042605Y-55693415D01*
X88042604Y-55693414D01*
X88040372Y-55689033D01*
X87960967Y-55609628D01*
X87956586Y-55607396D01*
X87956585Y-55607395D01*
X87893274Y-55575137D01*
X87860912Y-55558648D01*
X87768827Y-55544063D01*
X87754862Y-55541851D01*
X87750000Y-55541081D01*
X87745138Y-55541851D01*
X87731173Y-55544063D01*
X87639088Y-55558648D01*
X87606726Y-55575137D01*
X87543415Y-55607395D01*
X87543414Y-55607396D01*
X87539033Y-55609628D01*
X87459628Y-55689033D01*
X87457396Y-55693414D01*
X87457395Y-55693415D01*
X87450150Y-55707634D01*
X87408648Y-55789088D01*
X87399759Y-55845211D01*
X87392053Y-55893866D01*
X87391081Y-55900000D01*
X84493866Y-55900000D01*
X82305806Y-53711940D01*
X82287500Y-53667746D01*
X82287500Y-48386438D01*
X82305806Y-48342244D01*
X82659379Y-47988672D01*
X82661202Y-47986849D01*
X82663096Y-47984199D01*
X82712785Y-47914666D01*
X82712786Y-47914664D01*
X82715786Y-47910466D01*
X82751795Y-47790059D01*
X82746861Y-47664482D01*
X82704912Y-47556050D01*
X82706039Y-47508229D01*
X82740651Y-47475210D01*
X82763202Y-47471000D01*
X83074997Y-47471000D01*
X83119191Y-47489306D01*
X89890694Y-54260809D01*
X89909000Y-54305003D01*
X89909000Y-55711523D01*
X89890694Y-55755717D01*
X89846500Y-55774023D01*
X89802306Y-55755717D01*
X89795997Y-55747032D01*
X89795497Y-55747396D01*
X89792605Y-55743415D01*
X89790372Y-55739033D01*
X89710967Y-55659628D01*
X89706586Y-55657396D01*
X89706585Y-55657395D01*
X89615298Y-55610883D01*
X89615299Y-55610883D01*
X89610912Y-55608648D01*
X89500000Y-55591081D01*
X89389088Y-55608648D01*
X89384701Y-55610883D01*
X89384702Y-55610883D01*
X89293415Y-55657395D01*
X89293414Y-55657396D01*
X89289033Y-55659628D01*
X89209628Y-55739033D01*
X89207396Y-55743414D01*
X89207395Y-55743415D01*
X89205552Y-55747032D01*
X89158648Y-55839088D01*
X89141081Y-55950000D01*
X89158648Y-56060912D01*
X89174796Y-56092605D01*
X89206187Y-56154213D01*
X89209628Y-56160967D01*
X89289033Y-56240372D01*
X89293414Y-56242604D01*
X89293415Y-56242605D01*
X89319799Y-56256048D01*
X89389088Y-56291352D01*
X89500000Y-56308919D01*
X89610912Y-56291352D01*
X89680201Y-56256048D01*
X89706585Y-56242605D01*
X89706586Y-56242604D01*
X89710967Y-56240372D01*
X89790372Y-56160967D01*
X89792605Y-56156585D01*
X89795497Y-56152604D01*
X89797712Y-56154213D01*
X89827174Y-56129040D01*
X89874863Y-56132783D01*
X89905937Y-56169151D01*
X89909000Y-56188477D01*
X89909000Y-58061523D01*
X89890694Y-58105717D01*
X89846500Y-58124023D01*
X89802306Y-58105717D01*
X89795997Y-58097032D01*
X89795497Y-58097396D01*
X89792605Y-58093415D01*
X89790372Y-58089033D01*
X89710967Y-58009628D01*
X89706586Y-58007396D01*
X89706585Y-58007395D01*
X89615298Y-57960883D01*
X89615299Y-57960883D01*
X89610912Y-57958648D01*
X89500000Y-57941081D01*
X89389088Y-57958648D01*
X89384701Y-57960883D01*
X89384702Y-57960883D01*
X89293415Y-58007395D01*
X89293414Y-58007396D01*
X89289033Y-58009628D01*
X89209628Y-58089033D01*
X89207396Y-58093414D01*
X89207395Y-58093415D01*
X89198480Y-58110912D01*
X89158648Y-58189088D01*
X89141081Y-58300000D01*
X89158648Y-58410912D01*
X89160883Y-58415298D01*
X89206187Y-58504213D01*
X89209628Y-58510967D01*
X89289033Y-58590372D01*
X89293414Y-58592604D01*
X89293415Y-58592605D01*
X89342333Y-58617530D01*
X89389088Y-58641352D01*
X89500000Y-58658919D01*
X89610912Y-58641352D01*
X89657667Y-58617530D01*
X89706585Y-58592605D01*
X89706586Y-58592604D01*
X89710967Y-58590372D01*
X89790372Y-58510967D01*
X89792605Y-58506585D01*
X89795497Y-58502604D01*
X89797712Y-58504213D01*
X89827174Y-58479040D01*
X89874863Y-58482783D01*
X89905937Y-58519151D01*
X89909000Y-58538477D01*
X89909000Y-67806773D01*
X89890694Y-67850967D01*
X89846500Y-67869273D01*
X89802306Y-67850967D01*
X89760967Y-67809628D01*
X89756586Y-67807396D01*
X89756585Y-67807395D01*
X89665298Y-67760883D01*
X89665299Y-67760883D01*
X89660912Y-67758648D01*
X89550000Y-67741081D01*
X89439088Y-67758648D01*
X89434701Y-67760883D01*
X89434702Y-67760883D01*
X89343415Y-67807395D01*
X89343414Y-67807396D01*
X89339033Y-67809628D01*
X89259628Y-67889033D01*
X89257396Y-67893414D01*
X89257395Y-67893415D01*
X89255204Y-67897716D01*
X89208648Y-67989088D01*
X89191081Y-68100000D01*
X89208648Y-68210912D01*
X89259628Y-68310967D01*
X89339033Y-68390372D01*
X89343412Y-68392603D01*
X89343413Y-68392604D01*
X89361262Y-68401698D01*
X89392328Y-68438073D01*
X89388575Y-68485761D01*
X89377081Y-68501580D01*
X89309628Y-68569033D01*
X89307396Y-68573414D01*
X89307395Y-68573415D01*
X89297205Y-68593415D01*
X89258648Y-68669088D01*
X89241081Y-68780000D01*
X89258648Y-68890912D01*
X89282470Y-68937667D01*
X89294300Y-68960883D01*
X89309628Y-68990967D01*
X89389033Y-69070372D01*
X89393414Y-69072604D01*
X89393415Y-69072605D01*
X89432668Y-69092605D01*
X89489088Y-69121352D01*
X89600000Y-69138919D01*
X89710912Y-69121352D01*
X89774342Y-69089033D01*
X89806583Y-69072606D01*
X89806584Y-69072605D01*
X89810967Y-69070372D01*
X89811449Y-69069890D01*
X89856279Y-69059129D01*
X89897065Y-69084124D01*
X89909000Y-69120859D01*
X89909000Y-69819141D01*
X89890694Y-69863335D01*
X89846500Y-69881641D01*
X89811661Y-69870322D01*
X89810967Y-69869628D01*
X89806584Y-69867395D01*
X89806583Y-69867394D01*
X89715298Y-69820883D01*
X89715299Y-69820883D01*
X89710912Y-69818648D01*
X89600000Y-69801081D01*
X89489088Y-69818648D01*
X89484701Y-69820883D01*
X89484702Y-69820883D01*
X89393415Y-69867395D01*
X89393414Y-69867396D01*
X89389033Y-69869628D01*
X89309628Y-69949033D01*
X89307396Y-69953414D01*
X89307395Y-69953415D01*
X89291000Y-69985593D01*
X89258648Y-70049088D01*
X89241081Y-70160000D01*
X89258648Y-70270912D01*
X89260883Y-70275298D01*
X89306297Y-70364429D01*
X89309628Y-70370967D01*
X89389033Y-70450372D01*
X89393414Y-70452604D01*
X89393415Y-70452605D01*
X89403949Y-70457972D01*
X89489088Y-70501352D01*
X89600000Y-70518919D01*
X89710912Y-70501352D01*
X89796051Y-70457972D01*
X89806583Y-70452606D01*
X89806584Y-70452605D01*
X89810967Y-70450372D01*
X89811449Y-70449890D01*
X89856279Y-70439129D01*
X89897065Y-70464124D01*
X89909000Y-70500859D01*
X89909000Y-70886774D01*
X89890694Y-70930968D01*
X89846500Y-70949274D01*
X89802306Y-70930968D01*
X89780967Y-70909629D01*
X89776586Y-70907397D01*
X89776585Y-70907396D01*
X89685298Y-70860884D01*
X89685299Y-70860884D01*
X89680912Y-70858649D01*
X89591378Y-70844468D01*
X89574862Y-70841852D01*
X89570000Y-70841082D01*
X89565138Y-70841852D01*
X89548622Y-70844468D01*
X89459088Y-70858649D01*
X89454701Y-70860884D01*
X89454702Y-70860884D01*
X89363415Y-70907396D01*
X89363414Y-70907397D01*
X89359033Y-70909629D01*
X89279628Y-70989034D01*
X89277396Y-70993415D01*
X89277395Y-70993416D01*
X89271565Y-71004859D01*
X89228648Y-71089089D01*
X89211081Y-71200001D01*
X89228648Y-71310913D01*
X89243019Y-71339118D01*
X89266549Y-71385298D01*
X89279628Y-71410968D01*
X89359033Y-71490373D01*
X89363414Y-71492605D01*
X89363415Y-71492606D01*
X89390851Y-71506585D01*
X89459088Y-71541353D01*
X89544379Y-71554862D01*
X89557209Y-71556894D01*
X89570000Y-71558920D01*
X89582792Y-71556894D01*
X89595621Y-71554862D01*
X89680912Y-71541353D01*
X89749149Y-71506585D01*
X89776585Y-71492606D01*
X89776586Y-71492605D01*
X89780967Y-71490373D01*
X89802306Y-71469034D01*
X89846500Y-71450728D01*
X89890694Y-71469034D01*
X89909000Y-71513228D01*
X89909000Y-72144997D01*
X89890694Y-72189191D01*
X89695513Y-72384372D01*
X89689439Y-72388677D01*
X89689895Y-72389250D01*
X89684387Y-72393631D01*
X89678042Y-72396678D01*
X89673646Y-72402175D01*
X89659582Y-72419761D01*
X89654965Y-72424920D01*
X89649716Y-72430169D01*
X89645943Y-72436172D01*
X89641838Y-72441948D01*
X89623617Y-72464733D01*
X89622040Y-72471593D01*
X89620222Y-72475353D01*
X89618844Y-72479289D01*
X89615098Y-72485248D01*
X89614307Y-72492242D01*
X89614307Y-72492243D01*
X89611821Y-72514236D01*
X89610629Y-72521213D01*
X89609000Y-72528297D01*
X89609000Y-72535671D01*
X89608604Y-72542692D01*
X89605309Y-72571838D01*
X89607630Y-72578483D01*
X89608414Y-72585477D01*
X89607736Y-72585553D01*
X89609000Y-72593005D01*
X89609000Y-73606768D01*
X89607750Y-73614107D01*
X89608477Y-73614190D01*
X89607680Y-73621181D01*
X89605348Y-73627822D01*
X89606126Y-73634815D01*
X89606126Y-73634816D01*
X89608617Y-73657197D01*
X89609000Y-73664110D01*
X89609000Y-73671533D01*
X89610581Y-73678465D01*
X89611757Y-73685418D01*
X89614986Y-73714429D01*
X89618719Y-73720393D01*
X89620094Y-73724341D01*
X89621903Y-73728100D01*
X89623468Y-73734959D01*
X89627853Y-73740461D01*
X89627853Y-73740462D01*
X89641648Y-73757773D01*
X89645744Y-73763559D01*
X89649596Y-73769711D01*
X89654809Y-73774924D01*
X89659494Y-73780168D01*
X89677775Y-73803109D01*
X89684114Y-73806167D01*
X89689615Y-73810558D01*
X89689189Y-73811092D01*
X89695353Y-73815468D01*
X90090694Y-74210809D01*
X90109000Y-74255003D01*
X90109000Y-74559654D01*
X90090694Y-74603848D01*
X90046500Y-74622154D01*
X90002306Y-74603848D01*
X89990812Y-74588028D01*
X89965196Y-74537753D01*
X89940372Y-74489033D01*
X89860967Y-74409628D01*
X89856586Y-74407396D01*
X89856585Y-74407395D01*
X89765298Y-74360883D01*
X89765299Y-74360883D01*
X89760912Y-74358648D01*
X89650000Y-74341081D01*
X89539088Y-74358648D01*
X89534701Y-74360883D01*
X89534702Y-74360883D01*
X89443415Y-74407395D01*
X89443414Y-74407396D01*
X89439033Y-74409628D01*
X89359628Y-74489033D01*
X89357396Y-74493414D01*
X89357395Y-74493415D01*
X89342083Y-74523468D01*
X89308648Y-74589088D01*
X89291081Y-74700000D01*
X89308648Y-74810912D01*
X89315855Y-74825056D01*
X89357395Y-74906584D01*
X89359628Y-74910967D01*
X89439033Y-74990372D01*
X89443414Y-74992604D01*
X89443415Y-74992605D01*
X89459719Y-75000912D01*
X89539088Y-75041352D01*
X89650000Y-75058919D01*
X89760912Y-75041352D01*
X89840281Y-75000912D01*
X89856585Y-74992605D01*
X89856586Y-74992604D01*
X89860967Y-74990372D01*
X89940372Y-74910967D01*
X89990812Y-74811972D01*
X90027186Y-74780905D01*
X90074874Y-74784658D01*
X90105941Y-74821032D01*
X90109000Y-74840346D01*
X90109000Y-75264227D01*
X90090694Y-75308421D01*
X90089647Y-75309315D01*
X90089033Y-75309628D01*
X90009628Y-75389033D01*
X90007396Y-75393414D01*
X90007395Y-75393415D01*
X89999454Y-75409000D01*
X89958648Y-75489088D01*
X89941081Y-75600000D01*
X89958648Y-75710912D01*
X89970632Y-75734432D01*
X89999650Y-75791383D01*
X90009628Y-75810967D01*
X90089033Y-75890372D01*
X90093414Y-75892604D01*
X90093415Y-75892605D01*
X90130454Y-75911477D01*
X90189088Y-75941352D01*
X90300000Y-75958919D01*
X90410912Y-75941352D01*
X90469546Y-75911477D01*
X90506585Y-75892605D01*
X90506586Y-75892604D01*
X90510967Y-75890372D01*
X90590372Y-75810967D01*
X90600351Y-75791383D01*
X90629368Y-75734432D01*
X90641352Y-75710912D01*
X90658919Y-75600000D01*
X90641352Y-75489088D01*
X90600546Y-75409000D01*
X90592605Y-75393415D01*
X90592604Y-75393414D01*
X90590372Y-75389033D01*
X90510967Y-75309628D01*
X90512599Y-75307996D01*
X90491769Y-75273999D01*
X90491000Y-75264227D01*
X90491000Y-74193234D01*
X90492253Y-74185893D01*
X90491524Y-74185810D01*
X90492321Y-74178819D01*
X90494653Y-74172178D01*
X90493708Y-74163681D01*
X90491383Y-74142794D01*
X90491000Y-74135881D01*
X90491000Y-74128467D01*
X90489421Y-74121544D01*
X90488245Y-74114591D01*
X90485015Y-74085571D01*
X90481281Y-74079607D01*
X90479910Y-74075670D01*
X90478097Y-74071904D01*
X90476532Y-74065041D01*
X90458354Y-74042229D01*
X90454260Y-74036446D01*
X90452284Y-74033290D01*
X90452279Y-74033284D01*
X90450404Y-74030289D01*
X90445191Y-74025076D01*
X90440506Y-74019832D01*
X90426612Y-74002396D01*
X90426611Y-74002396D01*
X90422225Y-73996891D01*
X90415886Y-73993833D01*
X90410385Y-73989442D01*
X90410811Y-73988908D01*
X90404647Y-73984532D01*
X90009306Y-73589191D01*
X89991000Y-73544997D01*
X89991000Y-73440859D01*
X90009306Y-73396665D01*
X90053500Y-73378359D01*
X90088339Y-73389678D01*
X90089033Y-73390372D01*
X90093416Y-73392605D01*
X90093417Y-73392606D01*
X90133651Y-73413106D01*
X90189088Y-73441352D01*
X90278622Y-73455533D01*
X90291944Y-73457643D01*
X90300000Y-73458919D01*
X90308057Y-73457643D01*
X90321378Y-73455533D01*
X90410912Y-73441352D01*
X90466349Y-73413106D01*
X90506585Y-73392605D01*
X90506586Y-73392604D01*
X90510967Y-73390372D01*
X90590372Y-73310967D01*
X90601229Y-73289660D01*
X90639117Y-73215298D01*
X90641352Y-73210912D01*
X90656631Y-73114445D01*
X90658149Y-73104862D01*
X90658919Y-73100000D01*
X90641352Y-72989088D01*
X90590372Y-72889033D01*
X90510967Y-72809628D01*
X90506586Y-72807396D01*
X90506585Y-72807395D01*
X90415298Y-72760883D01*
X90415299Y-72760883D01*
X90410912Y-72758648D01*
X90300000Y-72741081D01*
X90189088Y-72758648D01*
X90184701Y-72760883D01*
X90184702Y-72760883D01*
X90093417Y-72807394D01*
X90093416Y-72807395D01*
X90089033Y-72809628D01*
X90088551Y-72810110D01*
X90043721Y-72820871D01*
X90002935Y-72795876D01*
X89991000Y-72759141D01*
X89991000Y-72655003D01*
X90009306Y-72610809D01*
X90204485Y-72415629D01*
X90210560Y-72411322D01*
X90210105Y-72410750D01*
X90215613Y-72406369D01*
X90221958Y-72403322D01*
X90240422Y-72380234D01*
X90245039Y-72375075D01*
X90250283Y-72369831D01*
X90252145Y-72366868D01*
X90252151Y-72366861D01*
X90254058Y-72363826D01*
X90258163Y-72358050D01*
X90271987Y-72340764D01*
X90276383Y-72335267D01*
X90277960Y-72328409D01*
X90279780Y-72324644D01*
X90281158Y-72320708D01*
X90284902Y-72314752D01*
X90285692Y-72307761D01*
X90285694Y-72307756D01*
X90288180Y-72285763D01*
X90289373Y-72278778D01*
X90290208Y-72275146D01*
X90291000Y-72271703D01*
X90291000Y-72264323D01*
X90291396Y-72257303D01*
X90293899Y-72235158D01*
X90294690Y-72228162D01*
X90292369Y-72221516D01*
X90291585Y-72214522D01*
X90292264Y-72214446D01*
X90291000Y-72206996D01*
X90291000Y-54243232D01*
X90292250Y-54235893D01*
X90291523Y-54235810D01*
X90292320Y-54228819D01*
X90294652Y-54222178D01*
X90291383Y-54192800D01*
X90291000Y-54185888D01*
X90291000Y-54178467D01*
X90289423Y-54171552D01*
X90288242Y-54164569D01*
X90285793Y-54142562D01*
X90285015Y-54135571D01*
X90281282Y-54129608D01*
X90279912Y-54125675D01*
X90278098Y-54121905D01*
X90276532Y-54115041D01*
X90258354Y-54092229D01*
X90254260Y-54086446D01*
X90252284Y-54083290D01*
X90252279Y-54083284D01*
X90250404Y-54080289D01*
X90245191Y-54075076D01*
X90240506Y-54069832D01*
X90226612Y-54052396D01*
X90226611Y-54052396D01*
X90222225Y-54046891D01*
X90215886Y-54043833D01*
X90210385Y-54039442D01*
X90210811Y-54038908D01*
X90204647Y-54034532D01*
X83345628Y-47175513D01*
X83341323Y-47169439D01*
X83340750Y-47169895D01*
X83336369Y-47164387D01*
X83333322Y-47158042D01*
X83310239Y-47139582D01*
X83305080Y-47134965D01*
X83299831Y-47129716D01*
X83293828Y-47125943D01*
X83288052Y-47121838D01*
X83265267Y-47103617D01*
X83258407Y-47102040D01*
X83254647Y-47100222D01*
X83250711Y-47098844D01*
X83244752Y-47095098D01*
X83237758Y-47094307D01*
X83237757Y-47094307D01*
X83215764Y-47091821D01*
X83208787Y-47090629D01*
X83201703Y-47089000D01*
X83194329Y-47089000D01*
X83187308Y-47088604D01*
X83185627Y-47088414D01*
X83158162Y-47085309D01*
X83151517Y-47087630D01*
X83144523Y-47088414D01*
X83144447Y-47087736D01*
X83136995Y-47089000D01*
X82315773Y-47089000D01*
X82271579Y-47070694D01*
X82270685Y-47069647D01*
X82270372Y-47069033D01*
X82190967Y-46989628D01*
X82186586Y-46987396D01*
X82186585Y-46987395D01*
X82137667Y-46962470D01*
X82090912Y-46938648D01*
X81980000Y-46921081D01*
X81869088Y-46938648D01*
X81822333Y-46962470D01*
X81773415Y-46987395D01*
X81773414Y-46987396D01*
X81769033Y-46989628D01*
X81689628Y-47069033D01*
X81687396Y-47073414D01*
X81687395Y-47073415D01*
X81673293Y-47101093D01*
X81638648Y-47169088D01*
X81621081Y-47280000D01*
X81638648Y-47390912D01*
X81689628Y-47490967D01*
X81769033Y-47570372D01*
X81773416Y-47572605D01*
X81773417Y-47572606D01*
X81785664Y-47578846D01*
X81816732Y-47615219D01*
X81812979Y-47662907D01*
X81772360Y-47695190D01*
X81763020Y-47697510D01*
X81763014Y-47697512D01*
X81758004Y-47698757D01*
X81652425Y-47766928D01*
X81649225Y-47770987D01*
X81649223Y-47770989D01*
X81591838Y-47843782D01*
X81574620Y-47865623D01*
X81532979Y-47984199D01*
X81532500Y-47989730D01*
X81532500Y-48141619D01*
X81532007Y-48149451D01*
X81531777Y-48151273D01*
X81530298Y-48156218D01*
X81530501Y-48161376D01*
X81532452Y-48211040D01*
X81532500Y-48213494D01*
X81532500Y-53803048D01*
X81531100Y-53816201D01*
X81527705Y-53831971D01*
X81528312Y-53837101D01*
X81528312Y-53837103D01*
X81532067Y-53868826D01*
X81532500Y-53876172D01*
X81532500Y-53881362D01*
X81532924Y-53883907D01*
X81535894Y-53901752D01*
X81536307Y-53904655D01*
X81542476Y-53956775D01*
X81544713Y-53961432D01*
X81545797Y-53965163D01*
X81547065Y-53968868D01*
X81547914Y-53973970D01*
X81550368Y-53978518D01*
X81572832Y-54020150D01*
X81574169Y-54022775D01*
X81595175Y-54066521D01*
X81595178Y-54066525D01*
X81596878Y-54070066D01*
X81600450Y-54074315D01*
X81600662Y-54074527D01*
X81603279Y-54077628D01*
X81605140Y-54080028D01*
X81607592Y-54084572D01*
X81611381Y-54088075D01*
X81611383Y-54088077D01*
X81647902Y-54121835D01*
X81649670Y-54123536D01*
X83842111Y-56315977D01*
X83860417Y-56360171D01*
X83842111Y-56404365D01*
X83797917Y-56422671D01*
X83762503Y-56411164D01*
X83760967Y-56409628D01*
X83660912Y-56358648D01*
X83550000Y-56341081D01*
X83439088Y-56358648D01*
X83392333Y-56382470D01*
X83343415Y-56407395D01*
X83343414Y-56407396D01*
X83339033Y-56409628D01*
X83259628Y-56489033D01*
X83257996Y-56487401D01*
X83223999Y-56508231D01*
X83214227Y-56509000D01*
X81255003Y-56509000D01*
X81210809Y-56490694D01*
X80570115Y-55850000D01*
X82241081Y-55850000D01*
X82258648Y-55960912D01*
X82260883Y-55965298D01*
X82307122Y-56056048D01*
X82309628Y-56060967D01*
X82389033Y-56140372D01*
X82393414Y-56142604D01*
X82393415Y-56142605D01*
X82425434Y-56158919D01*
X82489088Y-56191352D01*
X82600000Y-56208919D01*
X82710912Y-56191352D01*
X82774566Y-56158919D01*
X82806585Y-56142605D01*
X82806586Y-56142604D01*
X82810967Y-56140372D01*
X82890372Y-56060967D01*
X82892879Y-56056048D01*
X82939117Y-55965298D01*
X82941352Y-55960912D01*
X82958919Y-55850000D01*
X82941352Y-55739088D01*
X82890372Y-55639033D01*
X82810967Y-55559628D01*
X82806586Y-55557396D01*
X82806585Y-55557395D01*
X82753150Y-55530169D01*
X82710912Y-55508648D01*
X82621378Y-55494467D01*
X82604862Y-55491851D01*
X82600000Y-55491081D01*
X82595138Y-55491851D01*
X82578622Y-55494467D01*
X82489088Y-55508648D01*
X82446850Y-55530169D01*
X82393415Y-55557395D01*
X82393414Y-55557396D01*
X82389033Y-55559628D01*
X82309628Y-55639033D01*
X82258648Y-55739088D01*
X82241081Y-55850000D01*
X80570115Y-55850000D01*
X79565628Y-54845513D01*
X79561323Y-54839439D01*
X79560750Y-54839895D01*
X79556369Y-54834387D01*
X79553322Y-54828042D01*
X79530239Y-54809582D01*
X79525080Y-54804965D01*
X79519831Y-54799716D01*
X79513828Y-54795943D01*
X79508052Y-54791838D01*
X79485267Y-54773617D01*
X79478407Y-54772040D01*
X79474647Y-54770222D01*
X79470711Y-54768844D01*
X79464752Y-54765098D01*
X79457758Y-54764307D01*
X79457757Y-54764307D01*
X79435764Y-54761821D01*
X79428787Y-54760629D01*
X79421703Y-54759000D01*
X79414329Y-54759000D01*
X79407308Y-54758604D01*
X79378162Y-54755309D01*
X79371517Y-54757630D01*
X79364523Y-54758414D01*
X79364447Y-54757736D01*
X79356995Y-54759000D01*
X72093232Y-54759000D01*
X72085893Y-54757750D01*
X72085810Y-54758477D01*
X72078819Y-54757680D01*
X72072178Y-54755348D01*
X72065185Y-54756126D01*
X72065184Y-54756126D01*
X72045231Y-54758347D01*
X72042920Y-54758604D01*
X72042803Y-54758617D01*
X72035890Y-54759000D01*
X72028467Y-54759000D01*
X72021535Y-54760581D01*
X72014582Y-54761757D01*
X71985571Y-54764986D01*
X71979607Y-54768719D01*
X71975659Y-54770094D01*
X71971900Y-54771903D01*
X71965041Y-54773468D01*
X71959539Y-54777853D01*
X71959538Y-54777853D01*
X71942227Y-54791648D01*
X71936441Y-54795744D01*
X71933285Y-54797720D01*
X71930289Y-54799596D01*
X71925076Y-54804809D01*
X71919832Y-54809494D01*
X71896891Y-54827775D01*
X71893833Y-54834114D01*
X71889442Y-54839615D01*
X71888908Y-54839189D01*
X71884532Y-54845353D01*
X71287194Y-55442691D01*
X71243000Y-55460997D01*
X71198806Y-55442691D01*
X71180500Y-55398497D01*
X71180500Y-46600000D01*
X79431081Y-46600000D01*
X79448648Y-46710912D01*
X79499628Y-46810967D01*
X79579033Y-46890372D01*
X79583414Y-46892604D01*
X79583415Y-46892605D01*
X79632333Y-46917530D01*
X79679088Y-46941352D01*
X79790000Y-46958919D01*
X79900912Y-46941352D01*
X79947667Y-46917530D01*
X79996585Y-46892605D01*
X79996586Y-46892604D01*
X80000967Y-46890372D01*
X80010806Y-46880533D01*
X80055000Y-46862227D01*
X80099194Y-46880533D01*
X80109033Y-46890372D01*
X80113414Y-46892604D01*
X80113415Y-46892605D01*
X80162333Y-46917530D01*
X80209088Y-46941352D01*
X80320000Y-46958919D01*
X80430912Y-46941352D01*
X80477667Y-46917530D01*
X80526585Y-46892605D01*
X80526586Y-46892604D01*
X80530967Y-46890372D01*
X80610372Y-46810967D01*
X80661352Y-46710912D01*
X80678919Y-46600000D01*
X80661352Y-46489088D01*
X80610372Y-46389033D01*
X80530967Y-46309628D01*
X80526586Y-46307396D01*
X80526585Y-46307395D01*
X80435298Y-46260883D01*
X80435299Y-46260883D01*
X80430912Y-46258648D01*
X80320000Y-46241081D01*
X80209088Y-46258648D01*
X80204701Y-46260883D01*
X80204702Y-46260883D01*
X80113415Y-46307395D01*
X80113414Y-46307396D01*
X80109033Y-46309628D01*
X80099194Y-46319467D01*
X80055000Y-46337773D01*
X80010806Y-46319467D01*
X80000967Y-46309628D01*
X79996586Y-46307396D01*
X79996585Y-46307395D01*
X79905298Y-46260883D01*
X79905299Y-46260883D01*
X79900912Y-46258648D01*
X79790000Y-46241081D01*
X79679088Y-46258648D01*
X79674701Y-46260883D01*
X79674702Y-46260883D01*
X79583415Y-46307395D01*
X79583414Y-46307396D01*
X79579033Y-46309628D01*
X79499628Y-46389033D01*
X79448648Y-46489088D01*
X79431081Y-46600000D01*
X71180500Y-46600000D01*
X71180500Y-44078965D01*
X71198806Y-44034771D01*
X71243000Y-44016465D01*
X71287194Y-44034771D01*
X71298286Y-44049816D01*
X71307424Y-44067148D01*
X71423894Y-44204971D01*
X71426582Y-44207026D01*
X71426583Y-44207027D01*
X71505238Y-44267163D01*
X71567242Y-44314569D01*
X71730780Y-44390828D01*
X71734080Y-44391566D01*
X71734081Y-44391566D01*
X71838158Y-44414830D01*
X71906879Y-44430191D01*
X71910218Y-44430378D01*
X71911542Y-44430452D01*
X71911553Y-44430452D01*
X71912406Y-44430500D01*
X72045077Y-44430500D01*
X72145871Y-44419550D01*
X72176021Y-44416275D01*
X72176022Y-44416275D01*
X72179389Y-44415909D01*
X72182594Y-44414830D01*
X72182596Y-44414830D01*
X72268012Y-44386084D01*
X72350409Y-44358355D01*
X72505080Y-44265419D01*
X72636187Y-44141437D01*
X72737612Y-43992195D01*
X72804623Y-43824655D01*
X72834094Y-43646633D01*
X72824651Y-43466436D01*
X72776732Y-43292470D01*
X72775154Y-43289477D01*
X72775152Y-43289472D01*
X72694155Y-43135847D01*
X72692576Y-43132852D01*
X72576106Y-42995029D01*
X72497044Y-42934581D01*
X72435442Y-42887483D01*
X72432758Y-42885431D01*
X72398903Y-42869644D01*
X72366586Y-42834376D01*
X72368673Y-42786586D01*
X72403941Y-42754269D01*
X72425317Y-42750500D01*
X90837000Y-42750500D01*
X90881194Y-42768806D01*
G37*
%TD.AperFunction*%
%TD*%
M02*
