%TF.GenerationSoftware,KiCad,Pcbnew,(6.0.9)*%
%TF.CreationDate,2022-12-23T14:34:15+01:00*%
%TF.ProjectId,Gigaset-Debug-Adapter,47696761-7365-4742-9d44-656275672d41,rev?*%
%TF.SameCoordinates,Original*%
%TF.FileFunction,Legend,Top*%
%TF.FilePolarity,Positive*%
%FSLAX46Y46*%
G04 Gerber Fmt 4.6, Leading zero omitted, Abs format (unit mm)*
G04 Created by KiCad (PCBNEW (6.0.9)) date 2022-12-23 14:34:15*
%MOMM*%
%LPD*%
G01*
G04 APERTURE LIST*
%ADD10C,0.175000*%
%ADD11C,0.150000*%
%ADD12C,0.200000*%
%ADD13C,0.120000*%
G04 APERTURE END LIST*
D10*
X78887500Y-69700000D02*
G75*
G03*
X78887500Y-69700000I-87500J0D01*
G01*
X76587500Y-71400000D02*
G75*
G03*
X76587500Y-71400000I-87500J0D01*
G01*
X77887500Y-74100000D02*
G75*
G03*
X77887500Y-74100000I-87500J0D01*
G01*
D11*
X77833333Y-79952380D02*
X77500000Y-79476190D01*
X77261904Y-79952380D02*
X77261904Y-78952380D01*
X77642857Y-78952380D01*
X77738095Y-79000000D01*
X77785714Y-79047619D01*
X77833333Y-79142857D01*
X77833333Y-79285714D01*
X77785714Y-79380952D01*
X77738095Y-79428571D01*
X77642857Y-79476190D01*
X77261904Y-79476190D01*
X78166666Y-78952380D02*
X78833333Y-79952380D01*
X78833333Y-78952380D02*
X78166666Y-79952380D01*
X81838095Y-78952380D02*
X82409523Y-78952380D01*
X82123809Y-79952380D02*
X82123809Y-78952380D01*
X82647619Y-78952380D02*
X83314285Y-79952380D01*
X83314285Y-78952380D02*
X82647619Y-79952380D01*
X73171428Y-53752380D02*
X73171428Y-52752380D01*
X73171428Y-53133333D02*
X73266666Y-53085714D01*
X73457142Y-53085714D01*
X73552380Y-53133333D01*
X73600000Y-53180952D01*
X73647619Y-53276190D01*
X73647619Y-53561904D01*
X73600000Y-53657142D01*
X73552380Y-53704761D01*
X73457142Y-53752380D01*
X73266666Y-53752380D01*
X73171428Y-53704761D01*
X73980952Y-53085714D02*
X74219047Y-53752380D01*
X74457142Y-53085714D02*
X74219047Y-53752380D01*
X74123809Y-53990476D01*
X74076190Y-54038095D01*
X73980952Y-54085714D01*
X75457142Y-53085714D02*
X75838095Y-53085714D01*
X75600000Y-52752380D02*
X75600000Y-53609523D01*
X75647619Y-53704761D01*
X75742857Y-53752380D01*
X75838095Y-53752380D01*
X76123809Y-53704761D02*
X76266666Y-53752380D01*
X76504761Y-53752380D01*
X76600000Y-53704761D01*
X76647619Y-53657142D01*
X76695238Y-53561904D01*
X76695238Y-53466666D01*
X76647619Y-53371428D01*
X76600000Y-53323809D01*
X76504761Y-53276190D01*
X76314285Y-53228571D01*
X76219047Y-53180952D01*
X76171428Y-53133333D01*
X76123809Y-53038095D01*
X76123809Y-52942857D01*
X76171428Y-52847619D01*
X76219047Y-52800000D01*
X76314285Y-52752380D01*
X76552380Y-52752380D01*
X76695238Y-52800000D01*
X77314285Y-53276190D02*
X77314285Y-53752380D01*
X76980952Y-52752380D02*
X77314285Y-53276190D01*
X77647619Y-52752380D01*
X77933333Y-53704761D02*
X78076190Y-53752380D01*
X78314285Y-53752380D01*
X78409523Y-53704761D01*
X78457142Y-53657142D01*
X78504761Y-53561904D01*
X78504761Y-53466666D01*
X78457142Y-53371428D01*
X78409523Y-53323809D01*
X78314285Y-53276190D01*
X78123809Y-53228571D01*
X78028571Y-53180952D01*
X77980952Y-53133333D01*
X77933333Y-53038095D01*
X77933333Y-52942857D01*
X77980952Y-52847619D01*
X78028571Y-52800000D01*
X78123809Y-52752380D01*
X78361904Y-52752380D01*
X78504761Y-52800000D01*
X80504761Y-53752380D02*
X80457142Y-53752380D01*
X80361904Y-53704761D01*
X80219047Y-53561904D01*
X79980952Y-53276190D01*
X79885714Y-53133333D01*
X79838095Y-52990476D01*
X79838095Y-52895238D01*
X79885714Y-52800000D01*
X79980952Y-52752380D01*
X80028571Y-52752380D01*
X80123809Y-52800000D01*
X80171428Y-52895238D01*
X80171428Y-52942857D01*
X80123809Y-53038095D01*
X80076190Y-53085714D01*
X79790476Y-53276190D01*
X79742857Y-53323809D01*
X79695238Y-53419047D01*
X79695238Y-53561904D01*
X79742857Y-53657142D01*
X79790476Y-53704761D01*
X79885714Y-53752380D01*
X80028571Y-53752380D01*
X80123809Y-53704761D01*
X80171428Y-53657142D01*
X80314285Y-53466666D01*
X80361904Y-53323809D01*
X80361904Y-53228571D01*
X81695238Y-53752380D02*
X81695238Y-53085714D01*
X81695238Y-53180952D02*
X81742857Y-53133333D01*
X81838095Y-53085714D01*
X81980952Y-53085714D01*
X82076190Y-53133333D01*
X82123809Y-53228571D01*
X82123809Y-53752380D01*
X82123809Y-53228571D02*
X82171428Y-53133333D01*
X82266666Y-53085714D01*
X82409523Y-53085714D01*
X82504761Y-53133333D01*
X82552380Y-53228571D01*
X82552380Y-53752380D01*
X83457142Y-53752380D02*
X83457142Y-53228571D01*
X83409523Y-53133333D01*
X83314285Y-53085714D01*
X83123809Y-53085714D01*
X83028571Y-53133333D01*
X83457142Y-53704761D02*
X83361904Y-53752380D01*
X83123809Y-53752380D01*
X83028571Y-53704761D01*
X82980952Y-53609523D01*
X82980952Y-53514285D01*
X83028571Y-53419047D01*
X83123809Y-53371428D01*
X83361904Y-53371428D01*
X83457142Y-53323809D01*
X83933333Y-53085714D02*
X83933333Y-53752380D01*
X83933333Y-53180952D02*
X83980952Y-53133333D01*
X84076190Y-53085714D01*
X84219047Y-53085714D01*
X84314285Y-53133333D01*
X84361904Y-53228571D01*
X84361904Y-53752380D01*
X85266666Y-53752380D02*
X85266666Y-53228571D01*
X85219047Y-53133333D01*
X85123809Y-53085714D01*
X84933333Y-53085714D01*
X84838095Y-53133333D01*
X85266666Y-53704761D02*
X85171428Y-53752380D01*
X84933333Y-53752380D01*
X84838095Y-53704761D01*
X84790476Y-53609523D01*
X84790476Y-53514285D01*
X84838095Y-53419047D01*
X84933333Y-53371428D01*
X85171428Y-53371428D01*
X85266666Y-53323809D01*
X85647619Y-53085714D02*
X85838095Y-53752380D01*
X86028571Y-53276190D01*
X86219047Y-53752380D01*
X86409523Y-53085714D01*
X86695238Y-53085714D02*
X86933333Y-53752380D01*
X87171428Y-53085714D02*
X86933333Y-53752380D01*
X86838095Y-53990476D01*
X86790476Y-54038095D01*
X86695238Y-54085714D01*
X87552380Y-53752380D02*
X87552380Y-53085714D01*
X87552380Y-53276190D02*
X87600000Y-53180952D01*
X87647619Y-53133333D01*
X87742857Y-53085714D01*
X87838095Y-53085714D01*
X88171428Y-53752380D02*
X88171428Y-53085714D01*
X88171428Y-53180952D02*
X88219047Y-53133333D01*
X88314285Y-53085714D01*
X88457142Y-53085714D01*
X88552380Y-53133333D01*
X88600000Y-53228571D01*
X88600000Y-53752380D01*
X88600000Y-53228571D02*
X88647619Y-53133333D01*
X88742857Y-53085714D01*
X88885714Y-53085714D01*
X88980952Y-53133333D01*
X89028571Y-53228571D01*
X89028571Y-53752380D01*
X85766666Y-79952380D02*
X85766666Y-78952380D01*
X86147619Y-78952380D01*
X86242857Y-79000000D01*
X86290476Y-79047619D01*
X86338095Y-79142857D01*
X86338095Y-79285714D01*
X86290476Y-79380952D01*
X86242857Y-79428571D01*
X86147619Y-79476190D01*
X85766666Y-79476190D01*
X86671428Y-78952380D02*
X86909523Y-79952380D01*
X87100000Y-79238095D01*
X87290476Y-79952380D01*
X87528571Y-78952380D01*
X88480952Y-79952380D02*
X88147619Y-79476190D01*
X87909523Y-79952380D02*
X87909523Y-78952380D01*
X88290476Y-78952380D01*
X88385714Y-79000000D01*
X88433333Y-79047619D01*
X88480952Y-79142857D01*
X88480952Y-79285714D01*
X88433333Y-79380952D01*
X88385714Y-79428571D01*
X88290476Y-79476190D01*
X87909523Y-79476190D01*
X71666666Y-78952380D02*
X72000000Y-79952380D01*
X72333333Y-78952380D01*
X72666666Y-78952380D02*
X72666666Y-79761904D01*
X72714285Y-79857142D01*
X72761904Y-79904761D01*
X72857142Y-79952380D01*
X73047619Y-79952380D01*
X73142857Y-79904761D01*
X73190476Y-79857142D01*
X73238095Y-79761904D01*
X73238095Y-78952380D01*
X73666666Y-79904761D02*
X73809523Y-79952380D01*
X74047619Y-79952380D01*
X74142857Y-79904761D01*
X74190476Y-79857142D01*
X74238095Y-79761904D01*
X74238095Y-79666666D01*
X74190476Y-79571428D01*
X74142857Y-79523809D01*
X74047619Y-79476190D01*
X73857142Y-79428571D01*
X73761904Y-79380952D01*
X73714285Y-79333333D01*
X73666666Y-79238095D01*
X73666666Y-79142857D01*
X73714285Y-79047619D01*
X73761904Y-79000000D01*
X73857142Y-78952380D01*
X74095238Y-78952380D01*
X74238095Y-79000000D01*
X75000000Y-79428571D02*
X75142857Y-79476190D01*
X75190476Y-79523809D01*
X75238095Y-79619047D01*
X75238095Y-79761904D01*
X75190476Y-79857142D01*
X75142857Y-79904761D01*
X75047619Y-79952380D01*
X74666666Y-79952380D01*
X74666666Y-78952380D01*
X75000000Y-78952380D01*
X75095238Y-79000000D01*
X75142857Y-79047619D01*
X75190476Y-79142857D01*
X75190476Y-79238095D01*
X75142857Y-79333333D01*
X75095238Y-79380952D01*
X75000000Y-79428571D01*
X74666666Y-79428571D01*
D12*
X72357142Y-50950000D02*
X72252380Y-50897619D01*
X72095238Y-50897619D01*
X71938095Y-50950000D01*
X71833333Y-51054761D01*
X71780952Y-51159523D01*
X71728571Y-51369047D01*
X71728571Y-51526190D01*
X71780952Y-51735714D01*
X71833333Y-51840476D01*
X71938095Y-51945238D01*
X72095238Y-51997619D01*
X72200000Y-51997619D01*
X72357142Y-51945238D01*
X72409523Y-51892857D01*
X72409523Y-51526190D01*
X72200000Y-51526190D01*
X72880952Y-51997619D02*
X72880952Y-51264285D01*
X72880952Y-50897619D02*
X72828571Y-50950000D01*
X72880952Y-51002380D01*
X72933333Y-50950000D01*
X72880952Y-50897619D01*
X72880952Y-51002380D01*
X73876190Y-51264285D02*
X73876190Y-52154761D01*
X73823809Y-52259523D01*
X73771428Y-52311904D01*
X73666666Y-52364285D01*
X73509523Y-52364285D01*
X73404761Y-52311904D01*
X73876190Y-51945238D02*
X73771428Y-51997619D01*
X73561904Y-51997619D01*
X73457142Y-51945238D01*
X73404761Y-51892857D01*
X73352380Y-51788095D01*
X73352380Y-51473809D01*
X73404761Y-51369047D01*
X73457142Y-51316666D01*
X73561904Y-51264285D01*
X73771428Y-51264285D01*
X73876190Y-51316666D01*
X74871428Y-51997619D02*
X74871428Y-51421428D01*
X74819047Y-51316666D01*
X74714285Y-51264285D01*
X74504761Y-51264285D01*
X74400000Y-51316666D01*
X74871428Y-51945238D02*
X74766666Y-51997619D01*
X74504761Y-51997619D01*
X74400000Y-51945238D01*
X74347619Y-51840476D01*
X74347619Y-51735714D01*
X74400000Y-51630952D01*
X74504761Y-51578571D01*
X74766666Y-51578571D01*
X74871428Y-51526190D01*
X75342857Y-51945238D02*
X75447619Y-51997619D01*
X75657142Y-51997619D01*
X75761904Y-51945238D01*
X75814285Y-51840476D01*
X75814285Y-51788095D01*
X75761904Y-51683333D01*
X75657142Y-51630952D01*
X75500000Y-51630952D01*
X75395238Y-51578571D01*
X75342857Y-51473809D01*
X75342857Y-51421428D01*
X75395238Y-51316666D01*
X75500000Y-51264285D01*
X75657142Y-51264285D01*
X75761904Y-51316666D01*
X76704761Y-51945238D02*
X76600000Y-51997619D01*
X76390476Y-51997619D01*
X76285714Y-51945238D01*
X76233333Y-51840476D01*
X76233333Y-51421428D01*
X76285714Y-51316666D01*
X76390476Y-51264285D01*
X76600000Y-51264285D01*
X76704761Y-51316666D01*
X76757142Y-51421428D01*
X76757142Y-51526190D01*
X76233333Y-51630952D01*
X77071428Y-51264285D02*
X77490476Y-51264285D01*
X77228571Y-50897619D02*
X77228571Y-51840476D01*
X77280952Y-51945238D01*
X77385714Y-51997619D01*
X77490476Y-51997619D01*
X78695238Y-51997619D02*
X78695238Y-50897619D01*
X78957142Y-50897619D01*
X79114285Y-50950000D01*
X79219047Y-51054761D01*
X79271428Y-51159523D01*
X79323809Y-51369047D01*
X79323809Y-51526190D01*
X79271428Y-51735714D01*
X79219047Y-51840476D01*
X79114285Y-51945238D01*
X78957142Y-51997619D01*
X78695238Y-51997619D01*
X80214285Y-51945238D02*
X80109523Y-51997619D01*
X79900000Y-51997619D01*
X79795238Y-51945238D01*
X79742857Y-51840476D01*
X79742857Y-51421428D01*
X79795238Y-51316666D01*
X79900000Y-51264285D01*
X80109523Y-51264285D01*
X80214285Y-51316666D01*
X80266666Y-51421428D01*
X80266666Y-51526190D01*
X79742857Y-51630952D01*
X80738095Y-51997619D02*
X80738095Y-50897619D01*
X80738095Y-51316666D02*
X80842857Y-51264285D01*
X81052380Y-51264285D01*
X81157142Y-51316666D01*
X81209523Y-51369047D01*
X81261904Y-51473809D01*
X81261904Y-51788095D01*
X81209523Y-51892857D01*
X81157142Y-51945238D01*
X81052380Y-51997619D01*
X80842857Y-51997619D01*
X80738095Y-51945238D01*
X82204761Y-51264285D02*
X82204761Y-51997619D01*
X81733333Y-51264285D02*
X81733333Y-51840476D01*
X81785714Y-51945238D01*
X81890476Y-51997619D01*
X82047619Y-51997619D01*
X82152380Y-51945238D01*
X82204761Y-51892857D01*
X83200000Y-51264285D02*
X83200000Y-52154761D01*
X83147619Y-52259523D01*
X83095238Y-52311904D01*
X82990476Y-52364285D01*
X82833333Y-52364285D01*
X82728571Y-52311904D01*
X83200000Y-51945238D02*
X83095238Y-51997619D01*
X82885714Y-51997619D01*
X82780952Y-51945238D01*
X82728571Y-51892857D01*
X82676190Y-51788095D01*
X82676190Y-51473809D01*
X82728571Y-51369047D01*
X82780952Y-51316666D01*
X82885714Y-51264285D01*
X83095238Y-51264285D01*
X83200000Y-51316666D01*
X84509523Y-51683333D02*
X85033333Y-51683333D01*
X84404761Y-51997619D02*
X84771428Y-50897619D01*
X85138095Y-51997619D01*
X85976190Y-51997619D02*
X85976190Y-50897619D01*
X85976190Y-51945238D02*
X85871428Y-51997619D01*
X85661904Y-51997619D01*
X85557142Y-51945238D01*
X85504761Y-51892857D01*
X85452380Y-51788095D01*
X85452380Y-51473809D01*
X85504761Y-51369047D01*
X85557142Y-51316666D01*
X85661904Y-51264285D01*
X85871428Y-51264285D01*
X85976190Y-51316666D01*
X86971428Y-51997619D02*
X86971428Y-51421428D01*
X86919047Y-51316666D01*
X86814285Y-51264285D01*
X86604761Y-51264285D01*
X86500000Y-51316666D01*
X86971428Y-51945238D02*
X86866666Y-51997619D01*
X86604761Y-51997619D01*
X86500000Y-51945238D01*
X86447619Y-51840476D01*
X86447619Y-51735714D01*
X86500000Y-51630952D01*
X86604761Y-51578571D01*
X86866666Y-51578571D01*
X86971428Y-51526190D01*
X87495238Y-51264285D02*
X87495238Y-52364285D01*
X87495238Y-51316666D02*
X87600000Y-51264285D01*
X87809523Y-51264285D01*
X87914285Y-51316666D01*
X87966666Y-51369047D01*
X88019047Y-51473809D01*
X88019047Y-51788095D01*
X87966666Y-51892857D01*
X87914285Y-51945238D01*
X87809523Y-51997619D01*
X87600000Y-51997619D01*
X87495238Y-51945238D01*
X88333333Y-51264285D02*
X88752380Y-51264285D01*
X88490476Y-50897619D02*
X88490476Y-51840476D01*
X88542857Y-51945238D01*
X88647619Y-51997619D01*
X88752380Y-51997619D01*
X89538095Y-51945238D02*
X89433333Y-51997619D01*
X89223809Y-51997619D01*
X89119047Y-51945238D01*
X89066666Y-51840476D01*
X89066666Y-51421428D01*
X89119047Y-51316666D01*
X89223809Y-51264285D01*
X89433333Y-51264285D01*
X89538095Y-51316666D01*
X89590476Y-51421428D01*
X89590476Y-51526190D01*
X89066666Y-51630952D01*
X90061904Y-51997619D02*
X90061904Y-51264285D01*
X90061904Y-51473809D02*
X90114285Y-51369047D01*
X90166666Y-51316666D01*
X90271428Y-51264285D01*
X90376190Y-51264285D01*
D11*
X79619047Y-60152380D02*
X79285714Y-59676190D01*
X79047619Y-60152380D02*
X79047619Y-59152380D01*
X79428571Y-59152380D01*
X79523809Y-59200000D01*
X79571428Y-59247619D01*
X79619047Y-59342857D01*
X79619047Y-59485714D01*
X79571428Y-59580952D01*
X79523809Y-59628571D01*
X79428571Y-59676190D01*
X79047619Y-59676190D01*
X80428571Y-60104761D02*
X80333333Y-60152380D01*
X80142857Y-60152380D01*
X80047619Y-60104761D01*
X80000000Y-60009523D01*
X80000000Y-59628571D01*
X80047619Y-59533333D01*
X80142857Y-59485714D01*
X80333333Y-59485714D01*
X80428571Y-59533333D01*
X80476190Y-59628571D01*
X80476190Y-59723809D01*
X80000000Y-59819047D01*
X80809523Y-59485714D02*
X81047619Y-60152380D01*
X81285714Y-59485714D01*
X82761904Y-59628571D02*
X82904761Y-59676190D01*
X82952380Y-59723809D01*
X83000000Y-59819047D01*
X83000000Y-59961904D01*
X82952380Y-60057142D01*
X82904761Y-60104761D01*
X82809523Y-60152380D01*
X82428571Y-60152380D01*
X82428571Y-59152380D01*
X82761904Y-59152380D01*
X82857142Y-59200000D01*
X82904761Y-59247619D01*
X82952380Y-59342857D01*
X82952380Y-59438095D01*
X82904761Y-59533333D01*
X82857142Y-59580952D01*
X82761904Y-59628571D01*
X82428571Y-59628571D01*
X79333333Y-66352380D02*
X79000000Y-65876190D01*
X78761904Y-66352380D02*
X78761904Y-65352380D01*
X79142857Y-65352380D01*
X79238095Y-65400000D01*
X79285714Y-65447619D01*
X79333333Y-65542857D01*
X79333333Y-65685714D01*
X79285714Y-65780952D01*
X79238095Y-65828571D01*
X79142857Y-65876190D01*
X78761904Y-65876190D01*
X79666666Y-65352380D02*
X80333333Y-66352380D01*
X80333333Y-65352380D02*
X79666666Y-66352380D01*
X81738095Y-65352380D02*
X82309523Y-65352380D01*
X82023809Y-66352380D02*
X82023809Y-65352380D01*
X82547619Y-65352380D02*
X83214285Y-66352380D01*
X83214285Y-65352380D02*
X82547619Y-66352380D01*
%TO.C,H1*%
X85738095Y-58402380D02*
X85738095Y-57402380D01*
X85738095Y-57878571D02*
X86309523Y-57878571D01*
X86309523Y-58402380D02*
X86309523Y-57402380D01*
X87309523Y-58402380D02*
X86738095Y-58402380D01*
X87023809Y-58402380D02*
X87023809Y-57402380D01*
X86928571Y-57545238D01*
X86833333Y-57640476D01*
X86738095Y-57688095D01*
%TO.C,TP3*%
X90071428Y-45452857D02*
X90023809Y-45595714D01*
X89976190Y-45643333D01*
X89880952Y-45690952D01*
X89738095Y-45690952D01*
X89642857Y-45643333D01*
X89595238Y-45595714D01*
X89547619Y-45500476D01*
X89547619Y-45119523D01*
X90547619Y-45119523D01*
X90547619Y-45452857D01*
X90500000Y-45548095D01*
X90452380Y-45595714D01*
X90357142Y-45643333D01*
X90261904Y-45643333D01*
X90166666Y-45595714D01*
X90119047Y-45548095D01*
X90071428Y-45452857D01*
X90071428Y-45119523D01*
X89833333Y-46071904D02*
X89833333Y-46548095D01*
X89547619Y-45976666D02*
X90547619Y-46310000D01*
X89547619Y-46643333D01*
X90547619Y-46833809D02*
X90547619Y-47405238D01*
X89547619Y-47119523D02*
X90547619Y-47119523D01*
X89928571Y-47738571D02*
X89928571Y-48500476D01*
X89547619Y-48119523D02*
X90309523Y-48119523D01*
%TO.C,TP4*%
X72071428Y-45467857D02*
X72023809Y-45610714D01*
X71976190Y-45658333D01*
X71880952Y-45705952D01*
X71738095Y-45705952D01*
X71642857Y-45658333D01*
X71595238Y-45610714D01*
X71547619Y-45515476D01*
X71547619Y-45134523D01*
X72547619Y-45134523D01*
X72547619Y-45467857D01*
X72500000Y-45563095D01*
X72452380Y-45610714D01*
X72357142Y-45658333D01*
X72261904Y-45658333D01*
X72166666Y-45610714D01*
X72119047Y-45563095D01*
X72071428Y-45467857D01*
X72071428Y-45134523D01*
X71833333Y-46086904D02*
X71833333Y-46563095D01*
X71547619Y-45991666D02*
X72547619Y-46325000D01*
X71547619Y-46658333D01*
X72547619Y-46848809D02*
X72547619Y-47420238D01*
X71547619Y-47134523D02*
X72547619Y-47134523D01*
X71928571Y-47753571D02*
X71928571Y-48515476D01*
D13*
%TO.C,U1*%
X72465000Y-71310000D02*
X71990000Y-71310000D01*
X75735000Y-67090000D02*
X76210000Y-67090000D01*
X76210000Y-67090000D02*
X76210000Y-67565000D01*
X71990000Y-71310000D02*
X71990000Y-70835000D01*
X72465000Y-67090000D02*
X71990000Y-67090000D01*
X71990000Y-67090000D02*
X71990000Y-67565000D01*
X75735000Y-71310000D02*
X76210000Y-71310000D01*
%TO.C,U3*%
X86420000Y-69210000D02*
X86420000Y-70010000D01*
X89540000Y-69210000D02*
X89540000Y-67410000D01*
X86420000Y-69210000D02*
X86420000Y-68410000D01*
X89540000Y-69210000D02*
X89540000Y-70010000D01*
%TO.C,C7*%
X85699420Y-71480000D02*
X85980580Y-71480000D01*
X85699420Y-72500000D02*
X85980580Y-72500000D01*
%TO.C,R4*%
X89180000Y-74353641D02*
X89180000Y-74046359D01*
X88420000Y-74353641D02*
X88420000Y-74046359D01*
%TO.C,C2*%
X76840000Y-70392164D02*
X76840000Y-70607836D01*
X77560000Y-70392164D02*
X77560000Y-70607836D01*
%TO.C,R2*%
X72920000Y-74046359D02*
X72920000Y-74353641D01*
X73680000Y-74046359D02*
X73680000Y-74353641D01*
%TO.C,FB1*%
X82700000Y-47260378D02*
X82700000Y-48059622D01*
X81580000Y-47260378D02*
X81580000Y-48059622D01*
%TO.C,C9*%
X85690000Y-56207836D02*
X85690000Y-55992164D01*
X86410000Y-56207836D02*
X86410000Y-55992164D01*
%TO.C,C6*%
X76492164Y-66460000D02*
X76707836Y-66460000D01*
X76492164Y-65740000D02*
X76707836Y-65740000D01*
%TO.C,C8*%
X88930580Y-71490000D02*
X88649420Y-71490000D01*
X88930580Y-72510000D02*
X88649420Y-72510000D01*
%TO.C,D1*%
X72015000Y-80365000D02*
X72015000Y-81835000D01*
X72015000Y-81835000D02*
X74300000Y-81835000D01*
X74300000Y-80365000D02*
X72015000Y-80365000D01*
%TO.C,R3*%
X72180000Y-74353641D02*
X72180000Y-74046359D01*
X71420000Y-74353641D02*
X71420000Y-74046359D01*
%TO.C,C4*%
X77560000Y-67792164D02*
X77560000Y-68007836D01*
X76840000Y-67792164D02*
X76840000Y-68007836D01*
%TO.C,Q3*%
X75110000Y-56062500D02*
X75110000Y-55412500D01*
X71990000Y-56062500D02*
X71990000Y-55412500D01*
X71990000Y-56062500D02*
X71990000Y-57737500D01*
X75110000Y-56062500D02*
X75110000Y-56712500D01*
%TO.C,R12*%
X72920000Y-76853641D02*
X72920000Y-76546359D01*
X73680000Y-76853641D02*
X73680000Y-76546359D01*
%TO.C,U4*%
X76990000Y-56100000D02*
X76990000Y-57775000D01*
X80110000Y-56100000D02*
X80110000Y-56750000D01*
X80110000Y-56100000D02*
X80110000Y-55450000D01*
X76990000Y-56100000D02*
X76990000Y-55450000D01*
%TO.C,R8*%
X74646359Y-72680000D02*
X74953641Y-72680000D01*
X74646359Y-71920000D02*
X74953641Y-71920000D01*
%TO.C,R7*%
X71420000Y-76853641D02*
X71420000Y-76546359D01*
X72180000Y-76853641D02*
X72180000Y-76546359D01*
%TO.C,C13*%
X80690000Y-55992164D02*
X80690000Y-56207836D01*
X81410000Y-55992164D02*
X81410000Y-56207836D01*
%TO.C,D3*%
X78900000Y-80365000D02*
X76615000Y-80365000D01*
X76615000Y-80365000D02*
X76615000Y-81835000D01*
X76615000Y-81835000D02*
X78900000Y-81835000D01*
%TO.C,D2*%
X81115000Y-80365000D02*
X81115000Y-81835000D01*
X83400000Y-80365000D02*
X81115000Y-80365000D01*
X81115000Y-81835000D02*
X83400000Y-81835000D01*
%TO.C,U2*%
X81042000Y-72560000D02*
X81842000Y-72560000D01*
X81042000Y-72560000D02*
X80242000Y-72560000D01*
X81042000Y-69440000D02*
X81842000Y-69440000D01*
X81042000Y-69440000D02*
X79242000Y-69440000D01*
%TO.C,C5*%
X76707836Y-72660000D02*
X76492164Y-72660000D01*
X76707836Y-71940000D02*
X76492164Y-71940000D01*
%TO.C,R1*%
X85590000Y-76156724D02*
X85590000Y-74702596D01*
X87410000Y-76156724D02*
X87410000Y-74702596D01*
%TO.C,C10*%
X85990580Y-66940000D02*
X85709420Y-66940000D01*
X85990580Y-65920000D02*
X85709420Y-65920000D01*
%TO.C,R14*%
X73053641Y-71920000D02*
X72746359Y-71920000D01*
X73053641Y-72680000D02*
X72746359Y-72680000D01*
%TO.C,R10*%
X83170000Y-57646359D02*
X83170000Y-57953641D01*
X83930000Y-57646359D02*
X83930000Y-57953641D01*
%TO.C,R6*%
X73053641Y-66480000D02*
X72746359Y-66480000D01*
X73053641Y-65720000D02*
X72746359Y-65720000D01*
%TO.C,R17*%
X89770000Y-67936360D02*
X89770000Y-68243642D01*
X90530000Y-67936360D02*
X90530000Y-68243642D01*
%TO.C,Q2*%
X90110000Y-56100000D02*
X90110000Y-55450000D01*
X86990000Y-56100000D02*
X86990000Y-55450000D01*
X86990000Y-56100000D02*
X86990000Y-57775000D01*
X90110000Y-56100000D02*
X90110000Y-56750000D01*
%TO.C,R15*%
X89920000Y-76853641D02*
X89920000Y-76546359D01*
X90680000Y-76853641D02*
X90680000Y-76546359D01*
%TO.C,C3*%
X74907836Y-66460000D02*
X74692164Y-66460000D01*
X74907836Y-65740000D02*
X74692164Y-65740000D01*
%TO.C,L1*%
X86030000Y-69261252D02*
X86030000Y-68738748D01*
X84610000Y-69261252D02*
X84610000Y-68738748D01*
%TO.C,R13*%
X88170000Y-57646359D02*
X88170000Y-57953641D01*
X88930000Y-57646359D02*
X88930000Y-57953641D01*
%TO.C,R5*%
X89920000Y-74046359D02*
X89920000Y-74353641D01*
X90680000Y-74046359D02*
X90680000Y-74353641D01*
%TO.C,R16*%
X73930000Y-57596359D02*
X73930000Y-57903641D01*
X73170000Y-57596359D02*
X73170000Y-57903641D01*
%TO.C,C11*%
X75690000Y-56157836D02*
X75690000Y-55942164D01*
X76410000Y-56157836D02*
X76410000Y-55942164D01*
%TO.C,R9*%
X78170000Y-57646359D02*
X78170000Y-57953641D01*
X78930000Y-57646359D02*
X78930000Y-57953641D01*
%TO.C,C1*%
X74690000Y-76160912D02*
X74690000Y-74738408D01*
X76510000Y-76160912D02*
X76510000Y-74738408D01*
%TO.C,R18*%
X90530000Y-70301699D02*
X90530000Y-69994417D01*
X89770000Y-70301699D02*
X89770000Y-69994417D01*
%TO.C,Q1*%
X81990000Y-56100000D02*
X81990000Y-57775000D01*
X85110000Y-56100000D02*
X85110000Y-56750000D01*
X85110000Y-56100000D02*
X85110000Y-55450000D01*
X81990000Y-56100000D02*
X81990000Y-55450000D01*
%TO.C,D4*%
X85615000Y-81835000D02*
X87900000Y-81835000D01*
X85615000Y-80365000D02*
X85615000Y-81835000D01*
X87900000Y-80365000D02*
X85615000Y-80365000D01*
%TO.C,R11*%
X88420000Y-76853641D02*
X88420000Y-76546359D01*
X89180000Y-76853641D02*
X89180000Y-76546359D01*
%TO.C,C12*%
X88679420Y-66940000D02*
X88960580Y-66940000D01*
X88679420Y-65920000D02*
X88960580Y-65920000D01*
%TD*%
M02*
