%TF.GenerationSoftware,KiCad,Pcbnew,(6.0.9)*%
%TF.CreationDate,2022-12-23T14:34:16+01:00*%
%TF.ProjectId,Gigaset-Debug-Adapter,47696761-7365-4742-9d44-656275672d41,rev?*%
%TF.SameCoordinates,Original*%
%TF.FileFunction,Drillmap*%
%TF.FilePolarity,Positive*%
%FSLAX45Y45*%
G04 Gerber Fmt 4.5, Leading zero omitted, Abs format (unit mm)*
G04 Created by KiCad (PCBNEW (6.0.9)) date 2022-12-23 14:34:16*
%MOMM*%
%LPD*%
G01*
G04 APERTURE LIST*
%ADD10C,0.100000*%
%ADD11C,0.200000*%
%ADD12C,0.020000*%
%ADD13C,0.070000*%
%ADD14C,0.110000*%
G04 APERTURE END LIST*
D10*
X7068000Y-4225000D02*
X9140000Y-4225000D01*
X9140000Y-4225000D02*
X9140000Y-8245000D01*
X9140000Y-8245000D02*
X7068000Y-8245000D01*
X7068000Y-8245000D02*
X7068000Y-4225000D01*
D11*
D12*
X7140000Y-8100000D02*
X7160000Y-8120000D01*
X7160000Y-8100000D02*
X7140000Y-8120000D01*
X7165000Y-6700000D02*
X7185000Y-6720000D01*
X7185000Y-6700000D02*
X7165000Y-6720000D01*
X7170000Y-7300000D02*
X7190000Y-7320000D01*
X7190000Y-7300000D02*
X7170000Y-7320000D01*
X7170000Y-7550000D02*
X7190000Y-7570000D01*
X7190000Y-7550000D02*
X7170000Y-7570000D01*
X7180000Y-7140000D02*
X7200000Y-7160000D01*
X7200000Y-7140000D02*
X7180000Y-7160000D01*
X7220000Y-6670000D02*
X7240000Y-6690000D01*
X7240000Y-6670000D02*
X7220000Y-6690000D01*
X7220000Y-6730000D02*
X7240000Y-6750000D01*
X7240000Y-6730000D02*
X7220000Y-6750000D01*
X7220000Y-7090000D02*
X7240000Y-7110000D01*
X7240000Y-7090000D02*
X7220000Y-7110000D01*
X7230000Y-5575000D02*
X7250000Y-5595000D01*
X7250000Y-5575000D02*
X7230000Y-5595000D01*
X7235000Y-7460000D02*
X7255000Y-7480000D01*
X7255000Y-7460000D02*
X7235000Y-7480000D01*
X7300000Y-5585000D02*
X7320000Y-5605000D01*
X7320000Y-5585000D02*
X7300000Y-5605000D01*
X7320000Y-7550000D02*
X7340000Y-7570000D01*
X7340000Y-7550000D02*
X7320000Y-7570000D01*
X7370000Y-5640000D02*
X7390000Y-5660000D01*
X7390000Y-5640000D02*
X7370000Y-5660000D01*
X7375000Y-7280000D02*
X7395000Y-7300000D01*
X7395000Y-7280000D02*
X7375000Y-7300000D01*
X7385000Y-7460000D02*
X7405000Y-7480000D01*
X7405000Y-7460000D02*
X7385000Y-7480000D01*
X7400000Y-6545000D02*
X7420000Y-6565000D01*
X7420000Y-6545000D02*
X7400000Y-6565000D01*
X7400000Y-6905000D02*
X7420000Y-6925000D01*
X7420000Y-6905000D02*
X7400000Y-6925000D01*
X7440000Y-5580000D02*
X7460000Y-5600000D01*
X7460000Y-5580000D02*
X7440000Y-5600000D01*
X7470000Y-6535000D02*
X7490000Y-6555000D01*
X7490000Y-6535000D02*
X7470000Y-6555000D01*
X7540000Y-6545000D02*
X7560000Y-6565000D01*
X7560000Y-6545000D02*
X7540000Y-6565000D01*
X7550000Y-7600000D02*
X7570000Y-7620000D01*
X7570000Y-7600000D02*
X7550000Y-7620000D01*
X7580000Y-7090000D02*
X7600000Y-7110000D01*
X7600000Y-7090000D02*
X7580000Y-7110000D01*
X7595000Y-5710000D02*
X7615000Y-5730000D01*
X7615000Y-5710000D02*
X7595000Y-5730000D01*
X7600000Y-8100000D02*
X7620000Y-8120000D01*
X7620000Y-8100000D02*
X7600000Y-8120000D01*
X7605000Y-6730000D02*
X7625000Y-6750000D01*
X7625000Y-6730000D02*
X7605000Y-6750000D01*
X7610000Y-7145000D02*
X7630000Y-7165000D01*
X7630000Y-7145000D02*
X7610000Y-7165000D01*
X7640000Y-6645000D02*
X7660000Y-6665000D01*
X7660000Y-6645000D02*
X7640000Y-6665000D01*
X7640000Y-7090000D02*
X7660000Y-7110000D01*
X7660000Y-7090000D02*
X7640000Y-7110000D01*
X7670000Y-7150000D02*
X7690000Y-7170000D01*
X7690000Y-7150000D02*
X7670000Y-7170000D01*
X7675000Y-6795000D02*
X7695000Y-6815000D01*
X7695000Y-6795000D02*
X7675000Y-6815000D01*
X7675000Y-7025000D02*
X7695000Y-7045000D01*
X7695000Y-7025000D02*
X7675000Y-7045000D01*
X7700000Y-5790000D02*
X7720000Y-5810000D01*
X7720000Y-5790000D02*
X7700000Y-5810000D01*
X7700000Y-6660000D02*
X7720000Y-6680000D01*
X7720000Y-6660000D02*
X7700000Y-6680000D01*
X7735000Y-7155000D02*
X7755000Y-7175000D01*
X7755000Y-7155000D02*
X7735000Y-7175000D01*
X7735000Y-7425000D02*
X7755000Y-7445000D01*
X7755000Y-7425000D02*
X7735000Y-7445000D01*
X7735000Y-7645000D02*
X7755000Y-7665000D01*
X7755000Y-7645000D02*
X7735000Y-7665000D01*
X7745000Y-5570000D02*
X7765000Y-5590000D01*
X7765000Y-5570000D02*
X7745000Y-5590000D01*
X7780000Y-6870000D02*
X7800000Y-6890000D01*
X7800000Y-6870000D02*
X7780000Y-6890000D01*
X7780000Y-6950000D02*
X7800000Y-6970000D01*
X7800000Y-6950000D02*
X7780000Y-6970000D01*
X7780000Y-7475000D02*
X7800000Y-7495000D01*
X7800000Y-7475000D02*
X7780000Y-7495000D01*
X7780000Y-7590000D02*
X7800000Y-7610000D01*
X7800000Y-7590000D02*
X7780000Y-7610000D01*
X7845000Y-5660000D02*
X7865000Y-5680000D01*
X7865000Y-5660000D02*
X7845000Y-5680000D01*
X7874200Y-7090000D02*
X7894200Y-7110000D01*
X7894200Y-7090000D02*
X7874200Y-7110000D01*
X7969000Y-4650000D02*
X7989000Y-4670000D01*
X7989000Y-4650000D02*
X7969000Y-4670000D01*
X7970000Y-5605000D02*
X7990000Y-5625000D01*
X7990000Y-5605000D02*
X7970000Y-5625000D01*
X7970000Y-7360000D02*
X7990000Y-7380000D01*
X7990000Y-7360000D02*
X7970000Y-7380000D01*
X7970000Y-7685000D02*
X7990000Y-7705000D01*
X7990000Y-7685000D02*
X7970000Y-7705000D01*
X8022000Y-4650000D02*
X8042000Y-4670000D01*
X8042000Y-4650000D02*
X8022000Y-4670000D01*
X8050000Y-8100000D02*
X8070000Y-8120000D01*
X8070000Y-8100000D02*
X8050000Y-8120000D01*
X8070000Y-7388966D02*
X8090000Y-7408966D01*
X8090000Y-7388966D02*
X8070000Y-7408966D01*
X8070000Y-7720000D02*
X8090000Y-7740000D01*
X8090000Y-7720000D02*
X8070000Y-7740000D01*
X8095000Y-5715000D02*
X8115000Y-5735000D01*
X8115000Y-5715000D02*
X8095000Y-5735000D01*
X8095000Y-6975000D02*
X8115000Y-6995000D01*
X8115000Y-6975000D02*
X8095000Y-6995000D01*
X8104200Y-7040000D02*
X8124200Y-7060000D01*
X8124200Y-7040000D02*
X8104200Y-7060000D01*
X8104200Y-7140000D02*
X8124200Y-7160000D01*
X8124200Y-7140000D02*
X8104200Y-7160000D01*
X8120000Y-7677966D02*
X8140000Y-7697966D01*
X8140000Y-7677966D02*
X8120000Y-7697966D01*
X8180000Y-7370000D02*
X8200000Y-7390000D01*
X8200000Y-7370000D02*
X8180000Y-7390000D01*
X8180000Y-7705000D02*
X8200000Y-7725000D01*
X8200000Y-7705000D02*
X8180000Y-7725000D01*
X8181000Y-4795000D02*
X8201000Y-4815000D01*
X8201000Y-4795000D02*
X8181000Y-4815000D01*
X8188000Y-4718000D02*
X8208000Y-4738000D01*
X8208000Y-4718000D02*
X8188000Y-4738000D01*
X8227000Y-4764000D02*
X8247000Y-4784000D01*
X8247000Y-4764000D02*
X8227000Y-4784000D01*
X8240000Y-7370000D02*
X8260000Y-7390000D01*
X8260000Y-7370000D02*
X8240000Y-7390000D01*
X8250000Y-5575000D02*
X8270000Y-5595000D01*
X8270000Y-5575000D02*
X8250000Y-5595000D01*
X8304200Y-7090000D02*
X8324200Y-7110000D01*
X8324200Y-7090000D02*
X8304200Y-7110000D01*
X8344200Y-7040000D02*
X8364200Y-7060000D01*
X8364200Y-7040000D02*
X8344200Y-7060000D01*
X8344200Y-7140000D02*
X8364200Y-7160000D01*
X8364200Y-7140000D02*
X8344200Y-7160000D01*
X8345000Y-5660000D02*
X8365000Y-5680000D01*
X8365000Y-5660000D02*
X8345000Y-5680000D01*
X8410000Y-7479000D02*
X8430000Y-7499000D01*
X8430000Y-7479000D02*
X8410000Y-7499000D01*
X8410000Y-7594000D02*
X8430000Y-7614000D01*
X8430000Y-7594000D02*
X8410000Y-7614000D01*
X8455000Y-7424000D02*
X8475000Y-7444000D01*
X8475000Y-7424000D02*
X8455000Y-7444000D01*
X8455000Y-7644000D02*
X8475000Y-7664000D01*
X8475000Y-7644000D02*
X8455000Y-7664000D01*
X8500000Y-8100000D02*
X8520000Y-8120000D01*
X8520000Y-8100000D02*
X8500000Y-8120000D01*
X8565000Y-7120000D02*
X8585000Y-7140000D01*
X8585000Y-7120000D02*
X8565000Y-7140000D01*
X8571000Y-6632000D02*
X8591000Y-6652000D01*
X8591000Y-6632000D02*
X8571000Y-6652000D01*
X8595000Y-5715000D02*
X8615000Y-5735000D01*
X8615000Y-5715000D02*
X8595000Y-5735000D01*
X8680000Y-7590000D02*
X8700000Y-7610000D01*
X8700000Y-7590000D02*
X8680000Y-7610000D01*
X8693000Y-7117000D02*
X8713000Y-7137000D01*
X8713000Y-7117000D02*
X8693000Y-7137000D01*
X8720000Y-6920000D02*
X8740000Y-6940000D01*
X8740000Y-6920000D02*
X8720000Y-6940000D01*
X8721000Y-6633000D02*
X8741000Y-6653000D01*
X8741000Y-6633000D02*
X8721000Y-6653000D01*
X8721000Y-7189000D02*
X8741000Y-7209000D01*
X8741000Y-7189000D02*
X8721000Y-7209000D01*
X8765000Y-5580000D02*
X8785000Y-5600000D01*
X8785000Y-5580000D02*
X8765000Y-5600000D01*
X8788000Y-6707000D02*
X8808000Y-6727000D01*
X8808000Y-6707000D02*
X8788000Y-6727000D01*
X8805000Y-7460000D02*
X8825000Y-7480000D01*
X8825000Y-7460000D02*
X8805000Y-7480000D01*
X8870000Y-7550000D02*
X8890000Y-7570000D01*
X8890000Y-7550000D02*
X8870000Y-7570000D01*
X8876000Y-6634000D02*
X8896000Y-6654000D01*
X8896000Y-6634000D02*
X8876000Y-6654000D01*
X8940000Y-5585000D02*
X8960000Y-5605000D01*
X8960000Y-5585000D02*
X8940000Y-5605000D01*
X8940000Y-5820000D02*
X8960000Y-5840000D01*
X8960000Y-5820000D02*
X8940000Y-5840000D01*
X8945000Y-6800000D02*
X8965000Y-6820000D01*
X8965000Y-6800000D02*
X8945000Y-6820000D01*
X8947000Y-7110000D02*
X8967000Y-7130000D01*
X8967000Y-7110000D02*
X8947000Y-7130000D01*
X8950000Y-6868000D02*
X8970000Y-6888000D01*
X8970000Y-6868000D02*
X8950000Y-6888000D01*
X8950000Y-7006000D02*
X8970000Y-7026000D01*
X8970000Y-7006000D02*
X8950000Y-7026000D01*
X8955000Y-7460000D02*
X8975000Y-7480000D01*
X8975000Y-7460000D02*
X8955000Y-7480000D01*
X9020000Y-7300000D02*
X9040000Y-7320000D01*
X9040000Y-7300000D02*
X9020000Y-7320000D01*
X9020000Y-7550000D02*
X9040000Y-7570000D01*
X9040000Y-7550000D02*
X9020000Y-7570000D01*
D13*
X7900000Y-7328966D02*
G75*
G03*
X7900000Y-7328966I-35000J0D01*
G01*
X7900000Y-7758966D02*
G75*
G03*
X7900000Y-7758966I-35000J0D01*
G01*
X8380000Y-7328966D02*
G75*
G03*
X8380000Y-7328966I-35000J0D01*
G01*
X8380000Y-7758966D02*
G75*
G03*
X8380000Y-7758966I-35000J0D01*
G01*
D14*
X7949400Y-6704951D02*
X7949400Y-6814951D01*
X7894400Y-6759951D02*
X8004400Y-6759951D01*
X8254200Y-6704951D02*
X8254200Y-6814951D01*
X8199200Y-6759951D02*
X8309200Y-6759951D01*
D11*
X7320619Y-8560476D02*
X7320619Y-8360476D01*
X7368238Y-8360476D01*
X7396809Y-8370000D01*
X7415857Y-8389048D01*
X7425381Y-8408095D01*
X7434905Y-8446190D01*
X7434905Y-8474762D01*
X7425381Y-8512857D01*
X7415857Y-8531905D01*
X7396809Y-8550952D01*
X7368238Y-8560476D01*
X7320619Y-8560476D01*
X7520619Y-8560476D02*
X7520619Y-8427143D01*
X7520619Y-8465238D02*
X7530143Y-8446190D01*
X7539667Y-8436667D01*
X7558714Y-8427143D01*
X7577762Y-8427143D01*
X7644428Y-8560476D02*
X7644428Y-8427143D01*
X7644428Y-8360476D02*
X7634905Y-8370000D01*
X7644428Y-8379524D01*
X7653952Y-8370000D01*
X7644428Y-8360476D01*
X7644428Y-8379524D01*
X7768238Y-8560476D02*
X7749190Y-8550952D01*
X7739667Y-8531905D01*
X7739667Y-8360476D01*
X7873000Y-8560476D02*
X7853952Y-8550952D01*
X7844428Y-8531905D01*
X7844428Y-8360476D01*
X8101571Y-8560476D02*
X8101571Y-8360476D01*
X8168238Y-8503333D01*
X8234905Y-8360476D01*
X8234905Y-8560476D01*
X8415857Y-8560476D02*
X8415857Y-8455714D01*
X8406333Y-8436667D01*
X8387286Y-8427143D01*
X8349190Y-8427143D01*
X8330143Y-8436667D01*
X8415857Y-8550952D02*
X8396810Y-8560476D01*
X8349190Y-8560476D01*
X8330143Y-8550952D01*
X8320619Y-8531905D01*
X8320619Y-8512857D01*
X8330143Y-8493810D01*
X8349190Y-8484286D01*
X8396810Y-8484286D01*
X8415857Y-8474762D01*
X8511095Y-8427143D02*
X8511095Y-8627143D01*
X8511095Y-8436667D02*
X8530143Y-8427143D01*
X8568238Y-8427143D01*
X8587286Y-8436667D01*
X8596810Y-8446190D01*
X8606333Y-8465238D01*
X8606333Y-8522381D01*
X8596810Y-8541429D01*
X8587286Y-8550952D01*
X8568238Y-8560476D01*
X8530143Y-8560476D01*
X8511095Y-8550952D01*
X8692048Y-8541429D02*
X8701571Y-8550952D01*
X8692048Y-8560476D01*
X8682524Y-8550952D01*
X8692048Y-8541429D01*
X8692048Y-8560476D01*
X8692048Y-8436667D02*
X8701571Y-8446190D01*
X8692048Y-8455714D01*
X8682524Y-8446190D01*
X8692048Y-8436667D01*
X8692048Y-8455714D01*
D12*
X7043000Y-8880000D02*
X7063000Y-8900000D01*
X7063000Y-8880000D02*
X7043000Y-8900000D01*
D11*
X7358714Y-8780476D02*
X7377762Y-8780476D01*
X7396809Y-8790000D01*
X7406333Y-8799524D01*
X7415857Y-8818571D01*
X7425381Y-8856667D01*
X7425381Y-8904286D01*
X7415857Y-8942381D01*
X7406333Y-8961429D01*
X7396809Y-8970952D01*
X7377762Y-8980476D01*
X7358714Y-8980476D01*
X7339667Y-8970952D01*
X7330143Y-8961429D01*
X7320619Y-8942381D01*
X7311095Y-8904286D01*
X7311095Y-8856667D01*
X7320619Y-8818571D01*
X7330143Y-8799524D01*
X7339667Y-8790000D01*
X7358714Y-8780476D01*
X7511095Y-8961429D02*
X7520619Y-8970952D01*
X7511095Y-8980476D01*
X7501571Y-8970952D01*
X7511095Y-8961429D01*
X7511095Y-8980476D01*
X7596809Y-8799524D02*
X7606333Y-8790000D01*
X7625381Y-8780476D01*
X7673000Y-8780476D01*
X7692048Y-8790000D01*
X7701571Y-8799524D01*
X7711095Y-8818571D01*
X7711095Y-8837619D01*
X7701571Y-8866190D01*
X7587286Y-8980476D01*
X7711095Y-8980476D01*
X7834905Y-8780476D02*
X7853952Y-8780476D01*
X7873000Y-8790000D01*
X7882524Y-8799524D01*
X7892048Y-8818571D01*
X7901571Y-8856667D01*
X7901571Y-8904286D01*
X7892048Y-8942381D01*
X7882524Y-8961429D01*
X7873000Y-8970952D01*
X7853952Y-8980476D01*
X7834905Y-8980476D01*
X7815857Y-8970952D01*
X7806333Y-8961429D01*
X7796809Y-8942381D01*
X7787286Y-8904286D01*
X7787286Y-8856667D01*
X7796809Y-8818571D01*
X7806333Y-8799524D01*
X7815857Y-8790000D01*
X7834905Y-8780476D01*
X8025381Y-8780476D02*
X8044428Y-8780476D01*
X8063476Y-8790000D01*
X8073000Y-8799524D01*
X8082524Y-8818571D01*
X8092048Y-8856667D01*
X8092048Y-8904286D01*
X8082524Y-8942381D01*
X8073000Y-8961429D01*
X8063476Y-8970952D01*
X8044428Y-8980476D01*
X8025381Y-8980476D01*
X8006333Y-8970952D01*
X7996809Y-8961429D01*
X7987286Y-8942381D01*
X7977762Y-8904286D01*
X7977762Y-8856667D01*
X7987286Y-8818571D01*
X7996809Y-8799524D01*
X8006333Y-8790000D01*
X8025381Y-8780476D01*
X8177762Y-8980476D02*
X8177762Y-8847143D01*
X8177762Y-8866190D02*
X8187286Y-8856667D01*
X8206333Y-8847143D01*
X8234905Y-8847143D01*
X8253952Y-8856667D01*
X8263476Y-8875714D01*
X8263476Y-8980476D01*
X8263476Y-8875714D02*
X8273000Y-8856667D01*
X8292048Y-8847143D01*
X8320619Y-8847143D01*
X8339667Y-8856667D01*
X8349190Y-8875714D01*
X8349190Y-8980476D01*
X8444429Y-8980476D02*
X8444429Y-8847143D01*
X8444429Y-8866190D02*
X8453952Y-8856667D01*
X8473000Y-8847143D01*
X8501571Y-8847143D01*
X8520619Y-8856667D01*
X8530143Y-8875714D01*
X8530143Y-8980476D01*
X8530143Y-8875714D02*
X8539667Y-8856667D01*
X8558714Y-8847143D01*
X8587286Y-8847143D01*
X8606333Y-8856667D01*
X8615857Y-8875714D01*
X8615857Y-8980476D01*
X9006333Y-8770952D02*
X8834905Y-9028095D01*
X9263476Y-8780476D02*
X9282524Y-8780476D01*
X9301571Y-8790000D01*
X9311095Y-8799524D01*
X9320619Y-8818571D01*
X9330143Y-8856667D01*
X9330143Y-8904286D01*
X9320619Y-8942381D01*
X9311095Y-8961429D01*
X9301571Y-8970952D01*
X9282524Y-8980476D01*
X9263476Y-8980476D01*
X9244429Y-8970952D01*
X9234905Y-8961429D01*
X9225381Y-8942381D01*
X9215857Y-8904286D01*
X9215857Y-8856667D01*
X9225381Y-8818571D01*
X9234905Y-8799524D01*
X9244429Y-8790000D01*
X9263476Y-8780476D01*
X9415857Y-8961429D02*
X9425381Y-8970952D01*
X9415857Y-8980476D01*
X9406333Y-8970952D01*
X9415857Y-8961429D01*
X9415857Y-8980476D01*
X9549190Y-8780476D02*
X9568238Y-8780476D01*
X9587286Y-8790000D01*
X9596810Y-8799524D01*
X9606333Y-8818571D01*
X9615857Y-8856667D01*
X9615857Y-8904286D01*
X9606333Y-8942381D01*
X9596810Y-8961429D01*
X9587286Y-8970952D01*
X9568238Y-8980476D01*
X9549190Y-8980476D01*
X9530143Y-8970952D01*
X9520619Y-8961429D01*
X9511095Y-8942381D01*
X9501571Y-8904286D01*
X9501571Y-8856667D01*
X9511095Y-8818571D01*
X9520619Y-8799524D01*
X9530143Y-8790000D01*
X9549190Y-8780476D01*
X9739667Y-8780476D02*
X9758714Y-8780476D01*
X9777762Y-8790000D01*
X9787286Y-8799524D01*
X9796810Y-8818571D01*
X9806333Y-8856667D01*
X9806333Y-8904286D01*
X9796810Y-8942381D01*
X9787286Y-8961429D01*
X9777762Y-8970952D01*
X9758714Y-8980476D01*
X9739667Y-8980476D01*
X9720619Y-8970952D01*
X9711095Y-8961429D01*
X9701571Y-8942381D01*
X9692048Y-8904286D01*
X9692048Y-8856667D01*
X9701571Y-8818571D01*
X9711095Y-8799524D01*
X9720619Y-8790000D01*
X9739667Y-8780476D01*
X9873000Y-8780476D02*
X10006333Y-8780476D01*
X9920619Y-8980476D01*
X10092048Y-8980476D02*
X10130143Y-8980476D01*
X10149190Y-8970952D01*
X10158714Y-8961429D01*
X10177762Y-8932857D01*
X10187286Y-8894762D01*
X10187286Y-8818571D01*
X10177762Y-8799524D01*
X10168238Y-8790000D01*
X10149190Y-8780476D01*
X10111095Y-8780476D01*
X10092048Y-8790000D01*
X10082524Y-8799524D01*
X10073000Y-8818571D01*
X10073000Y-8866190D01*
X10082524Y-8885238D01*
X10092048Y-8894762D01*
X10111095Y-8904286D01*
X10149190Y-8904286D01*
X10168238Y-8894762D01*
X10177762Y-8885238D01*
X10187286Y-8866190D01*
X10263476Y-8780476D02*
X10263476Y-8818571D01*
X10339667Y-8780476D02*
X10339667Y-8818571D01*
X10634905Y-9056667D02*
X10625381Y-9047143D01*
X10606333Y-9018571D01*
X10596810Y-8999524D01*
X10587286Y-8970952D01*
X10577762Y-8923333D01*
X10577762Y-8885238D01*
X10587286Y-8837619D01*
X10596810Y-8809048D01*
X10606333Y-8790000D01*
X10625381Y-8761429D01*
X10634905Y-8751905D01*
X10720619Y-8980476D02*
X10758714Y-8980476D01*
X10777762Y-8970952D01*
X10787286Y-8961429D01*
X10806333Y-8932857D01*
X10815857Y-8894762D01*
X10815857Y-8818571D01*
X10806333Y-8799524D01*
X10796810Y-8790000D01*
X10777762Y-8780476D01*
X10739667Y-8780476D01*
X10720619Y-8790000D01*
X10711095Y-8799524D01*
X10701571Y-8818571D01*
X10701571Y-8866190D01*
X10711095Y-8885238D01*
X10720619Y-8894762D01*
X10739667Y-8904286D01*
X10777762Y-8904286D01*
X10796810Y-8894762D01*
X10806333Y-8885238D01*
X10815857Y-8866190D01*
X10987286Y-8847143D02*
X10987286Y-8980476D01*
X10939667Y-8770952D02*
X10892048Y-8913810D01*
X11015857Y-8913810D01*
X11244428Y-8980476D02*
X11244428Y-8780476D01*
X11330143Y-8980476D02*
X11330143Y-8875714D01*
X11320619Y-8856667D01*
X11301571Y-8847143D01*
X11273000Y-8847143D01*
X11253952Y-8856667D01*
X11244428Y-8866190D01*
X11453952Y-8980476D02*
X11434905Y-8970952D01*
X11425381Y-8961429D01*
X11415857Y-8942381D01*
X11415857Y-8885238D01*
X11425381Y-8866190D01*
X11434905Y-8856667D01*
X11453952Y-8847143D01*
X11482524Y-8847143D01*
X11501571Y-8856667D01*
X11511095Y-8866190D01*
X11520619Y-8885238D01*
X11520619Y-8942381D01*
X11511095Y-8961429D01*
X11501571Y-8970952D01*
X11482524Y-8980476D01*
X11453952Y-8980476D01*
X11634905Y-8980476D02*
X11615857Y-8970952D01*
X11606333Y-8951905D01*
X11606333Y-8780476D01*
X11787286Y-8970952D02*
X11768238Y-8980476D01*
X11730143Y-8980476D01*
X11711095Y-8970952D01*
X11701571Y-8951905D01*
X11701571Y-8875714D01*
X11711095Y-8856667D01*
X11730143Y-8847143D01*
X11768238Y-8847143D01*
X11787286Y-8856667D01*
X11796809Y-8875714D01*
X11796809Y-8894762D01*
X11701571Y-8913810D01*
X11873000Y-8970952D02*
X11892048Y-8980476D01*
X11930143Y-8980476D01*
X11949190Y-8970952D01*
X11958714Y-8951905D01*
X11958714Y-8942381D01*
X11949190Y-8923333D01*
X11930143Y-8913810D01*
X11901571Y-8913810D01*
X11882524Y-8904286D01*
X11873000Y-8885238D01*
X11873000Y-8875714D01*
X11882524Y-8856667D01*
X11901571Y-8847143D01*
X11930143Y-8847143D01*
X11949190Y-8856667D01*
X12025381Y-9056667D02*
X12034905Y-9047143D01*
X12053952Y-9018571D01*
X12063476Y-8999524D01*
X12073000Y-8970952D01*
X12082524Y-8923333D01*
X12082524Y-8885238D01*
X12073000Y-8837619D01*
X12063476Y-8809048D01*
X12053952Y-8790000D01*
X12034905Y-8761429D01*
X12025381Y-8751905D01*
D13*
X7063000Y-9154000D02*
G75*
G03*
X7063000Y-9154000I-35000J0D01*
G01*
D11*
X7358714Y-9044476D02*
X7377762Y-9044476D01*
X7396809Y-9054000D01*
X7406333Y-9063524D01*
X7415857Y-9082571D01*
X7425381Y-9120667D01*
X7425381Y-9168286D01*
X7415857Y-9206381D01*
X7406333Y-9225429D01*
X7396809Y-9234952D01*
X7377762Y-9244476D01*
X7358714Y-9244476D01*
X7339667Y-9234952D01*
X7330143Y-9225429D01*
X7320619Y-9206381D01*
X7311095Y-9168286D01*
X7311095Y-9120667D01*
X7320619Y-9082571D01*
X7330143Y-9063524D01*
X7339667Y-9054000D01*
X7358714Y-9044476D01*
X7511095Y-9225429D02*
X7520619Y-9234952D01*
X7511095Y-9244476D01*
X7501571Y-9234952D01*
X7511095Y-9225429D01*
X7511095Y-9244476D01*
X7587286Y-9044476D02*
X7720619Y-9044476D01*
X7634905Y-9244476D01*
X7834905Y-9044476D02*
X7853952Y-9044476D01*
X7873000Y-9054000D01*
X7882524Y-9063524D01*
X7892048Y-9082571D01*
X7901571Y-9120667D01*
X7901571Y-9168286D01*
X7892048Y-9206381D01*
X7882524Y-9225429D01*
X7873000Y-9234952D01*
X7853952Y-9244476D01*
X7834905Y-9244476D01*
X7815857Y-9234952D01*
X7806333Y-9225429D01*
X7796809Y-9206381D01*
X7787286Y-9168286D01*
X7787286Y-9120667D01*
X7796809Y-9082571D01*
X7806333Y-9063524D01*
X7815857Y-9054000D01*
X7834905Y-9044476D01*
X8025381Y-9044476D02*
X8044428Y-9044476D01*
X8063476Y-9054000D01*
X8073000Y-9063524D01*
X8082524Y-9082571D01*
X8092048Y-9120667D01*
X8092048Y-9168286D01*
X8082524Y-9206381D01*
X8073000Y-9225429D01*
X8063476Y-9234952D01*
X8044428Y-9244476D01*
X8025381Y-9244476D01*
X8006333Y-9234952D01*
X7996809Y-9225429D01*
X7987286Y-9206381D01*
X7977762Y-9168286D01*
X7977762Y-9120667D01*
X7987286Y-9082571D01*
X7996809Y-9063524D01*
X8006333Y-9054000D01*
X8025381Y-9044476D01*
X8177762Y-9244476D02*
X8177762Y-9111143D01*
X8177762Y-9130190D02*
X8187286Y-9120667D01*
X8206333Y-9111143D01*
X8234905Y-9111143D01*
X8253952Y-9120667D01*
X8263476Y-9139714D01*
X8263476Y-9244476D01*
X8263476Y-9139714D02*
X8273000Y-9120667D01*
X8292048Y-9111143D01*
X8320619Y-9111143D01*
X8339667Y-9120667D01*
X8349190Y-9139714D01*
X8349190Y-9244476D01*
X8444429Y-9244476D02*
X8444429Y-9111143D01*
X8444429Y-9130190D02*
X8453952Y-9120667D01*
X8473000Y-9111143D01*
X8501571Y-9111143D01*
X8520619Y-9120667D01*
X8530143Y-9139714D01*
X8530143Y-9244476D01*
X8530143Y-9139714D02*
X8539667Y-9120667D01*
X8558714Y-9111143D01*
X8587286Y-9111143D01*
X8606333Y-9120667D01*
X8615857Y-9139714D01*
X8615857Y-9244476D01*
X9006333Y-9034952D02*
X8834905Y-9292095D01*
X9263476Y-9044476D02*
X9282524Y-9044476D01*
X9301571Y-9054000D01*
X9311095Y-9063524D01*
X9320619Y-9082571D01*
X9330143Y-9120667D01*
X9330143Y-9168286D01*
X9320619Y-9206381D01*
X9311095Y-9225429D01*
X9301571Y-9234952D01*
X9282524Y-9244476D01*
X9263476Y-9244476D01*
X9244429Y-9234952D01*
X9234905Y-9225429D01*
X9225381Y-9206381D01*
X9215857Y-9168286D01*
X9215857Y-9120667D01*
X9225381Y-9082571D01*
X9234905Y-9063524D01*
X9244429Y-9054000D01*
X9263476Y-9044476D01*
X9415857Y-9225429D02*
X9425381Y-9234952D01*
X9415857Y-9244476D01*
X9406333Y-9234952D01*
X9415857Y-9225429D01*
X9415857Y-9244476D01*
X9549190Y-9044476D02*
X9568238Y-9044476D01*
X9587286Y-9054000D01*
X9596810Y-9063524D01*
X9606333Y-9082571D01*
X9615857Y-9120667D01*
X9615857Y-9168286D01*
X9606333Y-9206381D01*
X9596810Y-9225429D01*
X9587286Y-9234952D01*
X9568238Y-9244476D01*
X9549190Y-9244476D01*
X9530143Y-9234952D01*
X9520619Y-9225429D01*
X9511095Y-9206381D01*
X9501571Y-9168286D01*
X9501571Y-9120667D01*
X9511095Y-9082571D01*
X9520619Y-9063524D01*
X9530143Y-9054000D01*
X9549190Y-9044476D01*
X9692048Y-9063524D02*
X9701571Y-9054000D01*
X9720619Y-9044476D01*
X9768238Y-9044476D01*
X9787286Y-9054000D01*
X9796810Y-9063524D01*
X9806333Y-9082571D01*
X9806333Y-9101619D01*
X9796810Y-9130190D01*
X9682524Y-9244476D01*
X9806333Y-9244476D01*
X9873000Y-9044476D02*
X10006333Y-9044476D01*
X9920619Y-9244476D01*
X10168238Y-9044476D02*
X10130143Y-9044476D01*
X10111095Y-9054000D01*
X10101571Y-9063524D01*
X10082524Y-9092095D01*
X10073000Y-9130190D01*
X10073000Y-9206381D01*
X10082524Y-9225429D01*
X10092048Y-9234952D01*
X10111095Y-9244476D01*
X10149190Y-9244476D01*
X10168238Y-9234952D01*
X10177762Y-9225429D01*
X10187286Y-9206381D01*
X10187286Y-9158762D01*
X10177762Y-9139714D01*
X10168238Y-9130190D01*
X10149190Y-9120667D01*
X10111095Y-9120667D01*
X10092048Y-9130190D01*
X10082524Y-9139714D01*
X10073000Y-9158762D01*
X10263476Y-9044476D02*
X10263476Y-9082571D01*
X10339667Y-9044476D02*
X10339667Y-9082571D01*
X10634905Y-9320667D02*
X10625381Y-9311143D01*
X10606333Y-9282571D01*
X10596810Y-9263524D01*
X10587286Y-9234952D01*
X10577762Y-9187333D01*
X10577762Y-9149238D01*
X10587286Y-9101619D01*
X10596810Y-9073048D01*
X10606333Y-9054000D01*
X10625381Y-9025429D01*
X10634905Y-9015905D01*
X10796810Y-9111143D02*
X10796810Y-9244476D01*
X10749190Y-9034952D02*
X10701571Y-9177810D01*
X10825381Y-9177810D01*
X11053952Y-9244476D02*
X11053952Y-9044476D01*
X11139667Y-9244476D02*
X11139667Y-9139714D01*
X11130143Y-9120667D01*
X11111095Y-9111143D01*
X11082524Y-9111143D01*
X11063476Y-9120667D01*
X11053952Y-9130190D01*
X11263476Y-9244476D02*
X11244428Y-9234952D01*
X11234905Y-9225429D01*
X11225381Y-9206381D01*
X11225381Y-9149238D01*
X11234905Y-9130190D01*
X11244428Y-9120667D01*
X11263476Y-9111143D01*
X11292048Y-9111143D01*
X11311095Y-9120667D01*
X11320619Y-9130190D01*
X11330143Y-9149238D01*
X11330143Y-9206381D01*
X11320619Y-9225429D01*
X11311095Y-9234952D01*
X11292048Y-9244476D01*
X11263476Y-9244476D01*
X11444428Y-9244476D02*
X11425381Y-9234952D01*
X11415857Y-9215905D01*
X11415857Y-9044476D01*
X11596809Y-9234952D02*
X11577762Y-9244476D01*
X11539667Y-9244476D01*
X11520619Y-9234952D01*
X11511095Y-9215905D01*
X11511095Y-9139714D01*
X11520619Y-9120667D01*
X11539667Y-9111143D01*
X11577762Y-9111143D01*
X11596809Y-9120667D01*
X11606333Y-9139714D01*
X11606333Y-9158762D01*
X11511095Y-9177810D01*
X11682524Y-9234952D02*
X11701571Y-9244476D01*
X11739667Y-9244476D01*
X11758714Y-9234952D01*
X11768238Y-9215905D01*
X11768238Y-9206381D01*
X11758714Y-9187333D01*
X11739667Y-9177810D01*
X11711095Y-9177810D01*
X11692048Y-9168286D01*
X11682524Y-9149238D01*
X11682524Y-9139714D01*
X11692048Y-9120667D01*
X11711095Y-9111143D01*
X11739667Y-9111143D01*
X11758714Y-9120667D01*
X11834905Y-9320667D02*
X11844428Y-9311143D01*
X11863476Y-9282571D01*
X11873000Y-9263524D01*
X11882524Y-9234952D01*
X11892048Y-9187333D01*
X11892048Y-9149238D01*
X11882524Y-9101619D01*
X11873000Y-9073048D01*
X11863476Y-9054000D01*
X11844428Y-9025429D01*
X11834905Y-9015905D01*
D14*
X7008000Y-9363000D02*
X7008000Y-9473000D01*
X6953000Y-9418000D02*
X7063000Y-9418000D01*
D11*
X7425381Y-9508476D02*
X7311095Y-9508476D01*
X7368238Y-9508476D02*
X7368238Y-9308476D01*
X7349190Y-9337048D01*
X7330143Y-9356095D01*
X7311095Y-9365619D01*
X7511095Y-9489429D02*
X7520619Y-9498952D01*
X7511095Y-9508476D01*
X7501571Y-9498952D01*
X7511095Y-9489429D01*
X7511095Y-9508476D01*
X7711095Y-9508476D02*
X7596809Y-9508476D01*
X7653952Y-9508476D02*
X7653952Y-9308476D01*
X7634905Y-9337048D01*
X7615857Y-9356095D01*
X7596809Y-9365619D01*
X7834905Y-9308476D02*
X7853952Y-9308476D01*
X7873000Y-9318000D01*
X7882524Y-9327524D01*
X7892048Y-9346571D01*
X7901571Y-9384667D01*
X7901571Y-9432286D01*
X7892048Y-9470381D01*
X7882524Y-9489429D01*
X7873000Y-9498952D01*
X7853952Y-9508476D01*
X7834905Y-9508476D01*
X7815857Y-9498952D01*
X7806333Y-9489429D01*
X7796809Y-9470381D01*
X7787286Y-9432286D01*
X7787286Y-9384667D01*
X7796809Y-9346571D01*
X7806333Y-9327524D01*
X7815857Y-9318000D01*
X7834905Y-9308476D01*
X8025381Y-9308476D02*
X8044428Y-9308476D01*
X8063476Y-9318000D01*
X8073000Y-9327524D01*
X8082524Y-9346571D01*
X8092048Y-9384667D01*
X8092048Y-9432286D01*
X8082524Y-9470381D01*
X8073000Y-9489429D01*
X8063476Y-9498952D01*
X8044428Y-9508476D01*
X8025381Y-9508476D01*
X8006333Y-9498952D01*
X7996809Y-9489429D01*
X7987286Y-9470381D01*
X7977762Y-9432286D01*
X7977762Y-9384667D01*
X7987286Y-9346571D01*
X7996809Y-9327524D01*
X8006333Y-9318000D01*
X8025381Y-9308476D01*
X8177762Y-9508476D02*
X8177762Y-9375143D01*
X8177762Y-9394190D02*
X8187286Y-9384667D01*
X8206333Y-9375143D01*
X8234905Y-9375143D01*
X8253952Y-9384667D01*
X8263476Y-9403714D01*
X8263476Y-9508476D01*
X8263476Y-9403714D02*
X8273000Y-9384667D01*
X8292048Y-9375143D01*
X8320619Y-9375143D01*
X8339667Y-9384667D01*
X8349190Y-9403714D01*
X8349190Y-9508476D01*
X8444429Y-9508476D02*
X8444429Y-9375143D01*
X8444429Y-9394190D02*
X8453952Y-9384667D01*
X8473000Y-9375143D01*
X8501571Y-9375143D01*
X8520619Y-9384667D01*
X8530143Y-9403714D01*
X8530143Y-9508476D01*
X8530143Y-9403714D02*
X8539667Y-9384667D01*
X8558714Y-9375143D01*
X8587286Y-9375143D01*
X8606333Y-9384667D01*
X8615857Y-9403714D01*
X8615857Y-9508476D01*
X9006333Y-9298952D02*
X8834905Y-9556095D01*
X9263476Y-9308476D02*
X9282524Y-9308476D01*
X9301571Y-9318000D01*
X9311095Y-9327524D01*
X9320619Y-9346571D01*
X9330143Y-9384667D01*
X9330143Y-9432286D01*
X9320619Y-9470381D01*
X9311095Y-9489429D01*
X9301571Y-9498952D01*
X9282524Y-9508476D01*
X9263476Y-9508476D01*
X9244429Y-9498952D01*
X9234905Y-9489429D01*
X9225381Y-9470381D01*
X9215857Y-9432286D01*
X9215857Y-9384667D01*
X9225381Y-9346571D01*
X9234905Y-9327524D01*
X9244429Y-9318000D01*
X9263476Y-9308476D01*
X9415857Y-9489429D02*
X9425381Y-9498952D01*
X9415857Y-9508476D01*
X9406333Y-9498952D01*
X9415857Y-9489429D01*
X9415857Y-9508476D01*
X9549190Y-9308476D02*
X9568238Y-9308476D01*
X9587286Y-9318000D01*
X9596810Y-9327524D01*
X9606333Y-9346571D01*
X9615857Y-9384667D01*
X9615857Y-9432286D01*
X9606333Y-9470381D01*
X9596810Y-9489429D01*
X9587286Y-9498952D01*
X9568238Y-9508476D01*
X9549190Y-9508476D01*
X9530143Y-9498952D01*
X9520619Y-9489429D01*
X9511095Y-9470381D01*
X9501571Y-9432286D01*
X9501571Y-9384667D01*
X9511095Y-9346571D01*
X9520619Y-9327524D01*
X9530143Y-9318000D01*
X9549190Y-9308476D01*
X9787286Y-9375143D02*
X9787286Y-9508476D01*
X9739667Y-9298952D02*
X9692048Y-9441810D01*
X9815857Y-9441810D01*
X9873000Y-9308476D02*
X9996810Y-9308476D01*
X9930143Y-9384667D01*
X9958714Y-9384667D01*
X9977762Y-9394190D01*
X9987286Y-9403714D01*
X9996810Y-9422762D01*
X9996810Y-9470381D01*
X9987286Y-9489429D01*
X9977762Y-9498952D01*
X9958714Y-9508476D01*
X9901571Y-9508476D01*
X9882524Y-9498952D01*
X9873000Y-9489429D01*
X10063476Y-9308476D02*
X10187286Y-9308476D01*
X10120619Y-9384667D01*
X10149190Y-9384667D01*
X10168238Y-9394190D01*
X10177762Y-9403714D01*
X10187286Y-9422762D01*
X10187286Y-9470381D01*
X10177762Y-9489429D01*
X10168238Y-9498952D01*
X10149190Y-9508476D01*
X10092048Y-9508476D01*
X10073000Y-9498952D01*
X10063476Y-9489429D01*
X10263476Y-9308476D02*
X10263476Y-9346571D01*
X10339667Y-9308476D02*
X10339667Y-9346571D01*
X10634905Y-9584667D02*
X10625381Y-9575143D01*
X10606333Y-9546571D01*
X10596810Y-9527524D01*
X10587286Y-9498952D01*
X10577762Y-9451333D01*
X10577762Y-9413238D01*
X10587286Y-9365619D01*
X10596810Y-9337048D01*
X10606333Y-9318000D01*
X10625381Y-9289429D01*
X10634905Y-9279905D01*
X10701571Y-9327524D02*
X10711095Y-9318000D01*
X10730143Y-9308476D01*
X10777762Y-9308476D01*
X10796810Y-9318000D01*
X10806333Y-9327524D01*
X10815857Y-9346571D01*
X10815857Y-9365619D01*
X10806333Y-9394190D01*
X10692048Y-9508476D01*
X10815857Y-9508476D01*
X11053952Y-9508476D02*
X11053952Y-9308476D01*
X11139667Y-9508476D02*
X11139667Y-9403714D01*
X11130143Y-9384667D01*
X11111095Y-9375143D01*
X11082524Y-9375143D01*
X11063476Y-9384667D01*
X11053952Y-9394190D01*
X11263476Y-9508476D02*
X11244428Y-9498952D01*
X11234905Y-9489429D01*
X11225381Y-9470381D01*
X11225381Y-9413238D01*
X11234905Y-9394190D01*
X11244428Y-9384667D01*
X11263476Y-9375143D01*
X11292048Y-9375143D01*
X11311095Y-9384667D01*
X11320619Y-9394190D01*
X11330143Y-9413238D01*
X11330143Y-9470381D01*
X11320619Y-9489429D01*
X11311095Y-9498952D01*
X11292048Y-9508476D01*
X11263476Y-9508476D01*
X11444428Y-9508476D02*
X11425381Y-9498952D01*
X11415857Y-9479905D01*
X11415857Y-9308476D01*
X11596809Y-9498952D02*
X11577762Y-9508476D01*
X11539667Y-9508476D01*
X11520619Y-9498952D01*
X11511095Y-9479905D01*
X11511095Y-9403714D01*
X11520619Y-9384667D01*
X11539667Y-9375143D01*
X11577762Y-9375143D01*
X11596809Y-9384667D01*
X11606333Y-9403714D01*
X11606333Y-9422762D01*
X11511095Y-9441810D01*
X11682524Y-9498952D02*
X11701571Y-9508476D01*
X11739667Y-9508476D01*
X11758714Y-9498952D01*
X11768238Y-9479905D01*
X11768238Y-9470381D01*
X11758714Y-9451333D01*
X11739667Y-9441810D01*
X11711095Y-9441810D01*
X11692048Y-9432286D01*
X11682524Y-9413238D01*
X11682524Y-9403714D01*
X11692048Y-9384667D01*
X11711095Y-9375143D01*
X11739667Y-9375143D01*
X11758714Y-9384667D01*
X11834905Y-9584667D02*
X11844428Y-9575143D01*
X11863476Y-9546571D01*
X11873000Y-9527524D01*
X11882524Y-9498952D01*
X11892048Y-9451333D01*
X11892048Y-9413238D01*
X11882524Y-9365619D01*
X11873000Y-9337048D01*
X11863476Y-9318000D01*
X11844428Y-9289429D01*
X11834905Y-9279905D01*
M02*
